<svg width="804" height="77" viewBox="0 0 804 77" fill="none" xmlns="http://www.w3.org/2000/svg">
<path d="M488.612 3.66363C491.221 4.22376 493.03 5.76244 494.017 7.87892C495.01 10.0093 495.186 12.7614 494.431 15.7369L420.833 305.773C419.474 311.133 415.389 315.929 410.081 317.304C402.309 319.319 388.996 321.62 368.728 321.62C348.421 321.62 335.967 319.31 328.968 317.297C326.633 316.625 325.051 315.1 324.211 313.069C323.365 311.025 323.263 308.441 323.964 305.678L397.4 16.2793L396.915 16.1563L397.4 16.2793C398.95 10.168 403.961 4.83626 410.014 3.6939C418.156 2.15727 431.365 0.5 450.467 0.5C469.456 0.5 481.506 2.13758 488.612 3.66363Z" stroke="#52606D"/>
<path d="M797.425 3.66363C800.033 4.22376 801.842 5.76244 802.829 7.87892C803.823 10.0093 803.998 12.7614 803.243 15.7369L729.646 305.773C728.286 311.133 724.202 315.929 718.894 317.304C711.121 319.319 697.808 321.62 677.54 321.62C657.233 321.62 644.779 319.31 637.78 317.297C635.445 316.625 633.863 315.1 633.023 313.069C632.178 311.025 632.075 308.441 632.777 305.678L706.212 16.2793C707.763 10.168 712.773 4.83626 718.826 3.6939C726.968 2.15727 740.177 0.5 759.279 0.5C778.268 0.5 790.318 2.13758 797.425 3.66363Z" stroke="#52606D"/>
<path d="M644.519 3.66363C647.127 4.22376 648.936 5.76244 649.923 7.87892C650.916 10.0093 651.092 12.7614 650.337 15.7369L576.739 305.773C575.38 311.133 571.295 315.929 565.987 317.304C558.215 319.319 544.902 321.62 524.634 321.62C504.327 321.62 491.873 319.31 484.874 317.297C482.539 316.625 480.957 315.1 480.117 313.069C479.271 311.025 479.169 308.441 479.87 305.678L553.306 16.2793C554.857 10.168 559.867 4.83626 565.92 3.6939C574.062 2.15727 587.271 0.5 606.373 0.5C625.362 0.5 637.412 2.13758 644.519 3.66363Z" stroke="#52606D"/>
<path d="M409.052 3.66364L409.052 3.66363C416.158 2.13758 428.208 0.5 447.197 0.5C466.299 0.5 479.508 2.15727 487.65 3.6939C493.702 4.83626 498.713 10.168 500.264 16.2793L500.748 16.1563L500.264 16.2793L573.7 305.678C574.401 308.441 574.298 311.025 573.453 313.069C572.613 315.1 571.031 316.625 568.696 317.297C561.697 319.31 549.243 321.62 528.936 321.62C508.668 321.62 495.355 319.319 487.582 317.304C482.274 315.929 478.191 311.133 476.83 305.773L403.233 15.7369C403.233 15.7369 403.233 15.7369 403.233 15.7369C402.478 12.7614 402.653 10.0093 403.647 7.87894C404.634 5.76246 406.443 4.22377 409.052 3.66364Z" stroke="#52606D"/>
<path d="M561.958 3.66364L561.958 3.66363C569.064 2.13758 581.114 0.5 600.103 0.5C619.205 0.5 632.414 2.15727 640.556 3.6939C646.609 4.83626 651.619 10.168 653.17 16.2793L726.606 305.678C727.307 308.441 727.205 311.025 726.359 313.069C725.519 315.1 723.937 316.625 721.602 317.297C714.603 319.31 702.15 321.62 681.842 321.62C661.574 321.62 648.261 319.319 640.488 317.304C635.18 315.929 631.097 311.133 629.736 305.773L556.139 15.7369C556.139 15.7369 556.139 15.7369 556.139 15.7369C555.384 12.7614 555.56 10.0093 556.553 7.87894C557.54 5.76246 559.349 4.22377 561.958 3.66364Z" stroke="#52606D"/>
<path d="M82.6125 3.66363C85.2208 4.22376 87.0296 5.76244 88.0167 7.87892C89.0101 10.0093 89.1856 12.7614 88.4308 15.7369L14.8334 305.773C13.4736 311.133 9.38934 315.929 4.08134 317.304C-3.69135 319.319 -17.004 321.62 -37.2718 321.62C-57.5793 321.62 -70.0334 319.31 -77.0323 317.297C-79.3673 316.625 -80.9493 315.1 -81.7893 313.069C-82.6348 311.025 -82.7372 308.441 -82.0359 305.678L-8.60017 16.2793L-9.08482 16.1563L-8.60017 16.2793C-7.0496 10.168 -2.0389 4.83626 4.01395 3.6939C12.1559 2.15727 25.3646 0.5 44.4669 0.5C63.4555 0.5 75.5058 2.13758 82.6125 3.66363Z" stroke="#52606D"/>
<path d="M391.425 3.66363C394.033 4.22376 395.842 5.76244 396.829 7.87892C397.823 10.0093 397.998 12.7614 397.243 15.7369L323.646 305.773C322.286 311.133 318.202 315.929 312.894 317.304C305.121 319.319 291.808 321.62 271.54 321.62C251.233 321.62 238.779 319.31 231.78 317.297C229.445 316.625 227.863 315.1 227.023 313.069C226.178 311.025 226.075 308.441 226.777 305.678L300.212 16.2793C301.763 10.168 306.773 4.83626 312.826 3.6939C320.968 2.15727 334.177 0.5 353.279 0.5C372.268 0.5 384.318 2.13758 391.425 3.66363Z" stroke="#52606D"/>
<path d="M238.519 3.66363C241.127 4.22376 242.936 5.76244 243.923 7.87892C244.916 10.0093 245.092 12.7614 244.337 15.7369L170.739 305.773C169.38 311.133 165.295 315.929 159.987 317.304C152.215 319.319 138.902 321.62 118.634 321.62C98.3271 321.62 85.8725 319.31 78.8735 317.297C76.5386 316.625 74.9567 315.1 74.1168 313.069C73.2714 311.025 73.1691 308.441 73.8704 305.678L147.306 16.2793C148.857 10.168 153.867 4.83626 159.92 3.6939C168.062 2.15727 181.271 0.5 200.373 0.5C219.362 0.5 231.412 2.13758 238.519 3.66363Z" stroke="#52606D"/>
<path d="M3.05176 3.66364L3.05178 3.66363C10.1577 2.13758 22.208 0.5 41.1966 0.5C60.2989 0.5 73.5076 2.15727 81.6496 3.6939C87.7024 4.83626 92.7131 10.168 94.2637 16.2793L94.7483 16.1563L94.2637 16.2793L167.7 305.678C168.401 308.441 168.298 311.025 167.453 313.069C166.613 315.1 165.031 316.625 162.696 317.297C155.697 319.31 143.243 321.62 122.936 321.62C102.668 321.62 89.3549 319.319 81.5822 317.304C76.2742 315.929 72.1907 311.133 70.8301 305.773L-2.76726 15.7369C-2.76727 15.7369 -2.76727 15.7369 -2.76727 15.7369C-3.52213 12.7614 -3.34665 10.0093 -2.35308 7.87894C-1.36596 5.76246 0.443064 4.22377 3.05176 3.66364Z" stroke="#52606D"/>
<path d="M155.958 3.66364L155.958 3.66363C163.064 2.13758 175.114 0.5 194.103 0.5C213.205 0.5 226.414 2.15727 234.556 3.6939C240.609 4.83626 245.619 10.168 247.17 16.2793L320.606 305.678C321.307 308.441 321.205 311.025 320.359 313.069C319.519 315.1 317.937 316.625 315.602 317.297C308.603 319.31 296.15 321.62 275.842 321.62C255.574 321.62 242.261 319.319 234.488 317.304C229.18 315.929 225.097 311.133 223.736 305.773L150.139 15.7369C150.139 15.7369 150.139 15.7369 150.139 15.7369C149.384 12.7614 149.56 10.0093 150.553 7.87894C151.54 5.76246 153.349 4.22377 155.958 3.66364Z" stroke="#52606D"/>
</svg>
