<svg width="1440" height="1216" viewBox="0 0 1440 1216" fill="none" xmlns="http://www.w3.org/2000/svg">
<rect x="1513.61" y="1215.6" width="110.2" height="1455.2" transform="rotate(-180 1513.61 1215.6)" stroke="url(#paint0_linear_1_2823)" stroke-width="0.8"/>
<rect x="1297.6" y="1215.6" width="110.2" height="1455.2" transform="rotate(-180 1297.6 1215.6)" stroke="url(#paint1_linear_1_2823)" stroke-width="0.8"/>
<rect x="1081.6" y="1215.6" width="110.2" height="1455.2" transform="rotate(-180 1081.6 1215.6)" stroke="url(#paint2_linear_1_2823)" stroke-width="0.8"/>
<rect x="865.6" y="1215.6" width="110.2" height="1455.2" transform="rotate(-180 865.6 1215.6)" stroke="url(#paint3_linear_1_2823)" stroke-width="0.8"/>
<rect x="649.6" y="1215.6" width="110.2" height="1455.2" transform="rotate(-180 649.6 1215.6)" stroke="url(#paint4_linear_1_2823)" stroke-width="0.8"/>
<rect x="433.6" y="1215.6" width="110.2" height="1455.2" transform="rotate(-180 433.6 1215.6)" stroke="url(#paint5_linear_1_2823)" stroke-width="0.8"/>
<rect x="217.6" y="1215.6" width="110.2" height="1455.2" transform="rotate(-180 217.6 1215.6)" stroke="url(#paint6_linear_1_2823)" stroke-width="0.8"/>
<rect x="1.6" y="1215.6" width="110.2" height="1455.2" transform="rotate(-180 1.6 1215.6)" stroke="url(#paint7_linear_1_2823)" stroke-width="0.8"/>
<rect x="1513.6" y="25.4" width="110.2" height="1622.2" transform="rotate(90 1513.6 25.4)" stroke="url(#paint8_linear_1_2823)" stroke-width="0.8"/>
<rect x="1513.6" y="241.401" width="110.2" height="1622.2" transform="rotate(90 1513.6 241.401)" stroke="url(#paint9_linear_1_2823)" stroke-width="0.8"/>
<rect x="1513.6" y="457.402" width="110.2" height="1622.2" transform="rotate(90 1513.6 457.402)" stroke="url(#paint10_linear_1_2823)" stroke-width="0.8"/>
<rect x="1513.6" y="673.396" width="110.2" height="1622.2" transform="rotate(90 1513.6 673.396)" stroke="url(#paint11_linear_1_2823)" stroke-width="0.8"/>
<rect x="1513.6" y="889.397" width="110.2" height="1622.2" transform="rotate(90 1513.6 889.397)" stroke="url(#paint12_linear_1_2823)" stroke-width="0.8"/>
<rect x="1513.6" y="1105.4" width="110.2" height="1622.2" transform="rotate(90 1513.6 1105.4)" stroke="url(#paint13_linear_1_2823)" stroke-width="0.8"/>
<defs>
<linearGradient id="paint0_linear_1_2823" x1="1569.51" y1="1216" x2="1569.51" y2="2672" gradientUnits="userSpaceOnUse">
<stop stop-color="#141E30"/>
<stop offset="1" stop-color="#1F2933"/>
</linearGradient>
<linearGradient id="paint1_linear_1_2823" x1="1353.5" y1="1216" x2="1353.5" y2="2672" gradientUnits="userSpaceOnUse">
<stop stop-color="#141E30"/>
<stop offset="1" stop-color="#1F2933"/>
</linearGradient>
<linearGradient id="paint2_linear_1_2823" x1="1137.5" y1="1216" x2="1137.5" y2="2672" gradientUnits="userSpaceOnUse">
<stop stop-color="#141E30"/>
<stop offset="1" stop-color="#1F2933"/>
</linearGradient>
<linearGradient id="paint3_linear_1_2823" x1="921.5" y1="1216" x2="921.5" y2="2672" gradientUnits="userSpaceOnUse">
<stop stop-color="#141E30"/>
<stop offset="1" stop-color="#1F2933"/>
</linearGradient>
<linearGradient id="paint4_linear_1_2823" x1="705.5" y1="1216" x2="705.5" y2="2672" gradientUnits="userSpaceOnUse">
<stop stop-color="#141E30"/>
<stop offset="1" stop-color="#1F2933"/>
</linearGradient>
<linearGradient id="paint5_linear_1_2823" x1="489.5" y1="1216" x2="489.5" y2="2672" gradientUnits="userSpaceOnUse">
<stop stop-color="#141E30"/>
<stop offset="1" stop-color="#1F2933"/>
</linearGradient>
<linearGradient id="paint6_linear_1_2823" x1="273.5" y1="1216" x2="273.5" y2="2672" gradientUnits="userSpaceOnUse">
<stop stop-color="#141E30"/>
<stop offset="1" stop-color="#1F2933"/>
</linearGradient>
<linearGradient id="paint7_linear_1_2823" x1="57.5" y1="1216" x2="57.5" y2="2672" gradientUnits="userSpaceOnUse">
<stop stop-color="#141E30"/>
<stop offset="1" stop-color="#1F2933"/>
</linearGradient>
<linearGradient id="paint8_linear_1_2823" x1="1569.5" y1="25" x2="1569.5" y2="1648" gradientUnits="userSpaceOnUse">
<stop stop-color="#141E30"/>
<stop offset="1" stop-color="#1F2933"/>
</linearGradient>
<linearGradient id="paint9_linear_1_2823" x1="1569.5" y1="241.001" x2="1569.5" y2="1864" gradientUnits="userSpaceOnUse">
<stop stop-color="#141E30"/>
<stop offset="1" stop-color="#1F2933"/>
</linearGradient>
<linearGradient id="paint10_linear_1_2823" x1="1569.5" y1="457.002" x2="1569.5" y2="2080" gradientUnits="userSpaceOnUse">
<stop stop-color="#141E30"/>
<stop offset="1" stop-color="#1F2933"/>
</linearGradient>
<linearGradient id="paint11_linear_1_2823" x1="1569.5" y1="672.996" x2="1569.5" y2="2296" gradientUnits="userSpaceOnUse">
<stop stop-color="#141E30"/>
<stop offset="1" stop-color="#1F2933"/>
</linearGradient>
<linearGradient id="paint12_linear_1_2823" x1="1569.5" y1="888.997" x2="1569.5" y2="2512" gradientUnits="userSpaceOnUse">
<stop stop-color="#141E30"/>
<stop offset="1" stop-color="#1F2933"/>
</linearGradient>
<linearGradient id="paint13_linear_1_2823" x1="1569.5" y1="1105" x2="1569.5" y2="2728" gradientUnits="userSpaceOnUse">
<stop stop-color="#141E30"/>
<stop offset="1" stop-color="#1F2933"/>
</linearGradient>
</defs>
</svg>
