<svg width="350" height="189" viewBox="0 0 350 189" fill="none" xmlns="http://www.w3.org/2000/svg">
<g clip-path="url(#clip0_6340_50719)">
<path d="M22.1693 157.78L21.0775 163.258C20.9953 163.676 20.9093 164.103 20.8158 164.525C19.9033 164.336 18.9573 164.389 18.0715 164.678C18.7743 165.683 19.404 166.736 19.9559 167.83C19.268 169.95 18.2585 171.909 16.5686 173.326C15.4399 174.252 14.0918 174.87 12.6543 175.123C11.2169 175.376 9.73856 175.254 8.3619 174.769L8.4105 174.553C6.59345 171.027 7.5805 166.581 9.83873 163.325C10.9905 161.718 12.3552 160.276 13.8953 159.037C15.4207 157.765 17.0696 156.625 18.7034 155.5C19.0704 155.247 19.5042 155.11 19.9496 155.106C20.3949 155.101 20.8315 155.229 21.2035 155.474C21.5755 155.719 21.8661 156.069 22.0382 156.48C22.2102 156.891 22.2558 157.344 22.1693 157.78Z" fill="#E4E4E4"/>
<path d="M8.75102 187.948C8.29152 184.601 7.81893 181.211 8.14122 177.828C8.42761 174.823 9.34399 171.889 11.2104 169.483C12.201 168.208 13.4064 167.115 14.7723 166.255C15.1286 166.031 15.4562 166.595 15.1017 166.818C12.7383 168.312 10.9103 170.518 9.88125 173.117C8.74466 176.008 8.56221 179.159 8.75962 182.23C8.87814 184.087 9.12901 185.931 9.38212 187.775C9.4025 187.858 9.39024 187.946 9.34785 188.021C9.30545 188.095 9.23612 188.151 9.15406 188.176C9.07058 188.199 8.98159 188.187 8.9064 188.145C8.83122 188.102 8.77592 188.031 8.75251 187.948L8.75102 187.948Z" fill="#F2F2F2"/>
<path d="M12.6939 20.0519C28.7099 19.7735 44.7276 19.7335 60.747 19.9319C76.7641 20.1316 92.7758 20.5708 108.782 21.2495C117.764 21.6304 126.742 22.0868 135.717 22.6185C136.438 22.6612 136.435 21.5394 135.717 21.4969C119.726 20.5506 103.724 19.8426 87.7104 19.3728C71.699 18.9043 55.6829 18.6753 39.6621 18.6859C30.6722 18.6919 21.6828 18.7734 12.6939 18.9303C11.973 18.9429 11.9707 20.0645 12.6939 20.0519Z" fill="#E6E6E6"/>
<path d="M124.31 13.0197L131.314 12.4985C132.029 12.4453 132.035 11.3232 131.314 11.3769L124.31 11.8981C123.595 11.9513 123.589 13.0734 124.31 13.0197Z" fill="#E6E6E6"/>
<path d="M124.31 19.7502L131.314 19.229C132.029 19.1757 132.035 18.0537 131.314 18.1073L124.31 18.6286C123.595 18.6818 123.589 19.8039 124.31 19.7502Z" fill="#E6E6E6"/>
<path d="M123.783 16.6752L133.74 17.5798C134.459 17.645 134.455 16.523 133.74 16.4581L123.783 15.5535C123.065 15.4882 123.069 16.6103 123.783 16.6752Z" fill="#E6E6E6"/>
<path d="M16.8381 11.5118C16.351 11.5088 15.8739 11.6492 15.4661 11.9155C15.0584 12.1818 14.738 12.5622 14.545 13.0094C14.3291 13.447 14.2624 13.9433 14.3552 14.4224C14.448 14.9015 14.6952 15.337 15.0589 15.6623C15.4009 15.9532 15.811 16.1527 16.251 16.2421C16.6909 16.3315 17.1463 16.3078 17.5747 16.1734C18.0128 16.0204 18.3926 15.7354 18.662 15.3576C18.9314 14.9798 19.0771 14.5278 19.0789 14.0637C19.0985 13.5489 18.959 13.0406 18.6795 12.6079C18.4 12.1751 17.994 11.839 17.5167 11.6451C17.3733 11.6062 17.2203 11.6255 17.091 11.6989C16.9618 11.7722 16.8668 11.8937 16.8268 12.0368C16.7914 12.1801 16.8123 12.3315 16.8852 12.4598C16.9581 12.5881 17.0773 12.6837 17.2185 12.7267C17.3162 12.7645 17.1292 12.6786 17.2205 12.7284C17.258 12.7488 17.2962 12.7673 17.3331 12.7891C17.3644 12.8077 17.3944 12.828 17.4249 12.8479C17.5295 12.9162 17.3738 12.7977 17.4407 12.8591C17.4987 12.9124 17.5562 12.9644 17.6089 13.0231C17.6289 13.0454 17.707 13.1072 17.6463 13.064C17.5998 13.0309 17.6284 13.0387 17.6463 13.0652C17.6599 13.0854 17.6742 13.105 17.6876 13.1252C17.7314 13.1914 17.7711 13.2601 17.8067 13.331C17.8149 13.3474 17.8225 13.3642 17.8308 13.3805C17.8465 13.4111 17.8693 13.4191 17.8324 13.3808C17.7971 13.3442 17.8196 13.3467 17.8322 13.3819C17.8405 13.4051 17.8495 13.4279 17.8576 13.4512C17.8839 13.5268 17.906 13.6039 17.9237 13.682C17.932 13.7181 17.9386 13.7544 17.9456 13.7907C17.9707 13.9195 17.942 13.7106 17.948 13.8063C17.9531 13.8862 17.959 13.9652 17.9576 14.0454C17.957 14.0821 17.9554 14.1187 17.9528 14.1553C17.9515 14.1736 17.9495 14.1918 17.9483 14.2101C17.9425 14.2981 17.9423 14.1779 17.9546 14.1697C17.929 14.2444 17.912 14.3218 17.9039 14.4004C17.8939 14.4352 17.8819 14.4693 17.8708 14.5038C17.8317 14.6242 17.9074 14.4382 17.8658 14.5205C17.8316 14.5911 17.7933 14.6597 17.7512 14.726C17.733 14.7538 17.6641 14.8164 17.7204 14.7728C17.7815 14.7255 17.6883 14.807 17.6685 14.828C17.6429 14.8549 17.6164 14.8809 17.5889 14.906C17.5713 14.9232 17.5528 14.9393 17.5333 14.9543C17.5297 14.9525 17.627 14.8894 17.5746 14.9228C17.5079 14.9653 17.4448 15.0108 17.3746 15.0478C17.3664 15.0521 17.2767 15.0937 17.277 15.0951C17.2732 15.08 17.3925 15.0531 17.3106 15.0796C17.2934 15.0852 17.2765 15.0919 17.2594 15.0976C17.1848 15.1227 17.1087 15.143 17.0315 15.1583C17.0139 15.1618 16.9952 15.1636 16.9778 15.1681C16.9198 15.1831 17.0332 15.1593 17.0366 15.1613C16.9937 15.1595 16.9508 15.1633 16.909 15.1726C16.8294 15.1772 16.7496 15.1771 16.6701 15.1726C16.6517 15.1715 16.6333 15.1697 16.6149 15.1686C16.5721 15.1661 16.5408 15.1353 16.5977 15.1688C16.6415 15.1946 16.6379 15.1757 16.599 15.1686C16.5808 15.1652 16.5626 15.1624 16.5444 15.159C16.4656 15.1442 16.3877 15.1251 16.3111 15.1018C16.2698 15.0892 16.2294 15.0746 16.1887 15.0604C16.171 15.0553 16.1537 15.0486 16.1371 15.0405C16.1369 15.0359 16.242 15.0908 16.1865 15.0609C16.1165 15.0231 16.044 14.9915 15.9756 14.9502C15.9391 14.9282 15.904 14.9042 15.8686 14.8807C15.8529 14.8713 15.8381 14.8606 15.8242 14.8489C15.8253 14.8441 15.9111 14.9236 15.8661 14.8807C15.8091 14.8264 15.7482 14.7779 15.6943 14.7201C15.682 14.7069 15.6703 14.693 15.658 14.6798L15.6461 14.6662C15.6157 14.629 15.6151 14.6292 15.6444 14.6667C15.6741 14.6755 15.6728 14.7081 15.6446 14.6657C15.6345 14.6506 15.6239 14.636 15.6138 14.6209C15.5683 14.556 15.5294 14.4866 15.4979 14.4139C15.5006 14.4117 15.5465 14.5488 15.5114 14.4454C15.5048 14.4258 15.4973 14.4066 15.4909 14.387C15.478 14.3481 15.4666 14.3089 15.4568 14.2691C15.4471 14.2298 15.4422 14.1892 15.4324 14.15C15.4159 14.084 15.442 14.2021 15.439 14.1992C15.4297 14.1899 15.4337 14.1327 15.433 14.119C15.4285 14.031 15.4385 13.9455 15.4401 13.8581C15.4413 13.7903 15.4345 13.9109 15.4331 13.9074C15.4334 13.8871 15.437 13.8669 15.4437 13.8478C15.4539 13.8017 15.4633 13.7556 15.4757 13.7099C15.49 13.6577 15.5063 13.6061 15.5249 13.5552C15.5318 13.5361 15.5402 13.5173 15.5467 13.4981C15.5703 13.4277 15.5 13.5831 15.5387 13.5196C15.5921 13.4323 15.6318 13.3377 15.6885 13.2514C15.7019 13.231 15.7835 13.117 15.7402 13.1746C15.6971 13.2319 15.7845 13.1233 15.8011 13.1048C15.8699 13.0282 15.9508 12.9653 16.022 12.892C16.0642 12.8486 15.9926 12.9134 15.9884 12.9164C16.0104 12.9006 16.032 12.8843 16.0544 12.8689C16.0933 12.842 16.1332 12.8167 16.174 12.7928C16.22 12.7658 16.2721 12.7457 16.3166 12.7172C16.3693 12.6835 16.2764 12.732 16.2747 12.733C16.2988 12.721 16.3239 12.7114 16.3498 12.7043C16.3932 12.6889 16.5821 12.6074 16.6217 12.6329C16.6199 12.6318 16.4783 12.6443 16.5928 12.637C16.6199 12.6352 16.6468 12.6326 16.6739 12.6315C16.7287 12.6292 16.7833 12.6306 16.8381 12.6334C16.9865 12.6324 17.1286 12.573 17.2336 12.4681C17.3385 12.3631 17.3979 12.221 17.3989 12.0726C17.3957 11.9249 17.3356 11.784 17.2311 11.6796C17.1266 11.5751 16.9858 11.5149 16.8381 11.5118Z" fill="#E6E6E6"/>
<path d="M24.6896 11.5118C24.2026 11.5088 23.7255 11.6492 23.3177 11.9155C22.9099 12.1818 22.5896 12.5622 22.3966 13.0094C22.1806 13.447 22.114 13.9433 22.2068 14.4224C22.2996 14.9015 22.5468 15.337 22.9105 15.6623C23.2524 15.9532 23.6626 16.1527 24.1025 16.2421C24.5425 16.3315 24.9979 16.3078 25.4263 16.1734C25.8643 16.0204 26.2442 15.7354 26.5136 15.3576C26.783 14.9798 26.9286 14.5278 26.9305 14.0637C26.9501 13.5489 26.8106 13.0406 26.5311 12.6079C26.2516 12.1751 25.8455 11.839 25.3682 11.6451C25.2248 11.6062 25.0718 11.6255 24.9426 11.6989C24.8134 11.7722 24.7184 11.8937 24.6784 12.0368C24.643 12.1801 24.6639 12.3315 24.7367 12.4598C24.8096 12.5881 24.9289 12.6837 25.0701 12.7267C25.1678 12.7645 24.9808 12.6786 25.072 12.7284C25.1096 12.7488 25.1478 12.7673 25.1846 12.7891C25.216 12.8077 25.2459 12.828 25.2764 12.8479C25.3811 12.9162 25.2253 12.7977 25.2922 12.8591C25.3503 12.9124 25.4078 12.9644 25.4605 13.0231C25.4804 13.0454 25.5586 13.1072 25.4979 13.064C25.4514 13.0309 25.4799 13.0387 25.4978 13.0652C25.5114 13.0854 25.5258 13.105 25.5392 13.1252C25.5829 13.1914 25.6227 13.2601 25.6582 13.331C25.6665 13.3474 25.674 13.3642 25.6824 13.3805C25.6981 13.4111 25.7209 13.4191 25.6839 13.3808C25.6487 13.3442 25.6711 13.3467 25.6838 13.3819C25.692 13.4051 25.7011 13.4279 25.7092 13.4512C25.7355 13.5268 25.7576 13.6039 25.7753 13.682C25.7835 13.7181 25.7901 13.7544 25.7972 13.7907C25.8222 13.9195 25.7936 13.7106 25.7996 13.8063C25.8047 13.8862 25.8105 13.9652 25.8092 14.0454C25.8085 14.0821 25.8069 14.1187 25.8044 14.1553C25.8031 14.1736 25.801 14.1918 25.7998 14.2101C25.794 14.2981 25.7938 14.1779 25.8062 14.1697C25.7805 14.2444 25.7635 14.3218 25.7555 14.4004C25.7454 14.4352 25.7335 14.4693 25.7223 14.5038C25.6833 14.6242 25.759 14.4382 25.7174 14.5205C25.6831 14.5911 25.6449 14.6597 25.6028 14.726C25.5845 14.7538 25.5156 14.8164 25.572 14.7728C25.6331 14.7255 25.5399 14.807 25.52 14.828C25.4945 14.8549 25.468 14.8809 25.4405 14.906C25.4229 14.9232 25.4043 14.9393 25.3849 14.9543C25.3813 14.9525 25.4786 14.8894 25.4261 14.9228C25.3595 14.9653 25.2964 15.0108 25.2262 15.0478C25.218 15.0521 25.1282 15.0937 25.1286 15.0951C25.1247 15.08 25.244 15.0531 25.1621 15.0796C25.1449 15.0852 25.1281 15.0919 25.1109 15.0976C25.0364 15.1227 24.9603 15.143 24.8831 15.1583C24.8654 15.1618 24.8468 15.1636 24.8294 15.1681C24.7714 15.1831 24.8848 15.1593 24.8882 15.1613C24.8453 15.1595 24.8024 15.1633 24.7605 15.1726C24.681 15.1772 24.6012 15.1771 24.5216 15.1726C24.5032 15.1715 24.4848 15.1697 24.4664 15.1686C24.4237 15.1661 24.3923 15.1353 24.4492 15.1688C24.4931 15.1946 24.4894 15.1757 24.4506 15.1686C24.4324 15.1652 24.4141 15.1624 24.396 15.159C24.3172 15.1442 24.2393 15.1251 24.1627 15.1018C24.1214 15.0892 24.081 15.0746 24.0403 15.0604C24.0226 15.0553 24.0053 15.0486 23.9887 15.0405C23.9885 15.0359 24.0936 15.0908 24.0381 15.0609C23.968 15.0231 23.8956 14.9915 23.8272 14.9502C23.7907 14.9282 23.7556 14.9042 23.7201 14.8807C23.7045 14.8713 23.6897 14.8606 23.6757 14.8489C23.6769 14.8441 23.7627 14.9236 23.7177 14.8807C23.6607 14.8264 23.5998 14.7779 23.5459 14.7201C23.5335 14.7069 23.5219 14.693 23.5096 14.6798L23.4977 14.6662C23.4673 14.629 23.4667 14.6292 23.496 14.6667C23.5257 14.6755 23.5243 14.7081 23.4961 14.6657C23.4861 14.6506 23.4754 14.636 23.4654 14.6209C23.4198 14.556 23.381 14.4866 23.3495 14.4139C23.3522 14.4117 23.398 14.5488 23.363 14.4454C23.3564 14.4258 23.3489 14.4066 23.3424 14.387C23.3295 14.3481 23.3182 14.3089 23.3084 14.2691C23.2987 14.2298 23.2937 14.1892 23.284 14.15C23.2675 14.084 23.2936 14.2021 23.2906 14.1992C23.2813 14.1899 23.2852 14.1327 23.2845 14.119C23.28 14.031 23.2901 13.9455 23.2916 13.8581C23.2929 13.7903 23.286 13.9109 23.2846 13.9074C23.285 13.8871 23.2886 13.8669 23.2953 13.8478C23.3054 13.8017 23.3149 13.7556 23.3273 13.7099C23.3415 13.6577 23.3579 13.6061 23.3764 13.5552C23.3834 13.5361 23.3918 13.5173 23.3982 13.4981C23.4219 13.4277 23.3515 13.5831 23.3903 13.5196C23.4437 13.4323 23.4834 13.3377 23.54 13.2514C23.5535 13.231 23.6351 13.117 23.5918 13.1746C23.5486 13.2319 23.6361 13.1233 23.6527 13.1048C23.7215 13.0282 23.8024 12.9653 23.8736 12.892C23.9157 12.8486 23.8441 12.9134 23.8399 12.9164C23.862 12.9006 23.8836 12.8843 23.9059 12.8689C23.9449 12.842 23.9847 12.8167 24.0256 12.7928C24.0716 12.7658 24.1236 12.7457 24.1682 12.7172C24.2209 12.6835 24.1279 12.732 24.1263 12.733C24.1503 12.721 24.1755 12.7114 24.2014 12.7043C24.2448 12.6889 24.4337 12.6074 24.4733 12.6329C24.4715 12.6318 24.3299 12.6443 24.4444 12.637C24.4714 12.6352 24.4984 12.6326 24.5255 12.6315C24.5803 12.6292 24.6349 12.6306 24.6896 12.6334C24.8381 12.6324 24.9802 12.573 25.0851 12.4681C25.1901 12.3631 25.2495 12.221 25.2505 12.0726C25.2473 11.9249 25.1872 11.784 25.0827 11.6796C24.9782 11.5751 24.8374 11.5149 24.6896 11.5118Z" fill="#E6E6E6"/>
<path d="M32.5412 11.5118C32.0542 11.5088 31.577 11.6492 31.1693 11.9155C30.7615 12.1818 30.4411 12.5622 30.2481 13.0094C30.0322 13.447 29.9655 13.9433 30.0583 14.4224C30.1512 14.9015 30.3983 15.337 30.7621 15.6623C31.104 15.9532 31.5141 16.1527 31.9541 16.2421C32.394 16.3315 32.8495 16.3078 33.2778 16.1734C33.7159 16.0204 34.0958 15.7354 34.3651 15.3576C34.6345 14.9798 34.7802 14.5278 34.7821 14.0637C34.8016 13.5489 34.6622 13.0406 34.3826 12.6079C34.1031 12.1751 33.6971 11.839 33.2198 11.6451C33.0764 11.6062 32.9234 11.6255 32.7942 11.6989C32.6649 11.7722 32.57 11.8937 32.5299 12.0368C32.4946 12.1801 32.5154 12.3315 32.5883 12.4598C32.6612 12.5881 32.7805 12.6837 32.9216 12.7267C33.0194 12.7645 32.8323 12.6786 32.9236 12.7284C32.9611 12.7488 32.9993 12.7673 33.0362 12.7891C33.0675 12.8077 33.0975 12.828 33.128 12.8479C33.2327 12.9162 33.0769 12.7977 33.1438 12.8591C33.2018 12.9124 33.2593 12.9644 33.3121 13.0231C33.332 13.0454 33.4101 13.1072 33.3494 13.064C33.303 13.0309 33.3315 13.0387 33.3494 13.0652C33.363 13.0854 33.3774 13.105 33.3908 13.1252C33.4345 13.1914 33.4742 13.2601 33.5098 13.331C33.518 13.3474 33.5256 13.3642 33.534 13.3805C33.5497 13.4111 33.5724 13.4191 33.5355 13.3808C33.5002 13.3442 33.5227 13.3467 33.5353 13.3819C33.5436 13.4051 33.5527 13.4279 33.5607 13.4512C33.587 13.5268 33.6091 13.6039 33.6269 13.682C33.6351 13.7181 33.6417 13.7544 33.6488 13.7907C33.6738 13.9195 33.6451 13.7106 33.6512 13.8063C33.6562 13.8862 33.6621 13.9652 33.6607 14.0454C33.6601 14.0821 33.6585 14.1187 33.6559 14.1553C33.6546 14.1736 33.6526 14.1918 33.6514 14.2101C33.6456 14.2981 33.6454 14.1779 33.6577 14.1697C33.6321 14.2444 33.6151 14.3218 33.607 14.4004C33.597 14.4352 33.5851 14.4693 33.5739 14.5038C33.5349 14.6242 33.6105 14.4382 33.5689 14.5205C33.5347 14.5911 33.4965 14.6597 33.4544 14.726C33.4361 14.7538 33.3672 14.8164 33.4235 14.7728C33.4847 14.7255 33.3915 14.807 33.3716 14.828C33.346 14.8549 33.3195 14.8809 33.2921 14.906C33.2745 14.9232 33.2559 14.9393 33.2364 14.9543C33.2329 14.9525 33.3301 14.8894 33.2777 14.9228C33.2111 14.9653 33.148 15.0108 33.0777 15.0478C33.0696 15.0521 32.9798 15.0937 32.9802 15.0951C32.9763 15.08 33.0956 15.0531 33.0137 15.0796C32.9965 15.0852 32.9796 15.0919 32.9625 15.0976C32.8879 15.1227 32.8118 15.143 32.7347 15.1583C32.717 15.1618 32.6983 15.1636 32.6809 15.1681C32.6229 15.1831 32.7363 15.1593 32.7397 15.1613C32.6969 15.1595 32.654 15.1633 32.6121 15.1726C32.5325 15.1772 32.4528 15.1771 32.3732 15.1726C32.3548 15.1715 32.3364 15.1697 32.318 15.1686C32.2753 15.1661 32.2439 15.1353 32.3008 15.1688C32.3447 15.1946 32.341 15.1757 32.3021 15.1686C32.284 15.1652 32.2657 15.1624 32.2475 15.159C32.1688 15.1442 32.0909 15.1251 32.0142 15.1018C31.973 15.0892 31.9326 15.0746 31.8919 15.0604C31.8741 15.0553 31.8569 15.0486 31.8403 15.0405C31.84 15.0359 31.9451 15.0908 31.8896 15.0609C31.8196 15.0231 31.7471 14.9915 31.6787 14.9502C31.6422 14.9282 31.6072 14.9042 31.5717 14.8807C31.5561 14.8713 31.5412 14.8606 31.5273 14.8489C31.5285 14.8441 31.6142 14.9236 31.5692 14.8807C31.5123 14.8264 31.4514 14.7779 31.3974 14.7201C31.3851 14.7069 31.3734 14.693 31.3611 14.6798L31.3492 14.6662C31.3188 14.629 31.3183 14.6292 31.3475 14.6667C31.3773 14.6755 31.3759 14.7081 31.3477 14.6657C31.3377 14.6506 31.327 14.636 31.3169 14.6209C31.2714 14.556 31.2326 14.4866 31.201 14.4139C31.2038 14.4117 31.2496 14.5488 31.2146 14.4454C31.2079 14.4258 31.2005 14.4066 31.194 14.387C31.1811 14.3481 31.1698 14.3089 31.16 14.2691C31.1503 14.2298 31.1453 14.1892 31.1355 14.15C31.119 14.084 31.1451 14.2021 31.1422 14.1992C31.1328 14.1899 31.1368 14.1327 31.1361 14.119C31.1316 14.031 31.1416 13.9455 31.1432 13.8581C31.1444 13.7903 31.1376 13.9109 31.1362 13.9074C31.1365 13.8871 31.1401 13.8669 31.1468 13.8478C31.157 13.8017 31.1664 13.7556 31.1789 13.7099C31.1931 13.6577 31.2095 13.6061 31.228 13.5552C31.2349 13.5361 31.2434 13.5173 31.2498 13.4981C31.2734 13.4277 31.2031 13.5831 31.2419 13.5196C31.2952 13.4323 31.335 13.3377 31.3916 13.2514C31.405 13.231 31.4866 13.117 31.4433 13.1746C31.4002 13.2319 31.4877 13.1233 31.5042 13.1048C31.573 13.0282 31.6539 12.9653 31.7251 12.892C31.7673 12.8486 31.6957 12.9134 31.6915 12.9164C31.7135 12.9006 31.7351 12.8843 31.7575 12.8689C31.7964 12.842 31.8363 12.8167 31.8772 12.7928C31.9232 12.7658 31.9752 12.7457 32.0198 12.7172C32.0725 12.6835 31.9795 12.732 31.9778 12.733C32.0019 12.721 32.027 12.7114 32.0529 12.7043C32.0964 12.6889 32.2852 12.6074 32.3249 12.6329C32.3231 12.6318 32.1815 12.6443 32.2959 12.637C32.323 12.6352 32.3499 12.6326 32.377 12.6315C32.4318 12.6292 32.4864 12.6306 32.5412 12.6334C32.6896 12.6324 32.8317 12.573 32.9367 12.4681C33.0416 12.3631 33.101 12.221 33.102 12.0726C33.0988 11.9249 33.0387 11.784 32.9342 11.6796C32.8297 11.5751 32.6889 11.5149 32.5412 11.5118Z" fill="#E6E6E6"/>
<path d="M145.966 135.718H8.41411C6.67475 135.716 5.00718 135.024 3.77725 133.795C2.54731 132.565 1.85547 130.897 1.85352 129.158V6.56059C1.85547 4.82121 2.54729 3.15363 3.77722 1.92371C5.00715 0.693779 6.67474 0.00195047 8.41411 0H145.966C147.706 0.00195047 149.373 0.693779 150.603 1.92371C151.833 3.15363 152.525 4.82121 152.527 6.56059V129.158C152.525 130.897 151.833 132.565 150.603 133.795C149.373 135.024 147.706 135.716 145.966 135.718ZM8.41411 0.747758C6.87299 0.749512 5.39549 1.3625 4.30575 2.45224C3.21601 3.54197 2.60303 5.01947 2.60127 6.56059V129.158C2.60307 130.699 3.21607 132.176 4.30581 133.266C5.39554 134.356 6.87302 134.969 8.41411 134.97H145.966C147.507 134.969 148.985 134.356 150.075 133.266C151.164 132.176 151.777 130.699 151.779 129.158V6.56059C151.777 5.01947 151.164 3.54197 150.075 2.45224C148.985 1.3625 147.507 0.749513 145.966 0.747758H8.41411Z" fill="#E6E6E6"/>
<path d="M8.18626 83.4138L56.5584 83.2666L104.684 83.1202L131.831 83.0377C131.977 83.0326 132.115 82.9713 132.216 82.8667C132.317 82.7621 132.373 82.6223 132.373 82.4768C132.373 82.3314 132.317 82.1916 132.216 82.087C132.115 81.9823 131.977 81.9211 131.831 81.916L83.4593 82.0632L35.3339 82.2095L8.18626 82.2921C8.04088 82.2972 7.90314 82.3585 7.80208 82.4631C7.70102 82.5677 7.64453 82.7075 7.64453 82.8529C7.64453 82.9984 7.70102 83.1382 7.80208 83.2428C7.90314 83.3474 8.04088 83.4087 8.18626 83.4138Z" fill="#E6E6E6"/>
<path d="M32.5905 82.5052L32.8896 64.8443C32.9018 64.1223 31.7802 64.1221 31.768 64.8443L31.4688 82.5052C31.4566 83.2273 32.5783 83.2274 32.5905 82.5052Z" fill="#E6E6E6"/>
<path d="M55.7079 82.6958L56.4369 60.497L56.6451 54.1544C56.6688 53.4325 55.5471 53.4333 55.5235 54.1544L54.7946 76.3533L54.5863 82.6958C54.5626 83.4178 55.6843 83.417 55.7079 82.6958Z" fill="#E6E6E6"/>
<path d="M78.7642 43.6318C78.3246 51.4945 77.511 74.6862 77.0714 82.5489C77.031 83.2701 78.1528 83.2678 78.193 82.5489C78.6327 74.6862 79.4462 51.4945 79.8859 43.6318C79.9262 42.9106 78.8044 42.9129 78.7642 43.6318Z" fill="#E6E6E6"/>
<path d="M101.71 74.6594L101.572 82.2167C101.559 82.9387 102.681 82.9388 102.694 82.2167C102.856 73.291 103.273 73.5819 103.319 71.0628C103.332 70.3408 102.21 70.3407 102.197 71.0628C102.197 71.0628 101.872 65.7337 101.71 74.6594Z" fill="#E6E6E6"/>
<path d="M124.186 54.8074L124.312 76.0095L124.349 82.0806C124.354 82.226 124.415 82.3638 124.52 82.4648C124.624 82.5659 124.764 82.6224 124.91 82.6224C125.055 82.6224 125.195 82.5659 125.299 82.4648C125.404 82.3638 125.465 82.226 125.47 82.0806L125.344 60.8785L125.307 54.8074C125.302 54.662 125.241 54.5242 125.136 54.4232C125.032 54.3221 124.892 54.2656 124.746 54.2656C124.601 54.2656 124.461 54.3221 124.357 54.4232C124.252 54.5242 124.191 54.662 124.186 54.8074Z" fill="#E6E6E6"/>
<path d="M8.27709 82.7845C7.34867 80.2332 9.44154 77.7793 11.592 76.6767C14.1684 75.3557 17.1322 75.0562 19.736 73.7828C23.6177 71.8842 26.445 68.4768 28.9608 65.0662C31.5502 61.5557 33.9195 57.7881 37.2098 54.8714C38.9436 53.3002 40.9913 52.1151 43.2175 51.3946C46.0224 50.5193 48.9972 50.4592 51.8956 50.812C57.8846 51.541 63.4365 54.0146 69.2151 55.5868C74.6633 57.069 80.6662 57.9026 86.0138 55.5976C88.7307 54.4265 90.9525 52.4624 93.3389 50.7627C95.6483 49.1005 98.2306 47.8549 100.969 47.082C106.337 45.5893 112.2 45.9879 117.197 48.5113C121.791 50.8011 125.429 54.6402 127.468 59.351C129.837 65.011 129.529 71.336 128.755 77.2934C128.555 78.8333 128.316 80.3681 128.076 81.9021C127.965 82.6082 129.046 82.9124 129.157 82.2003C130.121 76.0572 131.082 69.7195 129.883 63.5377C128.846 58.1399 125.878 53.3048 121.534 49.9373C117.171 46.5605 111.748 44.849 106.238 45.11C103.35 45.244 100.507 45.8762 97.8352 46.9787C95.0613 48.1261 92.7123 49.8268 90.3263 51.6162C87.8732 53.4561 85.3444 54.9779 82.2988 55.578C79.3446 56.16 76.2713 55.9419 73.33 55.3923C67.2611 54.2584 61.6042 51.6591 55.5868 50.3272C50.0117 49.0933 43.9956 48.97 39.0032 52.1196C35.1629 54.5423 32.4494 58.3035 29.8451 61.9354C27.2637 65.5354 24.6497 69.385 20.875 71.8442C18.5724 73.3444 15.984 73.8979 13.4081 74.7416C10.8256 75.5874 8.34641 77.0143 7.29342 79.6601C6.83959 80.7498 6.80473 81.9688 7.19552 83.0827C7.44041 83.7557 8.52476 83.4651 8.27709 82.7845Z" fill="#E6E6E6"/>
<path d="M34.1621 61.3712C33.9028 60.9122 33.4893 60.5599 32.9948 60.3769C32.5004 60.1939 31.9571 60.192 31.4615 60.3717C31.2151 60.4617 30.9893 60.6001 30.7973 60.7788C30.6053 60.9575 30.4512 61.173 30.3439 61.4123C30.3225 61.4632 30.3099 61.5167 30.2924 61.5688C30.2681 61.6081 30.2389 61.6435 30.2171 61.6847C29.9846 62.1479 29.921 62.6777 30.0371 63.1828C30.1532 63.6879 30.4419 64.1367 30.8533 64.4519C31.2647 64.7671 31.7732 64.929 32.2911 64.9096C32.809 64.8903 33.304 64.6909 33.6907 64.3459C34.0972 63.9785 34.3656 63.4829 34.4514 62.9418C34.5371 62.4006 34.435 61.8463 34.1621 61.3712ZM32.7573 62.3237C32.7602 62.3781 32.7619 62.3521 32.7573 62.3237V62.3237ZM32.6145 61.9991C32.609 61.9927 32.6097 61.9934 32.6145 61.9991V61.9991ZM31.9851 62.2521C31.9759 62.237 31.9767 62.2392 31.9851 62.2521V62.2521ZM32.1343 62.3786C32.1558 62.3882 32.1698 62.3907 32.1343 62.3786V62.3786ZM32.2009 62.4104L32.2157 62.4036C32.2121 62.4039 32.2085 62.4032 32.2052 62.4015L32.2057 62.4014L32.2173 62.4029L32.2194 62.4019L32.2127 62.4003C32.2185 62.4001 32.219 62.401 32.2194 62.4019C32.2861 62.3713 32.2411 62.386 32.2024 62.398L32.1999 62.3974C32.1757 62.3851 32.1497 62.3768 32.123 62.3727C32.1205 62.3713 32.1176 62.3703 32.1155 62.3688C32.094 62.3535 31.9855 62.2688 32.0862 62.3576C32.0643 62.3383 32.0426 62.3193 32.022 62.2984C32.0098 62.2859 31.9988 62.2724 31.9891 62.258C31.9759 62.2353 31.9631 62.2124 31.9507 62.1894L31.9488 62.177C31.9471 62.1666 31.9459 62.1623 31.9445 62.1561C31.9452 62.1497 31.9462 62.1428 31.9472 62.1361C31.9547 62.116 31.9595 62.0949 31.9615 62.0734L31.9658 62.068C31.9819 62.0455 31.996 62.0193 32.0114 61.9959C31.9301 62.1194 32.0432 61.9823 32.0516 61.9649C32.0531 61.9619 32.0505 61.9636 32.0512 61.9615C32.0544 61.9597 32.0534 61.9609 32.0574 61.9586C32.0826 61.9438 32.1065 61.9272 32.1321 61.9131C32.1625 61.8962 32.2825 61.8621 32.1581 61.8977C32.1863 61.8896 32.2135 61.8794 32.242 61.8719C32.2472 61.8706 32.2891 61.8647 32.3117 61.8607C32.3315 61.8602 32.3507 61.8596 32.3528 61.8596C32.3621 61.8597 32.3714 61.8609 32.3807 61.8613C32.36 61.864 32.4516 61.8838 32.4788 61.888C32.4827 61.8911 32.4847 61.893 32.49 61.897C32.513 61.9137 32.541 61.9287 32.5652 61.9444C32.4568 61.8742 32.5666 61.9499 32.5874 61.9706C32.5997 61.983 32.6112 61.9962 32.6228 62.0093C32.6335 62.0217 32.6432 62.0349 32.6517 62.0489C32.6695 62.0815 32.6884 62.1145 32.7071 62.1465L32.7123 62.1547C32.7122 62.1558 32.7121 62.1569 32.7121 62.1579C32.7219 62.2099 32.7362 62.2609 32.7551 62.3104C32.756 62.3146 32.7567 62.3188 32.7572 62.3231C32.7589 62.3515 32.7613 62.3799 32.7614 62.4086L32.7611 62.4143C32.6747 62.3693 32.5789 62.3455 32.4815 62.3448C32.3841 62.3441 32.2879 62.3666 32.2009 62.4104Z" fill="#E6E6E6"/>
<path d="M58.0898 50.9025C57.8306 50.4434 57.417 50.0911 56.9226 49.9081C56.4281 49.7251 55.8849 49.7233 55.3892 49.903C55.1428 49.9929 54.917 50.1313 54.725 50.3101C54.5331 50.4888 54.3789 50.7042 54.2717 50.9435C54.2502 50.9944 54.2376 51.0479 54.2201 51.1C54.1958 51.1393 54.1666 51.1748 54.1448 51.2159C53.9124 51.6791 53.8487 52.2089 53.9648 52.714C54.081 53.2192 54.3696 53.668 54.781 53.9832C55.1924 54.2984 55.7009 54.4602 56.2188 54.4409C56.7367 54.4215 57.2317 54.2222 57.6185 53.8771C58.025 53.5097 58.2934 53.0142 58.3791 52.473C58.4649 51.9318 58.3628 51.3776 58.0898 50.9025ZM56.685 51.855C56.688 51.9093 56.6896 51.8833 56.685 51.855V51.855ZM56.5422 51.5303C56.5367 51.524 56.5374 51.5247 56.5422 51.5303V51.5303ZM55.9129 51.7834C55.9036 51.7683 55.9045 51.7704 55.9129 51.7834V51.7834ZM56.0621 51.9099C56.0835 51.9194 56.0976 51.922 56.0621 51.9099V51.9099ZM56.1287 51.9416L56.1434 51.9348C56.1398 51.9352 56.1362 51.9345 56.133 51.9328L56.1334 51.9327L56.145 51.9341L56.1471 51.9331L56.1404 51.9316C56.1462 51.9314 56.1467 51.9322 56.1471 51.9331C56.2138 51.9026 56.1688 51.9172 56.1301 51.9292L56.1276 51.9286C56.1034 51.9164 56.0774 51.908 56.0507 51.904C56.0482 51.9026 56.0453 51.9016 56.0432 51.9001C56.0217 51.8848 55.9132 51.8 56.0139 51.8889C55.992 51.8695 55.9703 51.8505 55.9497 51.8296C55.9376 51.8172 55.9265 51.8036 55.9168 51.7892C55.9036 51.7666 55.8908 51.7437 55.8784 51.7206L55.8765 51.7082C55.8749 51.6979 55.8736 51.6936 55.8723 51.6874C55.8729 51.681 55.8739 51.6741 55.8749 51.6674C55.8824 51.6472 55.8872 51.6261 55.8892 51.6047L55.8935 51.5992C55.9096 51.5767 55.9237 51.5505 55.9391 51.5272C55.8578 51.6506 55.9709 51.5135 55.9793 51.4962C55.9808 51.4932 55.9783 51.4948 55.9789 51.4928C55.9822 51.4909 55.9812 51.4922 55.9851 51.4899C56.0103 51.475 56.0342 51.4585 56.0598 51.4443C56.0902 51.4274 56.2102 51.3934 56.0858 51.4289C56.1141 51.4209 56.1412 51.4107 56.1698 51.4032C56.1749 51.4018 56.2168 51.396 56.2394 51.3919C56.2592 51.3914 56.2785 51.3908 56.2805 51.3908C56.2898 51.391 56.2991 51.3921 56.3084 51.3925C56.2878 51.3953 56.3793 51.4151 56.4065 51.4192C56.4104 51.4223 56.4124 51.4243 56.4177 51.4282C56.4407 51.445 56.4687 51.4599 56.4929 51.4756C56.3845 51.4055 56.4943 51.4812 56.5151 51.5019C56.5275 51.5143 56.5389 51.5275 56.5505 51.5405C56.5612 51.5529 56.5709 51.5662 56.5794 51.5801C56.5972 51.6127 56.6161 51.6457 56.6348 51.6778L56.64 51.686C56.6399 51.6871 56.6398 51.6881 56.6398 51.6892C56.6496 51.7412 56.6639 51.7922 56.6828 51.8416C56.6837 51.8458 56.6844 51.8501 56.6849 51.8543C56.6866 51.8828 56.689 51.9112 56.6891 51.9398L56.6888 51.9456C56.6025 51.9006 56.5066 51.8767 56.4092 51.876C56.3118 51.8753 56.2157 51.8978 56.1287 51.9416Z" fill="#E6E6E6"/>
<path d="M81.2714 40.4337C81.0122 39.9747 80.5986 39.6224 80.1042 39.4394C79.6098 39.2564 79.0665 39.2545 78.5709 39.4342C78.3245 39.5242 78.0986 39.6626 77.9067 39.8413C77.7147 40.02 77.5606 40.2355 77.4533 40.4748C77.4318 40.5257 77.4193 40.5792 77.4017 40.6313C77.3774 40.6706 77.3482 40.706 77.3265 40.7472C77.094 41.2104 77.0304 41.7402 77.1465 42.2453C77.2626 42.7504 77.5512 43.1992 77.9626 43.5144C78.3741 43.8296 78.8825 43.9915 79.4005 43.9721C79.9184 43.9528 80.4134 43.7534 80.8001 43.4084C81.2066 43.041 81.475 42.5454 81.5608 42.0043C81.6465 41.4631 81.5444 40.9088 81.2714 40.4337ZM79.8667 41.3862C79.8696 41.4406 79.8713 41.4146 79.8667 41.3862V41.3862ZM79.7239 41.0616C79.7184 41.0552 79.7191 41.0559 79.7239 41.0616V41.0616ZM79.0945 41.3146C79.0853 41.2995 79.0861 41.3017 79.0945 41.3146V41.3146ZM79.2437 41.4411C79.2652 41.4507 79.2792 41.4532 79.2437 41.4411V41.4411ZM79.3103 41.4729L79.3251 41.4661C79.3215 41.4664 79.3178 41.4657 79.3146 41.464L79.315 41.4639L79.3266 41.4654L79.3288 41.4644L79.3221 41.4628C79.3279 41.4626 79.3284 41.4635 79.3288 41.4644C79.3955 41.4338 79.3505 41.4485 79.3118 41.4605L79.3092 41.4599C79.285 41.4476 79.2591 41.4393 79.2323 41.4352C79.2298 41.4338 79.2269 41.4328 79.2248 41.4313C79.2034 41.416 79.0948 41.3313 79.1955 41.4201C79.1736 41.4008 79.1519 41.3818 79.1313 41.3609C79.1192 41.3484 79.1082 41.3349 79.0984 41.3205C79.0852 41.2978 79.0724 41.2749 79.06 41.2519L79.0581 41.2395C79.0565 41.2291 79.0553 41.2248 79.0539 41.2186C79.0545 41.2122 79.0556 41.2053 79.0566 41.1986C79.0641 41.1785 79.0689 41.1574 79.0708 41.1359L79.0751 41.1305C79.0913 41.108 79.1054 41.0818 79.1207 41.0584C79.0395 41.1819 79.1525 41.0448 79.161 41.0274C79.1624 41.0244 79.1599 41.0261 79.1605 41.024C79.1638 41.0222 79.1628 41.0234 79.1668 41.0211C79.192 41.0063 79.2158 40.9897 79.2414 40.9756C79.2719 40.9587 79.3919 40.9246 79.2674 40.9602C79.2957 40.9521 79.3228 40.9419 79.3514 40.9344C79.3566 40.9331 79.3985 40.9272 79.421 40.9232C79.4409 40.9227 79.4601 40.9221 79.4621 40.9221C79.4714 40.9222 79.4807 40.9234 79.4901 40.9238C79.4694 40.9265 79.5609 40.9463 79.5881 40.9505C79.592 40.9536 79.594 40.9555 79.5994 40.9595C79.6224 40.9762 79.6503 40.9912 79.6746 41.0069C79.5661 40.9367 79.676 41.0124 79.6967 41.0331C79.7091 41.0455 79.7205 41.0587 79.7322 41.0718C79.7429 41.0842 79.7525 41.0974 79.7611 41.1114C79.7788 41.144 79.7978 41.177 79.8164 41.209L79.8216 41.2172C79.8215 41.2183 79.8215 41.2194 79.8215 41.2204C79.8312 41.2724 79.8456 41.3234 79.8644 41.3729C79.8653 41.3771 79.866 41.3813 79.8665 41.3856C79.8683 41.414 79.8707 41.4424 79.8707 41.4711L79.8705 41.4768C79.7841 41.4318 79.6883 41.408 79.5909 41.4073C79.4935 41.4066 79.3973 41.4291 79.3103 41.4729Z" fill="#E6E6E6"/>
<path d="M104.826 69.2228C104.567 68.7637 104.153 68.4114 103.659 68.2284C103.164 68.0454 102.621 68.0436 102.126 68.2233C101.879 68.3132 101.653 68.4517 101.461 68.6304C101.269 68.8091 101.115 69.0245 101.008 69.2639C100.987 69.3147 100.974 69.3682 100.956 69.4203C100.932 69.4596 100.903 69.4951 100.881 69.5362C100.649 69.9994 100.585 70.5292 100.701 71.0344C100.817 71.5395 101.106 71.9883 101.517 72.3035C101.929 72.6187 102.437 72.7805 102.955 72.7612C103.473 72.7418 103.968 72.5425 104.355 72.1975C104.761 71.83 105.03 71.3345 105.115 70.7933C105.201 70.2521 105.099 69.6979 104.826 69.2228ZM103.421 70.1753C103.424 70.2296 103.426 70.2036 103.421 70.1753V70.1753ZM103.279 69.8506C103.273 69.8443 103.274 69.845 103.279 69.8506V69.8506ZM102.649 70.1037C102.64 70.0886 102.641 70.0907 102.649 70.1037V70.1037ZM102.798 70.2302C102.82 70.2397 102.834 70.2423 102.798 70.2302V70.2302ZM102.865 70.2619L102.88 70.2551C102.876 70.2555 102.872 70.2548 102.869 70.2531L102.87 70.253L102.881 70.2544L102.883 70.2535L102.877 70.2519C102.883 70.2517 102.883 70.2526 102.883 70.2535C102.95 70.2229 102.905 70.2376 102.866 70.2495L102.864 70.2489C102.84 70.2367 102.814 70.2283 102.787 70.2243C102.785 70.2229 102.782 70.2219 102.78 70.2204C102.758 70.2051 102.65 70.1203 102.75 70.2092C102.728 70.1899 102.707 70.1708 102.686 70.15C102.674 70.1375 102.663 70.124 102.653 70.1095C102.64 70.0869 102.627 70.064 102.615 70.041L102.613 70.0285C102.611 70.0182 102.61 70.0139 102.609 70.0077C102.609 70.0013 102.61 69.9944 102.611 69.9877C102.619 69.9675 102.624 69.9464 102.625 69.925L102.63 69.9195C102.646 69.8971 102.66 69.8708 102.675 69.8475C102.594 69.9709 102.707 69.8338 102.716 69.8165C102.717 69.8135 102.715 69.8151 102.715 69.8131C102.718 69.8112 102.717 69.8125 102.721 69.8102C102.747 69.7953 102.771 69.7788 102.796 69.7646C102.827 69.7477 102.947 69.7137 102.822 69.7492C102.85 69.7412 102.878 69.731 102.906 69.7235C102.911 69.7222 102.953 69.7163 102.976 69.7122C102.996 69.7117 103.015 69.7111 103.017 69.7112C103.026 69.7113 103.035 69.7124 103.045 69.7128C103.024 69.7156 103.116 69.7354 103.143 69.7395C103.147 69.7426 103.149 69.7446 103.154 69.7485C103.177 69.7653 103.205 69.7802 103.229 69.7959C103.121 69.7258 103.231 69.8015 103.251 69.8222C103.264 69.8346 103.275 69.8478 103.287 69.8608C103.298 69.8732 103.307 69.8865 103.316 69.9005C103.334 69.933 103.352 69.966 103.371 69.9981L103.376 70.0063C103.376 70.0074 103.376 70.0084 103.376 70.0095C103.386 70.0615 103.4 70.1125 103.419 70.1619C103.42 70.1661 103.421 70.1704 103.421 70.1746C103.423 70.2031 103.425 70.2315 103.425 70.2601L103.425 70.2659C103.339 70.2209 103.243 70.197 103.146 70.1963C103.048 70.1956 102.952 70.2181 102.865 70.2619Z" fill="#E6E6E6"/>
<path d="M126.885 52.0236C126.625 51.5645 126.212 51.2122 125.717 51.0292C125.223 50.8462 124.68 50.8444 124.184 51.0241C123.938 51.114 123.712 51.2524 123.52 51.4312C123.328 51.6099 123.174 51.8253 123.067 52.0646C123.045 52.1155 123.033 52.169 123.015 52.2211C122.991 52.2604 122.962 52.2959 122.94 52.337C122.707 52.8002 122.644 53.33 122.76 53.8351C122.876 54.3402 123.165 54.7891 123.576 55.1043C123.987 55.4195 124.496 55.5813 125.014 55.562C125.532 55.5426 126.027 55.3433 126.413 54.9982C126.82 54.6308 127.088 54.1353 127.174 53.5941C127.26 53.0529 127.158 52.4987 126.885 52.0236ZM125.48 52.9761C125.483 53.0304 125.485 53.0044 125.48 52.9761V52.9761ZM125.337 52.6514C125.332 52.6451 125.332 52.6458 125.337 52.6514V52.6514ZM124.708 52.9045C124.699 52.8893 124.699 52.8915 124.708 52.9045V52.9045ZM124.857 53.031C124.878 53.0405 124.892 53.043 124.857 53.031V53.031ZM124.924 53.0627L124.938 53.0559C124.935 53.0563 124.931 53.0556 124.928 53.0539L124.928 53.0538L124.94 53.0552L124.942 53.0542L124.935 53.0527C124.941 53.0525 124.942 53.0533 124.942 53.0542C125.009 53.0237 124.964 53.0383 124.925 53.0503L124.922 53.0497C124.898 53.0375 124.872 53.0291 124.846 53.025C124.843 53.0237 124.84 53.0226 124.838 53.0212C124.817 53.0059 124.708 52.9211 124.809 53.01C124.787 52.9906 124.765 52.9716 124.745 52.9507C124.732 52.9383 124.721 52.9247 124.712 52.9103C124.699 52.8876 124.686 52.8648 124.673 52.8417L124.671 52.8293C124.67 52.819 124.669 52.8147 124.667 52.8085C124.668 52.802 124.669 52.7952 124.67 52.7885C124.677 52.7683 124.682 52.7472 124.684 52.7258L124.688 52.7203C124.705 52.6978 124.719 52.6716 124.734 52.6482C124.653 52.7717 124.766 52.6346 124.774 52.6173C124.776 52.6143 124.773 52.6159 124.774 52.6139C124.777 52.612 124.776 52.6133 124.78 52.611C124.805 52.5961 124.829 52.5796 124.855 52.5654C124.885 52.5485 125.005 52.5145 124.881 52.55C124.909 52.542 124.936 52.5317 124.965 52.5243C124.97 52.5229 125.012 52.5171 125.034 52.513C125.054 52.5125 125.073 52.5119 125.075 52.5119C125.085 52.5121 125.094 52.5132 125.103 52.5136C125.083 52.5164 125.174 52.5362 125.201 52.5403C125.205 52.5434 125.207 52.5454 125.213 52.5493C125.236 52.5661 125.264 52.581 125.288 52.5967C125.179 52.5266 125.289 52.6023 125.31 52.623C125.322 52.6354 125.334 52.6486 125.345 52.6616C125.356 52.674 125.366 52.6873 125.374 52.7012C125.392 52.7338 125.411 52.7668 125.43 52.7989L125.435 52.8071C125.435 52.8081 125.435 52.8092 125.435 52.8103C125.444 52.8623 125.459 52.9133 125.478 52.9627C125.479 52.9669 125.479 52.9711 125.48 52.9754C125.482 53.0039 125.484 53.0323 125.484 53.0609L125.484 53.0667C125.397 53.0217 125.302 52.9978 125.204 52.9971C125.107 52.9964 125.011 53.0189 124.924 53.0627Z" fill="#E6E6E6"/>
<path d="M118.894 70.19L101.51 71.1562C101.412 71.1617 101.316 71.1294 101.241 71.0659C101.166 71.0024 101.118 70.9126 101.108 70.8151C101.097 70.7175 101.124 70.6196 101.184 70.5414C101.243 70.4633 101.33 70.411 101.427 70.3952L119.196 67.5039L118.894 70.19Z" fill="#3F3D56"/>
<path d="M140.988 108.892L147.539 97.8711L152.381 100.158C152.381 100.158 144.038 110.579 143.772 110.878C143.886 111.385 143.843 111.914 143.65 112.396C143.456 112.877 143.121 113.289 142.689 113.576C142.256 113.863 141.747 114.012 141.228 114.004C140.709 113.995 140.204 113.829 139.782 113.527C139.359 113.226 139.038 112.803 138.861 112.315C138.684 111.827 138.659 111.297 138.79 110.795C138.92 110.292 139.201 109.841 139.593 109.502C139.986 109.162 140.472 108.95 140.988 108.892Z" fill="#FFB6B6"/>
<path d="M143.712 83.291L154.326 88.8284C154.989 89.3062 155.545 89.9172 155.959 90.6223C156.373 91.3273 156.635 92.111 156.728 92.9231C156.822 93.7352 156.745 94.5579 156.503 95.3386C156.26 96.1193 155.858 96.8408 155.32 97.457L148.003 105.85L144.816 101.531L147.273 96.394L142.516 95.1395L143.712 83.291Z" fill="#F35826"/>
<path d="M113.466 70.3698L112.271 83.1352L106.916 83.1441C106.916 83.1441 109.988 70.1533 110.1 69.7685C109.78 69.3597 109.592 68.8634 109.56 68.3452C109.528 67.827 109.655 67.3115 109.922 66.8667C110.19 66.4219 110.587 66.0689 111.059 65.8543C111.532 65.6397 112.059 65.5737 112.57 65.6649C113.081 65.7562 113.552 66.0005 113.921 66.3654C114.29 66.7304 114.54 67.1988 114.637 67.7088C114.734 68.2187 114.675 68.7462 114.465 69.2213C114.256 69.6965 113.908 70.097 113.466 70.3698Z" fill="#FFB6B6"/>
<path d="M124.126 96.4742L111.801 94.214C106.611 93.5899 104.481 90.175 105.418 86.8442L108.431 76.125L113.162 78.6615L113.144 84.3558L119.767 83.4503L124.126 96.4742Z" fill="#F35826"/>
<path d="M119.081 184.693H115.692L114.08 171.621H119.082L119.081 184.693Z" fill="#FFB6B6"/>
<path d="M119.201 188.228L108.779 188.228V188.096C108.779 187.02 109.207 185.989 109.967 185.228C110.728 184.467 111.76 184.04 112.836 184.04L114.739 182.596L118.291 184.04L119.201 184.04L119.201 188.228Z" fill="#1F2933"/>
<path d="M143.059 184.693H146.448L148.06 171.621H143.059L143.059 184.693Z" fill="#FFB6B6"/>
<path d="M142.94 188.228L153.361 188.228V188.096C153.361 187.02 152.933 185.989 152.173 185.228C151.412 184.467 150.38 184.04 149.305 184.04L147.401 182.596L143.849 184.04L142.939 184.04L142.94 188.228Z" fill="#1F2933"/>
<path d="M113.93 162.016C113.98 161.27 114.378 157.145 114.378 157.145L115.332 148.397L117.012 125.208L118.509 119.113L125.921 122.001L131.936 119.118L139.085 121.403L144.652 123.49C144.652 123.49 144.661 124.384 144.704 125.463C144.761 126.876 144.861 128.609 145.099 129.059C145.497 129.855 145.397 134.128 145.397 134.128C145.397 134.128 145.793 142.821 146.291 143.774C146.789 144.727 146.889 146.712 146.739 147.11C146.589 147.508 147.237 157.948 147.237 157.948C147.237 157.948 148.901 176.422 147.857 179.208C146.813 181.994 142.869 180.169 142.869 180.169C142.869 180.169 143.06 179.426 141.916 179.075C140.772 178.725 137.288 152.529 137.288 152.529C137.288 152.529 136.64 147.158 136.044 145.618C135.448 144.079 134.9 139.754 134.9 139.754C134.9 139.754 131.221 132.596 131.173 131.004C131.173 131.004 130.692 129.514 130.237 131.154C129.782 132.793 128.44 136.72 128.44 136.72L127.132 141.544L125.593 148.75L124.596 154.817C124.596 154.817 123.105 162.869 122.866 163.217C122.628 163.565 122.866 170.921 122.866 170.921C122.866 170.921 121.713 177.186 120.083 178.279C118.453 179.373 114.135 178.297 114.135 178.297C114.135 178.297 113.88 162.761 113.93 162.016Z" fill="#1F2933"/>
<path d="M119.471 99.5013L118.524 111.771L117.101 113.244C116.973 113.377 116.872 113.534 116.806 113.706C116.74 113.879 116.71 114.063 116.716 114.247C116.723 114.432 116.767 114.613 116.845 114.78C116.924 114.948 117.035 115.097 117.173 115.22L116.389 116.565L116.111 120.801C116.032 121.13 116.027 121.473 116.095 121.805C116.164 122.137 116.305 122.45 116.509 122.721C116.712 122.992 116.973 123.215 117.273 123.373C117.572 123.532 117.903 123.623 118.242 123.638L142.78 124.791C143.117 124.807 143.453 124.749 143.765 124.62C144.077 124.492 144.356 124.297 144.584 124.049C144.812 123.8 144.983 123.505 145.084 123.184C145.186 122.862 145.215 122.522 145.171 122.188L143.084 106.48V105.306L142.15 103.037L142.63 95.4385L143.747 83.3776L137.256 81.7009L133.736 79.2793L127.621 79.3767L123.911 82.4238L118.964 83.1986L115.223 83.9423L114.746 84.978L115.699 84.7709L119.154 98.2459L119.471 99.5013Z" fill="#F35826"/>
<path d="M130.543 77.6348C134.521 77.6348 137.746 74.4098 137.746 70.4317C137.746 66.4535 134.521 63.2285 130.543 63.2285C126.565 63.2285 123.34 66.4535 123.34 70.4317C123.34 74.4098 126.565 77.6348 130.543 77.6348Z" fill="#FFB6B6"/>
<path d="M128.806 77.1713L134.011 76.9059C134.678 76.8718 135.405 76.813 135.89 76.3541C136.151 76.0707 136.352 75.7373 136.48 75.3741C136.962 74.2565 137.443 73.1389 137.912 72.0161C138.56 70.463 139.197 68.8232 139.031 67.1483C138.993 66.3834 138.672 65.6601 138.131 65.1178C137.855 64.8565 137.5 64.694 137.122 64.6557C136.744 64.6173 136.364 64.7054 136.041 64.906C135.961 64.3762 135.761 63.8717 135.457 63.4304C135.153 62.9891 134.753 62.6228 134.287 62.359C133.345 61.8387 132.27 61.6107 131.198 61.704C129.642 61.8043 128.157 62.3895 126.952 63.3774C126.613 63.6903 126.251 63.9772 125.869 64.2358C125.676 64.3643 125.46 64.4522 125.233 64.4943C125.005 64.5363 124.772 64.5316 124.547 64.4804C124.323 64.4207 124.129 64.2822 124 64.0905C123.871 63.8989 123.816 63.6669 123.844 63.4376C123.478 63.7116 123.226 64.1124 123.139 64.5617C123.052 65.011 123.136 65.4766 123.373 65.8677C123.103 65.9809 122.808 66.0223 122.518 65.9879C122.227 65.9535 121.95 65.8444 121.713 65.6713C121.46 65.7969 121.236 65.974 121.055 66.1913C120.875 66.4085 120.741 66.6611 120.664 66.9329C120.586 67.2047 120.566 67.4896 120.605 67.7695C120.644 68.0494 120.741 68.3181 120.89 68.5583C121.039 68.7985 121.236 69.005 121.47 69.1646C121.703 69.3241 121.967 69.4332 122.245 69.4848C122.523 69.5364 122.808 69.5294 123.083 69.4643C123.358 69.3992 123.617 69.2774 123.842 69.1066C124.158 69.549 124.04 70.1502 123.999 70.6923C123.958 71.2343 124.103 71.9079 124.626 72.0577C125.332 72.2603 125.904 71.3091 126.639 71.3192C126.82 71.334 126.995 71.3932 127.148 71.4917C127.301 71.5902 127.427 71.725 127.515 71.8839C127.688 72.2034 127.807 72.5495 127.866 72.908L128.807 77.1418" fill="#1F2933"/>
<path d="M331.727 141.938C331.727 140.822 331.353 139.917 330.893 139.915H205.514C205.052 139.917 204.68 140.822 204.678 141.938V187.854C204.678 187.957 204.639 188.057 204.57 188.134C204.5 188.211 204.404 188.259 204.301 188.269C203.965 188.301 203.628 188.331 203.292 188.359C203.283 188.359 203.275 188.361 203.267 188.361C203.084 188.378 202.901 188.39 202.717 188.405H202.715C202.621 188.23 202.528 188.055 202.436 187.878C202.405 187.818 202.389 187.752 202.389 187.684V139.314C202.389 139.006 202.401 138.696 202.422 138.39C202.452 137.97 202.504 137.552 202.578 137.137C202.93 135.204 203.725 133.895 204.628 133.891H331.777C331.909 133.891 332.039 133.919 332.16 133.972C332.338 134.05 332.498 134.163 332.632 134.303C332.815 134.492 332.971 134.706 333.097 134.937C333.615 135.97 333.913 137.099 333.973 138.252C333.973 138.265 333.975 138.277 333.975 138.29C334.004 138.627 334.018 138.97 334.016 139.314L334.045 143.773L334.064 146.433L334.12 154.778L334.141 157.741L334.233 188.165C334.233 188.276 334.189 188.382 334.111 188.46C334.033 188.538 333.927 188.581 333.817 188.581H332.143C332.033 188.581 331.927 188.538 331.849 188.46C331.771 188.382 331.727 188.276 331.727 188.165V141.938Z" fill="#E6E6E6"/>
<path d="M297.657 113.023H284.147C283.956 113.024 283.773 113.1 283.638 113.235C283.503 113.371 283.428 113.554 283.428 113.745V135.086H298.379V113.745C298.379 113.65 298.36 113.556 298.324 113.469C298.288 113.381 298.235 113.302 298.168 113.235C298.101 113.168 298.021 113.115 297.933 113.078C297.846 113.042 297.752 113.023 297.657 113.023ZM290.948 125.149C290.525 125.147 290.121 124.979 289.822 124.68C289.523 124.381 289.354 123.977 289.353 123.554V121.093C289.353 120.669 289.521 120.264 289.82 119.965C290.119 119.665 290.525 119.497 290.948 119.497C291.371 119.497 291.777 119.665 292.076 119.965C292.375 120.264 292.543 120.669 292.543 121.093V123.554C292.541 123.977 292.372 124.381 292.074 124.68C291.775 124.979 291.37 125.147 290.948 125.149Z" fill="#CCCCCC"/>
<path d="M283.381 134.404V136.463C283.381 136.57 283.424 136.672 283.499 136.748C283.574 136.823 283.677 136.866 283.783 136.866H298.022C298.129 136.865 298.231 136.823 298.306 136.747C298.382 136.672 298.424 136.57 298.425 136.463V134.404H283.381Z" fill="#3F3D56"/>
<path d="M320.029 79.7188H262.28C261.784 79.7195 261.308 79.917 260.957 80.2678C260.606 80.6186 260.409 81.0943 260.408 81.5904V120.56C260.409 121.056 260.606 121.532 260.957 121.883C261.308 122.233 261.784 122.431 262.28 122.431H320.029C320.525 122.431 321.001 122.233 321.352 121.883C321.703 121.532 321.9 121.056 321.9 120.56V81.5904C321.9 81.0943 321.702 80.6186 321.351 80.2678C321.001 79.917 320.525 79.7195 320.029 79.7188Z" fill="#E6E6E6"/>
<path d="M319.547 81.0703H262.763C262.497 81.0709 262.242 81.1768 262.055 81.3649C261.867 81.5529 261.762 81.8077 261.762 82.0734V120.077C261.762 120.342 261.868 120.596 262.055 120.784C262.243 120.972 262.497 121.077 262.763 121.078H319.547C319.812 121.077 320.067 120.972 320.254 120.784C320.442 120.596 320.548 120.342 320.548 120.077V82.0734C320.548 81.8077 320.443 81.5529 320.255 81.3649C320.067 81.1768 319.813 81.0709 319.547 81.0703Z" fill="white"/>
<path d="M308.485 137.582H274.702C274.609 137.582 274.518 137.562 274.434 137.522C274.351 137.482 274.277 137.424 274.219 137.352C274.161 137.281 274.119 137.197 274.097 137.107C274.076 137.017 274.074 136.923 274.093 136.833L274.618 134.343C274.647 134.204 274.724 134.079 274.835 133.989C274.945 133.899 275.083 133.85 275.226 133.85H307.961C308.103 133.85 308.241 133.899 308.352 133.989C308.463 134.079 308.539 134.204 308.569 134.343L309.093 136.833C309.112 136.923 309.111 137.017 309.089 137.107C309.068 137.197 309.026 137.281 308.968 137.352C308.909 137.424 308.836 137.482 308.752 137.522C308.669 137.562 308.578 137.582 308.485 137.582Z" fill="#CCCCCC"/>
<path d="M276.325 134.297H275.649C275.549 134.297 275.467 134.379 275.467 134.479V134.739C275.467 134.839 275.549 134.921 275.649 134.921H276.325C276.426 134.921 276.507 134.839 276.507 134.739V134.479C276.507 134.379 276.426 134.297 276.325 134.297Z" fill="#E6E6E6"/>
<path d="M278.405 134.297H277.729C277.629 134.297 277.547 134.379 277.547 134.479V134.739C277.547 134.839 277.629 134.921 277.729 134.921H278.405C278.506 134.921 278.587 134.839 278.587 134.739V134.479C278.587 134.379 278.506 134.297 278.405 134.297Z" fill="#E6E6E6"/>
<path d="M280.487 134.297H279.811C279.711 134.297 279.629 134.379 279.629 134.479V134.739C279.629 134.839 279.711 134.921 279.811 134.921H280.487C280.588 134.921 280.669 134.839 280.669 134.739V134.479C280.669 134.379 280.588 134.297 280.487 134.297Z" fill="#E6E6E6"/>
<path d="M282.567 134.297H281.891C281.791 134.297 281.709 134.379 281.709 134.479V134.739C281.709 134.839 281.791 134.921 281.891 134.921H282.567C282.668 134.921 282.749 134.839 282.749 134.739V134.479C282.749 134.379 282.668 134.297 282.567 134.297Z" fill="#E6E6E6"/>
<path d="M284.649 134.297H283.974C283.873 134.297 283.791 134.379 283.791 134.479V134.739C283.791 134.839 283.873 134.921 283.974 134.921H284.649C284.75 134.921 284.832 134.839 284.832 134.739V134.479C284.832 134.379 284.75 134.297 284.649 134.297Z" fill="#E6E6E6"/>
<path d="M286.729 134.297H286.054C285.953 134.297 285.871 134.379 285.871 134.479V134.739C285.871 134.839 285.953 134.921 286.054 134.921H286.729C286.83 134.921 286.912 134.839 286.912 134.739V134.479C286.912 134.379 286.83 134.297 286.729 134.297Z" fill="#E6E6E6"/>
<path d="M288.811 134.297H288.136C288.035 134.297 287.953 134.379 287.953 134.479V134.739C287.953 134.839 288.035 134.921 288.136 134.921H288.811C288.912 134.921 288.994 134.839 288.994 134.739V134.479C288.994 134.379 288.912 134.297 288.811 134.297Z" fill="#E6E6E6"/>
<path d="M290.891 134.297H290.216C290.115 134.297 290.033 134.379 290.033 134.479V134.739C290.033 134.839 290.115 134.921 290.216 134.921H290.891C290.992 134.921 291.074 134.839 291.074 134.739V134.479C291.074 134.379 290.992 134.297 290.891 134.297Z" fill="#E6E6E6"/>
<path d="M292.973 134.297H292.298C292.197 134.297 292.115 134.379 292.115 134.479V134.739C292.115 134.839 292.197 134.921 292.298 134.921H292.973C293.074 134.921 293.156 134.839 293.156 134.739V134.479C293.156 134.379 293.074 134.297 292.973 134.297Z" fill="#E6E6E6"/>
<path d="M295.053 134.297H294.378C294.277 134.297 294.195 134.379 294.195 134.479V134.739C294.195 134.839 294.277 134.921 294.378 134.921H295.053C295.154 134.921 295.236 134.839 295.236 134.739V134.479C295.236 134.379 295.154 134.297 295.053 134.297Z" fill="#E6E6E6"/>
<path d="M297.133 134.297H296.458C296.357 134.297 296.275 134.379 296.275 134.479V134.739C296.275 134.839 296.357 134.921 296.458 134.921H297.133C297.234 134.921 297.316 134.839 297.316 134.739V134.479C297.316 134.379 297.234 134.297 297.133 134.297Z" fill="#E6E6E6"/>
<path d="M299.215 134.297H298.54C298.439 134.297 298.357 134.379 298.357 134.479V134.739C298.357 134.839 298.439 134.921 298.54 134.921H299.215C299.316 134.921 299.398 134.839 299.398 134.739V134.479C299.398 134.379 299.316 134.297 299.215 134.297Z" fill="#E6E6E6"/>
<path d="M301.295 134.297H300.62C300.519 134.297 300.438 134.379 300.438 134.479V134.739C300.438 134.839 300.519 134.921 300.62 134.921H301.295C301.396 134.921 301.478 134.839 301.478 134.739V134.479C301.478 134.379 301.396 134.297 301.295 134.297Z" fill="#E6E6E6"/>
<path d="M303.378 134.297H302.702C302.601 134.297 302.52 134.379 302.52 134.479V134.739C302.52 134.839 302.601 134.921 302.702 134.921H303.378C303.478 134.921 303.56 134.839 303.56 134.739V134.479C303.56 134.379 303.478 134.297 303.378 134.297Z" fill="#E6E6E6"/>
<path d="M305.458 134.297H304.782C304.681 134.297 304.6 134.379 304.6 134.479V134.739C304.6 134.839 304.681 134.921 304.782 134.921H305.458C305.558 134.921 305.64 134.839 305.64 134.739V134.479C305.64 134.379 305.558 134.297 305.458 134.297Z" fill="#E6E6E6"/>
<path d="M307.54 134.297H306.864C306.763 134.297 306.682 134.379 306.682 134.479V134.739C306.682 134.839 306.763 134.921 306.864 134.921H307.54C307.64 134.921 307.722 134.839 307.722 134.739V134.479C307.722 134.379 307.64 134.297 307.54 134.297Z" fill="#E6E6E6"/>
<path d="M276.299 135.338H275.624C275.523 135.338 275.441 135.42 275.441 135.52V135.78C275.441 135.88 275.523 135.962 275.624 135.962H276.299C276.4 135.962 276.482 135.88 276.482 135.78V135.52C276.482 135.42 276.4 135.338 276.299 135.338Z" fill="#E6E6E6"/>
<path d="M278.381 135.338H277.706C277.605 135.338 277.523 135.42 277.523 135.52V135.78C277.523 135.88 277.605 135.962 277.706 135.962H278.381C278.482 135.962 278.564 135.88 278.564 135.78V135.52C278.564 135.42 278.482 135.338 278.381 135.338Z" fill="#E6E6E6"/>
<path d="M280.461 135.338H279.786C279.685 135.338 279.604 135.42 279.604 135.52V135.78C279.604 135.88 279.685 135.962 279.786 135.962H280.461C280.562 135.962 280.644 135.88 280.644 135.78V135.52C280.644 135.42 280.562 135.338 280.461 135.338Z" fill="#E6E6E6"/>
<path d="M282.544 135.338H281.868C281.767 135.338 281.686 135.42 281.686 135.52V135.78C281.686 135.88 281.767 135.962 281.868 135.962H282.544C282.644 135.962 282.726 135.88 282.726 135.78V135.52C282.726 135.42 282.644 135.338 282.544 135.338Z" fill="#E6E6E6"/>
<path d="M284.624 135.338H283.948C283.847 135.338 283.766 135.42 283.766 135.52V135.78C283.766 135.88 283.847 135.962 283.948 135.962H284.624C284.724 135.962 284.806 135.88 284.806 135.78V135.52C284.806 135.42 284.724 135.338 284.624 135.338Z" fill="#E6E6E6"/>
<path d="M286.706 135.338H286.03C285.929 135.338 285.848 135.42 285.848 135.52V135.78C285.848 135.88 285.929 135.962 286.03 135.962H286.706C286.806 135.962 286.888 135.88 286.888 135.78V135.52C286.888 135.42 286.806 135.338 286.706 135.338Z" fill="#E6E6E6"/>
<path d="M288.786 135.338H288.11C288.009 135.338 287.928 135.42 287.928 135.52V135.78C287.928 135.88 288.009 135.962 288.11 135.962H288.786C288.887 135.962 288.968 135.88 288.968 135.78V135.52C288.968 135.42 288.887 135.338 288.786 135.338Z" fill="#E6E6E6"/>
<path d="M290.866 135.338H290.19C290.09 135.338 290.008 135.42 290.008 135.52V135.78C290.008 135.88 290.09 135.962 290.19 135.962H290.866C290.967 135.962 291.048 135.88 291.048 135.78V135.52C291.048 135.42 290.967 135.338 290.866 135.338Z" fill="#E6E6E6"/>
<path d="M292.948 135.338H292.272C292.172 135.338 292.09 135.42 292.09 135.52V135.78C292.09 135.88 292.172 135.962 292.272 135.962H292.948C293.049 135.962 293.13 135.88 293.13 135.78V135.52C293.13 135.42 293.049 135.338 292.948 135.338Z" fill="#E6E6E6"/>
<path d="M295.028 135.338H294.352C294.252 135.338 294.17 135.42 294.17 135.52V135.78C294.17 135.88 294.252 135.962 294.352 135.962H295.028C295.129 135.962 295.21 135.88 295.21 135.78V135.52C295.21 135.42 295.129 135.338 295.028 135.338Z" fill="#E6E6E6"/>
<path d="M297.11 135.338H296.434C296.334 135.338 296.252 135.42 296.252 135.52V135.78C296.252 135.88 296.334 135.962 296.434 135.962H297.11C297.211 135.962 297.292 135.88 297.292 135.78V135.52C297.292 135.42 297.211 135.338 297.11 135.338Z" fill="#E6E6E6"/>
<path d="M299.19 135.338H298.515C298.414 135.338 298.332 135.42 298.332 135.52V135.78C298.332 135.88 298.414 135.962 298.515 135.962H299.19C299.291 135.962 299.373 135.88 299.373 135.78V135.52C299.373 135.42 299.291 135.338 299.19 135.338Z" fill="#E6E6E6"/>
<path d="M301.272 135.338H300.597C300.496 135.338 300.414 135.42 300.414 135.52V135.78C300.414 135.88 300.496 135.962 300.597 135.962H301.272C301.373 135.962 301.455 135.88 301.455 135.78V135.52C301.455 135.42 301.373 135.338 301.272 135.338Z" fill="#E6E6E6"/>
<path d="M303.352 135.338H302.677C302.576 135.338 302.494 135.42 302.494 135.52V135.78C302.494 135.88 302.576 135.962 302.677 135.962H303.352C303.453 135.962 303.535 135.88 303.535 135.78V135.52C303.535 135.42 303.453 135.338 303.352 135.338Z" fill="#E6E6E6"/>
<path d="M305.434 135.338H304.759C304.658 135.338 304.576 135.42 304.576 135.52V135.78C304.576 135.88 304.658 135.962 304.759 135.962H305.434C305.535 135.962 305.617 135.88 305.617 135.78V135.52C305.617 135.42 305.535 135.338 305.434 135.338Z" fill="#E6E6E6"/>
<path d="M307.514 135.338H306.839C306.738 135.338 306.656 135.42 306.656 135.52V135.78C306.656 135.88 306.738 135.962 306.839 135.962H307.514C307.615 135.962 307.697 135.88 307.697 135.78V135.52C307.697 135.42 307.615 135.338 307.514 135.338Z" fill="#E6E6E6"/>
<path d="M293.571 136.586H285.612C285.511 136.586 285.43 136.668 285.43 136.768V137.028C285.43 137.129 285.511 137.21 285.612 137.21H293.571C293.672 137.21 293.754 137.129 293.754 137.028V136.768C293.754 136.668 293.672 136.586 293.571 136.586Z" fill="#E6E6E6"/>
<path d="M316.691 86.3054H263.558C263.503 86.3042 263.45 86.2814 263.412 86.2419C263.373 86.2024 263.352 86.1494 263.352 86.0941C263.352 86.0389 263.373 85.9858 263.412 85.9463C263.45 85.9068 263.503 85.884 263.558 85.8828H316.691C316.746 85.884 316.799 85.9068 316.837 85.9463C316.876 85.9858 316.898 86.0389 316.898 86.0941C316.898 86.1494 316.876 86.2024 316.837 86.2419C316.799 86.2814 316.746 86.3042 316.691 86.3054Z" fill="#CACACA"/>
<path d="M267.176 84.8052C267.86 84.8052 268.414 84.2385 268.414 83.5393C268.414 82.8402 267.86 82.2734 267.176 82.2734C266.492 82.2734 265.938 82.8402 265.938 83.5393C265.938 84.2385 266.492 84.8052 267.176 84.8052Z" fill="#CCCCCC"/>
<path d="M271.453 84.8052C272.137 84.8052 272.691 84.2385 272.691 83.5393C272.691 82.8402 272.137 82.2734 271.453 82.2734C270.769 82.2734 270.215 82.8402 270.215 83.5393C270.215 84.2385 270.769 84.8052 271.453 84.8052Z" fill="#CCCCCC"/>
<path d="M275.73 84.8052C276.414 84.8052 276.969 84.2385 276.969 83.5393C276.969 82.8402 276.414 82.2734 275.73 82.2734C275.047 82.2734 274.492 82.8402 274.492 83.5393C274.492 84.2385 275.047 84.8052 275.73 84.8052Z" fill="#CCCCCC"/>
<path d="M314.116 82.5859H311.077C311.017 82.5871 310.96 82.6119 310.917 82.6549C310.875 82.6979 310.852 82.7558 310.852 82.816C310.852 82.8763 310.875 82.9341 310.917 82.9771C310.96 83.0201 311.017 83.0449 311.077 83.0461H314.116C314.176 83.0449 314.233 83.0201 314.276 82.9771C314.318 82.9341 314.341 82.8763 314.341 82.816C314.341 82.7558 314.318 82.6979 314.276 82.6549C314.233 82.6119 314.176 82.5871 314.116 82.5859Z" fill="#CCCCCC"/>
<path d="M314.116 83.4492H311.077C311.017 83.4504 310.959 83.4752 310.917 83.5182C310.875 83.5612 310.852 83.6191 310.852 83.6793C310.852 83.7395 310.875 83.7974 310.917 83.8404C310.959 83.8834 311.017 83.9082 311.077 83.9094H314.116C314.176 83.9082 314.233 83.8834 314.275 83.8404C314.318 83.7974 314.341 83.7395 314.341 83.6793C314.341 83.6191 314.318 83.5612 314.275 83.5182C314.233 83.4752 314.176 83.4504 314.116 83.4492Z" fill="#CCCCCC"/>
<path d="M314.116 84.3125H311.077C311.017 84.3137 310.96 84.3385 310.917 84.3815C310.875 84.4245 310.852 84.4823 310.852 84.5426C310.852 84.6028 310.875 84.6607 310.917 84.7037C310.96 84.7467 311.017 84.7715 311.077 84.7727H314.116C314.176 84.7715 314.233 84.7467 314.276 84.7037C314.318 84.6607 314.341 84.6028 314.341 84.5426C314.341 84.4823 314.318 84.4245 314.276 84.3815C314.233 84.3385 314.176 84.3137 314.116 84.3125Z" fill="#CCCCCC"/>
<path d="M291 113C296.523 113 301 108.523 301 103C301 97.4772 296.523 93 291 93C285.477 93 281 97.4772 281 103C281 108.523 285.477 113 291 113Z" fill="#34C759"/>
<path d="M288.34 103.208C288.857 104.22 289.373 105.233 289.89 106.244C290.038 106.536 290.473 106.444 290.559 106.157C291.237 103.896 292.496 101.837 294.193 100.198C294.532 99.8705 294.014 99.3538 293.674 99.6802C291.888 101.405 290.566 103.584 289.852 105.962L290.521 105.874C290.004 104.862 289.488 103.849 288.971 102.838C288.757 102.418 288.125 102.788 288.338 103.207H288.34V103.208Z" fill="white"/>
<path d="M196.184 161.31L193.123 159.846L197.327 147.053L201.845 149.213L196.184 161.31Z" fill="#FFB6B6"/>
<path d="M216.704 159.247C216.482 159.386 216.259 159.523 216.034 159.66C215.587 159.935 215.135 160.204 214.683 160.47C214.456 160.602 214.227 160.735 214 160.865V160.872L213.986 160.874L213.982 160.877L213.636 160.962L213.139 159.649L212.909 159.044L212.586 158.188L211.992 156.621L208.867 148.37L213.725 147.172L213.908 147.916H213.91L214 148.285L215.697 155.169L216.043 156.576L216.055 156.619L216.264 157.459L216.444 158.188L216.644 159.002L216.704 159.247Z" fill="#FFB6B6"/>
<path d="M245.685 130.271C245.377 130.765 245.063 131.258 244.746 131.745C244.156 132.654 243.552 133.548 242.931 134.43C242.931 134.432 242.929 134.432 242.927 134.434C242.565 134.77 242.165 135.062 241.735 135.304C241.717 135.318 241.697 135.327 241.679 135.338C241.363 135.513 241.026 135.648 240.676 135.74C240.55 135.772 240.422 135.803 240.296 135.835C239.842 135.943 239.393 136.035 238.945 136.116C238.149 136.257 237.363 136.359 236.58 136.422C236.517 136.428 236.454 136.433 236.391 136.437C233.174 136.673 230.042 136.293 226.774 135.671C225.159 135.365 223.512 134.999 221.805 134.619C221.248 134.493 220.688 134.369 220.121 134.245C220.079 134.236 220.034 134.225 219.989 134.216C219.179 134.039 218.357 133.863 217.513 133.69C216.452 133.472 215.357 133.261 214.22 133.061L214.301 134.664C214.368 135.897 214.624 137.112 215.061 138.267C215.546 139.688 215.931 140.812 215.119 143.153L214.728 144.286C214.931 144.848 215 145.45 214.931 146.044C214.862 146.639 214.656 147.209 214.33 147.71L214.251 147.829L217.513 156.082L217.725 156.617H216.054L214 156.619H210.517L205.493 146.538L205.252 146.057V146.033L205.771 126.66C205.778 126.489 205.792 126.316 205.814 126.145C205.906 125.369 206.151 124.618 206.536 123.937C206.921 123.256 207.437 122.659 208.055 122.179C208.648 121.717 209.326 121.376 210.052 121.178C210.777 120.979 211.534 120.927 212.28 121.024L214 121.247L217.513 121.701L219.989 122.022L220.038 122.029L227.338 122.973L227.862 120.837L227.958 120.801L231.032 119.675L241.661 115.779L241.688 115.77L242.387 115.514L242.47 115.649C242.495 115.689 242.52 115.729 242.542 115.77C243.233 117.009 243.796 118.315 244.222 119.668C244.937 121.879 245.527 124.128 245.986 126.406C246.007 126.505 246.025 126.595 246.04 126.676L246.047 126.701C246.054 126.739 246.058 126.764 246.061 126.77C246.271 127.949 246.141 129.163 245.685 130.271Z" fill="#1F2933"/>
<path d="M246.134 123.132C246.1 122.988 246.058 122.842 246.013 122.701C245.656 121.628 245.24 120.576 244.767 119.549C244.237 118.38 243.6 117.127 242.843 115.772C242.476 115.115 242.082 114.433 241.66 113.724C241.449 113.368 241.229 113.007 241.001 112.638C240.993 112.621 240.983 112.604 240.972 112.588L240.907 112.48L230.39 113.888L226.474 114.412L226.24 116.363L226.184 116.846C226.182 116.846 226.182 116.846 226.184 116.849L226.026 118.166V118.168L225.817 119.908L225.799 119.906L219.988 119.153L213.999 118.377L210.782 117.962C210.036 117.864 209.279 117.916 208.553 118.115C207.828 118.313 207.15 118.654 206.557 119.117C205.939 119.596 205.423 120.194 205.038 120.875C204.653 121.555 204.408 122.306 204.316 123.083C204.296 123.24 204.282 123.402 204.275 123.562L201.24 130.754C199.424 135.055 198.268 139.605 197.81 144.252L195.584 151.367L195.901 151.396L200.618 151.835L201.863 151.952L204.606 147.948C204.918 147.491 205.215 147.021 205.492 146.54C205.947 145.754 206.352 144.94 206.703 144.103L212.636 129.985C213.095 130.063 213.549 130.138 213.999 130.21C216.078 130.547 218.075 130.822 219.988 131.035C226.209 131.729 231.595 131.783 236.39 131.194C237.737 131.03 239.039 130.814 240.296 130.547C240.756 130.45 241.211 130.346 241.66 130.234C241.766 130.21 241.869 130.185 241.973 130.158C242.902 129.918 243.756 129.449 244.457 128.794C245.158 128.139 245.684 127.319 245.986 126.408C246.346 125.352 246.398 124.216 246.134 123.132Z" fill="#1F2933"/>
<path d="M197.163 159.22L193.851 157.632L193.332 157.383L192.502 159.42L186.711 160.694C186.424 160.757 186.166 160.91 185.972 161.13C185.779 161.35 185.661 161.627 185.636 161.919C185.611 162.211 185.68 162.503 185.833 162.754C185.986 163.004 186.215 163.198 186.486 163.309L192.145 165.618L193.941 164.001L193.5 166.171L195.632 167.041L197.967 159.606L197.163 159.22Z" fill="#1F2933"/>
<path d="M217.514 156.082L217.725 156.617H217.514V156.082Z" fill="#1F2933"/>
<path d="M216.36 156.733L212.89 157.935L212.345 158.123L213.189 160.154L209.971 165.135C209.811 165.381 209.735 165.672 209.752 165.964C209.77 166.257 209.881 166.536 210.068 166.761C210.256 166.987 210.511 167.146 210.796 167.216C211.08 167.286 211.38 167.263 211.651 167.151L217.296 164.81L217.435 162.398L218.648 164.249L220.775 163.368L217.204 156.441L216.36 156.733Z" fill="#1F2933"/>
<path d="M195.3 82.3462C195.465 82.6667 195.698 82.9473 195.982 83.1681C196.267 83.389 196.597 83.5447 196.948 83.6243C197.299 83.704 197.664 83.7056 198.016 83.6291C198.368 83.5526 198.699 83.3999 198.986 83.1816L206.282 88.0254L206.296 83.4744L199.365 79.5724C198.967 79.1151 198.414 78.8199 197.812 78.7428C197.211 78.6656 196.602 78.8119 196.101 79.1538C195.6 79.4957 195.241 80.0095 195.094 80.5979C194.946 81.1863 195.02 81.8084 195.3 82.3462Z" fill="#FFB6B6"/>
<path d="M200.75 84.451L204.154 80.5781L218.016 88.807L236.39 87.1243C237.298 87.0411 238.214 87.1589 239.071 87.4694C239.929 87.7798 240.708 88.2752 241.352 88.9204C241.997 89.5657 242.492 90.3449 242.801 91.2028C243.111 92.0607 243.228 92.9762 243.144 93.8844C242.99 95.5246 242.192 97.0368 240.925 98.0893C239.658 99.1418 238.024 99.6487 236.384 99.4986L215.69 97.5831L200.75 84.451Z" fill="#CCCCCC"/>
<path d="M243.397 84.5093L243.365 84.4692C240.78 84.2141 238.177 84.7144 235.87 85.9094C233.564 87.1043 231.654 88.9427 230.372 91.2015L228.812 93.9484C223.768 100.115 227.434 104.367 227.653 105L225.902 113.072L226.295 115.774L226.491 116.577L246.476 127.019C247.614 121.552 246.514 116.894 242.368 113.335L246.379 100.855C247.268 98.0962 247.461 95.1598 246.941 92.3078C246.421 89.4558 245.203 86.7768 243.397 84.5093Z" fill="#CCCCCC"/>
<path d="M227.506 145.136H221.095C220.743 145.136 220.402 145.008 220.136 144.777C219.87 144.546 219.696 144.226 219.646 143.877C219.251 140.965 219.251 138.012 219.646 135.099C219.695 134.754 219.866 134.438 220.127 134.207C220.388 133.976 220.723 133.846 221.071 133.84C223.088 132.936 225.26 132.936 227.528 133.84C227.739 133.843 227.947 133.892 228.138 133.984C228.328 134.075 228.496 134.208 228.629 134.371C228.769 134.541 228.869 134.74 228.922 134.954C228.974 135.167 228.979 135.39 228.935 135.606C228.42 138.168 228.42 140.808 228.935 143.37C228.979 143.586 228.974 143.809 228.922 144.022C228.869 144.236 228.769 144.435 228.629 144.605C228.493 144.771 228.322 144.905 228.128 144.997C227.933 145.089 227.721 145.137 227.506 145.136Z" fill="#F35826"/>
<path d="M226.835 137.188H221.44C221.395 137.189 221.351 137.18 221.31 137.163C221.269 137.147 221.231 137.122 221.199 137.09C221.168 137.059 221.143 137.022 221.126 136.981C221.108 136.94 221.1 136.895 221.1 136.851C221.1 136.806 221.108 136.762 221.126 136.721C221.143 136.68 221.168 136.643 221.199 136.611C221.231 136.58 221.269 136.555 221.31 136.538C221.351 136.522 221.395 136.513 221.44 136.514H226.835C226.88 136.513 226.924 136.522 226.965 136.538C227.007 136.555 227.044 136.58 227.076 136.611C227.107 136.643 227.133 136.68 227.15 136.721C227.167 136.762 227.176 136.806 227.176 136.851C227.176 136.895 227.167 136.94 227.15 136.981C227.133 137.022 227.107 137.059 227.076 137.09C227.044 137.122 227.007 137.147 226.965 137.163C226.924 137.18 226.88 137.189 226.835 137.188Z" fill="white"/>
<path d="M226.835 139.885H221.44C221.395 139.886 221.351 139.877 221.31 139.861C221.269 139.844 221.231 139.819 221.199 139.788C221.168 139.756 221.143 139.719 221.126 139.678C221.108 139.637 221.1 139.593 221.1 139.548C221.1 139.504 221.108 139.46 221.126 139.418C221.143 139.377 221.168 139.34 221.199 139.309C221.231 139.277 221.269 139.253 221.31 139.236C221.351 139.219 221.395 139.211 221.44 139.211H226.835C226.88 139.211 226.924 139.219 226.965 139.236C227.007 139.253 227.044 139.277 227.076 139.309C227.107 139.34 227.133 139.377 227.15 139.418C227.167 139.46 227.176 139.504 227.176 139.548C227.176 139.593 227.167 139.637 227.15 139.678C227.133 139.719 227.107 139.756 227.076 139.788C227.044 139.819 227.007 139.844 226.965 139.861C226.924 139.877 226.88 139.886 226.835 139.885Z" fill="white"/>
<path d="M226.836 142.583H221.44C221.395 142.583 221.351 142.575 221.31 142.558C221.269 142.541 221.231 142.516 221.2 142.485C221.168 142.454 221.143 142.416 221.126 142.375C221.108 142.334 221.1 142.29 221.1 142.245C221.1 142.201 221.108 142.157 221.126 142.116C221.143 142.075 221.168 142.037 221.2 142.006C221.231 141.975 221.269 141.95 221.31 141.933C221.351 141.916 221.395 141.908 221.44 141.908H226.836C226.88 141.908 226.924 141.916 226.966 141.933C227.007 141.95 227.044 141.975 227.076 142.006C227.108 142.037 227.133 142.075 227.15 142.116C227.167 142.157 227.176 142.201 227.176 142.245C227.176 142.29 227.167 142.334 227.15 142.375C227.133 142.416 227.108 142.454 227.076 142.485C227.044 142.516 227.007 142.541 226.966 142.558C226.924 142.575 226.88 142.583 226.836 142.583Z" fill="white"/>
<path d="M196.475 84.5678H190.064C189.712 84.5676 189.371 84.4401 189.105 84.2089C188.839 83.9776 188.665 83.6581 188.615 83.309C188.219 80.3962 188.219 77.4432 188.615 74.5305C188.664 74.1855 188.834 73.8694 189.095 73.6387C189.357 73.408 189.691 73.2779 190.04 73.2718C192.057 72.3677 194.229 72.3678 196.497 73.2717C196.708 73.2745 196.916 73.3235 197.106 73.4153C197.297 73.507 197.465 73.6393 197.598 73.8029C197.738 73.973 197.837 74.1721 197.89 74.3856C197.943 74.5991 197.948 74.8217 197.904 75.0373C197.389 77.6 197.389 80.2395 197.904 82.8021C197.948 83.0177 197.943 83.2403 197.89 83.4538C197.837 83.6673 197.738 83.8664 197.598 84.0365C197.462 84.203 197.291 84.337 197.096 84.4289C196.902 84.5208 196.69 84.5683 196.475 84.5678Z" fill="#F35826"/>
<path d="M195.804 76.6198H190.409C190.364 76.6202 190.32 76.6117 190.279 76.595C190.237 76.5782 190.2 76.5534 190.168 76.5221C190.137 76.4907 190.111 76.4534 190.094 76.4123C190.077 76.3712 190.068 76.3271 190.068 76.2825C190.068 76.238 190.077 76.1939 190.094 76.1528C190.111 76.1117 190.137 76.0744 190.168 76.043C190.2 76.0117 190.237 75.9869 190.279 75.9701C190.32 75.9534 190.364 75.9449 190.409 75.9453H195.804C195.849 75.9449 195.893 75.9534 195.934 75.9701C195.975 75.9869 196.013 76.0117 196.045 76.043C196.076 76.0744 196.101 76.1117 196.118 76.1528C196.136 76.1939 196.144 76.238 196.144 76.2825C196.144 76.3271 196.136 76.3712 196.118 76.4123C196.101 76.4534 196.076 76.4907 196.045 76.5221C196.013 76.5534 195.975 76.5782 195.934 76.595C195.893 76.6117 195.849 76.6202 195.804 76.6198Z" fill="white"/>
<path d="M195.804 79.317H190.409C190.364 79.3174 190.32 79.309 190.279 79.2922C190.237 79.2755 190.2 79.2507 190.168 79.2193C190.137 79.188 190.111 79.1507 190.094 79.1096C190.077 79.0685 190.068 79.0244 190.068 78.9798C190.068 78.9353 190.077 78.8912 190.094 78.8501C190.111 78.809 190.137 78.7717 190.168 78.7403C190.2 78.709 190.237 78.6842 190.279 78.6674C190.32 78.6506 190.364 78.6422 190.409 78.6426H195.804C195.849 78.6422 195.893 78.6506 195.934 78.6674C195.975 78.6842 196.013 78.709 196.045 78.7403C196.076 78.7717 196.101 78.809 196.118 78.8501C196.136 78.8912 196.144 78.9353 196.144 78.9798C196.144 79.0244 196.136 79.0685 196.118 79.1096C196.101 79.1507 196.076 79.188 196.045 79.2193C196.013 79.2507 195.975 79.2755 195.934 79.2922C195.893 79.309 195.849 79.3174 195.804 79.317Z" fill="white"/>
<path d="M195.804 82.0143H190.409C190.364 82.0147 190.32 82.0063 190.279 81.9896C190.237 81.9728 190.2 81.948 190.168 81.9167C190.137 81.8853 190.111 81.848 190.094 81.8069C190.077 81.7658 190.068 81.7216 190.068 81.6771C190.068 81.6325 190.077 81.5884 190.094 81.5473C190.111 81.5062 190.137 81.4689 190.168 81.4375C190.2 81.4061 190.237 81.3814 190.279 81.3646C190.32 81.3479 190.364 81.3394 190.409 81.3399H195.804C195.849 81.3394 195.893 81.3479 195.934 81.3646C195.976 81.3814 196.013 81.4061 196.045 81.4375C196.077 81.4689 196.102 81.5062 196.119 81.5473C196.136 81.5884 196.145 81.6325 196.145 81.6771C196.145 81.7216 196.136 81.7658 196.119 81.8069C196.102 81.848 196.077 81.8853 196.045 81.9167C196.013 81.948 195.976 81.9728 195.934 81.9896C195.893 82.0063 195.849 82.0147 195.804 82.0143Z" fill="white"/>
<path d="M83.9376 101.019H77.527C77.1744 101.019 76.8338 100.891 76.5676 100.66C76.3014 100.429 76.1276 100.109 76.0781 99.7601C75.6823 96.8474 75.6823 93.8944 76.0781 90.9816C76.1271 90.6367 76.2973 90.3205 76.5584 90.0899C76.8194 89.8592 77.1541 89.7291 77.5024 89.723C79.5194 88.8189 81.6915 88.819 83.9597 89.7229C84.1709 89.7257 84.379 89.7747 84.5692 89.8664C84.7595 89.9582 84.9274 90.0905 85.0611 90.2541C85.2006 90.4242 85.3003 90.6233 85.3532 90.8368C85.406 91.0503 85.4107 91.2729 85.3668 91.4885C84.8518 94.0511 84.8518 96.6906 85.3668 99.2533C85.4107 99.4688 85.406 99.6915 85.3532 99.905C85.3003 100.119 85.2006 100.318 85.0611 100.488C84.9251 100.654 84.7537 100.788 84.5593 100.88C84.365 100.972 84.1526 101.019 83.9376 101.019Z" fill="#F35826"/>
<path d="M83.2651 93.069H77.8695C77.825 93.0694 77.7808 93.0609 77.7395 93.0442C77.6983 93.0274 77.6608 93.0026 77.6291 92.9713C77.5975 92.9399 77.5724 92.9026 77.5553 92.8615C77.5381 92.8204 77.5293 92.7763 77.5293 92.7318C77.5293 92.6872 77.5381 92.6431 77.5553 92.602C77.5724 92.5609 77.5975 92.5236 77.6291 92.4923C77.6608 92.4609 77.6983 92.4361 77.7395 92.4193C77.7808 92.4026 77.825 92.3942 77.8695 92.3945H83.2651C83.3096 92.3942 83.3538 92.4026 83.3951 92.4193C83.4363 92.4361 83.4739 92.4609 83.5055 92.4923C83.5371 92.5236 83.5622 92.5609 83.5794 92.602C83.5965 92.6431 83.6053 92.6872 83.6053 92.7318C83.6053 92.7763 83.5965 92.8204 83.5794 92.8615C83.5622 92.9026 83.5371 92.9399 83.5055 92.9713C83.4739 93.0026 83.4363 93.0274 83.3951 93.0442C83.3538 93.0609 83.3096 93.0694 83.2651 93.069Z" fill="white"/>
<path d="M83.2651 95.7682H77.8695C77.825 95.7686 77.7808 95.7602 77.7395 95.7434C77.6983 95.7266 77.6608 95.7019 77.6291 95.6705C77.5975 95.6391 77.5724 95.6018 77.5553 95.5607C77.5381 95.5196 77.5293 95.4755 77.5293 95.431C77.5293 95.3865 77.5381 95.3424 77.5553 95.3013C77.5724 95.2601 77.5975 95.2228 77.6291 95.1915C77.6608 95.1601 77.6983 95.1354 77.7395 95.1186C77.7808 95.1018 77.825 95.0934 77.8695 95.0938H83.2651C83.3096 95.0934 83.3538 95.1018 83.3951 95.1186C83.4363 95.1354 83.4739 95.1601 83.5055 95.1915C83.5371 95.2228 83.5622 95.2601 83.5794 95.3013C83.5965 95.3424 83.6053 95.3865 83.6053 95.431C83.6053 95.4755 83.5965 95.5196 83.5794 95.5607C83.5622 95.6018 83.5371 95.6391 83.5055 95.6705C83.4739 95.7019 83.4363 95.7266 83.3951 95.7434C83.3538 95.7602 83.3096 95.7686 83.2651 95.7682Z" fill="white"/>
<path d="M83.2653 98.4655H77.8697C77.8252 98.4659 77.781 98.4575 77.7397 98.4407C77.6984 98.424 77.6608 98.3992 77.6292 98.3678C77.5975 98.3365 77.5724 98.2992 77.5553 98.258C77.5381 98.2169 77.5293 98.1728 77.5293 98.1283C77.5293 98.0837 77.5381 98.0396 77.5553 97.9985C77.5724 97.9574 77.5975 97.92 77.6292 97.8887C77.6608 97.8573 77.6984 97.8325 77.7397 97.8158C77.781 97.799 77.8252 97.7906 77.8697 97.791H83.2653C83.3099 97.7906 83.3541 97.799 83.3953 97.8158C83.4366 97.8325 83.4742 97.8573 83.5058 97.8887C83.5375 97.92 83.5626 97.9574 83.5797 97.9985C83.5969 98.0396 83.6057 98.0837 83.6057 98.1283C83.6057 98.1728 83.5969 98.2169 83.5797 98.258C83.5626 98.2992 83.5375 98.3365 83.5058 98.3678C83.4742 98.3992 83.4366 98.424 83.3953 98.4407C83.3541 98.4575 83.3099 98.4659 83.2653 98.4655Z" fill="white"/>
<path d="M229.385 136.942C229.695 136.759 229.961 136.51 230.165 136.213C230.368 135.915 230.504 135.577 230.563 135.221C230.621 134.866 230.601 134.502 230.504 134.155C230.407 133.808 230.235 133.487 230 133.214L234.402 125.643L229.858 125.899L226.375 133.049C225.942 133.474 225.68 134.043 225.639 134.648C225.597 135.253 225.779 135.853 226.15 136.333C226.521 136.812 227.056 137.139 227.652 137.252C228.248 137.364 228.864 137.254 229.385 136.942Z" fill="#FFB6B6"/>
<path d="M231.162 131.376L227.094 128.208L234.486 113.883L231.716 95.6402C231.579 94.7385 231.642 93.8177 231.901 92.9432C232.16 92.0687 232.609 91.2619 233.215 90.5802C233.82 89.8984 234.569 89.3584 235.407 88.9985C236.245 88.6385 237.152 88.4675 238.063 88.4975C239.71 88.5535 241.267 89.2604 242.393 90.463C243.518 91.6656 244.121 93.2657 244.069 94.9122L243.384 115.684L231.162 131.376Z" fill="#CCCCCC"/>
<path d="M34.5406 127.461C34.7968 127.204 34.9934 126.893 35.1166 126.552C35.2398 126.21 35.2866 125.845 35.2537 125.483C35.2207 125.122 35.1089 124.771 34.9259 124.458C34.743 124.144 34.4935 123.874 34.195 123.667L38.1514 104.016L33.7823 105.418L30.6154 124.426C30.3009 124.951 30.1897 125.572 30.303 126.173C30.4162 126.774 30.746 127.313 31.2298 127.687C31.7136 128.061 32.3179 128.245 32.9281 128.203C33.5383 128.162 34.112 127.898 34.5406 127.461Z" fill="#9E616A"/>
<path d="M40.383 85.8851L37.6722 83.8388C37.6722 83.8388 35.2808 83.6694 34.8573 87.982C34.4338 92.2945 33.5641 100.699 33.5641 100.699L29.416 119.911L35.1581 121.172L39.601 100.438L42.2663 94.281L40.383 85.8851Z" fill="#CCCCCC"/>
<path d="M35.9141 117.257L51.1896 117.003L52.4627 106.564H35.9141V117.257Z" fill="#9E616A"/>
<path d="M49.6609 181.491H53.1873L54.8649 167.889L49.6602 167.889L49.6609 181.491Z" fill="#9E616A"/>
<path d="M27.5684 181.818L31.0948 181.793L32.677 168.18L28.0907 169.232L27.5684 181.818Z" fill="#9E616A"/>
<path d="M38.5978 97.5749L37.7988 99.6522L37.9585 101.73L53.5967 107.146L52.8209 98.0542L51.0629 95.9766L38.5978 97.5749Z" fill="#FFB6B6"/>
<path d="M45.308 78.8797C48.3927 78.8797 50.8934 76.379 50.8934 73.2943C50.8934 70.2096 48.3927 67.709 45.308 67.709C42.2233 67.709 39.7227 70.2096 39.7227 73.2943C39.7227 76.379 42.2233 78.8797 45.308 78.8797Z" fill="#9E616A"/>
<path d="M48.7869 179.751L54.3615 179.418V181.806L59.6614 185.467C59.9232 185.647 60.1204 185.907 60.2241 186.208C60.3278 186.509 60.3327 186.835 60.238 187.138C60.1434 187.442 59.9541 187.708 59.6978 187.896C59.4416 188.085 59.1318 188.186 58.8137 188.186H52.1769L51.033 185.824L50.5863 188.186H48.084L48.7869 179.751Z" fill="#1F2933"/>
<path d="M26.3626 180.087L31.9347 179.715L31.9514 182.103L37.2768 185.726C37.5399 185.905 37.7389 186.164 37.8447 186.464C37.9506 186.764 37.9577 187.09 37.8652 187.394C37.7726 187.698 37.5852 187.965 37.3303 188.155C37.0754 188.346 36.7663 188.45 36.4482 188.452L29.8116 188.498L28.6511 186.144L28.221 188.509L25.7188 188.527L26.3626 180.087Z" fill="#1F2933"/>
<path d="M26.4715 171.389L29.0393 150.864L32.0944 129.224C29.8571 125.069 34.895 112.166 34.895 112.166L35.6061 112.2L51.7016 115.237L51.6981 115.221C54.9902 124.2 56.0809 128.636 55.9004 138.198L55.2519 172.57H55.4553C55.793 172.57 56.1167 172.704 56.3555 172.943C56.5942 173.182 56.7283 173.506 56.7283 173.843C56.7283 174.181 56.5942 174.505 56.3555 174.743C56.1167 174.982 55.793 175.116 55.4553 175.116H49.0905C48.9232 175.117 48.7574 175.084 48.6027 175.02C48.448 174.956 48.3074 174.862 48.189 174.744C48.0705 174.626 47.9766 174.486 47.9125 174.331C47.8484 174.176 47.8154 174.011 47.8154 173.843C47.8154 173.676 47.8484 173.51 47.9125 173.356C47.9766 173.201 48.0705 173.061 48.189 172.942C48.3074 172.824 48.448 172.73 48.6027 172.667C48.7574 172.603 48.9232 172.57 49.0905 172.57H49.2546L43.4125 131.643L38.4593 148.827L32.8582 171.232C34.895 170.722 34.5787 171.902 34.5787 172.57C34.5787 172.908 34.4446 173.232 34.2059 173.47C33.9671 173.709 33.6434 173.843 33.3057 173.843H26.9409C26.6449 173.844 26.358 173.741 26.1298 173.552C25.9016 173.364 25.7462 173.101 25.6906 172.811C25.635 172.52 25.6826 172.219 25.8251 171.959C25.9677 171.7 26.1962 171.498 26.4715 171.389Z" fill="#1F2933"/>
<path d="M33.6424 112.835L34.1516 107.743C34.2045 107.535 34.3217 107.349 34.4866 107.212C34.6515 107.075 34.8555 106.994 35.0694 106.98C35.2816 104.555 36.1742 94.0905 36.2275 93.6341L36.2296 93.6148L36.6355 84.944C36.6502 84.629 36.7805 84.3306 37.0013 84.1056C37.2222 83.8807 37.5181 83.7449 37.8327 83.7244L39.9766 83.5842C40.006 83.5832 40.0339 83.5709 40.0543 83.5497C40.0748 83.5285 40.0862 83.5003 40.0862 83.4709C40.0862 83.2341 40.1328 82.9997 40.2235 82.7809C40.3141 82.5622 40.4469 82.3634 40.6143 82.196C40.7817 82.0286 40.9804 81.8958 41.1992 81.8052C41.4179 81.7146 41.6523 81.668 41.8891 81.668H48.2364C48.6475 81.6681 49.0444 81.8184 49.3527 82.0904C49.6609 82.3625 49.8593 82.7377 49.9105 83.1456C49.9133 83.1737 49.9266 83.1997 49.9478 83.2184C49.9689 83.2371 49.9963 83.2471 50.0245 83.2464H50.0253C50.7465 83.2316 51.4492 83.4758 52.0058 83.9347C52.5624 84.3936 52.936 85.0368 53.0589 85.7476C53.9266 90.7965 55.6657 102.255 54.8059 108.626C54.5066 110.844 55.1518 109.087 55.265 110.943C55.2762 111.122 55.252 111.302 55.1936 111.472C55.1353 111.642 55.044 111.798 54.925 111.933C55.1686 112.022 55.3676 112.203 55.4785 112.437C55.5895 112.671 55.6036 112.94 55.5177 113.185L55.6292 113.157C55.5966 113.287 55.5386 113.409 55.4588 113.516C55.379 113.623 55.2788 113.714 55.164 113.782C55.0492 113.851 54.922 113.896 54.7897 113.916C54.6574 113.935 54.5225 113.928 54.3928 113.896L37.7867 116.146C37.2413 116.008 33.5049 113.38 33.6424 112.835Z" fill="#CCCCCC"/>
<path d="M78.0158 92.1316C77.9118 92.4796 77.7327 92.8007 77.4912 93.072C77.2497 93.3434 76.9516 93.5585 76.618 93.7022C76.2843 93.8459 75.9232 93.9147 75.5601 93.9038C75.197 93.8928 74.8407 93.8024 74.5163 93.6388L68.0965 99.4977L67.2441 94.9888L73.4752 90.1309C73.7861 89.6041 74.2793 89.2098 74.8616 89.0224C75.4438 88.8351 76.0745 88.8678 76.6342 89.1144C77.1939 89.3611 77.6436 89.8044 77.8983 90.3605C78.1529 90.9166 78.1947 91.5467 78.0158 92.1316Z" fill="#9E616A"/>
<path d="M55.6715 87.6523C55.6715 87.6523 53.4329 82.5935 50.6056 83.599C47.7783 84.6046 49.2381 89.513 49.2381 89.513L59.8604 105.519C59.8604 105.519 75.1816 95.691 73.3185 95.6215C71.4555 95.5521 70.8982 92.1636 70.8982 92.1636L62.8006 96.2096L62.5267 94.7693L62.0875 95.2084L60.9543 94.3165L55.6715 87.6523Z" fill="#CCCCCC"/>
<path d="M238.79 82.0959C243.097 82.0959 246.588 78.6046 246.588 74.2979C246.588 69.9912 243.097 66.5 238.79 66.5C234.483 66.5 230.992 69.9912 230.992 74.2979C230.992 78.6046 234.483 82.0959 238.79 82.0959Z" fill="#FFB6B6"/>
<path d="M263.816 85.7717C262.916 87.0469 261.603 87.9716 260.099 88.3889C259.497 88.568 258.875 88.6735 258.248 88.7032C258.171 87.9938 257.985 87.3005 257.698 86.6473C257.727 87.3426 257.63 88.0375 257.413 88.6984C256.471 88.645 255.55 88.3982 254.707 87.9735C253.88 87.5572 253.16 86.9538 252.607 86.2111C252.053 85.4684 251.68 84.6069 251.517 83.6949C251.187 81.562 252.154 79.4676 252.504 77.338C252.855 75.2083 252.196 72.5109 250.111 71.9512C248.523 71.5247 248.701 71.7091 247.382 72.6889C248.754 74.7189 243.684 82.1578 241.608 81.5091C240.435 81.1424 239.684 80.0658 239.442 80.0658C237.811 82.8754 240.882 87.6095 237.787 88.5925L238.042 88.3375C239.91 86.0395 236.005 81.1755 237.873 78.8775C238.395 78.2344 238.949 77.4727 238.796 76.6596C238.65 75.8866 237.423 75.4777 237.064 76.1128C237.71 74.6326 236.756 72.6568 235.176 72.2767C233.773 71.9384 233.798 72.3553 232.39 72.5365C232.298 71.928 232.126 71.3344 231.879 70.7709C231.905 71.378 231.834 71.9854 231.669 72.5702C231.171 72.5605 230.691 72.3869 230.302 72.0763C229.154 71.151 229.387 69.2073 230.412 68.1473C231.438 67.0873 232.963 66.7056 234.417 66.4586C234.84 63.5141 242.964 63.207 244.041 66.1491C244.5 63.9521 247.25 62.8119 249.388 63.4935C251.525 64.175 253.009 66.1716 253.79 68.2756C254.571 70.378 254.789 72.6408 255.27 74.8314C255.751 77.022 256.564 79.2527 258.238 80.7458C259.913 82.2372 262.641 82.7311 264.405 81.3455C264.661 82.0777 264.741 82.8599 264.639 83.6289C264.537 84.3979 264.255 85.132 263.816 85.7717Z" fill="#1F2933"/>
<path d="M336.976 103.567L335.884 109.045C335.802 109.464 335.716 109.89 335.622 110.312C334.71 110.123 333.764 110.176 332.878 110.466C333.581 111.47 334.211 112.523 334.763 113.617C334.075 115.737 333.065 117.696 331.375 119.113C330.247 120.039 328.898 120.658 327.461 120.91C326.024 121.163 324.545 121.041 323.169 120.557L323.217 120.34C321.4 116.814 322.387 112.369 324.645 109.112C325.797 107.506 327.162 106.063 328.702 104.824C330.227 103.553 331.876 102.412 333.51 101.287C333.877 101.034 334.311 100.897 334.756 100.893C335.202 100.888 335.638 101.016 336.01 101.261C336.382 101.506 336.673 101.856 336.845 102.267C337.017 102.678 337.062 103.131 336.976 103.567Z" fill="#E4E4E4"/>
<path d="M323.558 133.736C323.098 130.388 322.626 126.998 322.948 123.615C323.234 120.611 324.151 117.676 326.017 115.27C327.008 113.995 328.213 112.903 329.579 112.042C329.935 111.818 330.263 112.382 329.908 112.605C327.545 114.099 325.717 116.305 324.688 118.904C323.551 121.795 323.369 124.946 323.566 128.017C323.685 129.874 323.936 131.718 324.189 133.562C324.209 133.645 324.197 133.733 324.154 133.808C324.112 133.882 324.043 133.938 323.961 133.963C323.877 133.986 323.788 133.974 323.713 133.932C323.638 133.889 323.583 133.818 323.559 133.735L323.558 133.736Z" fill="#F2F2F2"/>
<path d="M349.556 188.804L0.445838 188.919C0.327994 188.919 0.215096 188.872 0.131889 188.788C0.0486814 188.705 0.00195312 188.592 0.00195312 188.474C0.00195312 188.356 0.0486814 188.243 0.131889 188.16C0.215096 188.076 0.327994 188.029 0.445838 188.029L349.556 187.914C349.673 187.914 349.786 187.961 349.869 188.045C349.953 188.128 349.999 188.241 349.999 188.359C349.999 188.477 349.953 188.59 349.869 188.674C349.786 188.757 349.673 188.804 349.556 188.804Z" fill="#CACACA"/>
<path d="M38.7332 69.8732C37.8766 70.2843 36.9177 69.6659 36.1781 69.053L36.4427 69.2815C35.1356 70.5532 34.5245 72.3828 34.2259 74.1839C33.927 75.983 33.8937 77.823 33.5173 79.6094C33.1407 81.3939 32.3594 83.1869 30.9001 84.2799C28.9451 85.7438 26.2487 85.6498 23.8495 85.2011C23.8176 85.1946 23.7878 85.1896 23.7558 85.1831C24.4013 83.3193 24.6638 81.3442 24.5273 79.3764C23.8842 81.3483 22.7894 83.1428 21.3302 84.6168C19.7395 84.1791 18.1868 83.6133 16.6874 82.9251C15.7172 82.4785 14.6726 81.8679 14.4034 80.8341C14.1334 79.808 14.7603 78.7318 15.5984 78.0839C16.4366 77.436 17.4653 77.098 18.4202 76.6364C19.3735 76.177 20.3169 75.522 20.6986 74.5332C21.579 72.2585 19.071 69.6483 20.0484 67.4123C20.5304 66.3128 21.711 65.7147 22.8206 65.2536C24.5146 64.5515 26.254 63.9648 28.0271 63.4974C29.5837 63.0868 31.2089 62.7677 32.7946 63.0369C34.3802 63.306 35.9336 64.2705 36.5043 65.7763C37.4565 66.0982 38.4675 66.4609 39.0786 67.2624C39.6894 68.062 39.6402 69.4386 38.7332 69.8732Z" fill="#1F2933"/>
<path d="M46.3561 67.2389C43.9055 65.3043 41.9241 65.6345 40.3956 66.8365C40.1386 66.5506 39.0451 67.3371 38.6748 67.2241L37.3356 69.7381C36.6465 70.9541 36.3638 72.1955 36.4752 72.8941C35.2076 76.4489 38.2135 78.8494 41.7684 80.1169C43.1868 80.6262 44.7345 80.6486 46.1671 80.1806L46.2108 79.5749L46.48 80.0713C46.48 80.0713 49.7298 86.7628 50.4977 87.0633C50.0317 85.8545 48.8028 80.1097 48.4597 78.9122C47.9893 77.2829 48.3107 74.6943 48.5871 73.1073C48.7594 72.1288 48.7685 71.1286 48.6138 70.1472L48.607 70.1043L49.3673 71.6392L51.0733 70.5665C50.4213 68.6674 50.4083 66.3956 46.3561 67.2389Z" fill="#1F2933"/>
</g>
<defs>
<clipPath id="clip0_6340_50719">
<rect width="350" height="188.92" fill="white"/>
</clipPath>
</defs>
</svg>
