<?xml version="1.0" encoding="UTF-8" standalone="no"?>
<!DOCTYPE svg PUBLIC "-//W3C//DTD SVG 1.1//EN" "http://www.w3.org/Graphics/SVG/1.1/DTD/svg11.dtd">
<svg width="100%" height="100%" viewBox="0 0 24 25" version="1.1" xmlns="http://www.w3.org/2000/svg" xmlns:xlink="http://www.w3.org/1999/xlink" xml:space="preserve" xmlns:serif="http://www.serif.com/" style="fill-rule:evenodd;clip-rule:evenodd;stroke-linejoin:round;stroke-miterlimit:2;">
    <g transform="matrix(0.477311,0,0,0.477311,6.27228,6.53362)">
        <path d="M21.839,12.734C21.839,18.44 17.931,22.5 12.161,22.5C6.629,22.5 2.161,18.032 2.161,12.5C2.161,6.968 6.629,2.5 12.161,2.5C14.855,2.5 17.121,3.488 18.867,5.117L16.145,7.734C12.585,4.298 5.964,6.879 5.964,12.5C5.964,15.988 8.75,18.815 12.161,18.815C16.121,18.815 17.605,15.976 17.839,14.504L12.161,14.504L12.161,11.065L21.681,11.065C21.774,11.577 21.839,12.069 21.839,12.734Z" style="fill:white;fill-rule:nonzero;"/>
    </g>
</svg>
