<?xml version="1.0" encoding="UTF-8" standalone="no"?>
<!DOCTYPE svg PUBLIC "-//W3C//DTD SVG 1.1//EN" "http://www.w3.org/Graphics/SVG/1.1/DTD/svg11.dtd">
<svg width="100%" height="100%" viewBox="0 0 24 25" version="1.1" xmlns="http://www.w3.org/2000/svg" xmlns:xlink="http://www.w3.org/1999/xlink" xml:space="preserve" xmlns:serif="http://www.serif.com/" style="fill-rule:evenodd;clip-rule:evenodd;stroke-linejoin:round;stroke-miterlimit:2;">
    <g transform="matrix(0.530626,0,0,0.530626,5.63249,5.86716)">
        <path d="M17.648,13.069C17.639,11.43 18.381,10.193 19.881,9.282C19.042,8.081 17.773,7.421 16.099,7.291C14.514,7.166 12.781,8.215 12.147,8.215C11.478,8.215 9.942,7.336 8.736,7.336C6.244,7.376 3.597,9.323 3.597,13.283C3.597,14.453 3.811,15.662 4.24,16.909C4.811,18.548 6.874,22.566 9.026,22.499C10.151,22.472 10.946,21.7 12.411,21.7C13.831,21.7 14.567,22.499 15.822,22.499C17.992,22.468 19.859,18.816 20.403,17.172C17.492,15.802 17.648,13.154 17.648,13.069ZM15.121,5.737C16.34,4.291 16.228,2.973 16.193,2.5C15.117,2.563 13.871,3.232 13.161,4.058C12.38,4.942 11.92,6.036 12.018,7.269C13.183,7.358 14.246,6.76 15.121,5.737Z" style="fill:white;fill-rule:nonzero;"/>
    </g>
</svg>
