<svg width="300" height="265" viewBox="0 0 300 265" fill="none" xmlns="http://www.w3.org/2000/svg">
<g clip-path="url(#clip0_5958_51376)">
<path d="M232.358 169.738C232.104 169.299 231.949 168.809 231.904 168.304C231.859 167.798 231.926 167.289 232.099 166.812C232.273 166.336 232.549 165.903 232.907 165.544C233.266 165.185 233.699 164.909 234.176 164.736L233.997 152.404L239.398 155.855L238.74 167.036C238.978 167.857 238.907 168.736 238.54 169.507C238.173 170.279 237.536 170.889 236.749 171.222C235.962 171.555 235.081 171.587 234.272 171.314C233.462 171.04 232.781 170.48 232.358 169.738Z" fill="#A0616A"/>
<path d="M225.849 102.785C224.248 103.068 222.795 103.897 221.737 105.131C220.678 106.365 220.08 107.928 220.045 109.554C219.966 113.163 221.171 114.508 222.873 114.995C226.019 115.894 231.03 134.074 231.03 134.074C231.03 134.074 231.562 151.031 232.42 150.194C233.277 149.356 232.307 151.31 232.567 151.906C232.828 152.503 231.332 153.395 232.754 154.073C234.176 154.75 233.277 160.144 233.277 160.144L239.57 159.694C239.57 159.694 238.525 155.3 239.947 155.025C241.368 154.75 240.722 153.499 240.146 152.552C239.57 151.604 241.165 150.253 240.368 149.804C239.57 149.356 241.817 131.827 241.817 131.827L233.031 105.973C232.287 104.787 231.206 103.85 229.927 103.282C228.647 102.714 227.228 102.541 225.849 102.785Z" fill="#F35826"/>
<path d="M206.758 103.803L211.284 95.8691H217.4L221.987 104.253L206.758 103.803Z" fill="#F35826"/>
<path d="M194.583 32.4543C190.966 20.339 180.748 12.4298 168.401 10.6947C168.265 10.6755 168.136 10.7008 168.001 10.6921C167.826 10.6387 167.647 10.5976 167.467 10.5692C150.487 8.3746 131.95 12.305 117.197 21.5358C103.056 30.384 86.8069 35.3765 70.1258 35.2656C69.6077 35.2621 69.0877 35.2734 68.5656 35.2993C55.7282 35.9398 44.3989 45.2845 40.9285 57.5755C40.473 59.1882 41.2667 60.6291 42.5429 61.5429C44.7855 63.1491 46.3173 64.2749 49.0765 64.8594C53.9998 65.9024 58.9399 66.8614 63.8969 67.7366V47.9917C63.899 46.1224 64.6426 44.3303 65.9643 43.0085C67.2861 41.6867 69.0782 40.9432 70.9475 40.9411H167.795C169.665 40.9432 171.457 41.6867 172.779 43.0085C174.1 44.3303 174.844 46.1224 174.846 47.9917V72.5812C176.174 72.1659 177.471 71.6555 178.726 71.0539C183.398 68.7463 187.39 65.2632 190.308 60.9466C195.915 52.8109 197.396 41.8769 194.583 32.4543Z" fill="#F2F2F2"/>
<path d="M153.806 148.008H68.191C66.2154 148.005 64.3213 147.22 62.9243 145.823C61.5273 144.426 60.7414 142.532 60.7392 140.556V107.335C50.3114 104.143 39.3286 103.18 28.5045 104.51C28.3239 104.538 28.1455 104.579 27.9707 104.632C27.8355 104.641 27.7065 104.616 27.5707 104.635C15.2234 106.37 5.00513 114.279 1.38823 126.395C-1.42499 135.817 0.0559379 146.751 5.66296 154.887C8.58181 159.204 12.5733 162.687 17.2453 164.994C23.6671 168.088 30.4263 168.32 37.4353 168.539C58.4797 169.195 79.5444 168.399 100.479 166.156C110.782 165.051 121.042 163.607 131.259 161.824C136.488 160.908 141.7 159.9 146.895 158.8C149.654 158.215 151.186 157.09 153.428 155.483C154.705 154.569 155.498 153.129 155.043 151.516C154.705 150.322 154.291 149.15 153.806 148.008Z" fill="#F2F2F2"/>
<path d="M161.382 138.152H77.3591C75.7374 138.15 74.1826 137.505 73.0359 136.358C71.8891 135.212 71.2441 133.657 71.2422 132.035V53.9509C71.2441 52.3292 71.8891 50.7744 73.0359 49.6277C74.1826 48.4809 75.7374 47.8359 77.3591 47.834H161.382C163.004 47.8359 164.558 48.4809 165.705 49.6277C166.852 50.7744 167.497 52.3292 167.499 53.9509V132.035C167.497 133.657 166.852 135.212 165.705 136.358C164.558 137.505 163.004 138.15 161.382 138.152Z" fill="#E6E6E6"/>
<path d="M143.698 134.026H81.4861C79.8643 134.024 78.3096 133.379 77.1628 132.232C76.0161 131.085 75.371 129.53 75.3691 127.909V58.0798C75.371 56.4581 76.0161 54.9033 77.1628 53.7566C78.3096 52.6098 79.8643 51.9648 81.4861 51.9629H157.256C158.878 51.9648 160.433 52.6098 161.579 53.7566C162.726 54.9033 163.371 56.4581 163.373 58.0798V114.35C163.367 119.567 161.292 124.568 157.604 128.256C153.915 131.945 148.914 134.02 143.698 134.026Z" fill="white"/>
<path d="M119.371 120.412C134.514 120.412 146.789 108.137 146.789 92.9941C146.789 77.8516 134.514 65.5762 119.371 65.5762C104.229 65.5762 91.9531 77.8516 91.9531 92.9941C91.9531 108.137 104.229 120.412 119.371 120.412Z" fill="#F35826"/>
<path d="M130.921 91.616L121.771 80.4897C121.523 80.1879 121.212 79.9436 120.86 79.7738C120.508 79.604 120.124 79.5127 119.733 79.5062C119.342 79.4998 118.955 79.5783 118.597 79.7363C118.24 79.8944 117.921 80.1282 117.663 80.4217L107.879 91.5479C107.407 92.0852 107.168 92.7876 107.215 93.5008C107.261 94.214 107.588 94.8798 108.125 95.3517C108.662 95.8237 109.364 96.0634 110.077 96.018C110.79 95.9727 111.456 95.6461 111.929 95.1099L116.991 89.3533V103.788C116.991 104.503 117.276 105.189 117.781 105.695C118.287 106.201 118.973 106.485 119.688 106.485C120.404 106.485 121.089 106.201 121.595 105.695C122.101 105.189 122.385 104.503 122.385 103.788V89.7282L126.755 95.0419C127.209 95.5943 127.864 95.9437 128.576 96.0131C129.288 96.0825 129.998 95.8662 130.551 95.4119C131.103 94.9576 131.453 94.3025 131.522 93.5906C131.591 92.8787 131.375 92.1684 130.921 91.616Z" fill="white"/>
<path d="M237.526 259.942L233.458 259.942L231.523 244.252L237.527 244.252L237.526 259.942Z" fill="#A0616A"/>
<path d="M237.671 264.185L225.162 264.184V264.026C225.162 262.735 225.675 261.496 226.588 260.583C227.501 259.67 228.74 259.157 230.031 259.157L232.316 257.424L236.579 259.158L237.671 259.158L237.671 264.185Z" fill="#1F2933"/>
<path d="M206.961 259.942L202.894 259.942L200.959 244.252L206.963 244.252L206.961 259.942Z" fill="#A0616A"/>
<path d="M207.106 264.185L194.598 264.184V264.026C194.598 262.735 195.111 261.496 196.024 260.583C196.937 259.67 198.175 259.157 199.466 259.157L201.752 257.424L206.015 259.158L207.106 259.158L207.106 264.185Z" fill="#1F2933"/>
<path d="M238.823 246.957C240.307 245.988 239.447 246.051 239.447 246.051C239.447 246.051 236.129 219.145 233.604 210.992L230.683 171.286C230.683 171.286 230.497 172.079 230.683 170.153C230.868 168.228 232.217 169.577 230.868 168.228C229.52 166.88 228.621 166.193 229.52 165.188C230.419 164.183 232.898 162.15 231.434 160.919C229.969 159.688 227.087 151.661 227.087 151.661L198.995 151.886L200.118 151.661C200.118 151.661 196.612 150.36 198.218 152.054C199.824 153.748 197.319 157.897 196.42 161.943C195.675 165.293 193.465 166.182 196.42 166.887C199.375 167.592 196.701 169.589 196.701 169.589C196.701 169.589 192.252 190.765 195.624 204.699C195.624 204.699 197.949 239.161 199.126 242.125C200.304 245.089 200.753 243.291 200.304 245.089C199.854 246.887 198.955 243.74 199.854 246.887C200.345 248.53 200.733 250.202 201.017 251.894L207.113 251.444C207.113 251.444 208.529 246.982 207.113 245.811C205.698 244.639 206.675 248.058 208.209 245.45C209.743 242.841 207.945 243.74 207.495 240.144C207.046 236.549 211.17 219.798 208.209 209.52L213.68 180.68L222.367 210.542C222.367 210.542 226.975 247.013 228.472 248.298C229.969 249.583 229.365 246.463 229.969 249.583C230.58 252.737 231.968 251.901 231.929 252.287C231.51 256.41 238.823 252.343 238.823 252.343C238.752 251.296 238.752 250.244 238.823 249.197C238.959 248.235 237.339 247.927 238.823 246.957Z" fill="#1F2933"/>
<path d="M201.815 161.043C200.017 161.043 195.073 158.608 195.972 157.578C196.87 156.548 196.87 153.129 196.87 152.142C196.87 151.154 200.916 114.747 200.916 114.747L200.608 105.833C200.59 105.298 200.679 104.766 200.871 104.267C201.063 103.767 201.353 103.312 201.725 102.928C202.096 102.543 202.541 102.237 203.033 102.028C203.525 101.82 204.055 101.712 204.589 101.712L208.557 100.364L219.794 99.9141L225.397 101.712C225.953 101.712 226.5 101.855 226.985 102.126C227.47 102.398 227.877 102.79 228.167 103.264C228.458 103.738 228.621 104.279 228.643 104.834C228.664 105.39 228.543 105.942 228.29 106.437C231.264 111.291 232.756 116.907 232.584 122.597C232.455 126.855 230.298 132.053 229.779 136.863C229.733 137.285 229.7 137.704 229.682 138.119C229.677 138.235 228.757 138.812 229.669 138.466C230.581 138.119 229.18 139.342 229.656 140.079C230.132 140.816 231.053 140.365 229.694 141.265C228.334 142.165 231.326 150.858 231.031 151.154C230.132 152.053 228.334 152.503 229.682 153.851C231.031 155.199 232.379 154.301 230.581 156.098C228.783 157.896 223.397 161.043 223.397 161.043L201.815 161.043Z" fill="#3F3D56"/>
<path d="M213.83 94.694C219.173 94.694 223.505 90.3627 223.505 85.0198C223.505 79.677 219.173 75.3457 213.83 75.3457C208.488 75.3457 204.156 79.677 204.156 85.0198C204.156 90.3627 208.488 94.694 213.83 94.694Z" fill="#A0616A"/>
<path d="M154.908 115.037C155.372 114.831 155.875 114.731 156.383 114.741C156.89 114.751 157.389 114.873 157.844 115.097C158.299 115.321 158.7 115.642 159.017 116.038C159.335 116.434 159.562 116.894 159.682 117.387L171.961 118.548L167.944 123.543L156.9 121.674C156.059 121.821 155.193 121.655 154.466 121.207C153.739 120.758 153.202 120.058 152.956 119.24C152.71 118.422 152.773 117.542 153.133 116.767C153.493 115.993 154.124 115.377 154.908 115.037Z" fill="#A0616A"/>
<path d="M213.124 107.836C212.841 106.235 212.012 104.781 210.778 103.723C209.544 102.665 207.981 102.067 206.356 102.031C202.747 101.953 201.401 103.157 200.915 104.859C200.016 108.005 185.544 119.065 185.544 119.065L173.115 117.72C172.368 117.477 172.723 116.797 169.913 117.374C168.528 116.467 167.633 116.621 166.863 117.044L162.26 116.545L162.709 123.737C162.709 123.737 167.637 122.565 168.552 124.636C169.468 126.707 169.258 127.005 171.249 125.535C173.24 124.065 173.047 125.535 173.047 125.535L187.43 129.131L209.936 115.017C211.122 114.273 212.059 113.193 212.627 111.913C213.195 110.634 213.368 109.214 213.124 107.836Z" fill="#F35826"/>
<path d="M217.587 93.6577L218.22 93.8599C216.238 94.0263 212.705 95.132 213.051 94.5207C213.397 93.9094 212.089 91.6036 212.728 91.3114C213.391 91.0786 213.983 90.6775 214.445 90.1473C214.849 89.5809 214.84 88.646 214.233 88.2999C213.645 87.9583 212.916 88.3269 212.332 88.673C211.743 89.0146 210.656 83.9895 210.934 82.4208C209.294 81.5218 207.307 83.2433 205.464 82.9062C204.336 82.6995 203.522 81.7736 203.01 80.7218C203.847 79.9277 204.47 78.9352 204.821 77.8362C204.039 78.2303 203.203 78.5074 202.34 78.6587C202.186 77.8425 202.207 77.0028 202.403 76.1956C202.554 75.5512 202.861 74.954 203.298 74.4568C203.734 73.9597 204.287 73.5781 204.907 73.3459C205.535 73.1374 206.216 73.1494 206.837 73.3798C207.458 73.6102 207.982 74.0453 208.323 74.6134C208.361 74.0016 208.204 73.3934 207.874 72.8765C207.545 72.3596 207.06 71.9605 206.489 71.7368C206.905 71.5207 207.366 71.4037 207.835 71.3951C208.305 71.3864 208.769 71.4862 209.194 71.6868C209.618 71.8874 209.99 72.1833 210.281 72.5514C210.572 72.9195 210.774 73.3498 210.871 73.8089C212.901 72.7916 215.23 72.5426 217.429 73.1077C219.605 73.6785 222.49 76.0922 222.49 76.0922C227.399 77.1755 227.165 95.8377 217.587 93.6577Z" fill="#1F2933"/>
</g>
<defs>
<clipPath id="clip0_5958_51376">
<rect width="300" height="264.959" fill="white"/>
</clipPath>
</defs>
</svg>
