<svg width="70" height="34" viewBox="0 0 70 34" fill="none" xmlns="http://www.w3.org/2000/svg">
<path d="M18.9107 2.12479C19.0814 1.49794 18.8365 0.946759 18.2289 0.825245C17.4427 0.668004 16.1132 0.5 14.0214 0.5C11.9169 0.5 10.4605 0.67004 9.56133 0.828092C8.87123 0.949391 8.30563 1.51295 8.13067 2.15516L0.0527404 31.803C-0.105883 32.3852 0.0941656 32.9085 0.641239 33.0551C1.41699 33.263 2.7922 33.5 5.0301 33.5C7.26374 33.5 8.7328 33.2639 9.59275 33.0563C10.1997 32.9098 10.6615 32.4015 10.815 31.8379L18.9107 2.12479Z" fill="#D93F0C"/>
<path d="M52.8799 2.12479C53.0507 1.49794 52.8057 0.946759 52.1981 0.825245C51.4119 0.668004 50.0824 0.5 47.9906 0.5C45.8861 0.5 44.4298 0.67004 43.5306 0.828092C42.8405 0.949391 42.2748 1.51295 42.0999 2.15516L34.022 31.803C33.8634 32.3852 34.0634 32.9085 34.6104 33.0551C35.3862 33.263 36.7615 33.5 38.9993 33.5C41.2329 33.5 42.702 33.2639 43.562 33.0563C44.1689 32.9098 44.6307 32.4015 44.7842 31.8379L52.8799 2.12479Z" fill="#D93F0C"/>
<path d="M36.0602 2.12479C36.231 1.49794 35.986 0.946759 35.3784 0.825245C34.5922 0.668004 33.2627 0.5 31.1709 0.5C29.0664 0.5 27.61 0.67004 26.7109 0.828092C26.0208 0.949391 25.4552 1.51295 25.2802 2.15516L17.2023 31.803C17.0437 32.3852 17.2437 32.9085 17.7907 33.0551C18.5665 33.263 19.9418 33.5 22.1796 33.5C24.4132 33.5 25.8823 33.2639 26.7423 33.0563C27.3492 32.9098 27.811 32.4015 27.9645 31.8379L36.0602 2.12479Z" fill="#D93F0C"/>
<path d="M8.77268 2.12479C8.60192 1.49794 8.84688 0.946759 9.45453 0.825245C10.2407 0.668004 11.5702 0.5 13.662 0.5C15.7665 0.5 17.2228 0.67004 18.122 0.828092C18.8121 0.949391 19.3777 1.51295 19.5527 2.15516L27.6307 31.803C27.7892 32.3852 27.5892 32.9085 27.0422 33.0551C26.2664 33.263 24.8912 33.5 22.6533 33.5C20.4197 33.5 18.9506 33.2639 18.0906 33.0563C17.4837 32.9098 17.022 32.4015 16.8684 31.8379L8.77268 2.12479Z" fill="#F35826"/>
<path d="M25.5924 2.12479C25.4216 1.49794 25.6666 0.946759 26.2742 0.825245C27.0604 0.668004 28.3899 0.5 30.4817 0.5C32.5862 0.5 34.0425 0.67004 34.9417 0.828092C35.6318 0.949391 36.1974 1.51295 36.3724 2.15516L44.4504 31.803C44.6089 32.3852 44.4089 32.9085 43.8619 33.0551C43.0861 33.263 41.7109 33.5 39.473 33.5C37.2394 33.5 35.7703 33.2639 34.9103 33.0563C34.3034 32.9098 33.8417 32.4015 33.6881 31.8379L25.5924 2.12479Z" fill="#F35826"/>
<path d="M69.9469 2.12479C70.1177 1.49794 69.8727 0.946759 69.2652 0.825245C68.4789 0.668004 67.1494 0.5 65.0576 0.5C62.9532 0.5 61.4968 0.67004 60.5976 0.828092C59.9075 0.949391 59.3419 1.51295 59.1669 2.15516L51.089 31.803C50.9304 32.3852 51.1304 32.9085 51.6774 33.0551C52.4532 33.263 53.8285 33.5 56.0663 33.5C58.3 33.5 59.769 33.2639 60.629 33.0563C61.2359 32.9098 61.6977 32.4015 61.8512 31.8379L69.9469 2.12479Z" fill="#D93F0C"/>
<path d="M42.4946 2.12479C42.3238 1.49794 42.5688 0.946759 43.1765 0.825245C43.9626 0.668004 45.2921 0.5 47.3839 0.5C49.4884 0.5 50.9448 0.67004 51.844 0.828092C52.5341 0.949391 53.0997 1.51295 53.2746 2.15516L61.3526 31.803C61.5112 32.3852 61.3111 32.9085 60.7641 33.0551C59.9883 33.263 58.6131 33.5 56.3752 33.5C54.1416 33.5 52.6725 33.2639 51.8125 33.0563C51.2056 32.9098 50.7439 32.4015 50.5903 31.8379L42.4946 2.12479Z" fill="#F35826"/>
</svg>
