<svg width="53" height="33" fill="none" xmlns="http://www.w3.org/2000/svg"><path d="M18.91 1.625c.171-.627-.073-1.178-.681-1.3C17.443.168 16.113 0 14.02 0c-2.104 0-3.56.17-4.46.328-.69.121-1.255.685-1.43 1.327L.053 31.303c-.159.582.041 1.105.588 1.252.776.208 2.151.445 4.39.445 2.233 0 3.702-.236 4.562-.444.607-.146 1.069-.654 1.222-1.218l8.096-29.713zM52.88 1.625c.17-.627-.075-1.178-.682-1.3C51.41.168 50.082 0 47.99 0c-2.104 0-3.56.17-4.46.328-.69.121-1.256.685-1.43 1.327l-8.078 29.648c-.16.582.04 1.105.588 1.252.776.208 2.151.445 4.389.445 2.233 0 3.703-.236 4.563-.444.606-.146 1.068-.654 1.222-1.218l8.095-29.713zM36.06 1.625c.17-.627-.075-1.178-.683-1.3C34.591.168 33.262 0 31.17 0c-2.105 0-3.561.17-4.46.328-.69.121-1.256.685-1.43 1.327L17.2 31.303c-.158.582.042 1.105.589 1.252.775.208 2.15.445 4.389.445 2.233 0 3.702-.236 4.562-.444.607-.146 1.069-.654 1.222-1.218L36.06 1.625z" fill="#D93F0C"/><path d="M8.772 1.625c-.17-.627.074-1.178.682-1.3C10.24.168 11.569 0 13.66 0c2.105 0 3.561.17 4.46.328.69.121 1.256.685 1.43 1.327l8.079 29.648c.158.582-.042 1.105-.589 1.252-.776.208-2.15.445-4.389.445-2.233 0-3.702-.236-4.562-.444-.607-.146-1.069-.654-1.223-1.218L8.772 1.625zM25.592 1.625c-.17-.627.074-1.178.682-1.3C27.06.168 28.39 0 30.481 0c2.105 0 3.561.17 4.46.328.69.121 1.256.685 1.431 1.327l8.078 29.648c.159.582-.041 1.105-.588 1.252-.776.208-2.151.445-4.39.445-2.233 0-3.702-.236-4.562-.444-.607-.146-1.068-.654-1.222-1.218L25.592 1.625z" fill="#F35826"/></svg>