<svg width="121" height="88" viewBox="0 0 121 88" fill="none" xmlns="http://www.w3.org/2000/svg">
<g style="mix-blend-mode:luminosity">
<path d="M96.1731 12.7832V37.2947L24.1731 66.2577L96.1731 12.7832Z" fill="#F5F7FA"/>
<path d="M82.6753 11.7188V54.0027C82.6753 59.9117 80.3046 65.5787 76.0848 69.757C71.8649 73.9355 66.1416 76.2828 60.1739 76.2828C54.2062 76.2828 48.4828 73.9355 44.263 69.757C40.0432 65.5787 37.6725 59.9117 37.6725 54.0027V36.1854L51.171 28.8297V54.0027C51.0447 55.1013 51.1541 56.214 51.4922 57.2679C51.8304 58.3217 52.3894 59.2928 53.1331 60.1178C53.8767 60.9427 54.7879 61.6027 55.807 62.0547C56.8263 62.5066 57.9304 62.7404 59.0472 62.7404C60.1638 62.7404 61.268 62.5066 62.2871 62.0547C63.3062 61.6027 64.2176 60.9427 64.9611 60.1178C65.7047 59.2928 66.2639 58.3217 66.602 57.2679C66.9402 56.214 67.0496 55.1013 66.9231 54.0027V20.2518L82.6753 11.7188Z" fill="#CBD2D9"/>
</g>
</svg>
