<svg width="159" height="88" viewBox="0 0 159 88" fill="none" xmlns="http://www.w3.org/2000/svg">
<g style="mix-blend-mode:luminosity" clip-path="url(#clip0_971_6242)">
<path d="M24.8529 33.2363C25.992 33.4181 27.1324 33.5899 28.2741 33.7519V42.2457C29.4988 42.2826 30.7242 42.3182 31.9502 42.3524C31.9502 39.6475 31.9502 36.942 31.9502 34.2358C33.0919 34.3781 34.2357 34.5097 35.3813 34.6309C35.3813 41.0243 35.3813 47.4198 35.3813 53.8172C34.237 53.9238 33.0933 54.041 31.9502 54.1688V45.2067C30.7229 45.2146 29.4975 45.2239 28.2741 45.2344V54.6309C27.1324 54.7837 25.992 54.9489 24.8529 55.1267V33.2363Z" fill="white"/>
<path d="M42.3183 53.552C40.6491 53.6588 39.379 53.3684 38.5039 52.6316C37.6289 51.8948 37.1903 50.7274 37.1903 49.2005C37.1903 44.411 37.1903 39.6215 37.1903 34.832C38.336 34.9466 39.483 35.0519 40.6314 35.1481C40.6314 39.8599 40.6314 44.5716 40.6314 49.2835C40.6314 49.9102 40.7775 50.356 41.0698 50.6207C41.3819 50.8841 41.8198 51.0026 42.3834 50.9763C42.9484 50.9526 43.371 50.7985 43.6674 50.516C43.9637 50.2336 44.1375 49.7871 44.1375 49.1788C44.1375 44.5907 44.1375 40.0027 44.1375 35.4147C45.2437 35.4918 46.3518 35.557 47.458 35.6123C47.458 40.0409 47.458 44.4703 47.458 48.9002C47.458 50.3106 47.0195 51.4049 46.1405 52.2108C45.2615 53.0167 43.9893 53.4474 42.3183 53.552Z" fill="white"/>
<path d="M49.2875 35.7051C51.0417 35.7815 52.797 35.8374 54.5537 35.873C56.2683 35.9085 57.5562 36.268 58.4134 36.9792C59.2708 37.6903 59.6994 38.7234 59.6994 40.0903C59.6994 42.9387 59.6994 45.7864 59.6994 48.6335C59.6994 50.0004 59.2702 51.0375 58.4115 51.7447C57.5542 52.4538 56.2683 52.8133 54.5537 52.839C52.797 52.8653 51.0403 52.9081 49.2836 52.9674C49.2862 47.2126 49.2875 41.4585 49.2875 35.7051ZM54.4826 50.4152C55.0475 50.4152 55.4762 50.2835 55.7686 50.0202C56.0826 49.7594 56.2387 49.3407 56.2406 48.7599C56.2406 45.8286 56.2406 42.8965 56.2406 39.9639C56.2406 39.3831 56.0826 38.9624 55.7705 38.7016C55.4584 38.4409 55.0475 38.3066 54.4846 38.3066L52.7266 38.275V50.4369L54.4826 50.4152Z" fill="white"/>
<path d="M61.3961 35.9042C63.1515 35.8845 64.9076 35.8436 66.6643 35.7817C68.3788 35.7185 69.6628 36.0148 70.5201 36.7042C71.3773 37.3936 71.804 38.4544 71.804 39.8766C71.804 42.837 71.804 45.7998 71.804 48.7655C71.804 50.1904 71.376 51.2538 70.5201 51.9557C69.6647 52.6568 68.3788 52.967 66.6643 52.9195C64.9089 52.8722 63.1522 52.8413 61.3942 52.8268L61.3961 35.9042ZM66.607 50.4603C67.1719 50.4708 67.6006 50.3478 67.8929 50.091C68.2063 49.8275 68.363 49.4035 68.363 48.8189C68.363 45.8282 68.363 42.8382 68.363 39.8489C68.363 39.259 68.2063 38.8369 67.8929 38.5828C67.6006 38.3279 67.1719 38.2114 66.6089 38.2252L64.8529 38.2667V50.4366C65.4376 50.4445 66.0223 50.4603 66.607 50.4603Z" fill="white"/>
<path d="M73.5067 35.4287C74.655 35.351 75.8027 35.2647 76.9497 35.1699C76.9497 40.3755 76.9497 45.5804 76.9497 50.7848C78.8367 50.8717 80.7219 50.9764 82.605 51.0989V53.8446C79.5769 53.5581 76.5447 53.3428 73.5067 53.1808C73.508 47.2628 73.508 41.3454 73.5067 35.4287Z" fill="white"/>
<path d="M83.63 34.5104C86.751 34.1548 89.8661 33.7302 92.9752 33.2363V36.3633C90.9999 36.5871 89.0285 36.7925 87.0612 36.9795V42.3248L91.7624 42.1865V45.2601C90.198 45.239 88.6309 45.2239 87.0612 45.2146V51.427C89.0365 51.5916 91.0079 51.7825 92.9752 51.9998V55.1267C89.8661 54.6408 86.753 54.2537 83.632 53.9416C83.632 47.4639 83.6314 40.9868 83.63 34.5104Z" fill="white"/>
<path d="M119.45 32.8789H105.227C104.074 32.8789 102.969 33.3368 102.154 34.1517C101.339 34.9667 100.881 36.072 100.881 37.2246V51.4468C100.881 52.5994 101.339 53.7048 102.154 54.5197C102.969 55.3347 104.074 55.7926 105.227 55.7926H119.45C120.602 55.7926 121.707 55.3347 122.523 54.5197C123.337 53.7048 123.795 52.5994 123.795 51.4468V37.2246C123.795 36.072 123.337 34.9667 122.523 34.1517C121.707 33.3368 120.602 32.8789 119.45 32.8789Z" fill="#616E7C"/>
<path d="M131.492 36.9752C131.292 37.0181 131.102 37.0985 130.932 37.2123L127.545 39.2745C127.014 39.6005 126.578 40.0603 126.281 40.6078C125.976 41.167 125.816 41.794 125.817 42.431V46.2473C125.816 46.8859 125.976 47.5142 126.283 48.0745C126.581 48.6235 127.02 49.0841 127.553 49.4099L130.967 51.472C131.187 51.6086 131.434 51.6981 131.691 51.7347C131.947 51.7704 132.207 51.7523 132.456 51.6815C132.707 51.6089 132.94 51.4867 133.143 51.3219C133.348 51.1532 133.519 50.9458 133.644 50.7116C133.816 50.3907 133.906 50.0324 133.906 49.6686V38.9821C133.905 38.6725 133.837 38.3666 133.708 38.0854C133.58 37.8089 133.392 37.564 133.159 37.3683C132.93 37.1768 132.66 37.0415 132.369 36.9732C132.081 36.9041 131.78 36.9048 131.492 36.9752Z" fill="#616E7C"/>
<path d="M109.21 51.7526C108.149 51.7526 107.337 51.4438 106.775 50.8262C106.213 50.2086 105.931 49.3368 105.931 48.2109V40.8035C105.931 39.6749 106.213 38.8025 106.775 38.1862C107.337 37.5699 108.149 37.2611 109.21 37.2598C110.264 37.2598 111.075 37.5686 111.644 38.1862C112.213 38.8038 112.494 39.6762 112.487 40.8035V48.2109C112.487 49.3368 112.206 50.2086 111.644 50.8262C111.082 51.4438 110.271 51.7526 109.21 51.7526ZM109.21 49.7398C109.954 49.7398 110.327 49.2788 110.328 48.3571V40.6613C110.328 39.7394 109.956 39.2785 109.21 39.2785C108.465 39.2785 108.092 39.7394 108.09 40.6613V48.3512C108.09 49.2782 108.464 49.7411 109.21 49.7398Z" fill="white"/>
<path d="M116.581 40.8032H114.323V39.2328C114.819 39.2471 115.314 39.1926 115.795 39.0708C116.142 38.9868 116.458 38.8051 116.705 38.5474C116.967 38.224 117.168 37.8559 117.298 37.4609H118.75V51.5509H116.581V40.8032Z" fill="white"/>
</g>
<defs>
<clipPath id="clip0_971_6242">
<rect width="109.846" height="24" fill="white" transform="translate(24.2941 32)"/>
</clipPath>
</defs>
</svg>
