<svg width="1086" height="542" viewBox="0 0 1086 542" fill="none" xmlns="http://www.w3.org/2000/svg">
<path d="M72.6176 17.9454C69.0093 11.7755 69.7197 6.22003 75.8187 4.7695C82.6692 3.14023 94.1281 1.5 112.5 1.5C130.905 1.5 144.551 3.14609 153.559 4.77823C161.587 6.233 169.109 11.9466 172.831 18.311L363.477 344.3C366.763 349.919 366.515 355.111 361.345 356.851C354.793 359.057 343.054 361.462 323.014 361.462C302.918 361.462 288.635 359.044 279.779 356.833C272.847 355.103 266.865 350.094 263.71 344.698L72.6176 17.9454Z" fill="#663399"/>
<path d="M22.2751 356.584C30.5709 356.584 36.6251 354.59 40.612 352.588C44.7603 350.506 46.9812 346.267 47.788 342.039L97.5003 81.5L63.5002 27L2.72155 342.447C1.95554 346.423 2.42916 350.424 5.51078 352.465C8.5931 354.507 13.8091 356.584 22.2751 356.584Z" fill="#663399" fill-opacity="0.38"/>
<path d="M387.5 24L421.001 84.5L372.501 337L338.502 278L387.5 24Z" fill="#663399" fill-opacity="0.38"/>
<path d="M711.349 24L744.85 84.5L696.35 337L662.351 278L711.349 24Z" fill="#663399" fill-opacity="0.38"/>
<path d="M1063.13 1.00041C1054.84 1.00041 1048.78 2.99448 1044.8 4.99553C1040.65 7.07759 1038.43 11.3168 1037.62 15.5452L989.221 269.201C988.371 273.657 989.089 277.978 991.258 281.454L1021.91 330.584L1082.69 15.1371C1083.45 11.1614 1082.98 7.1597 1079.9 5.11861C1076.82 3.0771 1071.6 1.00041 1063.13 1.00041Z" fill="#663399" fill-opacity="0.38"/>
<path d="M395.618 16.4454C392.009 10.2755 392.72 4.72003 398.819 3.2695C405.669 1.64023 417.128 0 435.5 0C453.905 0 467.551 1.64609 476.559 3.27823C484.587 4.733 492.109 10.4466 495.831 16.811L686.477 342.8C689.763 348.419 689.515 353.611 684.345 355.351C677.793 357.557 666.054 359.962 646.014 359.962C625.918 359.962 611.635 357.544 602.779 355.333C595.847 353.603 589.865 348.594 586.71 343.198L395.618 16.4454Z" fill="#663399"/>
<path d="M720.618 17.4454C717.009 11.2755 717.72 5.72003 723.819 4.2695C730.669 2.64023 742.128 1 760.5 1C778.905 1 792.551 2.64609 801.559 4.27823C809.587 5.733 817.109 11.4466 820.831 17.811L1011.48 343.8C1014.76 349.419 1014.52 354.611 1009.34 356.351C1002.79 358.557 991.054 360.962 971.014 360.962C950.918 360.962 936.635 358.544 927.779 356.333C920.847 354.603 914.865 349.594 911.71 344.198L720.618 17.4454Z" fill="#663399"/>
<path d="M101.535 423.2V509H88.7949V459.34L89.7049 435.68H89.5749L63.4449 509H51.8749L25.7449 435.68H25.6149L26.6549 459.34V509H13.7849V423.2H34.4549L51.7449 472.86L57.7249 493.27H57.9849L64.0949 472.86L81.2549 423.2H101.535ZM152.788 510.3C146.288 510.3 140.568 508.957 135.628 506.27C130.775 503.583 126.962 499.727 124.188 494.7C121.415 489.587 120.028 483.52 120.028 476.5C120.028 469.48 121.372 463.457 124.058 458.43C126.832 453.317 130.602 449.417 135.368 446.73C140.222 444.043 145.768 442.7 152.008 442.7C158.335 442.7 163.708 444 168.128 446.6C172.548 449.2 175.928 452.753 178.268 457.26C180.608 461.767 181.778 466.88 181.778 472.6C181.778 474.247 181.735 475.763 181.648 477.15C181.562 478.537 181.432 479.707 181.258 480.66H133.678C134.285 486.727 136.235 491.363 139.528 494.57C142.908 497.69 147.242 499.25 152.528 499.25C156.862 499.25 160.372 498.427 163.058 496.78C165.745 495.133 167.868 492.837 169.428 489.89L180.478 495.09C178.225 499.857 174.628 503.583 169.688 506.27C164.835 508.957 159.202 510.3 152.788 510.3ZM151.748 453.75C146.982 453.75 143.038 455.137 139.918 457.91C136.885 460.683 134.935 464.713 134.068 470H168.258C167.912 464.8 166.265 460.813 163.318 458.04C160.372 455.18 156.515 453.75 151.748 453.75ZM227.945 510.3C221.445 510.3 215.725 508.957 210.785 506.27C205.931 503.583 202.118 499.727 199.345 494.7C196.571 489.587 195.185 483.52 195.185 476.5C195.185 469.48 196.528 463.457 199.215 458.43C201.988 453.317 205.758 449.417 210.525 446.73C215.378 444.043 220.925 442.7 227.165 442.7C233.491 442.7 238.865 444 243.285 446.6C247.705 449.2 251.085 452.753 253.425 457.26C255.765 461.767 256.935 466.88 256.935 472.6C256.935 474.247 256.891 475.763 256.805 477.15C256.718 478.537 256.588 479.707 256.415 480.66H208.835C209.441 486.727 211.391 491.363 214.685 494.57C218.065 497.69 222.398 499.25 227.685 499.25C232.018 499.25 235.528 498.427 238.215 496.78C240.901 495.133 243.025 492.837 244.585 489.89L255.635 495.09C253.381 499.857 249.785 503.583 244.845 506.27C239.991 508.957 234.358 510.3 227.945 510.3ZM226.905 453.75C222.138 453.75 218.195 455.137 215.075 457.91C212.041 460.683 210.091 464.713 209.225 470H243.415C243.068 464.8 241.421 460.813 238.475 458.04C235.528 455.18 231.671 453.75 226.905 453.75ZM314.318 444V454.92H291.958V489.5C291.958 492.62 292.824 494.96 294.558 496.52C296.291 497.993 298.544 498.73 301.318 498.73C303.744 498.73 305.781 498.383 307.428 497.69C309.161 496.91 310.764 495.87 312.238 494.57L315.358 504.71C313.364 506.443 310.894 507.83 307.948 508.87C305.088 509.823 301.881 510.3 298.328 510.3C292.608 510.3 287.798 508.913 283.898 506.14C279.998 503.28 278.048 498.513 278.048 491.84V454.92H265.568V444H278.048V428.79L291.958 424.89V444H314.318ZM450.111 444H465.191L443.351 509H428.141L411.761 460.77L396.291 509H381.081L359.371 444H374.321L389.141 495.35L405.261 444H419.171L435.291 495.35L450.111 444ZM485.662 433.08C482.628 433.08 480.288 432.343 478.642 430.87C477.082 429.31 476.302 427.143 476.302 424.37C476.302 421.597 477.082 419.473 478.642 418C480.288 416.527 482.628 415.79 485.662 415.79C488.608 415.79 490.862 416.527 492.422 418C494.068 419.473 494.892 421.597 494.892 424.37C494.892 427.143 494.068 429.31 492.422 430.87C490.862 432.343 488.608 433.08 485.662 433.08ZM492.552 444V509H478.642V444H492.552ZM555.655 444V454.92H533.295V489.5C533.295 492.62 534.162 494.96 535.895 496.52C537.629 497.993 539.882 498.73 542.655 498.73C545.082 498.73 547.119 498.383 548.765 497.69C550.499 496.91 552.102 495.87 553.575 494.57L556.695 504.71C554.702 506.443 552.232 507.83 549.285 508.87C546.425 509.823 543.219 510.3 539.665 510.3C533.945 510.3 529.135 508.913 525.235 506.14C521.335 503.28 519.385 498.513 519.385 491.84V454.92H506.905V444H519.385V428.79L533.295 424.89V444H555.655ZM569.921 509V414.75H583.831V454.4C585.998 450.327 588.901 447.38 592.541 445.56C596.268 443.653 600.384 442.7 604.891 442.7C609.484 442.7 613.601 443.61 617.241 445.43C620.968 447.163 623.914 449.85 626.081 453.49C628.248 457.043 629.331 461.507 629.331 466.88V509H615.421V471.3C615.421 464.8 614.078 460.337 611.391 457.91C608.791 455.397 605.498 454.14 601.511 454.14C598.651 454.14 595.878 454.833 593.191 456.22C590.504 457.52 588.251 459.687 586.431 462.72C584.698 465.667 583.831 469.653 583.831 474.68V509H569.921ZM707.835 509L682.615 423.2H697.305L716.545 496.91L735.265 423.2H749.565L768.415 497.04L787.525 423.2H801.695L776.605 509H760.225L746.575 457.52L742.285 437.76H742.155L737.865 457.52L724.345 509H707.835ZM848.448 467.27C848.448 462.937 847.235 459.6 844.808 457.26C842.468 454.833 839.218 453.62 835.058 453.62C831.158 453.62 827.778 454.53 824.918 456.35C822.145 458.17 820.151 461.117 818.938 465.19L807.238 460.25C808.885 454.963 812.091 450.717 816.858 447.51C821.711 444.303 827.951 442.7 835.578 442.7C840.691 442.7 845.241 443.567 849.228 445.3C853.301 446.947 856.465 449.503 858.718 452.97C861.058 456.35 862.228 460.64 862.228 465.84V494.83C862.228 498.037 863.831 499.64 867.038 499.64C868.598 499.64 870.115 499.423 871.588 498.99L870.808 508.61C868.815 509.563 866.301 510.04 863.268 510.04C859.801 510.04 856.811 509.26 854.298 507.7C851.785 506.14 850.095 503.8 849.228 500.68C847.148 503.887 844.158 506.313 840.258 507.96C836.358 509.52 832.458 510.3 828.558 510.3C822.405 510.3 817.291 508.827 813.218 505.88C809.145 502.933 807.108 498.513 807.108 492.62C807.108 487.853 808.668 483.91 811.788 480.79C814.995 477.67 819.501 475.503 825.308 474.29L848.448 469.74V467.27ZM821.148 491.58C821.148 494.007 822.058 495.957 823.878 497.43C825.785 498.817 828.298 499.51 831.418 499.51C834.365 499.51 837.138 499.033 839.738 498.08C842.338 497.127 844.418 495.567 845.978 493.4C847.625 491.233 848.448 488.417 848.448 484.95V479.49L832.068 482.87C828.341 483.563 825.568 484.56 823.748 485.86C822.015 487.16 821.148 489.067 821.148 491.58ZM898.539 414.75V490.8C898.539 494.007 899.102 496.217 900.229 497.43C901.355 498.643 903.219 499.25 905.819 499.25C907.379 499.25 908.679 499.163 909.719 498.99C910.845 498.73 912.232 498.297 913.879 497.69L912.319 508.09C909.285 509.563 905.689 510.3 901.529 510.3C895.722 510.3 891.432 508.827 888.659 505.88C885.972 502.933 884.629 498.297 884.629 491.97V414.75H898.539ZM939.037 414.75V490.8C939.037 494.007 939.6 496.217 940.727 497.43C941.853 498.643 943.717 499.25 946.317 499.25C947.877 499.25 949.177 499.163 950.217 498.99C951.343 498.73 952.73 498.297 954.377 497.69L952.817 508.09C949.783 509.563 946.187 510.3 942.027 510.3C936.22 510.3 931.93 508.827 929.157 505.88C926.47 502.933 925.127 498.297 925.127 491.97V414.75H939.037ZM994.615 510.3C988.115 510.3 982.395 508.957 977.455 506.27C972.601 503.583 968.788 499.727 966.015 494.7C963.241 489.587 961.855 483.52 961.855 476.5C961.855 469.48 963.198 463.457 965.885 458.43C968.658 453.317 972.428 449.417 977.195 446.73C982.048 444.043 987.595 442.7 993.835 442.7C1000.16 442.7 1005.53 444 1009.95 446.6C1014.37 449.2 1017.75 452.753 1020.09 457.26C1022.43 461.767 1023.6 466.88 1023.6 472.6C1023.6 474.247 1023.56 475.763 1023.47 477.15C1023.39 478.537 1023.26 479.707 1023.08 480.66H975.505C976.111 486.727 978.061 491.363 981.355 494.57C984.735 497.69 989.068 499.25 994.355 499.25C998.688 499.25 1002.2 498.427 1004.88 496.78C1007.57 495.133 1009.69 492.837 1011.25 489.89L1022.3 495.09C1020.05 499.857 1016.45 503.583 1011.51 506.27C1006.66 508.957 1001.03 510.3 994.615 510.3ZM993.575 453.75C988.808 453.75 984.865 455.137 981.745 457.91C978.711 460.683 976.761 464.713 975.895 470H1010.08C1009.74 464.8 1008.09 460.813 1005.14 458.04C1002.2 455.18 998.341 453.75 993.575 453.75ZM1080.99 444V454.92H1058.63V489.5C1058.63 492.62 1059.49 494.96 1061.23 496.52C1062.96 497.993 1065.21 498.73 1067.99 498.73C1070.41 498.73 1072.45 498.383 1074.1 497.69C1075.83 496.91 1077.43 495.87 1078.91 494.57L1082.03 504.71C1080.03 506.443 1077.56 507.83 1074.62 508.87C1071.76 509.823 1068.55 510.3 1065 510.3C1059.28 510.3 1054.47 508.913 1050.57 506.14C1046.67 503.28 1044.72 498.513 1044.72 491.84V454.92H1032.24V444H1044.72V428.79L1058.63 424.89V444H1080.99Z" fill="#663399"/>
</svg>
