<svg width="132" height="88" viewBox="0 0 132 88" fill="none" xmlns="http://www.w3.org/2000/svg">
<g style="mix-blend-mode:luminosity" clip-path="url(#clip0_971_6263)">
<path d="M39.4966 59.9994C40.3676 60 41.22 59.748 41.9501 59.2742C42.6803 58.8003 43.2567 58.1249 43.6093 57.3302C43.6482 57.2418 43.6643 57.1452 43.6563 57.0492C43.6483 56.953 43.6165 56.8604 43.5635 56.7797C43.5106 56.699 43.4383 56.6328 43.3532 56.587C43.2681 56.5412 43.1729 56.5174 43.0763 56.5176H35.9202C35.8235 56.5174 35.7283 56.5412 35.6433 56.587C35.5581 56.6328 35.4859 56.699 35.4329 56.7797C35.38 56.8604 35.3481 56.953 35.3401 57.0492C35.3321 57.1452 35.3483 57.2418 35.3871 57.3302C35.7399 58.1242 36.3159 58.799 37.0453 59.2728C37.7747 59.7466 38.6263 59.999 39.4966 59.9994Z" fill="white"/>
<path d="M50.4757 52.1984C50.1991 52.1984 49.9251 52.144 49.6695 52.0383C49.4139 51.9326 49.1817 51.7776 48.9862 51.5824C48.7906 51.387 48.6355 51.1552 48.5298 50.9001C48.4241 50.645 48.3698 50.3716 48.37 50.0955V42.677C48.37 38.7913 45.9139 35.3784 42.4296 34.1275C42.2543 34.0662 42.0937 33.9691 41.9581 33.8425C41.8225 33.7159 41.7147 33.5625 41.6416 33.3921C41.4676 32.9678 41.1713 32.6047 40.7901 32.3489C40.4089 32.093 39.9602 31.956 39.5008 31.9551C39.0415 31.9542 38.5922 32.0895 38.2101 32.3439C37.8279 32.5983 37.5301 32.9603 37.3545 33.3838C37.2832 33.5521 37.1771 33.7035 37.0434 33.8282C36.9096 33.9529 36.7511 34.0482 36.5781 34.1078C34.8389 34.7115 33.3313 35.8406 32.2645 37.3382C31.1976 38.8358 30.6244 40.6278 30.6245 42.4652V50.0938C30.6254 50.6492 30.4059 51.1822 30.0141 51.5766C29.6223 51.9709 29.0901 52.1945 28.5336 52.1984C28.4025 52.1969 28.2725 52.2212 28.1508 52.2698C28.0292 52.3186 27.9184 52.3907 27.8247 52.4822C27.731 52.5737 27.6564 52.6827 27.605 52.803C27.5536 52.9233 27.5264 53.0526 27.5251 53.1834C27.5251 53.4446 27.6291 53.6951 27.8142 53.8798C27.9994 54.0646 28.2504 54.1683 28.5122 54.1683H50.4708C50.7325 54.1683 50.9836 54.0646 51.1687 53.8798C51.3539 53.6951 51.4578 53.4446 51.4578 53.1834C51.4578 52.923 51.3545 52.6732 51.1705 52.4886C50.9865 52.304 50.7367 52.1997 50.4757 52.1984Z" fill="#F5F7FA"/>
<path d="M45.8548 32.2723C47.0673 32.5397 48.164 33.1826 48.9883 34.1092C49.8126 35.0359 50.3224 36.1988 50.4446 37.4319C50.4571 37.5659 50.5224 37.6897 50.6262 37.7757C50.73 37.8617 50.8638 37.9031 50.9982 37.8907C51.1326 37.8783 51.2566 37.8131 51.3428 37.7095C51.429 37.6059 51.4704 37.4724 51.458 37.3383C51.3216 35.8879 50.7257 34.5185 49.7566 33.429C48.7875 32.3395 47.4958 31.5864 46.0687 31.2791C46.0336 31.2712 45.9978 31.2674 45.9618 31.2676C45.8372 31.2695 45.7177 31.3169 45.6258 31.4007C45.5338 31.4845 45.4758 31.5991 45.4626 31.7227C45.4494 31.8463 45.4821 31.9704 45.5544 32.0717C45.6266 32.1729 45.7335 32.2443 45.8548 32.2723Z" fill="#F5F7FA"/>
<path d="M46.4255 29.0047C48.3135 29.4194 50.0216 30.4193 51.3055 31.8615C52.5894 33.3037 53.3832 35.1141 53.5734 37.0339C53.5794 37.1002 53.5984 37.1647 53.6295 37.2237C53.6606 37.2827 53.703 37.335 53.7544 37.3775C53.8057 37.4201 53.865 37.4521 53.9288 37.4717C53.9926 37.4913 54.0597 37.4982 54.1262 37.4919C54.1928 37.4861 54.2576 37.4672 54.3169 37.4363C54.3762 37.4054 54.4288 37.3631 54.4716 37.3119C54.5144 37.2605 54.5466 37.2013 54.5664 37.1375C54.5862 37.0738 54.5931 37.0067 54.5868 36.9403C54.3854 34.8032 53.5072 32.7857 52.0794 31.1803C50.6516 29.5749 48.7484 28.465 46.646 28.0115C46.6107 28.0046 46.575 28.0007 46.539 28.0001C46.4122 27.9982 46.2893 28.0437 46.1944 28.1276C46.0995 28.2115 46.0394 28.3278 46.026 28.4537C46.0126 28.5795 46.0468 28.7058 46.122 28.8078C46.1971 28.9097 46.3077 28.98 46.4321 29.0047H46.4255Z" fill="#F5F7FA"/>
<path d="M33.1386 32.2723C33.2629 32.2476 33.3735 32.1773 33.4486 32.0754C33.5238 31.9734 33.558 31.8471 33.5446 31.7213C33.5312 31.5954 33.4712 31.4791 33.3762 31.3952C33.2814 31.3113 33.1584 31.2658 33.0316 31.2676C32.9956 31.2675 32.9598 31.2713 32.9247 31.2791C31.4977 31.5864 30.2059 32.3395 29.2368 33.429C28.2678 34.5186 27.6718 35.8879 27.5354 37.3383C27.5236 37.4725 27.5656 37.606 27.6522 37.7093C27.6943 37.7611 27.7465 37.8038 27.8056 37.8348C27.8647 37.8659 27.9295 37.8846 27.996 37.8899C28.0626 37.8965 28.1299 37.8898 28.1939 37.8703C28.2579 37.8507 28.3174 37.8188 28.3689 37.7762C28.4204 37.7336 28.463 37.6813 28.4942 37.6222C28.5253 37.5631 28.5445 37.4984 28.5504 37.4319C28.6722 36.1989 29.1815 35.0359 30.0055 34.1092C30.8296 33.1825 31.9262 32.5395 33.1386 32.2723Z" fill="#F5F7FA"/>
<path d="M32.5673 29.0047C32.6917 28.98 32.8023 28.9097 32.8774 28.8078C32.9525 28.7058 32.9868 28.5795 32.9734 28.4537C32.96 28.3278 32.8999 28.2115 32.805 28.1276C32.7101 28.0437 32.5872 27.9982 32.4604 28.0001C32.425 28.0006 32.3898 28.0045 32.3551 28.0115C30.2526 28.465 28.3495 29.5749 26.9217 31.1803C25.4939 32.7857 24.6156 34.8032 24.4143 36.9403C24.4077 37.0067 24.4146 37.0737 24.4343 37.1374C24.4541 37.2011 24.4864 37.2602 24.5294 37.3113C24.5715 37.3631 24.6237 37.4057 24.6828 37.4367C24.7419 37.4678 24.8067 37.4865 24.8733 37.4919C24.9398 37.4984 25.0071 37.4917 25.0711 37.4723C25.1351 37.4527 25.1945 37.4207 25.2461 37.3781C25.2976 37.3356 25.3402 37.2832 25.3714 37.2241C25.4025 37.1651 25.4217 37.1004 25.4276 37.0339C25.6173 35.1153 26.4099 33.3056 27.6922 31.8635C28.9745 30.4215 30.6809 29.4209 32.5673 29.0047Z" fill="#F5F7FA"/>
<path d="M103.38 39.5312C102.801 39.5255 102.227 39.6341 101.691 39.8508C101.154 40.0674 100.666 40.3878 100.254 40.7936V34.3633C100.254 34.3524 100.252 34.3416 100.248 34.3316C100.244 34.3215 100.238 34.3124 100.23 34.3047C100.222 34.2971 100.212 34.2911 100.202 34.287C100.192 34.283 100.181 34.281 100.17 34.2813H97.6785C97.6671 34.281 97.6565 34.283 97.6465 34.287C97.6358 34.2911 97.6271 34.2971 97.6191 34.3047C97.6111 34.3124 97.6051 34.3215 97.6005 34.3316C97.5965 34.3416 97.5945 34.3524 97.5945 34.3633V51.7218C97.5945 51.7327 97.5965 51.7435 97.6005 51.7536C97.6051 51.7636 97.6111 51.7728 97.6191 51.7804C97.6271 51.7881 97.6358 51.7941 97.6465 51.7981C97.6565 51.8022 97.6671 51.8041 97.6785 51.8039H100.17C100.181 51.8041 100.192 51.8022 100.202 51.7981C100.212 51.7941 100.222 51.7881 100.23 51.7804C100.238 51.7728 100.244 51.7636 100.248 51.7536C100.252 51.7435 100.254 51.7327 100.254 51.7218V44.676C100.253 44.0504 100.49 43.4477 100.918 42.9904C101.346 42.533 101.932 42.2553 102.558 42.2136C102.884 42.1953 103.212 42.2436 103.52 42.3554C103.828 42.4672 104.11 42.6403 104.349 42.8641C104.588 43.0879 104.778 43.3578 104.91 43.6574C105.041 43.957 105.11 44.2801 105.112 44.607V51.7218C105.112 51.7436 105.121 51.7644 105.136 51.7798C105.152 51.7952 105.173 51.8039 105.194 51.8039H107.662C107.673 51.8041 107.684 51.8022 107.694 51.7981C107.704 51.7941 107.714 51.7881 107.721 51.7804C107.729 51.7728 107.736 51.7636 107.74 51.7536C107.744 51.7435 107.746 51.7327 107.746 51.7218V43.957C107.748 42.7944 107.291 41.6778 106.474 40.8492C105.656 40.0208 104.545 39.5472 103.38 39.5312Z" fill="#F5F7FA"/>
<path d="M84.5589 39.0801H82.0781C82.0561 39.0801 82.035 39.0887 82.0194 39.104C82.0036 39.1193 81.9946 39.1402 81.9942 39.1621V46.8777C81.9916 47.1948 81.9245 47.508 81.7972 47.7985C81.6698 48.089 81.4847 48.3507 81.2532 48.5678C81.0216 48.7849 80.7484 48.9529 80.4499 49.0617C80.1514 49.1705 79.834 49.2177 79.5167 49.2006C78.908 49.1629 78.3369 48.8943 77.9203 48.4499C77.5037 48.0055 77.2732 47.4189 77.2761 46.8104V39.1621C77.2756 39.1402 77.2666 39.1193 77.251 39.104C77.2352 39.0887 77.2142 39.0801 77.1922 39.0801H74.7114C74.6896 39.0801 74.6687 39.0887 74.6532 39.1041C74.6378 39.1195 74.6292 39.1404 74.6292 39.1621V46.7645C74.6266 48.0683 75.1312 49.3221 76.0368 50.2619C76.9424 51.2017 78.1782 51.7541 79.4838 51.8026C80.1488 51.8259 80.8117 51.716 81.4334 51.4795C82.0552 51.2431 82.6232 50.8848 83.104 50.4258C83.5849 49.9669 83.9687 49.4165 84.233 48.8071C84.4972 48.1977 84.6366 47.5417 84.6428 46.8777V39.1621C84.6424 39.1402 84.6333 39.1193 84.6176 39.104C84.602 39.0887 84.5808 39.0801 84.5589 39.0801Z" fill="#F5F7FA"/>
<path d="M67.7573 34.3047H61.4697C61.4236 34.3047 61.3875 34.3211 61.3875 34.3671L61.4088 51.7682C61.4088 51.7791 61.4111 51.7899 61.4153 51.8C61.4195 51.8101 61.4257 51.8191 61.4335 51.8268C61.4413 51.8345 61.4506 51.8405 61.4608 51.8445C61.4709 51.8485 61.4818 51.8505 61.4928 51.8503H63.9604C63.9822 51.8503 64.0031 51.8416 64.0185 51.8262C64.034 51.8108 64.0427 51.7899 64.0427 51.7682V44.7601H67.7688C70.6526 44.7601 72.9113 42.4619 72.9113 39.5316C72.9113 36.6013 70.6411 34.3047 67.7573 34.3047ZM67.7128 42.1533H64.1808C64.1372 42.1533 64.0954 42.1359 64.0645 42.1051C64.0337 42.0744 64.0163 42.0326 64.0163 41.9891V39.2049C64.0145 38.7864 63.8724 38.3805 63.6127 38.0518C63.3531 37.7231 62.9908 37.4905 62.5835 37.3909C62.5651 37.3865 62.5487 37.3759 62.5371 37.361C62.5254 37.3461 62.5191 37.3277 62.5193 37.3088V36.9887C62.5193 36.9661 62.5283 36.9443 62.5444 36.9283C62.5604 36.9123 62.5822 36.9033 62.6049 36.9033H67.7523C69.0931 36.9033 70.1262 37.8752 70.294 39.2016C70.3493 39.5693 70.3238 39.9445 70.2196 40.3014C70.1152 40.6583 69.9345 40.9884 69.6899 41.2687C69.4452 41.5491 69.1425 41.7731 68.8025 41.9253C68.4626 42.0774 68.0936 42.1541 67.7211 42.1499L67.7128 42.1533Z" fill="#F5F7FA"/>
<path d="M86.3221 49.0273C86.7992 50.0714 88.0231 51.8181 90.8839 51.8181C94.1531 51.8181 95.6151 49.8924 95.6151 47.9832C95.6151 45.8886 94.2271 44.6262 91.3744 44.1206C89.9249 43.8776 89.3047 43.4196 89.3047 42.5922C89.3047 41.8206 89.9939 41.3019 91.0189 41.3019C91.9431 41.3019 92.7217 41.819 93.0031 42.6152C93.0064 42.624 93.0111 42.632 93.0177 42.6388C93.0244 42.6456 93.0317 42.6509 93.0404 42.6546C93.0577 42.6612 93.0764 42.6612 93.0931 42.6546L95.1444 41.7402C95.1604 41.7333 95.1724 41.7208 95.1791 41.7052C95.1851 41.6896 95.1851 41.6722 95.1791 41.6565C94.5511 40.0395 92.9844 39.0742 90.9925 39.0742C88.1712 39.0742 86.6939 40.857 86.6939 42.6168C86.6939 44.6951 88.0544 45.951 90.8527 46.4516C92.3417 46.752 92.9764 47.2248 92.9764 48.0342C92.9764 48.9091 92.2051 49.4312 90.9103 49.4312C90.4297 49.4328 89.9585 49.2988 89.551 49.0446C89.1435 48.7905 88.8163 48.4265 88.6071 47.9948C88.6015 47.9835 88.5927 47.974 88.582 47.9674C88.5713 47.9607 88.5589 47.9572 88.5463 47.957C88.5377 47.9548 88.5286 47.9548 88.52 47.957L86.3567 48.9305C86.3471 48.9334 86.3383 48.9385 86.3311 48.9454C86.3238 48.9523 86.3183 48.9608 86.315 48.9702C86.3117 48.9796 86.3105 48.9897 86.3118 48.9996C86.313 49.0096 86.3165 49.019 86.3221 49.0273Z" fill="#F5F7FA"/>
</g>
<defs>
<clipPath id="clip0_971_6263">
<rect width="83.8095" height="32" fill="white" transform="translate(24.1731 28)"/>
</clipPath>
</defs>
</svg>
