<svg width="116" height="88" viewBox="0 0 116 88" fill="none" xmlns="http://www.w3.org/2000/svg">
<g style="mix-blend-mode:luminosity" clip-path="url(#clip0_971_6221)">
<path fill-rule="evenodd" clip-rule="evenodd" d="M76.4863 60.8301C77.6136 63.4867 78.7429 66.1424 79.8676 68.8002C81.1462 71.8222 82.4069 74.8519 83.7043 77.866C84.1514 78.905 84.2332 79.9013 83.4385 80.7684C82.6653 81.612 81.6825 81.6475 80.638 81.2795C78.1463 80.4012 75.6402 79.5635 73.1553 78.6666C72.5458 78.4467 72.2953 78.6059 72.039 79.1648C70.8962 81.6558 69.7176 84.1305 68.5338 86.6025C68.0613 87.5891 67.2315 87.9583 66.1592 87.8792C65.2068 87.8091 64.6196 87.275 64.269 86.4422C62.4216 82.0534 60.5823 77.6611 58.7378 73.271C58.6529 73.0685 58.5459 72.8751 58.3942 72.5651C57.7598 74.0587 57.161 75.4523 56.5748 76.8514C55.24 80.0369 53.9161 83.2269 52.5775 86.4106C52.1772 87.3629 51.4812 87.8765 50.4018 87.887C49.3165 87.8977 48.6572 87.3719 48.2156 86.4341C47.0478 83.9542 45.8512 81.4878 44.6887 79.0056C44.4739 78.5467 44.2546 78.4767 43.773 78.6472C41.1432 79.5791 38.5003 80.4747 35.8569 81.3678C34.9335 81.6798 34.0495 81.5165 33.4038 80.7987C32.7573 80.0798 32.5701 79.2126 32.9756 78.2519C35.1344 73.1378 37.2746 68.0158 39.4253 62.8983C39.53 62.6491 39.674 62.4163 39.7995 62.176C40.1296 62.3136 40.4387 62.4809 40.6501 62.7843C39.5865 65.3593 38.53 67.9373 37.457 70.5083C36.3544 73.1498 35.2327 75.7833 34.1263 78.423C33.8851 78.9986 33.8029 79.5877 34.2933 80.0804C34.7452 80.5342 35.2672 80.398 35.806 80.2097C38.5563 79.2475 41.3195 78.3216 44.0624 77.3391C44.7631 77.0881 45.1049 77.2192 45.4212 77.9119C46.6414 80.585 47.9244 83.2293 49.1807 85.886C49.4291 86.4109 49.7809 86.8196 50.4033 86.8106C50.9883 86.8022 51.3506 86.4267 51.5654 85.9145C53.5309 81.2274 55.4746 76.5309 57.4728 71.8577C57.7841 71.129 57.732 70.5677 57.2967 69.9641C57.095 70.0846 57.0619 70.2587 56.9964 70.4142C55.052 75.0303 53.1079 79.6466 51.1599 84.2614C51.0304 84.5681 50.9908 85.0029 50.5532 85.0118C50.089 85.0215 50.0058 84.5711 49.8451 84.252C48.5103 81.6031 47.1692 78.9573 45.8642 76.2939C45.6306 75.8172 45.4088 75.7055 44.9053 75.8813C43.4606 76.3856 41.9988 76.8416 40.5418 77.3103C39.0612 77.7865 37.5773 78.2524 36.0972 78.7301C35.8501 78.8098 35.6115 78.8808 35.4128 78.6583C35.2415 78.4666 35.2927 78.2476 35.3825 78.0321C35.4584 77.8498 35.5212 77.6623 35.5976 77.4802C37.5943 72.7255 39.592 67.9711 41.5894 63.2166C43.2581 63.6551 44.9678 63.6108 46.6558 63.506C48.8875 63.3675 50.7927 64.0773 52.6066 65.2893C54.0778 66.2721 55.5919 67.2207 57.4603 67.2596C60.0335 73.4029 62.6104 79.5447 65.1743 85.6921C65.4166 86.2731 65.6993 86.7904 66.397 86.8091C67.0939 86.8279 67.4267 86.3289 67.6926 85.7636C68.8799 83.2388 70.0596 80.7104 71.2744 78.1989C71.8415 77.0265 71.562 76.9516 73.0789 77.4735C75.7402 78.3896 78.4035 79.3001 81.059 80.2327C81.6429 80.4378 82.1655 80.4799 82.6161 79.99C83.0726 79.4938 82.9423 78.9732 82.7064 78.414C80.3666 72.8681 78.0398 67.3167 75.7093 61.7668C75.9478 61.4375 76.1412 61.0709 76.4863 60.8301Z" fill="#9AA5B1"/>
<mask id="mask0_971_6221" style="mask-type:alpha" maskUnits="userSpaceOnUse" x="24" y="0" width="68" height="68">
<path d="M24 0.148438H91.1659V67.2825H24V0.148438Z" fill="white"/>
</mask>
<g mask="url(#mask0_971_6221)">
<path fill-rule="evenodd" clip-rule="evenodd" d="M46.5254 5.21407C45.3236 5.21407 44.5052 5.18098 43.6906 5.2212C42.208 5.29451 40.9722 5.84655 40.0885 7.10882C39.4048 8.08528 38.8394 9.12614 38.3032 10.1821C37.3403 12.0787 35.9237 13.495 34.0216 14.4496C33.1829 14.8706 32.3756 15.3543 31.5583 15.817C29.8488 16.7845 29.0463 18.267 29.0632 20.2155C29.0741 21.4766 29.0634 22.7378 29.083 23.9986C29.1048 25.3953 28.7474 26.6852 28.039 27.8811C27.4724 28.8375 26.9071 29.7953 26.3198 30.7391C25.1058 32.6898 25.0444 34.6337 26.3019 36.59C26.5958 37.0469 26.833 37.5426 27.1499 37.9818C28.6421 40.0511 29.3077 42.3376 29.0891 44.8896C29.0216 45.6755 29.0595 46.4714 29.0663 47.2623C29.0806 48.949 29.664 50.3542 31.1337 51.2939C31.6953 51.653 32.2516 52.039 32.8568 52.3083C35.5686 53.5147 37.6005 55.3898 38.8102 58.1276C39.0586 58.6899 39.4004 59.2118 39.7092 59.7466C40.677 61.4223 42.1578 62.1949 44.0686 62.1941C45.3805 62.1937 46.6925 62.1906 48.0044 62.1777C49.404 62.164 50.6856 62.564 51.8801 63.2662C52.8391 63.8299 53.797 64.3965 54.7417 64.9837C56.6284 66.1567 58.5079 66.1715 60.3985 64.9992C61.1129 64.5563 61.8496 64.1486 62.5533 63.6897C64.1735 62.6336 65.916 62.0612 67.8753 62.1694C68.9367 62.2278 70.0035 62.1915 71.0678 62.1947C73.0085 62.2004 74.5096 61.4226 75.4804 59.7104C75.9435 58.8938 76.4292 58.0881 76.8504 57.2501C77.805 55.3509 79.204 53.9184 81.115 52.969C81.9775 52.5404 82.813 52.0541 83.641 51.5611C84.9849 50.7616 85.8866 49.657 86.0404 48.0316C86.183 46.5248 86.0842 45.0181 86.0799 43.512C86.0756 41.9844 86.4574 40.5855 87.2477 39.2863C87.8255 38.3364 88.3903 37.3786 88.9646 36.4266C90.0283 34.6635 90.0816 32.8845 89.0391 31.096C88.5787 30.3062 88.1152 29.5172 87.6186 28.7501C86.5547 27.1078 85.9642 25.3481 86.0792 23.3631C86.1422 22.2787 86.1171 21.1876 86.1019 20.1C86.0787 18.4469 85.5052 17.0709 84.0719 16.1203C83.1011 15.4761 82.0807 14.9227 81.0464 14.395C79.2226 13.4643 77.8543 12.0956 76.9165 10.277C76.4524 9.37738 75.9481 8.49738 75.4351 7.62421C74.6369 6.26547 73.4866 5.40046 71.8812 5.25385C71.2669 5.19775 70.6458 5.21853 70.0275 5.20755C68.6925 5.1835 67.3509 5.3178 66.023 5.13691C64.3822 4.91342 62.9755 4.08566 61.6859 3.13502C58.9314 1.10434 56.271 1.07585 53.5162 3.12552C51.3414 4.74365 48.9125 5.6241 46.5254 5.21407ZM40.6498 62.7848C40.4385 62.4813 40.1293 62.3141 39.7992 62.1766C38.3785 60.5078 37.5133 58.4949 36.3692 56.6548C35.6512 55.5001 34.5482 54.7984 33.3859 54.1657C32.2578 53.5515 31.0957 52.9939 30.0634 52.215C28.5636 51.0833 27.7915 49.5726 27.7335 47.7052C27.7061 46.816 27.6628 45.9185 27.7469 45.0362C27.9714 42.6822 27.3228 40.6036 25.9799 38.6866C25.4717 37.9611 25.0385 37.1744 24.6469 36.3782C23.7611 34.5777 23.8011 32.761 24.6671 30.9536C25.1599 29.9247 25.7869 28.975 26.3954 28.0162C27.321 26.5579 27.8518 25.0108 27.7512 23.2566C27.6905 22.1964 27.7367 21.1306 27.7236 20.0675C27.6939 17.6719 28.7614 15.898 30.7922 14.682C31.5764 14.2125 32.3691 13.7505 33.1896 13.3498C34.9915 12.47 36.3166 11.15 37.2069 9.34889C37.8181 8.11169 38.4529 6.88014 39.3701 5.82013C40.4955 4.51942 41.9348 3.92865 43.62 3.88027C44.4855 3.85549 45.3598 3.80118 46.2168 3.88977C48.6351 4.13938 50.7469 3.42113 52.7026 2.05528C53.3484 1.60444 54.0546 1.23404 54.7552 0.86913C56.6485 -0.117271 58.5462 -0.067706 60.4487 0.874473C61.4271 1.35899 62.3431 1.9465 63.2564 2.53416C64.7371 3.48672 66.3257 3.9754 68.0966 3.89838C69.1591 3.85208 70.2246 3.8828 71.2887 3.87345C73.6917 3.85223 75.4479 4.94918 76.6494 6.98402C77.139 7.81327 77.6279 8.64622 78.0556 9.50812C78.8895 11.1889 80.1424 12.421 81.8178 13.2572C82.8566 13.7757 83.8803 14.3272 84.8401 14.987C86.5574 16.1676 87.4212 17.8025 87.4432 19.8804C87.4516 20.6963 87.5051 21.5186 87.4264 22.327C87.1943 24.7064 87.8471 26.8131 89.2154 28.7441C89.6423 29.3466 89.9954 30.0047 90.3481 30.6559C91.5218 32.8237 91.4045 34.9662 90.1739 37.0711C89.5627 38.1163 88.9406 39.1548 88.321 40.1947C87.6981 41.2404 87.413 42.3717 87.427 43.5864C87.4414 44.8225 87.4268 46.0593 87.4479 47.2953C87.4888 49.693 86.4259 51.4706 84.4066 52.6976C83.541 53.2236 82.6503 53.7113 81.7511 54.1781C80.2874 54.9381 79.0849 55.9537 78.3114 57.4396C77.7188 58.578 77.0964 59.7009 76.4867 60.8305C76.1409 61.0714 75.9475 61.4379 75.709 61.7672C75.3952 61.9441 75.1558 62.2035 74.9259 62.4736C73.6006 63.3616 72.1218 63.594 70.5596 63.5401C69.4492 63.5018 68.3365 63.5318 67.2248 63.529C66.4514 63.5268 65.7064 63.6695 64.999 63.9798C62.8 64.9447 60.9538 66.5913 58.6126 67.2826C58.2303 67.1736 57.8445 67.2585 57.46 67.26C55.5917 67.2213 54.0775 66.2726 52.6065 65.2897C50.7924 64.0778 48.8872 63.368 46.6555 63.5064C44.9675 63.6114 43.2578 63.6556 41.589 63.2172C41.3063 63.0069 41.0067 62.834 40.6498 62.7848Z" fill="#52606D"/>
</g>
<path opacity="0.95" fill-rule="evenodd" clip-rule="evenodd" d="M67.0774 40.6875C67.6789 40.7054 68.0839 40.2081 67.9082 39.5929C66.8378 35.8497 65.7522 32.1109 64.6697 28.3712C64.5029 27.7951 64.063 27.6786 63.5584 27.7983C63.146 27.896 63.0373 28.2846 62.9302 28.6457C62.236 30.9842 61.5411 33.3225 60.8452 35.6605C60.4655 36.9357 60.0683 38.2058 59.71 39.4868C59.5623 40.0148 59.6748 40.5055 60.287 40.6581C60.8204 40.791 61.1877 40.5769 61.3313 40.0029C61.4687 39.4538 61.6758 38.9221 61.8141 38.3732C61.9096 37.9946 62.1065 37.8591 62.4934 37.8692C63.3579 37.8916 64.2238 37.8912 65.0882 37.8695C65.4958 37.8594 65.72 37.9675 65.8063 38.4072C65.9104 38.9368 66.0945 39.4517 66.2586 39.9683C66.385 40.3656 66.5859 40.6964 67.0774 40.6875ZM47.6388 34.2599C47.5803 34.8735 47.7581 35.4535 48.0454 36.0156C48.5961 37.0928 49.1448 38.1717 49.6676 39.2627C50.0883 40.1411 50.7247 40.6622 51.7293 40.6965C52.7867 40.7327 53.4344 40.1798 53.8685 39.2823C54.438 38.1044 55.0308 36.9374 55.5858 35.7529C56.0634 34.7337 56.0601 33.6972 55.5638 32.6793C54.947 31.4142 54.3379 30.145 53.6908 28.8955C52.9154 27.3984 50.7606 27.2907 49.9191 28.7577C49.1346 30.1255 48.4951 31.5769 47.8128 33.0016C47.6303 33.3827 47.5991 33.8113 47.6388 34.2599ZM71.6964 34.0063C71.6964 35.8846 71.7037 37.763 71.6921 39.6412C71.6885 40.2531 71.9055 40.6728 72.5616 40.6806C73.3103 40.6894 73.4239 40.1216 73.4362 39.5527C73.4591 38.4903 73.4616 37.4267 73.4352 36.3648C73.4239 35.9108 73.5766 35.7636 74.0292 35.7736C75.1915 35.7992 76.3551 35.8012 77.5174 35.7759C78.901 35.7461 79.9519 34.7092 79.9942 33.3251C80.0258 32.2881 80.0279 31.2484 79.9935 30.2114C79.9468 28.7996 78.8551 27.7713 77.444 27.7675C75.7617 27.7627 74.0789 27.7874 72.3971 27.7541C71.8561 27.7433 71.671 27.873 71.6824 28.4457C71.7197 30.2986 71.6964 32.1526 71.6964 34.0063ZM35.5982 34.0293C35.5982 35.8581 35.5972 37.687 35.5995 39.516C35.5998 39.7128 35.573 39.9263 35.6383 40.1028C35.7907 40.5137 36.1018 40.7275 36.5604 40.6854C37.1328 40.6328 37.3091 40.2111 37.325 39.7515C37.3627 38.6654 37.3698 37.5763 37.3337 36.4902C37.3158 35.951 37.4515 35.7467 38.0287 35.7689C39.1649 35.8132 40.3048 35.8025 41.4423 35.7747C42.7877 35.7419 43.8415 34.7193 43.8934 33.3762C43.9342 32.315 43.933 31.2499 43.8941 30.1886C43.8424 28.7803 42.7461 27.7704 41.3228 27.7672C39.6405 27.7635 37.9575 27.7918 36.2761 27.7522C35.6991 27.7387 35.5771 27.9316 35.5862 28.4685C35.6174 30.3216 35.5982 32.1756 35.5982 34.0293ZM46.5254 5.21365C48.9125 5.62368 51.3415 4.74323 53.5163 3.12495C56.2709 1.07528 58.9314 1.10392 61.6859 3.1346C62.9755 4.08509 64.3821 4.91285 66.023 5.13649C67.3509 5.31724 68.6925 5.18308 70.0275 5.20698C70.6458 5.21811 71.2669 5.19733 71.8812 5.25342C73.4866 5.40004 74.637 6.26505 75.4351 7.62379C75.9481 8.49696 76.4524 9.37681 76.9164 10.2765C77.8543 12.0952 79.2226 13.4638 81.0464 14.3944C82.0808 14.9223 83.1012 15.4757 84.072 16.1197C85.5052 17.0705 86.0788 18.4465 86.1018 20.0995C86.1171 21.1872 86.1422 22.2781 86.0792 23.3627C85.9642 25.3476 86.5547 27.1073 87.6185 28.7497C88.1153 29.5166 88.5787 30.3058 89.0391 31.0956C90.0815 32.8841 90.0283 34.6629 88.9647 36.4261C88.3904 37.378 87.8256 38.3358 87.2477 39.2857C86.4574 40.5851 86.0756 41.984 86.0799 43.5116C86.0842 45.0176 86.183 46.5244 86.0404 48.0312C85.8867 49.6566 84.985 50.761 83.641 51.5607C82.813 52.0536 81.9775 52.54 81.115 52.9684C79.2041 53.918 77.805 55.3505 76.8504 57.2497C76.4293 58.0876 75.9435 58.8934 75.4803 59.71C74.5097 61.4221 73.0085 62.1998 71.0679 62.1942C70.0035 62.1911 68.9367 62.2274 67.8753 62.1688C65.9161 62.0608 64.1736 62.633 62.5533 63.6891C61.8496 64.148 61.1129 64.5558 60.3985 64.9988C58.5078 66.1709 56.6284 66.1563 54.7417 64.9832C53.797 64.396 52.8392 63.8295 51.8801 63.2658C50.6856 62.5635 49.4041 62.1635 48.0042 62.1773C46.6925 62.1902 45.3805 62.1931 44.0687 62.1936C42.1578 62.1943 40.6771 61.4218 39.7092 59.7461C39.4004 59.2114 39.0586 58.6895 38.8102 58.1272C37.6005 55.3894 35.5686 53.5142 32.8568 52.3078C32.2515 52.0386 31.6953 51.6524 31.1338 51.2933C29.664 50.3537 29.0806 48.9485 29.0664 47.2618C29.0595 46.4708 29.0217 45.6751 29.0891 44.8892C29.3078 42.3372 28.6421 40.0507 27.1499 37.9814C26.833 37.542 26.5958 37.0465 26.302 36.5894C25.0445 34.6333 25.1057 32.6894 26.3198 30.7386C26.9072 29.7949 27.4724 28.8371 28.039 27.8807C28.7474 26.6846 29.1048 25.3947 29.083 23.9982C29.0634 22.7374 29.0741 21.4761 29.0633 20.2151C29.0463 18.2666 29.8488 16.7841 31.5583 15.8164C32.3757 15.3538 33.1829 14.8701 34.0215 14.4492C35.9237 13.4946 37.3403 12.0781 38.3032 10.1817C38.8395 9.12557 39.4049 8.08486 40.0885 7.10825C40.9722 5.84598 42.2079 5.29394 43.6904 5.22078C44.5052 5.18056 45.3236 5.21365 46.5254 5.21365Z" fill="#FEFEFE"/>
<path fill-rule="evenodd" clip-rule="evenodd" d="M74.9261 62.4727C76.7545 66.8402 78.5828 71.2075 80.4111 75.575C80.7255 76.3258 81.0489 77.0728 81.3503 77.8286C81.4559 78.0933 81.6405 78.3849 81.3901 78.6612C81.1344 78.9433 80.8428 78.7688 80.5656 78.6798C77.6993 77.7593 74.8275 76.8546 71.9713 75.9036C71.4028 75.7141 71.1697 75.8357 70.9126 76.3627C69.6129 79.0267 68.2689 81.6693 66.9376 84.3182C66.7966 84.5985 66.7051 84.9281 66.2822 84.9256C65.8422 84.9227 65.7862 84.5596 65.6696 84.2829C63.3633 78.8058 61.0652 73.325 58.7695 67.8433C58.6949 67.6652 58.6641 67.4689 58.613 67.2813C60.9541 66.5904 62.8003 64.9438 64.9993 63.9789C65.7066 63.6687 66.4517 63.526 67.225 63.5281C68.3368 63.531 69.4495 63.5011 70.5597 63.5392C72.1221 63.5932 73.6009 63.3607 74.9261 62.4727Z" fill="#F78C69"/>
<path fill-rule="evenodd" clip-rule="evenodd" d="M37.2732 31.7485C37.2732 32.3653 37.2848 32.9822 37.2688 33.5985C37.2596 33.9546 37.3445 34.1455 37.7588 34.138C38.919 34.1176 40.0798 34.134 41.2403 34.129C41.8736 34.1262 42.2093 33.7667 42.2306 33.1666C42.2628 32.255 42.268 31.3406 42.2323 30.4294C42.2083 29.8073 41.8831 29.428 41.196 29.4362C40.085 29.4494 38.9734 29.4545 37.8627 29.4329C37.4039 29.4239 37.2493 29.6075 37.2677 30.0469C37.2913 30.6131 37.2734 31.1812 37.2732 31.7485ZM35.5984 34.0297C35.5984 32.1759 35.6175 30.322 35.5864 28.4689C35.5772 27.932 35.6993 27.739 36.2763 27.7526C37.9576 27.7922 39.6407 27.7638 41.323 27.7676C42.7463 27.7707 43.8426 28.7807 43.8942 30.189C43.9333 31.2504 43.9344 32.3154 43.8936 33.3766C43.8417 34.7198 42.7879 35.7424 41.4423 35.7752C40.305 35.8029 39.1652 35.8136 38.0288 35.7694C37.4518 35.747 37.316 35.9515 37.334 36.4906C37.3701 37.5766 37.3629 38.6658 37.3252 39.7519C37.3093 40.2115 37.133 40.6333 36.5606 40.6858C36.102 40.7278 35.791 40.514 35.6386 40.103C35.5732 39.9268 35.5999 39.7131 35.5996 39.5164C35.5974 37.6874 35.5984 35.8586 35.5984 34.0297Z" fill="#52606D"/>
<path fill-rule="evenodd" clip-rule="evenodd" d="M73.3713 31.7788C73.3713 32.3955 73.3875 33.0127 73.3655 33.6285C73.3514 34.0197 73.5081 34.1429 73.887 34.1372C75.0226 34.1203 76.1586 34.1292 77.2944 34.1313C77.963 34.1325 78.3118 33.7744 78.3314 33.1364C78.3592 32.2247 78.3689 31.3101 78.3273 30.3994C78.2987 29.7705 77.9424 29.4232 77.2636 29.4348C76.1776 29.4532 75.0903 29.4574 74.0045 29.4317C73.5186 29.4201 73.3392 29.596 73.3641 30.0771C73.3934 30.6429 73.371 31.2114 73.3713 31.7788ZM71.6963 34.0067C71.6963 32.153 71.7197 30.2989 71.6824 28.446C71.6709 27.8735 71.856 27.7438 72.3969 27.7545C74.0788 27.7877 75.7616 27.7631 77.444 27.7679C78.8551 27.7717 79.9468 28.8 79.9934 30.2118C80.0279 31.2488 80.0258 32.2885 79.9942 33.3255C79.9518 34.7096 78.901 35.7465 77.5174 35.7763C76.3551 35.8015 75.1915 35.7996 74.0292 35.7739C73.5766 35.764 73.4239 35.9112 73.4351 36.3651C73.4614 37.4272 73.4591 38.4907 73.4362 39.553C73.4239 40.122 73.3102 40.6898 72.5615 40.681C71.9055 40.6733 71.6885 40.2535 71.692 39.6416C71.7035 37.7634 71.6963 35.8849 71.6963 34.0067Z" fill="#52606D"/>
<path fill-rule="evenodd" clip-rule="evenodd" d="M54.2111 34.24C54.1629 34.0002 54.1613 33.7381 54.0588 33.5243C53.4613 32.278 52.858 31.0337 52.2187 29.8086C51.9403 29.2751 51.5013 29.2803 51.2205 29.8249C50.6099 31.0091 50.0375 32.2133 49.4693 33.4188C49.1759 34.0412 49.254 34.6717 49.552 35.2749C50.0877 36.3596 50.6339 37.439 51.1741 38.5216C51.2978 38.7694 51.423 39.0334 51.7497 39.0189C52.0305 39.0066 52.1566 38.7776 52.271 38.5491C52.8352 37.4235 53.4056 36.301 53.9697 35.1754C54.1154 34.8847 54.2005 34.5763 54.2111 34.24ZM47.6387 34.2596C47.5991 33.811 47.6303 33.3824 47.8128 33.0013C48.4949 31.5767 49.1346 30.1252 49.9189 28.7576C50.7605 27.2904 52.9152 27.3981 53.6907 28.8952C54.3378 30.1447 54.9468 31.4141 55.5636 32.679C56.0599 33.6969 56.0633 34.7334 55.5856 35.7526C55.0306 36.9372 54.4379 38.1042 53.8683 39.282C53.4343 40.1795 52.7867 40.7324 51.7292 40.6962C50.7245 40.6619 50.0883 40.1408 49.6674 39.2625C49.1448 38.1714 48.5961 37.0925 48.0452 36.0153C47.7579 35.4532 47.5803 34.8734 47.6387 34.2596Z" fill="#52606D"/>
<path fill-rule="evenodd" clip-rule="evenodd" d="M63.9279 31.9612C63.8642 31.9627 63.8005 31.964 63.7366 31.9655C63.5092 32.7356 63.2629 33.5007 63.0598 34.277C62.894 34.9111 62.2713 35.7614 62.7033 36.1244C63.1249 36.4785 64.0658 36.2106 64.7786 36.226C65.0884 36.2329 65.1477 36.1296 65.0568 35.8295C64.6674 34.5441 64.3021 33.2513 63.9279 31.9612ZM67.078 40.6869C66.5861 40.6962 66.3851 40.3655 66.2587 39.9683C66.0946 39.4516 65.9105 38.9367 65.8065 38.407C65.7201 37.9673 65.4959 37.8593 65.0884 37.8694C64.2239 37.8911 63.3579 37.8915 62.4935 37.8693C62.1065 37.8592 61.9097 37.9946 61.8142 38.3731C61.6759 38.922 61.4688 39.4537 61.3314 40.0028C61.1877 40.5769 60.8205 40.7909 60.2871 40.6579C59.6749 40.5055 59.5624 40.0148 59.7101 39.4866C60.0686 38.2057 60.4656 36.9355 60.8453 35.6603C61.5413 33.3223 62.2361 30.9842 62.9303 28.6456C63.0374 28.2847 63.1461 27.8959 63.5585 27.7982C64.0631 27.6786 64.503 27.795 64.6698 28.371C65.7523 32.1108 66.8379 35.8496 67.9083 39.5927C68.0841 40.208 67.679 40.7053 67.078 40.6869Z" fill="#52606D"/>
<path fill-rule="evenodd" clip-rule="evenodd" d="M37.2731 31.7495C37.2732 31.1822 37.291 30.6141 37.2674 30.0478C37.2491 29.6084 37.4038 29.4249 37.8625 29.4339C38.9732 29.4554 40.0847 29.4504 41.1957 29.4372C41.8829 29.429 42.208 29.8083 42.2322 30.4304C42.2677 31.3416 42.2625 32.256 42.2303 33.1676C42.2092 33.7677 41.8734 34.1271 41.2402 34.13C40.0797 34.135 38.9187 34.1185 37.7587 34.139C37.3442 34.1464 37.2592 33.9556 37.2685 33.5994C37.2847 32.9831 37.2731 32.3663 37.2731 31.7495Z" fill="#FEFEFE"/>
<path fill-rule="evenodd" clip-rule="evenodd" d="M73.3711 31.7792C73.3709 31.2119 73.3933 30.6434 73.3641 30.0776C73.3391 29.5965 73.5186 29.4206 74.0045 29.4322C75.0903 29.4578 76.1775 29.4537 77.2636 29.4353C77.9422 29.4237 78.2987 29.771 78.3272 30.3999C78.3688 31.3106 78.3591 32.2252 78.3314 33.1369C78.3118 33.7749 77.963 34.133 77.2943 34.1318C76.1585 34.1297 75.0225 34.1208 73.887 34.1377C73.508 34.1434 73.3513 34.0202 73.3654 33.629C73.3874 33.0132 73.3712 32.396 73.3711 31.7792Z" fill="#FEFEFE"/>
<path fill-rule="evenodd" clip-rule="evenodd" d="M54.2113 34.2397C54.2007 34.576 54.1156 34.8844 53.9699 35.1751C53.4058 36.3007 52.8354 37.4232 52.2712 38.5488C52.1568 38.7773 52.0307 39.0063 51.7499 39.0186C51.4232 39.0331 51.298 38.7691 51.1743 38.5213C50.6341 37.4388 50.0879 36.3593 49.5522 35.2747C49.2542 34.6714 49.1761 34.0409 49.4695 33.4185C50.0377 32.2131 50.6101 31.0088 51.2208 29.8246C51.5015 29.28 51.9405 29.2748 52.2189 29.8083C52.8583 31.0335 53.4615 32.2778 54.059 33.524C54.1615 33.7379 54.1631 33.9999 54.2113 34.2397Z" fill="#FEFEFE"/>
<path fill-rule="evenodd" clip-rule="evenodd" d="M63.928 31.9609C64.3022 33.251 64.6675 34.5438 65.0568 35.8292C65.1477 36.1293 65.0885 36.2326 64.7786 36.2257C64.0658 36.2103 63.1249 36.4782 62.7033 36.1241C62.2713 35.7611 62.8941 34.9108 63.0598 34.2767C63.2629 33.5004 63.5092 32.7353 63.7366 31.9652C63.8005 31.9638 63.8643 31.9624 63.928 31.9609Z" fill="#FEFEFE"/>
</g>
<defs>
<clipPath id="clip0_971_6221">
<rect width="67.2941" height="88" fill="white" transform="translate(24)"/>
</clipPath>
</defs>
</svg>
