<svg width="109" height="109" viewBox="0 0 109 109" fill="none" xmlns="http://www.w3.org/2000/svg">
<rect width="109" height="109" fill="#1F2933"/>
<path d="M46.9107 39.6248C47.0814 38.9979 46.8365 38.4468 46.2289 38.3252C45.4427 38.168 44.1132 38 42.0214 38C39.9169 38 38.4605 38.17 37.5613 38.3281C36.8712 38.4494 36.3056 39.0129 36.1307 39.6552L28.0527 69.303C27.8941 69.8852 28.0942 70.4085 28.6412 70.5551C29.417 70.763 30.7922 71 33.0301 71C35.2637 71 36.7328 70.7639 37.5927 70.5563C38.1997 70.4098 38.6615 69.9015 38.815 69.3379L46.9107 39.6248Z" fill="#D93F0C"/>
<path d="M80.8799 39.6248C81.0506 38.9979 80.8057 38.4468 80.1981 38.3252C79.4118 38.168 78.0824 38 75.9905 38C73.8861 38 72.4297 38.17 71.5305 38.3281C70.8404 38.4494 70.2748 39.0129 70.0998 39.6552L62.0219 69.303C61.8633 69.8852 62.0633 70.4085 62.6104 70.5551C63.3861 70.763 64.7614 71 66.9992 71C69.2329 71 70.702 70.7639 71.5619 70.5563C72.1688 70.4098 72.6306 69.9015 72.7841 69.3379L80.8799 39.6248Z" fill="#D93F0C"/>
<path d="M64.0602 39.6248C64.2309 38.9979 63.986 38.4468 63.3784 38.3252C62.5922 38.168 61.2627 38 59.1709 38C57.0664 38 55.61 38.17 54.7108 38.3281C54.0207 38.4494 53.4551 39.0129 53.2802 39.6552L45.2023 69.303C45.0436 69.8852 45.2436 70.4085 45.7907 70.5551C46.5665 70.763 47.9417 71 50.1796 71C52.4132 71 53.8823 70.7639 54.7422 70.5563C55.3492 70.4098 55.811 69.9015 55.9645 69.3379L64.0602 39.6248Z" fill="#D93F0C"/>
<path d="M36.7727 39.6248C36.602 38.9979 36.8469 38.4468 37.4546 38.3252C38.2407 38.168 39.5702 38 41.6621 38C43.7665 38 45.2229 38.17 46.1221 38.3281C46.8122 38.4494 47.3778 39.0129 47.5527 39.6552L55.6307 69.303C55.7893 69.8852 55.5893 70.4085 55.0422 70.5551C54.2664 70.763 52.8913 71 50.6533 71C48.4197 71 46.9506 70.7639 46.0907 70.5563C45.4838 70.4098 45.022 69.9015 44.8684 69.3379L36.7727 39.6248Z" fill="#F35826"/>
<path d="M53.5924 39.6248C53.4216 38.9979 53.6666 38.4468 54.2743 38.3252C55.0604 38.168 56.3899 38 58.4817 38C60.5862 38 62.0426 38.17 62.9418 38.3281C63.6319 38.4494 64.1975 39.0129 64.3724 39.6552L72.4504 69.303C72.609 69.8852 72.4089 70.4085 71.8619 70.5551C71.0861 70.763 69.7109 71 67.473 71C65.2394 71 63.7703 70.7639 62.9103 70.5563C62.3034 70.4098 61.8417 69.9015 61.6881 69.3379L53.5924 39.6248Z" fill="#F35826"/>
</svg>
