<svg width="256" height="255" viewBox="0 0 256 255" fill="none" xmlns="http://www.w3.org/2000/svg">
<g clip-path="url(#clip0_75_1412)">
<path d="M168.859 67.559H126.841C125.921 67.5618 125.013 67.3545 124.185 66.953C123.357 66.5514 122.632 65.9662 122.064 65.2418C121.486 64.5106 121.082 63.657 120.883 62.746C120.685 61.835 120.696 60.8906 120.917 59.9848C124.79 43.7496 124.79 26.83 120.917 10.5949C120.696 9.6891 120.685 8.74479 120.883 7.83386C121.082 6.92293 121.486 6.06938 122.064 5.33814C122.632 4.61371 123.357 4.02845 124.185 3.62691C125.013 3.22537 125.921 3.01813 126.841 3.02096H168.859C170.31 3.02514 171.712 3.54459 172.816 4.48681C173.92 5.42903 174.653 6.73283 174.887 8.16599C177.652 26.1427 177.652 44.4372 174.887 62.414C174.653 63.8471 173.92 65.1509 172.816 66.0932C171.712 67.0354 170.31 67.5548 168.859 67.559Z" fill="#E6E6E6"/>
<path d="M126.841 6.1854C126.399 6.18391 125.963 6.28329 125.565 6.47598C125.168 6.66867 124.819 6.94959 124.546 7.29737C124.266 7.65371 124.07 8.06947 123.973 8.51304C123.877 8.95661 123.883 9.4163 123.991 9.85714C127.98 26.5774 127.98 44.0025 123.991 60.7228C123.883 61.1636 123.877 61.6232 123.973 62.0667C124.069 62.5101 124.265 62.9258 124.546 63.2821L124.547 63.2823C124.819 63.6302 125.168 63.9112 125.565 64.1039C125.963 64.2967 126.399 64.3961 126.841 64.3946H168.859C169.556 64.3948 170.23 64.1475 170.762 63.6968C171.293 63.246 171.648 62.6211 171.762 61.9332C174.478 44.2751 174.478 26.3049 171.762 8.64678C171.648 7.9589 171.293 7.33394 170.762 6.88318C170.23 6.43243 169.556 6.18515 168.859 6.18539L126.841 6.1854Z" fill="white"/>
<path d="M159.69 21.4014H137.64C136.802 21.4005 135.999 21.0668 135.406 20.4736C134.813 19.8804 134.48 19.076 134.479 18.2371V17.0005C134.48 16.1616 134.813 15.3573 135.406 14.764C135.999 14.1708 136.802 13.8371 137.64 13.8362H159.69C160.528 13.8371 161.332 14.1708 161.924 14.764C162.517 15.3573 162.85 16.1616 162.851 17.0005V18.2371C162.85 19.0761 162.517 19.8804 161.924 20.4736C161.332 21.0668 160.528 21.4005 159.69 21.4014Z" fill="#E6E6E6"/>
<path d="M159.69 37.0262H137.64C136.802 37.0253 135.999 36.6916 135.406 36.0983C134.813 35.5051 134.48 34.7008 134.479 33.8619V32.6253C134.48 31.7864 134.813 30.982 135.406 30.3888C135.999 29.7956 136.802 29.4619 137.64 29.461H159.69C160.528 29.4619 161.332 29.7956 161.924 30.3888C162.517 30.982 162.85 31.7864 162.851 32.6253V33.8619C162.85 34.7008 162.517 35.5051 161.924 36.0983C161.332 36.6916 160.528 37.0252 159.69 37.0262Z" fill="#E6E6E6"/>
<path d="M159.69 52.6509H137.64C136.802 52.65 135.999 52.3163 135.406 51.7231C134.813 51.1299 134.48 50.3256 134.479 49.4866V48.2501C134.48 47.4111 134.813 46.6068 135.406 46.0136C135.999 45.4203 136.802 45.0867 137.64 45.0858H159.69C160.528 45.0867 161.332 45.4203 161.924 46.0136C162.517 46.6068 162.85 47.4111 162.851 48.2501V49.4866C162.85 50.3256 162.517 51.1299 161.924 51.7231C161.332 52.3163 160.528 52.65 159.69 52.6509Z" fill="#E6E6E6"/>
<path d="M247.898 107.642H205.88C204.96 107.645 204.052 107.437 203.224 107.036C202.397 106.634 201.671 106.049 201.103 105.325C200.525 104.593 200.121 103.74 199.923 102.829C199.724 101.918 199.736 100.973 199.957 100.067C203.829 83.8324 203.829 66.9128 199.956 50.6777C199.735 49.7718 199.724 48.8275 199.923 47.9166C200.122 47.0057 200.525 46.1521 201.103 45.4209C201.671 44.6964 202.396 44.1112 203.224 43.7096C204.052 43.3081 204.96 43.1009 205.88 43.1037H247.898C249.349 43.1079 250.751 43.6273 251.855 44.5695C252.959 45.5118 253.693 46.8156 253.926 48.2487C256.691 66.2255 256.691 84.5199 253.926 102.497C253.693 103.93 252.959 105.234 251.855 106.176C250.751 107.118 249.349 107.638 247.898 107.642Z" fill="#E6E6E6"/>
<path d="M205.88 46.2681C205.439 46.2666 205.002 46.366 204.605 46.5587C204.207 46.7514 203.859 47.0323 203.586 47.3801C203.305 47.7364 203.109 48.1522 203.013 48.5958C202.916 49.0393 202.923 49.499 203.031 49.9399C207.019 66.6601 207.019 84.0853 203.031 100.806C202.923 101.246 202.917 101.706 203.013 102.149C203.109 102.593 203.305 103.009 203.586 103.365L203.586 103.365C203.859 103.713 204.207 103.994 204.605 104.187C205.002 104.379 205.439 104.479 205.88 104.477H247.898C248.595 104.478 249.269 104.23 249.801 103.78C250.332 103.329 250.687 102.704 250.801 102.016C253.517 84.3578 253.517 66.3876 250.801 48.7295C250.687 48.0416 250.332 47.4167 249.801 46.9659C249.269 46.5152 248.595 46.2679 247.898 46.2681L205.88 46.2681Z" fill="white"/>
<path d="M164.117 153.262H122.099C121.139 153.265 120.191 153.049 119.328 152.63C118.464 152.211 117.707 151.6 117.115 150.845C116.512 150.082 116.091 149.192 115.884 148.242C115.676 147.292 115.688 146.307 115.919 145.363C119.781 129.168 119.781 112.291 115.918 96.096C115.688 95.1514 115.676 94.1667 115.884 93.2168C116.091 92.2669 116.512 91.3769 117.115 90.6144C117.707 89.8586 118.464 89.248 119.327 88.8291C120.191 88.4101 121.139 88.1939 122.099 88.1968H164.117C165.63 88.2013 167.093 88.7434 168.245 89.7266C169.396 90.7097 170.162 92.0701 170.405 93.5653C173.174 111.569 173.174 129.89 170.405 147.894C170.162 149.389 169.396 150.749 168.245 151.732C167.093 152.716 165.63 153.258 164.117 153.262Z" fill="#F2F2F2"/>
<path d="M238.729 69.3952H216.68C215.842 69.3943 215.038 69.0606 214.445 68.4674C213.853 67.8742 213.519 67.0698 213.518 66.2309V64.9943C213.519 64.1554 213.853 63.3511 214.445 62.7578C215.038 62.1646 215.842 61.8309 216.68 61.83H238.729C239.567 61.8309 240.371 62.1646 240.964 62.7578C241.556 63.3511 241.89 64.1554 241.891 64.9943V66.2309C241.89 67.0699 241.556 67.8742 240.964 68.4674C240.371 69.0606 239.567 69.3943 238.729 69.3952Z" fill="#E6E6E6"/>
<path d="M238.729 85.02H216.68C215.842 85.019 215.038 84.6854 214.445 84.0921C213.853 83.4989 213.519 82.6946 213.518 81.8557V80.6191C213.519 79.7801 213.853 78.9758 214.445 78.3826C215.038 77.7894 215.842 77.4557 216.68 77.4548H238.729C239.567 77.4557 240.371 77.7894 240.964 78.3826C241.556 78.9758 241.89 79.7801 241.891 80.6191V81.8557C241.89 82.6946 241.556 83.4989 240.964 84.0921C240.371 84.6854 239.567 85.019 238.729 85.02Z" fill="#E6E6E6"/>
<path d="M143.225 132.642C149.919 132.642 155.345 127.211 155.345 120.512C155.345 113.813 149.919 108.382 143.225 108.382C136.532 108.382 131.106 113.813 131.106 120.512C131.106 127.211 136.532 132.642 143.225 132.642Z" fill="white"/>
<path d="M149.021 118.93H144.806V114.71C144.806 114.291 144.639 113.888 144.343 113.592C144.047 113.295 143.644 113.128 143.225 113.128C142.806 113.128 142.404 113.295 142.107 113.592C141.811 113.888 141.644 114.291 141.644 114.71V118.93H137.429C137.01 118.93 136.608 119.096 136.311 119.393C136.015 119.69 135.848 120.092 135.848 120.512C135.848 120.932 136.015 121.334 136.311 121.631C136.608 121.927 137.01 122.094 137.429 122.094H141.644V126.313C141.644 126.733 141.811 127.135 142.107 127.432C142.404 127.729 142.806 127.896 143.225 127.896C143.644 127.896 144.047 127.729 144.343 127.432C144.639 127.135 144.806 126.733 144.806 126.313V122.094H149.021C149.441 122.094 149.843 121.927 150.139 121.631C150.436 121.334 150.602 120.932 150.602 120.512C150.602 120.092 150.436 119.69 150.139 119.393C149.843 119.096 149.441 118.93 149.021 118.93Z" fill="#E6E6E6"/>
<path d="M158.506 8.96587H136.375C135.746 8.96516 135.144 8.71489 134.699 8.26996C134.255 7.82503 134.005 7.22178 134.004 6.59255V2.37332C134.005 1.74409 134.255 1.14084 134.699 0.695912C135.144 0.250982 135.746 0.000709126 136.375 0H158.506C159.135 0.000709126 159.737 0.250982 160.182 0.695912C160.627 1.14084 160.877 1.74409 160.877 2.37332V6.59255C160.877 7.22178 160.627 7.82503 160.182 8.26996C159.737 8.71489 159.135 8.96516 158.506 8.96587Z" fill="#CCCCCC"/>
<path d="M238.599 49.576H216.468C215.84 49.5753 215.237 49.325 214.792 48.8801C214.348 48.4352 214.098 47.8319 214.097 47.2027V42.9835C214.098 42.3542 214.348 41.751 214.792 41.3061C215.237 40.8611 215.84 40.6108 216.468 40.6101H238.599C239.228 40.6108 239.831 40.8611 240.275 41.3061C240.72 41.751 240.97 42.3542 240.971 42.9835V47.2027C240.97 47.8319 240.72 48.4352 240.275 48.8801C239.831 49.325 239.228 49.5753 238.599 49.576Z" fill="#CCCCCC"/>
<path d="M46.6838 248.44H53.144L55.1637 223.5H46.6828L46.6838 248.44Z" fill="#FFB8B8"/>
<path d="M45.0362 246.329L57.7583 246.328H57.7588C58.8235 246.328 59.8778 246.538 60.8615 246.946C61.8451 247.354 62.7389 247.951 63.4918 248.705C64.2446 249.458 64.8418 250.353 65.2493 251.337C65.6567 252.322 65.8664 253.377 65.8664 254.443V254.707L45.0366 254.707L45.0362 246.329Z" fill="#2F2E41"/>
<path d="M11.9065 248.44H18.3666L21.4402 223.5H11.9054L11.9065 248.44Z" fill="#FFB8B8"/>
<path d="M10.2589 246.329L22.981 246.328H22.9815C24.0462 246.328 25.1005 246.538 26.0841 246.946C27.0678 247.354 27.9616 247.951 28.7144 248.705C29.4673 249.458 30.0645 250.353 30.4719 251.337C30.8794 252.322 31.0891 253.377 31.0891 254.443V254.707L10.2593 254.707L10.2589 246.329Z" fill="#2F2E41"/>
<path d="M13.0527 240.561C12.3937 240.561 11.7589 240.313 11.2743 239.866C11.0142 239.628 10.8047 239.34 10.6584 239.02C10.5121 238.699 10.432 238.353 10.4229 238L7.8322 145.065L44.6177 154.269L55.9676 188.348C57.4312 192.733 58.0647 197.352 57.8357 201.968L56.4264 235.003C56.3943 235.68 56.1029 236.318 55.6129 236.786C55.1228 237.253 54.4717 237.514 53.7947 237.513H47.6249C46.9881 237.51 46.3736 237.278 45.894 236.859C45.4145 236.439 45.1021 235.861 45.0141 235.23L40.6043 198.764C40.2189 195.919 39.2247 193.191 37.6894 190.766L29.0112 177.014C28.9532 176.922 28.8682 176.85 28.7679 176.808C28.6676 176.767 28.5569 176.757 28.451 176.781C28.345 176.804 28.2489 176.86 28.1759 176.941C28.1028 177.021 28.0564 177.122 28.0429 177.23L21.2325 237.928C21.1594 238.544 20.8717 239.114 20.4199 239.538C19.9681 239.962 19.3813 240.213 18.7628 240.247L13.2027 240.556C13.1526 240.559 13.1027 240.561 13.0527 240.561Z" fill="#2F2E41"/>
<path d="M38.4962 84.8948C45.6439 84.8948 51.4381 79.0952 51.4381 71.9412C51.4381 64.7871 45.6439 58.9876 38.4962 58.9876C31.3486 58.9876 25.5543 64.7871 25.5543 71.9412C25.5543 79.0952 31.3486 84.8948 38.4962 84.8948Z" fill="#FFB8B8"/>
<path d="M44.4415 158.049C44.2188 158.048 43.997 158.02 43.7813 157.965H43.7809L7.28352 148.598C6.63098 148.431 6.06727 148.02 5.70828 147.449C5.34929 146.879 5.2223 146.192 5.35345 145.531L13.7354 100.337C14.2576 97.7247 15.4055 95.2782 17.0804 93.2077C18.7554 91.1371 20.9074 89.5044 23.3517 88.4497C25.7334 87.3946 28.3379 86.9426 30.9354 87.1335C33.5329 87.3244 36.0435 88.1523 38.2457 89.5441C38.7567 89.8632 39.2714 90.2111 39.7752 90.5784C41.8032 92.0758 43.4571 94.0231 44.6071 96.2677C45.7571 98.5122 46.3719 100.993 46.4033 103.515L47.0698 155.374C47.0743 155.723 47.0097 156.069 46.8797 156.393C46.7498 156.716 46.557 157.011 46.3127 157.26C46.0683 157.508 45.7771 157.706 45.4559 157.841C45.1348 157.977 44.79 158.047 44.4415 158.049Z" fill="#F35826"/>
<path d="M11.0388 158.58C10.6034 157.939 10.3138 157.21 10.1904 156.444C10.067 155.679 10.1127 154.896 10.3244 154.15C10.5361 153.404 10.9086 152.714 11.4157 152.128C11.9228 151.541 12.5521 151.074 13.2593 150.757L11.6359 131.981L20.2386 136.648L20.4613 153.763C20.9135 154.987 20.9014 156.335 20.4271 157.551C19.9528 158.767 19.0493 159.766 17.8879 160.36C16.7264 160.954 15.3877 161.101 14.1254 160.773C12.8631 160.445 11.7648 159.664 11.0388 158.58H11.0388Z" fill="#FFB8B8"/>
<path d="M14.1122 148.274C13.8695 148.274 13.6277 148.243 13.3926 148.183C12.8868 148.054 12.4253 147.79 12.0568 147.42C11.6884 147.05 11.4268 146.587 11.2996 146.08L7.07198 129.265C5.59453 123.392 6.29884 117.182 9.05388 111.789L17.911 94.4474C18.4708 92.371 19.8236 90.5981 21.6776 89.511C23.5316 88.4239 25.7382 88.1097 27.8215 88.6361C28.8599 88.8986 29.8359 89.3647 30.6929 90.0076C31.5499 90.6504 32.2709 91.4571 32.8141 92.381C33.3684 93.3181 33.731 94.3562 33.8806 95.4349C34.0302 96.5135 33.9639 97.6112 33.6856 98.664L21.0775 126.883L21.2273 143.779C21.2312 144.375 21.0521 144.958 20.7143 145.449C20.3765 145.94 19.8963 146.315 19.3385 146.524L15.1192 148.092C14.797 148.212 14.456 148.274 14.1122 148.274Z" fill="#F35826"/>
<path d="M74.4644 151.673C73.6948 151.585 72.9538 151.329 72.2937 150.924C71.6336 150.518 71.0703 149.973 70.6437 149.325C70.217 148.678 69.9373 147.945 69.8242 147.178C69.7111 146.411 69.7675 145.629 69.9892 144.886L54.7118 133.869L63.8574 130.387L76.963 141.383C78.1852 141.838 79.198 142.727 79.8094 143.88C80.4208 145.033 80.5883 146.37 80.2804 147.639C79.9724 148.907 79.2102 150.019 78.1383 150.762C77.0664 151.506 75.7592 151.83 74.4644 151.673H74.4644Z" fill="#FFB8B8"/>
<path d="M66.4668 143.628C66.0163 143.628 65.5721 143.523 65.1691 143.322L49.6779 135.56C44.267 132.849 40.0238 128.264 37.7373 122.657L30.3828 104.624C29.1759 102.845 28.7159 100.662 29.1021 98.5465C29.4883 96.4309 30.6896 94.5518 32.4472 93.3145C33.3253 92.6965 34.3176 92.2596 35.3661 92.0293C36.4146 91.799 37.4985 91.7799 38.5545 91.9731C39.6229 92.1654 40.6425 92.568 41.5543 93.1575C42.4661 93.7471 43.252 94.5119 43.8663 95.4077L57.0106 123.381L69.9024 134.289C70.3563 134.675 70.681 135.191 70.8324 135.767C70.9838 136.344 70.9547 136.953 70.749 137.512L69.1841 141.736C68.9798 142.29 68.6107 142.768 68.1267 143.105C67.64 143.446 67.0606 143.628 66.4668 143.628Z" fill="#F35826"/>
<path d="M35.7786 85.0931C36.4662 85.3942 37.8744 79.9101 37.2436 78.8132C36.3055 77.182 36.361 77.1937 35.7383 76.1145C35.1155 75.0353 34.9762 73.5581 35.7826 72.6085C36.589 71.6589 38.4552 71.7849 38.8232 72.9755C38.5865 70.7141 40.8213 68.8963 43.035 68.3854C45.2486 67.8746 47.5836 68.1917 49.8095 67.7372C52.3927 67.2096 55.0805 65.0423 54.0498 62.199C53.8729 61.7257 53.6081 61.2901 53.2694 60.9153C52.0786 59.5752 50.4128 59.003 48.7842 58.4497C45.396 57.2986 41.9151 56.1331 38.3393 56.2602C35.3931 56.4144 32.5556 57.4249 30.1742 59.168C27.7927 60.9112 25.9707 63.3113 24.9309 66.0748C24.6845 66.7661 24.4936 67.4761 24.36 68.1978C23.1327 74.8031 26.965 81.3185 33.1893 83.8338L35.7786 85.0931Z" fill="#2F2E41"/>
<path opacity="0.2" d="M20.4975 144.162L20.791 126.795L29.9823 108.299L22.6053 127.285L20.4975 144.162Z" fill="black"/>
<path d="M103.846 187.747L65.0436 171.61C64.193 171.26 63.4336 170.72 62.8231 170.031C62.2126 169.342 61.7671 168.523 61.5205 167.636C61.2669 166.739 61.2212 165.796 61.3869 164.878C61.5526 163.96 61.9253 163.093 62.4766 162.341C72.2763 148.836 78.7622 133.211 81.4094 116.731C81.5527 115.81 81.9041 114.933 82.4369 114.169C82.9696 113.404 83.6696 112.771 84.4837 112.317C85.2857 111.866 86.18 111.604 87.0983 111.551C88.0167 111.499 88.935 111.656 89.7834 112.012L128.586 128.148C129.924 128.709 131.019 129.727 131.678 131.021C132.336 132.315 132.514 133.801 132.18 135.214C127.842 152.877 120.829 169.771 111.384 185.31C110.62 186.544 109.442 187.466 108.062 187.913C106.681 188.359 105.187 188.3 103.846 187.747Z" fill="#E6E6E6"/>
<path d="M88.5704 114.934C88.163 114.763 87.722 114.687 87.281 114.713C86.8399 114.738 86.4104 114.863 86.0252 115.08C85.6292 115.301 85.2888 115.61 85.0299 115.982C84.771 116.355 84.6005 116.782 84.5312 117.23C81.8049 134.203 75.1253 150.294 65.0327 164.203C64.7639 164.569 64.582 164.991 64.5008 165.437C64.4196 165.884 64.4412 166.343 64.564 166.78L64.5641 166.78C64.6826 167.206 64.8967 167.599 65.19 167.93C65.4832 168.261 65.848 168.52 66.2566 168.688L105.059 184.824C105.702 185.092 106.419 185.123 107.083 184.911C107.747 184.699 108.314 184.258 108.683 183.666C117.96 168.403 124.849 151.808 129.11 134.458C129.268 133.779 129.18 133.066 128.862 132.445C128.544 131.825 128.016 131.338 127.373 131.07L88.5704 114.934Z" fill="white"/>
<path d="M109.231 150.854L88.8691 142.387C88.0954 142.064 87.4813 141.447 87.1613 140.672C86.8414 139.896 86.8419 139.026 87.1626 138.25L87.6367 137.109C87.9591 136.334 88.5753 135.719 89.35 135.399C90.1247 135.079 90.9948 135.079 91.7691 135.4L112.131 143.868C112.905 144.191 113.519 144.808 113.839 145.583C114.159 146.358 114.158 147.229 113.837 148.004L113.363 149.146C113.041 149.921 112.425 150.535 111.65 150.856C110.875 151.176 110.005 151.175 109.231 150.854Z" fill="#F35826"/>
<path d="M103.241 165.283L82.8795 156.816C82.1058 156.493 81.4917 155.876 81.1717 155.101C80.8518 154.325 80.8523 153.454 81.173 152.679L81.6471 151.537C81.9695 150.763 82.5857 150.148 83.3604 149.828C84.1352 149.508 85.0052 149.508 85.7796 149.829L106.141 158.297C106.915 158.62 107.529 159.236 107.849 160.012C108.169 160.787 108.169 161.658 107.848 162.433L107.374 163.575C107.051 164.35 106.435 164.964 105.66 165.285C104.886 165.605 104.016 165.604 103.241 165.283Z" fill="#F35826"/>
<path d="M117.39 130.576C117.085 130.576 116.783 130.516 116.501 130.401L95.9833 122.099C95.4008 121.862 94.9357 121.404 94.6902 120.825C94.4447 120.246 94.4388 119.593 94.6737 119.009L96.2538 115.097C96.4896 114.514 96.9473 114.048 97.5262 113.802C98.1052 113.556 98.7579 113.551 99.3409 113.787L119.858 122.089C120.441 122.326 120.906 122.784 121.152 123.363C121.397 123.943 121.403 124.596 121.168 125.179L119.588 129.091C119.41 129.529 119.107 129.904 118.715 130.169C118.324 130.433 117.862 130.575 117.39 130.576Z" fill="#CCCCCC"/>
<path d="M74.297 255H0.526922C0.387171 255 0.253152 254.944 0.154334 254.846C0.0555156 254.747 -7.62939e-06 254.612 -7.62939e-06 254.473C-7.62939e-06 254.333 0.0555156 254.199 0.154334 254.1C0.253152 254.001 0.387171 253.945 0.526922 253.945H74.297C74.4368 253.945 74.5708 254.001 74.6696 254.1C74.7684 254.199 74.824 254.333 74.824 254.473C74.824 254.612 74.7684 254.747 74.6696 254.846C74.5708 254.944 74.4368 255 74.297 255Z" fill="#CCCCCC"/>
</g>
<defs>
<clipPath id="clip0_75_1412">
<rect width="256" height="255" fill="white"/>
</clipPath>
</defs>
</svg>
