<svg width="350" height="179" viewBox="0 0 350 179" fill="none" xmlns="http://www.w3.org/2000/svg">
<g clip-path="url(#clip0_5094_45981)">
<path d="M334.463 98.9068L333.366 107.637L330.645 129.322H275.98C276.407 124.462 276.991 117.466 277.614 109.914C277.676 109.16 277.74 108.401 277.802 107.637C279.365 88.6537 281.076 67.1719 281.076 67.1719L288.262 68.5107L302.206 71.1034L307.887 72.1594L323.102 74.9925C330.688 76.402 335.906 87.3857 334.463 98.9068Z" fill="#F2F2F2"/>
<path d="M293.116 32.043L299.838 43.8066L286.918 52.9632L281.406 38.5034L293.116 32.043Z" fill="#FFB6B6"/>
<path d="M284.556 43.1722C293.753 43.1722 301.209 35.7162 301.209 26.5187C301.209 17.3213 293.753 9.86523 284.556 9.86523C275.358 9.86523 267.902 17.3213 267.902 26.5187C267.902 35.7162 275.358 43.1722 284.556 43.1722Z" fill="#FFB6B6"/>
<path d="M283.361 30.241C282.039 28.2285 282.558 27.1759 281.451 26.4363C281.451 26.4363 281.005 26.1387 277.817 25.969C277.103 20.8313 276.212 20.2083 276.212 20.2083C275.185 19.4902 273.661 19.7235 272.713 20.1627C270.708 21.0916 270.94 23.098 269.59 23.4819C267.725 24.0123 264.331 21.0223 263.997 17.5993C263.724 14.8071 265.523 12.0952 266.236 12.2387C266.944 12.3809 268.638 10.2185 269.552 10.2519C270.177 10.2747 272.729 9.16553 273.415 9.25224C274.165 9.34696 276.637 10.6369 276.74 10.3422C277.455 8.29421 277.245 7.72598 277.852 7.1401C278.929 6.10193 280.689 6.82489 283.451 7.21301C289.134 8.01159 290.126 6.13777 293.038 7.40786C294.51 8.04945 295.741 9.77974 298.143 13.2141C301.502 18.0171 303.181 20.4185 303.192 23.2195C303.203 26.076 301.82 25.8947 301.212 30.1235C300.536 34.8309 301.973 36.9833 300.403 38.5127C299.19 39.6946 296.723 39.9752 295.428 38.9379C293.209 37.1618 296.112 32.8762 293.657 29.7451C292.15 27.8232 289.12 26.968 287.731 27.918C286.162 28.9923 287.026 32.1453 285.923 32.4443C284.977 32.7004 283.592 30.5917 283.361 30.241Z" fill="#1F2933"/>
<path d="M322.155 95.8323C321.691 103.775 319.846 106.282 319.199 115.662C319.058 117.721 318.974 120.112 318.974 122.962C318.974 123.689 318.977 124.392 318.977 125.078C318.977 126.54 318.949 127.921 318.78 129.322C318.651 130.44 318.429 131.567 318.061 132.754H282.193C282.189 132.746 282.189 132.738 282.185 132.73C281.975 131.817 281.842 130.945 281.741 130.109C281.709 129.843 281.68 129.58 281.656 129.322C281.624 129.019 281.596 128.72 281.568 128.425C281.458 127.25 281.349 126.14 281.091 125.078C280.744 123.612 280.114 122.231 278.822 120.899C278.293 120.354 277.764 119.93 277.247 119.558C277.146 119.49 277.049 119.421 276.948 119.352C275.519 118.371 274.166 117.665 272.995 115.662C272.975 115.634 272.959 115.601 272.943 115.573C272.741 115.222 272.216 114.301 271.836 113.074C271.436 111.798 271.194 110.195 271.63 108.555C272.668 104.671 276.512 104.283 279.654 100.359C279.993 99.9348 280.328 99.4663 280.647 98.9454C282.068 96.6357 282.452 94.6009 282.904 92.1821C282.976 91.7904 283.041 91.4028 283.094 91.0274C283.134 90.7446 283.17 90.4661 283.199 90.1914C283.449 87.8859 283.328 85.8993 283.033 84.1227C282.072 78.3042 279.238 74.7025 281.24 69.4816C281.87 67.8424 282.763 66.6108 283.663 65.5569C285.569 63.3239 287.527 61.8744 287.188 58.9916C286.845 56.0843 284.64 55.6845 284.394 53.1447C284.269 51.8608 284.689 50.5081 285.476 49.1796V49.1757C287.996 44.8995 294.287 40.9627 298.284 41.0879C299.023 41.1082 299.677 41.2736 300.222 41.5926C302.197 42.7554 301.373 45.2952 304.397 48.8567C306.646 51.5013 309.19 52.5593 310.155 53.0599C313.979 55.0547 317.088 60.9377 319.199 68.4601C319.216 68.5167 319.232 68.5731 319.248 68.6338C320.552 73.3459 321.473 78.6959 321.929 84.1227C322.123 86.4202 322.236 88.7299 322.26 91.0151C322.281 92.8402 322.24 94.4232 322.155 95.8323Z" fill="#F35826"/>
<path d="M295.295 123.042L294.563 125.077L294.103 126.353L293.037 129.321L291.802 132.753H283.859L285.192 129.321L285.81 127.722L286.835 125.077L288.555 120.636L295.295 123.042Z" fill="#FFB6B6"/>
<path d="M319.325 67.7649C319.305 68.0275 319.277 68.3181 319.248 68.6332C318.934 71.8392 318.19 77.5768 317.104 84.1221C316.531 87.5743 315.861 91.2529 315.106 94.907C313.483 102.793 311.464 110.558 309.182 115.661C308.774 116.582 308.355 117.414 307.926 118.149C307.599 118.71 307.256 119.263 306.897 119.808C305.734 121.597 304.429 123.293 303.077 124.876C303.025 124.944 302.964 125.009 302.903 125.077C302.685 125.336 302.459 125.59 302.233 125.845C301.127 127.092 299.996 128.255 298.902 129.321C297.57 130.621 296.285 131.772 295.135 132.753H282.238L282.185 132.729L280.328 131.905C280.328 131.905 280.857 131.283 281.741 130.109C281.923 129.87 282.117 129.608 282.327 129.321C282.585 128.97 282.864 128.582 283.162 128.162C283.784 127.282 284.491 126.248 285.25 125.077C286.72 122.812 288.395 120.026 290.087 116.8C290.281 116.424 290.479 116.045 290.677 115.661C290.681 115.649 290.689 115.637 290.693 115.625C291.028 114.971 291.36 114.297 291.69 113.61C294.497 107.771 295.3 102.926 295.531 101.355C295.854 99.1347 296.301 96.0294 296.18 92.6135C296.1 90.3606 295.773 87.9781 294.994 85.612V85.6081C294.832 85.1114 294.65 84.6148 294.444 84.1221C294.077 83.2378 293.641 82.3656 293.124 81.5056C290.843 77.7182 288.989 77.5607 287.515 73.434C287.079 72.2106 286.09 69.4488 286.393 66.5334V66.5295C286.429 66.1701 286.49 65.8067 286.571 65.4431V65.4392C286.591 65.3383 286.619 65.2334 286.647 65.1324C286.877 64.2401 287.257 63.3556 287.834 62.5157C288.961 60.8847 290.499 59.9154 291.876 59.3381L291.88 59.334C293.471 58.672 294.844 58.5306 295.111 58.5063C301.01 57.9815 305.584 62.9398 308.084 65.6492C309.049 66.6949 309.933 67.5713 310.741 68.2858C317.027 73.8985 318.752 70.3128 319.2 68.4595C319.268 68.1728 319.305 67.9266 319.325 67.7649Z" fill="#F35826"/>
<path d="M319.344 67.5547C319.344 67.5748 319.34 67.6434 319.324 67.7566C319.332 67.6959 319.336 67.6353 319.34 67.5787C319.34 67.5667 319.34 67.5586 319.344 67.5547Z" fill="#F35826"/>
<path d="M287.276 152.757H70.8299C68.8189 152.757 67.1797 154.392 67.1797 156.403C67.1797 158.418 68.8189 160.053 70.8299 160.053H287.276C289.286 160.053 290.922 158.418 290.922 156.403C290.922 154.392 289.286 152.757 287.276 152.757Z" fill="#E6E6E6"/>
<path d="M239.244 171.605H118.861C116.85 171.605 115.215 173.241 115.215 175.252C115.215 177.262 116.85 178.902 118.861 178.902H239.244C241.255 178.902 242.894 177.262 242.894 175.252C242.894 173.241 241.255 171.605 239.244 171.605Z" fill="#E6E6E6"/>
<path d="M94.918 32.817L108.559 27.0762L114.41 39.0706L100.075 44.9216L94.918 32.817Z" fill="#FFB6B6"/>
<path opacity="0.1" d="M94.918 32.817L108.559 27.0762L114.41 39.0706L100.075 44.9216L94.918 32.817Z" fill="black"/>
<path d="M96.8565 28.2464L110.314 43.7514C110.314 43.7514 100.952 73.2987 91.5907 75.9316C82.2291 78.5645 64.9688 91.4366 64.9688 91.4366L43.3203 77.3944L53.852 61.8893C53.852 61.8893 79.3037 27.0762 86.0323 27.0762C92.7608 27.0762 96.8565 28.2464 96.8565 28.2464Z" fill="#F35826"/>
<path d="M78.6722 129.321H47.3462L45.3657 126.674L37.2796 115.864L35.419 113.378C35.419 113.378 28.3979 100.505 29.8606 88.8036C31.3234 77.1017 46.5358 74.4688 46.5358 74.4688H47.1619L65.7855 90.8338L64.6738 106.064L70.5715 115.864L78.6722 129.321Z" fill="#1F2933"/>
<path d="M53.7633 129.322H45.3672V116.889L53.7633 129.322Z" fill="#1F2933"/>
<path d="M234.855 110.446L233.811 115.864L231.219 129.321H179.148C179.555 126.305 180.111 121.964 180.705 117.277C180.763 116.809 180.825 116.338 180.883 115.864C182.372 104.083 184.002 90.752 184.002 90.752L190.847 91.5828L204.129 93.1918L209.541 93.8471L224.034 95.6053C231.26 96.4801 236.23 103.296 234.855 110.446Z" fill="#F2F2F2"/>
<path d="M308.547 129.322H280.305C280.735 128.816 280.978 128.523 280.978 128.523L289.444 127.125L306.888 124.246C306.888 124.246 307.684 126.303 308.547 129.322Z" fill="#1F2933"/>
<path d="M188.75 38.668L201.032 56.0377L179.608 56.6775L177.309 40.354L188.75 38.668Z" fill="#A0616A"/>
<path opacity="0.1" d="M188.75 38.668L201.032 56.0377L179.608 56.6775L177.309 40.354L188.75 38.668Z" fill="black"/>
<path d="M128.177 74.6576C126.601 70.1114 122.978 67.2395 120.085 68.2429C117.191 69.2463 116.124 73.7445 117.702 78.2922C118.307 80.1174 119.34 81.7712 120.715 83.1151L127.636 102.293L136.566 98.8538L128.796 80.3127C129.044 78.4053 128.832 76.4661 128.177 74.6576Z" fill="#A0616A"/>
<path d="M211.316 65.8066L211.299 83.5086L209.652 90.0471L206.264 103.495L203.798 115.864L201.961 125.08L201.306 128.371C200.811 128.701 200.32 129.017 199.828 129.322H157.038C154.606 127.862 153.246 126.727 153.246 126.727C153.246 126.727 153.919 126.095 154.688 125.08C155.987 123.365 157.558 120.557 156.596 117.874C156.394 117.312 156.341 116.628 156.403 115.864C156.795 110.827 162.078 102.308 162.078 102.308L160.984 89.6638L160.504 84.123L163.887 57.1061L174.913 50.6964L176.817 50.5122L195.607 49.4971L203.373 49.9446L203.727 50.0412L211.316 65.8066Z" fill="#CCCCCC"/>
<path d="M212.15 129.321H202.788L202.376 125.079L202.367 124.994L205.018 124.813L211.913 124.342L212.033 126.881L212.127 128.83L212.15 129.321Z" fill="#FFB6B6"/>
<path d="M214.455 70.0862L218.388 93.1594L215.178 115.864L214.678 119.398L213.795 125.638L213.523 127.557L213.531 127.765L213.599 129.321H202.482L202.072 125.079L202.037 124.699L201.201 116.01L201.186 115.864L199.41 97.4394L202.891 84.1226L203.149 83.1425V83.1396L204.664 60.3385L203.49 49.9764L203.479 49.8799C203.502 49.8945 203.523 49.9092 203.546 49.9238C203.608 49.9618 203.669 49.9998 203.727 50.0408C210.561 54.3764 214.634 61.9826 214.455 70.0862Z" fill="#CCCCCC"/>
<path d="M167.872 61.5271L163.597 57.1055C163.597 57.1055 154.446 61.2311 153.99 63.52C153.533 65.8089 137.375 99.4263 137.375 99.4263L130.346 80.6511L121.195 86.7604C121.195 86.7604 128.538 115.91 135.404 117.278C142.271 118.647 165.285 82.7771 165.285 82.7771L167.872 61.5271Z" fill="#CCCCCC"/>
<path d="M341.452 115.661H8.54404C3.83196 115.661 0 119.497 0 124.209C0 128.921 3.83196 132.753 8.54404 132.753H341.452C346.164 132.753 350 128.921 350 124.209C350 119.497 346.164 115.661 341.452 115.661Z" fill="#E6E6E6"/>
<path d="M209.369 89.6147L208.722 119.818C208.659 122.742 206.271 125.08 203.347 125.08H147.786C144.93 125.08 142.573 122.848 142.417 119.997L140.766 89.793C140.598 86.7129 143.05 84.123 146.134 84.123H203.994C207.008 84.123 209.434 86.601 209.369 89.6147Z" fill="#3F3D56"/>
<path d="M119.676 40.1078C127.018 40.1078 132.969 34.1562 132.969 26.8146C132.969 19.473 127.018 13.5215 119.676 13.5215C112.334 13.5215 106.383 19.473 106.383 26.8146C106.383 34.1562 112.334 40.1078 119.676 40.1078Z" fill="#FFB6B6"/>
<path d="M97.4415 61.5972L98.9042 77.3948L108.851 117.474L100.258 120.486L85.7396 76.8097L83.7344 59.2568L97.4415 61.5972Z" fill="#FFB6B6"/>
<path d="M93.4825 89.6147L92.8353 119.818C92.7726 122.742 90.3845 125.08 87.46 125.08H31.8989C29.0436 125.08 26.6863 122.848 26.5305 119.997L24.8793 89.793C24.7109 86.7129 27.1631 84.123 30.2477 84.123H88.1072C91.1217 84.123 93.5471 86.601 93.4825 89.6147Z" fill="#3F3D56"/>
<path d="M110.432 125.284C116.23 125.284 120.93 123.205 120.93 120.641C120.93 118.076 116.23 115.997 110.432 115.997C104.634 115.997 99.9336 118.076 99.9336 120.641C99.9336 123.205 104.634 125.284 110.432 125.284Z" fill="#FFB6B6"/>
<path d="M76.8164 64.0122L82.8136 32.0496C82.8136 32.0496 99.4888 29.7093 100.074 35.2677C100.659 40.8261 99.6558 67.9907 99.6558 67.9907L76.8164 64.0122Z" fill="#F35826"/>
<path d="M114.31 28.9051C114.31 28.9051 122.533 25.9703 126.002 24.3912C129.47 22.8121 136.361 33.826 136.515 28.0092C136.668 22.1924 134.287 19.7531 134.287 19.7531C134.287 19.7531 133.692 7.02793 120.872 8.61888C120.872 8.61888 123.692 2.25235 114.435 1.26788C105.179 0.283418 90.7783 22.6363 92.068 25.9768C93.3576 29.3173 94.9037 32.0791 91.2447 35.6508C87.5857 39.2226 80.7342 59.3806 85.9471 64.805C91.1601 70.2293 91.5021 72.5832 87.9304 75.9578C84.3588 79.3325 75.9163 86.6702 85.0446 87.9441C94.1728 89.2179 84.2094 88.2665 91.0147 82.2806C97.8199 76.2946 107.75 76.5391 104.042 66.9351C100.335 57.3311 106.776 43.5687 105.97 41.4809C105.164 39.3931 107.776 26.1353 107.776 26.1353C107.776 26.1353 113.855 25.2421 114.31 28.9051Z" fill="#1F2933"/>
<path d="M182.181 44.9558C190.173 44.9558 196.652 38.4771 196.652 30.4852C196.652 22.4933 190.173 16.0146 182.181 16.0146C174.19 16.0146 167.711 22.4933 167.711 30.4852C167.711 38.4771 174.19 44.9558 182.181 44.9558Z" fill="#A0616A"/>
<path d="M183.336 11.0302C182.917 11.2746 182.357 10.9048 182.222 10.4389C182.088 9.97307 182.244 9.47843 182.399 9.01907L183.18 6.70656C183.734 5.06648 184.322 3.36908 185.521 2.12077C187.331 0.236636 190.208 -0.242678 192.797 0.104568C196.123 0.550502 199.404 2.35122 200.95 5.32893C202.496 8.30665 201.838 12.4616 199.044 14.3194C203.026 18.8835 204.414 23.97 204.195 30.023C203.976 36.0761 197.379 41.6468 193.078 45.911C192.117 45.3286 191.244 42.5996 191.772 41.6082C192.3 40.6168 191.543 39.4682 192.198 38.555C192.852 37.6418 193.399 39.0959 192.738 38.1879C192.32 37.6149 193.949 36.2968 193.329 35.9539C190.328 34.2952 189.33 30.5549 187.446 27.6907C185.172 24.2359 181.282 21.8963 177.164 21.5081C174.896 21.2943 172.501 21.6816 170.642 22.9983C168.783 24.3151 167.579 26.6681 168.01 28.9051C166.894 27.7714 166.338 26.1101 166.548 24.5328C166.757 22.9556 167.728 21.4971 169.101 20.6944C168.266 17.932 168.982 14.7544 170.92 12.6167C172.859 10.4791 180.724 10.8432 183.555 11.4058L183.336 11.0302Z" fill="#1F2933"/>
<path d="M183.777 21.5918C187.526 21.9965 190.233 25.244 192.519 28.2431C193.837 29.9717 195.217 31.8806 195.183 34.0538C195.15 36.2509 193.681 38.1354 192.979 40.2176C191.831 43.621 192.95 47.6703 195.681 50.0023C192.982 50.5145 190.064 48.4907 189.598 45.7832C189.056 42.6312 191.445 39.5892 191.162 36.4035C190.913 33.5968 188.701 31.4368 186.821 29.3382C184.941 27.2397 183.175 24.455 184.04 21.7734L183.777 21.5918Z" fill="#1F2933"/>
<path d="M239.824 117.491C236.11 119.603 234.19 123.231 235.535 125.595C236.879 127.958 240.979 128.16 244.693 126.047C246.189 125.223 247.465 124.053 248.416 122.635L264.037 113.487L259.588 106.248L244.66 116.035C242.955 116.127 241.296 116.626 239.824 117.491Z" fill="#FFB6B6"/>
<path d="M292.713 50.4084C292.247 50.2234 288.151 48.6723 284.411 50.7203C280.116 53.0728 279.452 58.4431 279.22 60.3267C278.682 64.6778 280.266 65.6531 280.6 70.0581C281.225 78.2993 282.875 68.8976 280.241 72.6594C279.329 73.9615 270.018 94.1397 264.883 98.092C254.896 105.779 248.555 111.192 248.555 111.192L255.795 119.057C255.795 119.057 267.235 116.009 277.347 109.443C287.719 102.708 292.905 99.3403 296.918 92.7526C297.263 92.1853 305.531 78.1455 301.091 62.6208C300.078 59.0797 298.222 52.5915 292.713 50.4084Z" fill="#F35826"/>
<path d="M330.1 89.6147L329.452 119.818C329.39 122.742 327.002 125.08 324.077 125.08H268.516C265.661 125.08 263.303 122.848 263.148 119.997L261.496 89.793C261.328 86.7129 263.78 84.123 266.865 84.123H324.724C327.739 84.123 330.164 86.601 330.1 89.6147Z" fill="#3F3D56"/>
</g>
<defs>
<clipPath id="clip0_5094_45981">
<rect width="350" height="178.902" fill="white"/>
</clipPath>
</defs>
</svg>
