<svg width="350" height="306" viewBox="0 0 350 306" fill="none" xmlns="http://www.w3.org/2000/svg">
<g clip-path="url(#clip0_8010_9570)">
<path d="M116.338 39.7296C117.318 37.7576 118.883 36.1202 119.841 34.1374C120.798 32.1546 120.985 29.5007 119.389 27.9831C118.035 26.6944 115.913 26.6764 114.293 25.743C110.165 23.3649 110.17 15.8117 105.452 15.1591C103.157 14.8417 101.081 16.5624 99.6946 18.4176C98.3078 20.2728 97.2029 22.4377 95.2796 23.7284C93.1024 25.1895 90.2877 25.2531 87.8701 26.2679C83.2348 28.2138 80.8046 33.2172 78.7727 37.8155C77.4637 40.7776 76.1247 43.9726 76.732 47.1537C75.4119 47.9751 76.0002 50.1845 77.318 51.0097C78.6358 51.835 80.2906 51.8166 81.8038 52.1741C84.9841 52.9254 87.5882 55.457 88.8227 58.4827C89.7849 60.8409 89.9816 63.4301 90.1673 65.9703C90.4894 70.3781 90.8115 74.7858 91.1337 79.1935C91.277 81.1545 91.465 83.2385 92.6586 84.801C93.8523 86.3635 96.4371 87.0183 97.7789 85.581C99.0612 84.2075 98.4836 82.033 98.4577 80.154C98.4317 78.2751 100.13 75.9355 101.732 76.9184L102.296 75.637C105.954 74.3272 109.158 71.991 111.522 68.908C113.887 65.8251 115.313 62.126 115.63 58.2535C116.04 52.016 113.557 45.328 116.338 39.7296Z" fill="#E6E6E6"/>
<path d="M120.076 79.2845C120.429 78.9514 120.68 78.5243 120.799 78.0535C120.917 77.5826 120.899 77.0877 120.745 76.6271C120.592 76.1665 120.31 75.7593 119.932 75.4537C119.555 75.1482 119.098 74.9568 118.616 74.9023L118.622 75.114C117.933 75.5161 117.148 75.7224 116.351 75.7108C115.557 75.6983 114.766 75.8235 114.014 76.0809C113.641 76.2168 113.317 76.4627 113.086 76.7861C112.855 77.1095 112.727 77.4954 112.719 77.8929C112.762 78.1976 112.879 78.4873 113.058 78.7373C113.238 78.9874 113.475 79.1904 113.75 79.3291C114.302 79.6009 114.894 79.7808 115.504 79.8617C117.075 80.1572 118.913 80.3808 120.076 79.2845Z" fill="#E6E6E6"/>
<path d="M150.71 39.836C151.368 39.3885 151.927 38.8101 152.351 38.1369C152.556 37.7963 152.654 37.4014 152.631 37.0042C152.609 36.607 152.466 36.226 152.223 35.9112C151.728 35.4815 151.09 35.2512 150.434 35.2652C148.654 35.1322 146.865 35.3433 145.164 35.8867C146.91 37.4338 148.657 38.9809 150.403 40.528L150.71 39.836Z" fill="#E6E6E6"/>
<path d="M141.977 43.8581C142.683 44.6371 142.458 45.8456 142.258 46.8777C142.059 47.9097 142.033 49.1994 142.921 49.7625C143.69 50.2505 144.77 49.8523 145.333 49.1357C145.836 48.3715 146.143 47.4948 146.225 46.5835C146.502 45.2592 146.627 43.9076 146.598 42.555C146.564 41.1923 146.084 39.8784 145.23 38.8159C144.624 38.1249 143.816 37.641 142.921 37.4319C142.026 37.2228 141.088 37.299 140.239 37.6499L141.05 37.6099C140.46 38.3672 140.013 39.2254 139.73 40.1426C139.595 40.6035 139.585 41.0921 139.703 41.5579C139.82 42.0236 140.06 42.4495 140.397 42.7913C140.878 43.2101 141.549 43.3852 141.977 43.8581Z" fill="#E6E6E6"/>
<path d="M181.784 30.7919L181.928 30.3477C181.325 30.6967 180.86 31.2423 180.611 31.8932C180.362 32.5442 180.344 33.2609 180.56 33.9234C181.024 33.5574 181.382 33.0743 181.598 32.5239C181.813 31.9734 181.877 31.3756 181.784 30.7919Z" fill="#E6E6E6"/>
<path d="M173.942 37.153C174.711 36.718 175.366 36.1091 175.857 35.375C176.347 34.641 176.659 33.8023 176.766 32.9261C176.85 32.3813 176.787 31.8242 176.584 31.3118C176.479 31.0575 176.314 30.8328 176.102 30.6577C175.89 30.4827 175.638 30.3628 175.369 30.3086L175.04 30.8257C174.569 30.4202 173.778 30.8373 173.579 31.4265C173.451 32.0383 173.505 32.6741 173.732 33.2562C173.959 33.8418 173.949 34.4929 173.703 35.0711C173.439 35.4111 173.141 35.724 172.814 36.0052C172.655 36.1504 172.55 36.3466 172.519 36.5601C172.488 36.7736 172.533 36.9912 172.644 37.1758C172.954 37.529 173.532 37.3808 173.942 37.153Z" fill="#E6E6E6"/>
<path d="M170.599 34.2637C170.88 33.7576 171.013 33.1824 170.981 32.6043L170.263 32.3789C169.804 32.5651 169.396 32.8597 169.076 33.2376C168.978 33.3352 168.904 33.4531 168.857 33.583C168.811 33.7128 168.794 33.8513 168.807 33.9885C168.82 34.1257 168.864 34.2582 168.935 34.3767C169.005 34.4951 169.101 34.5965 169.215 34.6735C169.33 34.7505 169.46 34.8013 169.596 34.8223C169.732 34.8432 169.871 34.8337 170.004 34.7946C170.136 34.7554 170.258 34.6875 170.361 34.5957C170.463 34.5039 170.545 34.3905 170.599 34.2637Z" fill="#E6E6E6"/>
<path d="M205.719 30.625C205.784 30.6794 205.848 30.7353 205.913 30.7903C205.971 30.7782 206.025 30.7566 206.083 30.7495L205.719 30.625Z" fill="#E6E6E6"/>
<path d="M204.566 36.9335C205.226 36.3998 205.886 35.8662 206.545 35.3326C206.896 35.0846 207.194 34.7706 207.425 34.4082C207.582 34.0651 207.65 33.6878 207.622 33.3114C207.594 32.935 207.471 32.5717 207.265 32.2556C206.9 31.6951 206.443 31.2006 205.912 30.793C205.33 30.9309 204.818 31.2776 204.474 31.7676C204.13 32.2575 203.977 32.8567 204.045 33.4515C204.164 34.2081 204.64 35.0172 204.252 35.6777C204.101 35.9349 203.841 36.11 203.667 36.3522C203.493 36.5943 203.436 36.98 203.675 37.1581C203.941 37.3558 204.309 37.1418 204.566 36.9335Z" fill="#E6E6E6"/>
<path d="M206.01 40.1975C206.255 40.2106 206.501 40.1709 206.729 40.0809C206.958 39.9909 207.164 39.8529 207.335 39.676C208.217 38.9535 208.988 38.1059 209.625 37.1602C208.141 37.6303 206.656 38.1005 205.172 38.5706L205.635 39.1118C205.224 39.38 205.528 40.1051 206.01 40.1975Z" fill="#E6E6E6"/>
<path d="M210.169 43.2547C210.26 43.4862 210.423 43.6817 210.636 43.8112C210.848 43.9407 211.097 43.9972 211.344 43.972C211.59 43.9392 211.826 43.8528 212.035 43.7188C212.245 43.5849 212.422 43.4067 212.555 43.1967C212.781 42.864 212.913 42.4771 212.939 42.0759C212.965 41.6748 212.883 41.274 212.703 40.915C212.522 40.556 212.248 40.2518 211.91 40.0339C211.572 39.8161 211.183 39.6924 210.781 39.6758L211.191 40.3019C211.295 41.3706 209.842 42.2318 210.169 43.2547Z" fill="#E6E6E6"/>
<path d="M238.997 54.9613C239.398 55.2608 239.886 55.4221 240.387 55.4209C240.887 55.4197 241.374 55.2561 241.774 54.9546C242.034 54.7331 242.245 54.4604 242.394 54.1536C242.543 53.8468 242.627 53.5126 242.641 53.1718C242.655 52.8309 242.598 52.4909 242.474 52.173C242.351 51.8551 242.163 51.5661 241.922 51.3242L241.164 51.7475C240.744 51.4773 240.235 51.3807 239.745 51.478C239.255 51.5754 238.821 51.8592 238.536 52.2696C238.28 52.6997 238.186 53.207 238.27 53.7003C238.355 54.1936 238.612 54.6407 238.997 54.9613Z" fill="#E6E6E6"/>
<path d="M247.812 55.9574C248.181 55.8502 248.516 55.65 248.786 55.376C249.056 55.102 249.251 54.7634 249.352 54.3926L247.878 54.1989C247.468 53.8893 246.991 53.6808 246.485 53.5905C246.232 53.5525 245.973 53.6028 245.752 53.733C245.531 53.8631 245.361 54.0652 245.272 54.3055C245.24 54.5098 245.262 54.7188 245.334 54.9125C245.407 55.1062 245.527 55.2782 245.685 55.412C245.963 55.6774 246.305 55.8668 246.677 55.9623C247.05 56.0578 247.44 56.0561 247.812 55.9574Z" fill="#E6E6E6"/>
<path d="M241.727 58.9055C241.753 59.1453 241.846 59.3727 241.997 59.5612C242.147 59.7497 242.348 59.8915 242.576 59.97C242.825 60.0882 243.104 60.1288 243.376 60.0866C243.649 60.0444 243.902 59.9214 244.104 59.7334C244.193 59.6329 244.257 59.5127 244.29 59.3826C244.323 59.2526 244.325 59.1165 244.295 58.9857C244.265 58.8549 244.204 58.7331 244.118 58.6304C244.031 58.5278 243.922 58.4473 243.798 58.3955L242.693 58.1945C242.266 57.9734 241.72 58.4247 241.727 58.9055Z" fill="#E6E6E6"/>
<path d="M177.598 66.6757L176.742 65.8945C176.97 66.2117 177.261 66.4777 177.598 66.6757Z" fill="#E6E6E6"/>
<path d="M171.064 62.0774C171.591 64.5231 174.225 66.5155 176.617 65.7806L176.743 65.8958C175.981 64.8538 175.852 63.312 176.03 61.9711C176.36 59.6735 177.263 57.496 178.657 55.6395C180.05 53.783 181.889 52.3074 184.003 51.3487C184.582 51.1679 185.099 50.8306 185.499 50.3739C185.84 49.8756 185.712 49.0209 185.125 48.8801C184.806 48.8437 184.484 48.9182 184.214 49.0912L179.77 51.2784C177.525 52.3831 175.236 53.5195 173.473 55.2944C171.71 57.0693 170.538 59.6317 171.064 62.0774Z" fill="#E6E6E6"/>
<path d="M99.3266 146.173C95.186 143.209 90.6508 140.839 85.8531 139.132C82.9043 138.084 79.7358 137.284 76.6632 137.879C74.9783 138.228 73.3994 138.969 72.0547 140.042C70.71 141.116 69.6375 142.491 68.9243 144.057C68.2372 145.634 67.914 147.346 67.9788 149.065C68.0437 150.784 68.4948 152.466 69.2987 153.987C70.7155 156.642 73.1691 158.757 73.9894 161.652C74.5424 163.604 74.2804 165.683 74.0142 167.694C73.4703 171.804 72.9263 175.915 72.3824 180.025C71.8871 183.767 71.4045 187.661 72.5894 191.246C73.7742 194.83 77.1552 197.989 80.9108 197.608L81.655 197.552C79.1707 195.863 78.4744 192.366 79.2141 189.454C79.9538 186.542 81.8312 184.073 83.6643 181.692C89.104 174.629 94.5437 167.566 99.9834 160.502C102.184 157.644 104.512 154.112 103.338 150.701C102.671 148.762 100.994 147.367 99.3266 146.173Z" fill="#E6E6E6"/>
<path d="M62.256 128.316C61.7051 128.129 61.1232 128.544 60.7993 129.027C60.5375 129.546 60.2299 130.04 59.8802 130.504C59.0328 131.378 57.4885 131.204 56.5746 130.401C55.6607 129.597 55.2647 128.354 55.0873 127.15C54.8745 125.706 54.9664 124.094 55.9198 122.988C56.9013 121.85 58.5145 121.544 59.999 121.308C61.5323 121.064 63.2502 120.86 64.5065 121.772C65.2977 122.347 65.7589 123.275 66.4919 123.922C67.2249 124.57 68.5288 124.815 69.0804 124.007C69.2248 123.721 69.2978 123.404 69.2932 123.084C69.2886 122.763 69.2065 122.448 69.0539 122.167C68.7438 121.605 68.5573 120.983 68.5068 120.344C68.5437 119.456 69.2566 118.75 69.9859 118.243C70.7153 117.736 71.539 117.298 72.0175 116.549C72.6061 115.628 72.5436 114.442 72.9088 113.412C73.7925 110.919 76.9464 109.81 77.8651 107.329C78.0865 106.807 78.1113 106.223 77.9351 105.684C77.5506 104.696 76.5112 104.89 76.4475 103.683C76.3865 102.528 77.35 101.395 78.3291 100.912C79.6789 100.247 81.2527 100.301 82.757 100.261C84.2613 100.22 85.882 100.02 86.986 98.9977C87.3433 98.6293 87.6189 98.1897 87.7945 97.7075C87.9702 97.2254 88.0421 96.7116 88.0055 96.1997C87.9689 95.6879 87.8247 95.1895 87.5822 94.7372C87.3397 94.285 87.0045 93.889 86.5984 93.5753C85.7758 93.0071 84.7358 92.8096 83.9354 92.2105C82.9384 91.4645 82.4665 90.2219 81.69 89.2484C81.044 88.5072 80.3048 87.8528 79.4909 87.3013C78.8246 86.8069 78.1583 86.3125 77.492 85.8181C76.2875 84.9244 75.0342 84.0079 73.5685 83.6894C72.1027 83.371 70.3573 83.8216 69.6233 85.1296C69.3338 85.7126 69.1757 86.3519 69.1601 87.0026C69.0932 88.5346 69.1571 90.0696 69.3511 91.5908C69.4721 92.8152 69.593 94.0397 69.714 95.2641C69.8224 96.3618 69.706 97.809 68.6405 98.0939C66.2766 98.7259 67.0742 95.2306 66.55 94.1598C65.7475 92.5208 62.0604 91.7338 60.4842 91.0507C59.4998 90.6241 58.4609 90.1532 57.8664 89.26C57.1266 88.1484 57.2785 86.6354 57.8586 85.4328C58.4388 84.2301 59.384 83.2512 60.2427 82.2286C61.1181 81.1863 61.9151 80.0811 62.7113 78.9771C63.6347 77.6966 64.558 76.4162 65.4814 75.1357C66.6657 73.4935 67.9106 71.4893 67.2379 69.5796C67.0921 69.3242 66.8742 69.1174 66.6115 68.9852C66.3487 68.853 66.0528 68.8012 65.7607 68.8365C65.4687 68.8717 65.1935 68.9923 64.9697 69.1831C64.7459 69.374 64.5834 69.6267 64.5025 69.9095C64.2077 70.9404 64.9942 72.2567 64.2418 73.0207C63.984 73.2283 63.6615 73.3387 63.3306 73.3325C62.9997 73.3263 62.6815 73.204 62.4317 72.9869C61.9444 72.5368 61.5732 71.9755 61.3499 71.3509C60.4383 69.3251 59.5501 67.2868 58.6144 65.272C58.3186 64.6351 58.0099 63.5446 57.1134 63.6519C56.3352 63.7451 55.9149 64.8792 55.9419 65.5377C55.9813 66.4956 56.5108 67.3516 56.9154 68.2208C57.3201 69.09 57.6031 70.1338 57.1588 70.9834C56.5962 72.0591 55.1713 72.3008 53.9579 72.2652C51.6706 72.1959 49.4295 71.6046 47.4059 70.5364C47.353 71.6606 47.3001 72.7848 47.2472 73.909C45.6366 73.2348 44.026 72.5607 42.4153 71.8865C42.1025 71.7556 41.7897 71.6246 41.4769 71.4937C40.1182 70.925 38.7579 70.3557 37.3592 69.894C36.5652 69.6319 35.7601 69.405 34.9553 69.1781C34.4661 69.0403 33.9769 68.9024 33.4877 68.7645C32.5223 68.4224 31.4984 68.2763 30.4759 68.3348C29.4016 68.4698 28.4434 69.0467 27.4499 69.4781C25.2333 70.4403 22.3663 69.4723 19.9909 69.4551C19.0486 68.0796 17.7766 66.9622 16.291 66.2052C14.8054 65.4482 13.1538 65.0758 11.4871 65.122C9.82039 65.1682 8.19188 65.6315 6.7505 66.4696C5.30912 67.3076 4.10087 68.4937 3.23625 69.9194C2.81862 70.6417 2.4467 71.3895 2.12268 72.1584C1.80039 72.8806 1.47808 73.6029 1.15577 74.3252C0.682963 75.3848 0.199723 76.501 0.292656 77.6576C0.385589 78.8141 1.2722 79.9956 2.4324 79.9851C-0.303462 81.2237 -0.872761 85.5579 1.45044 87.461C2.09374 87.988 2.8826 88.3327 3.46151 88.9297C3.89905 89.3809 4.19177 89.9526 4.3021 90.5714C4.41243 91.1901 4.33535 91.8278 4.08073 92.4024C3.82612 92.9771 3.40559 93.4625 2.87312 93.7965C2.34065 94.1305 1.72054 94.2977 1.09235 94.2767C2.71318 94.9031 4.49852 94.9614 6.15673 94.442C7.81494 93.9226 9.24802 92.8562 10.2219 91.4171C11.2151 89.862 11.6468 87.9192 12.998 86.6625C14.7874 84.9982 17.7431 85.1274 19.807 86.436C21.8708 87.7446 23.1764 89.9728 24.0745 92.2455C25.2514 95.2239 26.0046 98.6273 28.5119 100.62C29.7243 101.583 31.2596 102.125 32.3311 103.242C33.8571 104.834 34.1212 107.237 34.0867 109.442C34.0523 111.647 33.8149 113.934 34.618 115.988C35.4212 118.042 37.7238 119.731 39.7886 118.956C39.1971 120.711 39.2152 122.615 39.84 124.358C40.4649 126.101 41.6599 127.583 43.2315 128.562C42.8553 126.229 42.4791 123.896 42.103 121.563C43.9779 122.091 45.1931 123.909 45.8949 125.726C46.5967 127.543 46.9675 129.508 47.9847 131.169C49.5866 133.785 52.4874 134.912 55.4383 134.902C58.6261 134.891 59.8364 133.371 61.9371 131.133C62.3592 130.751 62.6795 130.27 62.8692 129.733C62.955 129.463 62.9402 129.17 62.8275 128.91C62.7148 128.649 62.5119 128.438 62.256 128.316Z" fill="#E6E6E6"/>
<path d="M71.2829 128.2C69.5011 127.919 67.7193 127.639 65.9375 127.359C66.8716 127.921 67.8057 128.482 68.7397 129.044C69.5186 129.562 70.3655 129.97 71.2563 130.256C71.7031 130.397 72.1739 130.444 72.6396 130.395C73.1054 130.346 73.5561 130.202 73.9638 129.971L73.7357 129.536C73.3764 128.627 72.2481 128.351 71.2829 128.2Z" fill="#E6E6E6"/>
<path d="M70.0724 138.104L70.0848 138.073C69.977 137.894 69.8183 137.752 69.6289 137.664C69.4396 137.576 69.2284 137.547 69.0224 137.58C68.6119 137.654 68.1923 137.661 67.7797 137.601C67.5176 137.498 67.2838 137.334 67.098 137.123C66.9121 136.912 66.7795 136.659 66.7112 136.386C66.5341 135.853 66.4817 135.283 66.28 134.759C66.1343 134.345 65.8771 133.978 65.5366 133.701C65.1962 133.423 64.7857 133.244 64.3504 133.185C63.9136 133.15 63.4805 133.288 63.1448 133.57C62.8092 133.852 62.5979 134.254 62.5566 134.69C62.5909 135.14 62.7337 135.574 62.9726 135.956C63.1648 136.325 63.357 136.695 63.5492 137.065C63.7111 137.396 63.8974 137.715 64.1066 138.019C64.4468 138.487 64.8916 138.87 65.4057 139.137C65.9199 139.404 66.4891 139.547 67.0682 139.555C67.6474 139.564 68.2204 139.437 68.7419 139.185C69.2634 138.933 69.719 138.563 70.0724 138.104Z" fill="#E6E6E6"/>
<path d="M59.6652 43.2849C61.0219 44.0848 62.721 44.6361 63.3656 46.0731L63.7375 46.1933C63.3318 46.6973 62.9262 47.2014 62.5205 47.7055C62.0192 48.3284 61.4921 49.0225 61.5038 49.822C61.5199 50.9231 62.5791 51.7538 63.6493 52.0134C64.7913 52.2483 65.9799 52.0506 66.9844 51.4586C67.9888 50.8665 68.7375 49.9224 69.085 48.8095C69.2123 48.3453 69.2648 47.8638 69.3765 47.3957C69.7018 46.2853 70.1928 45.2304 70.8329 44.2666C74.4357 38.2054 78.0385 32.1442 81.6413 26.083C82.09 25.3282 82.5525 24.4252 82.2151 23.6145C82.035 23.2716 81.7564 22.9904 81.4151 22.8073C81.0738 22.6241 80.6855 22.5474 80.3002 22.5869C79.5313 22.6803 78.7895 22.9298 78.1204 23.32C77.8232 22.7978 77.4037 22.3556 76.8979 22.0314C76.3921 21.7071 75.8152 21.5104 75.2166 21.4583C74.0197 21.3659 72.8158 21.4708 71.6529 21.7687C69.0257 22.1651 66.4924 23.0354 64.1762 24.3372C62.9091 24.9777 61.5147 25.7688 61.1471 27.1402C60.6948 28.8271 62.1522 30.5464 63.83 31.0312C65.5079 31.516 67.2988 31.1089 68.997 30.7008C69.1889 31.524 69.1089 32.3873 68.769 33.1612C68.429 33.9351 67.8473 34.578 67.1112 34.9935C66.3751 35.409 65.5242 35.5748 64.6859 35.466C63.8476 35.3572 63.0672 34.9796 62.4616 34.3899C61.2444 33.2046 60.6482 31.147 58.9769 30.8411C57.311 30.5362 55.9868 32.3131 55.6192 33.9663C55.2595 35.7469 55.4546 37.595 56.178 39.2613C56.9015 40.9276 58.1186 42.332 59.6652 43.2849Z" fill="#E6E6E6"/>
<path d="M80.5617 72.4518C79.7595 70.1905 78.7051 68.0268 77.4184 66.0015C76.4432 64.4002 75.2396 62.9497 73.8455 61.6959C72.5715 60.5957 71.1069 59.7378 69.5242 59.1645C67.9879 58.6089 66.2775 58.3345 64.7244 58.8411C63.1713 59.3477 61.8499 60.7917 61.8814 62.4251C61.9162 64.2311 63.4964 65.6436 65.1433 66.3856C66.7901 67.1277 68.6221 67.4507 70.1758 68.3719C71.2322 69.0126 72.1151 69.903 72.7468 70.9649C73.3785 72.0267 73.7397 73.2274 73.7987 74.4616L74.19 75.1087C73.3035 75.4024 72.4767 75.8525 71.7489 76.4377C71.3884 76.7352 71.1129 77.1225 70.9501 77.5606C70.7873 77.9987 70.743 78.4719 70.8217 78.9326C71.0932 80.0262 72.2099 80.6538 73.2196 81.1539C75.0854 82.078 76.9511 83.002 78.8169 83.9261C77.8669 81.0934 80.9772 78.4574 81.1492 75.4746C81.1558 74.438 80.9561 73.4105 80.5617 72.4518Z" fill="#E6E6E6"/>
<path d="M33.648 64.8021C34.7798 65.681 36.5199 65.2699 37.5568 64.2807C38.5936 63.2916 39.0986 61.8839 39.5695 60.5305C39.3976 61.8701 39.4138 63.2272 39.6179 64.5623C39.7242 65.2299 39.968 65.8682 40.3337 66.4367C40.6995 67.0053 41.1793 67.4917 41.7428 67.8652C42.2544 68.1458 42.8059 68.3466 43.3782 68.4606C46.0386 69.0661 48.819 68.8674 51.3663 67.8899L51.3891 67.0188C50.1094 67.1648 49.1411 65.7613 49.0566 64.4761C48.9721 63.1909 49.4385 61.9305 49.4795 60.6432C49.5205 59.3559 48.9001 57.8518 47.6327 57.6228C47.8545 58.0683 47.9354 58.5708 47.8646 59.0635C47.7938 59.5561 47.5746 60.0155 47.2363 60.3805C46.898 60.7455 46.4565 60.9988 45.9706 61.1068C45.4848 61.2147 44.9776 61.1721 44.5165 60.9847C43.0495 60.3882 42.5165 58.6009 41.3828 57.4952C40.6823 56.872 39.8132 56.4699 38.8848 56.3393C37.9564 56.2087 37.0101 56.3555 36.1649 56.7613C35.3304 57.1871 34.5983 57.789 34.0192 58.5254C33.4401 59.2618 33.0278 60.1152 32.8108 61.0266C32.4665 62.349 32.5686 63.964 33.648 64.8021Z" fill="#E6E6E6"/>
<path d="M68.5771 55.6298L68.6296 55.5446C68.3136 54.6322 67.3343 54.0972 66.3783 53.9614C65.4146 53.8978 64.447 53.9298 63.4897 54.0569C62.5235 54.1819 61.544 53.9662 60.7197 53.4468C60.0617 52.9549 59.6868 52.1809 59.1607 51.5498C58.6347 50.9187 57.7833 50.3998 57.0191 50.7015C56.1918 51.0282 55.9711 52.1878 56.3726 52.9816C56.8455 53.7434 57.559 54.3257 58.4001 54.6365C61.5853 56.0985 65.1693 56.4484 68.5771 55.6298Z" fill="#E6E6E6"/>
<path d="M57.7053 58.3655C57.4407 58.5594 57.2613 58.848 57.2046 59.1711C57.148 59.4941 57.2185 59.8266 57.4014 60.0989C57.5842 60.3712 57.8653 60.5622 58.1858 60.632C58.5063 60.7018 58.8414 60.6449 59.1209 60.4733L59.4 60.7488C59.7712 60.0841 59.9243 59.1935 59.4496 58.5983C59.2385 58.3515 58.9438 58.1913 58.622 58.1483C58.3001 58.1054 57.9737 58.1827 57.7053 58.3655Z" fill="#E6E6E6"/>
<path d="M54.4385 60.7475C54.4426 60.51 54.3747 60.2769 54.2437 60.0787C54.1127 59.8805 53.9248 59.7267 53.7047 59.6373C53.5549 59.6116 53.4014 59.6165 53.2535 59.6517C53.1057 59.6869 52.9664 59.7516 52.8442 59.8421C52.722 59.9325 52.6194 60.0467 52.5425 60.1779C52.4657 60.309 52.4161 60.4543 52.3969 60.6051C52.3739 60.9123 52.4143 61.221 52.5155 61.5119C52.6168 61.8028 52.7768 62.0698 52.9856 62.2963C53.107 62.4788 53.2658 62.6334 53.4514 62.75C53.637 62.8666 53.8452 62.9426 54.0623 62.9728C54.4997 62.9871 54.9457 62.5297 54.7683 62.1296L54.1004 62.1166C54.3062 61.6884 54.4213 61.2223 54.4385 60.7475Z" fill="#E6E6E6"/>
<path d="M41.3763 53.9097C41.6216 54.1085 41.8669 54.3073 42.1122 54.5061C42.5371 54.8734 42.9961 55.1993 43.4829 55.4794C44.3344 55.9511 45.3359 56.0736 46.276 55.8213C46.7402 55.6889 47.1635 55.4418 47.5071 55.1028C47.8507 54.7638 48.1033 54.3437 48.2418 53.8814C48.5351 52.7762 48.0567 51.6287 47.5885 50.5856C47.4817 50.2871 47.3054 50.0182 47.0742 49.8013C46.9557 49.6964 46.8046 49.6356 46.6465 49.6294C46.4883 49.6232 46.3329 49.6719 46.2066 49.7672C46.115 49.8813 46.0541 50.0169 46.0296 50.1612C46.0052 50.3054 46.018 50.4535 46.067 50.5914C46.1676 50.8663 46.2136 51.1581 46.2024 51.4505C46.1557 51.739 45.853 52.0116 45.5862 51.8923L45.5438 52.8742C44.2702 52.2295 43.5966 50.5146 42.1792 50.3455C41.8611 50.3076 41.5386 50.3577 41.2471 50.4905C40.9555 50.6232 40.706 50.8335 40.5257 51.0984C40.3455 51.3632 40.2415 51.6725 40.225 51.9925C40.2085 52.3124 40.2802 52.6308 40.4323 52.9128C40.6783 53.3039 40.9991 53.6427 41.3763 53.9097Z" fill="#E6E6E6"/>
<path d="M38.3447 49.6714C38.6393 49.4694 38.8724 49.1899 39.0183 48.8639C39.1642 48.5378 39.2172 48.1778 39.1715 47.8235C39.1363 47.6519 39.0636 47.4902 38.9588 47.3499C38.8539 47.2095 38.7195 47.094 38.5649 47.0115C38.4104 46.929 38.2395 46.8816 38.0646 46.8727C37.8896 46.8637 37.7149 46.8934 37.5527 46.9596C37.1888 47.2316 36.9331 47.6239 36.8312 48.0667C36.4956 49.0135 36.1599 49.9604 35.8242 50.9073L36.3884 50.4968C37.0864 50.3464 37.7499 50.0665 38.3447 49.6714Z" fill="#E6E6E6"/>
<path d="M44.8823 43.8576C44.9831 43.7305 45.0548 43.5829 45.0924 43.4251C45.1299 43.2673 45.1325 43.1032 45.0998 42.9443C45.0671 42.7854 45 42.6356 44.9031 42.5054C44.8063 42.3753 44.6821 42.2679 44.5394 42.1909L43.834 42.125C43.6736 42.1656 43.5249 42.2432 43.4 42.3517C43.275 42.4601 43.1772 42.5963 43.1144 42.7494C43.0516 42.9025 43.0255 43.0681 43.0383 43.2331C43.0511 43.398 43.1024 43.5577 43.188 43.6993C43.2737 43.8408 43.3913 43.9603 43.5315 44.0482C43.6717 44.1361 43.8305 44.1899 43.9953 44.2053C44.16 44.2207 44.326 44.1973 44.4801 44.1369C44.6341 44.0765 44.7719 43.9809 44.8823 43.8576Z" fill="#E6E6E6"/>
<path d="M51.3705 44.9473C52.0288 45.2622 52.862 45.5624 53.4347 45.1101C53.6043 44.9566 53.7305 44.7611 53.8005 44.5432C53.8705 44.3254 53.8818 44.093 53.8334 43.8694C53.7306 43.4234 53.532 43.005 53.2513 42.6434C52.3755 41.3861 51.2629 40.3117 49.9757 39.4805L49.6574 39.894C49.2129 41.0483 48.7836 42.3959 49.4037 43.4662C49.8218 44.1878 50.6182 44.5874 51.3705 44.9473Z" fill="#E6E6E6"/>
<path d="M56.2754 45.9762L57.5063 46.533C57.3856 46.3227 57.2018 46.1557 56.9808 46.0557C56.7599 45.9558 56.513 45.928 56.2754 45.9762Z" fill="#E6E6E6"/>
<path d="M52.9579 49.8494L52.3763 50.0411C51.8817 50.8539 52.0963 51.8931 52.3263 52.8163C52.4718 53.4 52.7854 54.1181 53.3863 54.0916C53.971 54.0658 54.2298 53.3568 54.342 52.7824C54.5171 52.1584 54.5361 51.5009 54.3973 50.8678C54.318 50.5544 54.1295 50.2796 53.8656 50.0929C53.6017 49.9062 53.2798 49.8199 52.9579 49.8494Z" fill="#E6E6E6"/>
<path d="M43.6822 47.1117L44.1126 47.285C44.2135 47.2706 44.3069 47.2234 44.3782 47.1505C44.4495 47.0777 44.4948 46.9834 44.507 46.8822C44.5193 46.781 44.4978 46.6786 44.446 46.5908C44.3941 46.5031 44.3147 46.4349 44.2202 46.3968C44.1256 46.3587 44.0212 46.3529 43.923 46.3802C43.8248 46.4076 43.7384 46.4665 43.6771 46.548C43.6158 46.6294 43.5831 46.7288 43.584 46.8307C43.5849 46.9326 43.6195 47.0314 43.6822 47.1117Z" fill="#E6E6E6"/>
<path d="M65.3805 80.0208C65.172 80.0255 64.9676 80.0799 64.7844 80.1795C64.6012 80.2792 64.4446 80.4212 64.3274 80.5938C64.2103 80.7663 64.1361 80.9643 64.111 81.1714C64.086 81.3784 64.1108 81.5884 64.1834 81.7839C64.6061 82.694 66.0616 82.698 66.7085 81.9308C66.8742 81.7128 66.9929 81.4629 67.0572 81.1968C67.1214 80.9307 67.1298 80.6542 67.0818 80.3847C67.0338 80.1151 66.9304 79.8585 66.7782 79.6309C66.6261 79.4034 66.4284 79.2098 66.1976 79.0625L65.3805 80.0208Z" fill="#E6E6E6"/>
<path d="M86.3434 101.581C86.1742 101.626 86.0158 101.705 85.8775 101.812C85.7392 101.92 85.6239 102.054 85.5383 102.207C85.4527 102.359 85.3986 102.528 85.3792 102.702C85.3598 102.876 85.3754 103.052 85.4253 103.22L86.6336 103.304C87.0428 103.098 87.452 102.893 87.8612 102.687C87.8365 102.514 87.7773 102.347 87.687 102.197C87.5968 102.047 87.4774 101.917 87.3359 101.814C87.1944 101.711 87.0337 101.637 86.8632 101.597C86.6927 101.557 86.516 101.552 86.3434 101.581Z" fill="#E6E6E6"/>
<path d="M81.4322 103.074C81.0865 103.319 80.809 103.649 80.6258 104.031C80.4427 104.414 80.3599 104.837 80.3854 105.26C80.4247 105.682 80.5974 106.081 80.8784 106.398C81.1595 106.716 81.5343 106.936 81.9486 107.026C82.3668 107.092 82.7944 106.996 83.1447 106.759C83.4951 106.521 83.7421 106.159 83.8359 105.746C84.0403 104.496 82.697 103.581 82.2142 102.41L81.4322 103.074Z" fill="#E6E6E6"/>
<path d="M128.366 94.8211C128.493 95.7594 127.648 96.5813 127.617 97.5278C127.579 98.6507 128.802 99.5243 129.92 99.4141C130.475 99.3179 131 99.0943 131.454 98.7609C131.908 98.4275 132.278 97.9933 132.536 97.4924L132.56 97.3872C132.015 96.7716 131.471 96.1561 130.926 95.5405C130.257 94.7846 129.548 93.9241 129.575 92.9151C129.588 92.4177 129.784 91.9357 129.772 91.4382C129.746 91.0804 129.666 90.7285 129.536 90.3944C129.388 89.9544 129.187 89.4584 128.748 89.3099C128.197 89.124 127.642 89.6117 127.379 90.1299C127.143 90.6078 127.028 91.1366 127.045 91.6695C127.061 92.2024 127.209 92.723 127.475 93.1851C127.793 93.7252 128.281 94.2001 128.366 94.8211Z" fill="#E6E6E6"/>
<path d="M123.228 98.1207C123.348 98.185 123.479 98.2228 123.614 98.2315C123.749 98.2402 123.885 98.2195 124.011 98.1709C124.496 98.0883 124.963 97.9188 125.388 97.6706C125.599 97.5437 125.773 97.3629 125.891 97.1469C126.009 96.9308 126.068 96.6872 126.061 96.441C125.988 96.1313 125.824 95.8505 125.591 95.6339C125.358 95.4174 125.065 95.2748 124.751 95.2244C124.533 95.1477 124.299 95.1258 124.071 95.1607C123.842 95.1956 123.626 95.2863 123.441 95.4246C123.035 95.8053 123.083 96.4514 123.163 97.0021L123.077 97.1456C123.001 97.4857 122.952 97.9086 123.228 98.1207Z" fill="#E6E6E6"/>
<path d="M208.952 138.223C208.835 137.93 208.717 137.637 208.599 137.344C208.437 137.742 208.497 138.149 208.952 138.223Z" fill="#E6E6E6"/>
<path d="M279.664 76.6067C278.152 74.9666 277.227 74.0211 276.272 71.9882C275.753 70.867 274.964 69.8919 273.976 69.1498C272.988 68.4078 271.831 67.922 270.61 67.7358C267.474 67.2191 264.269 68.0372 261.095 67.8733C256.011 67.6107 251.426 64.8838 246.557 63.3964C243.831 62.6326 241.055 62.0601 238.249 61.6829C236.633 61.4272 235.016 61.1716 233.399 60.9159C228.099 60.0778 222.766 59.2372 217.402 59.3485C215.855 59.3806 213.7 58.9157 213.824 57.3735C213.978 55.4581 217.424 55.7095 218.087 53.9058C218.497 52.7901 217.515 51.6186 216.439 51.1141C215.363 50.6096 214.12 50.4579 213.143 49.7806C212.167 49.1032 211.631 47.533 212.529 46.7539C210.041 48.0296 207.552 49.3053 205.064 50.581C202.995 51.6416 200.683 53.0215 200.318 55.3175C199.071 55.647 197.98 56.4049 197.236 57.4583C195.837 57.4656 194.737 58.8094 194.506 60.1901C194.275 61.5707 194.694 62.968 195.109 64.3049C194.602 63.3323 194.062 62.3227 193.167 61.6881C192.272 61.0535 190.91 60.9326 190.147 61.7209C189.364 62.5299 189.547 63.8872 190.101 64.8673C190.655 65.8474 191.506 66.6385 192.029 67.6357C193.661 70.75 190.703 75.1347 187.204 74.7878C187.439 71.5718 187.673 68.3559 187.908 65.14C188.057 64.1508 187.974 63.1406 187.665 62.1891C187.284 61.2685 186.306 60.5124 185.334 60.7298C183.585 61.1207 183.734 63.6823 184.462 65.3199C185.189 66.9575 185.914 69.2349 184.429 70.2378C183.47 70.8854 182.17 70.4854 181.135 69.9685C180.1 69.4515 178.992 68.8145 177.86 69.056C176.729 69.2975 176.017 71.0274 177.017 71.6099C175.359 71.3218 173.701 71.0336 172.042 70.7455C171.96 71.2336 171.777 71.699 171.503 72.1117C171.23 72.5245 170.873 72.8753 170.456 73.1415C170.039 73.4077 169.57 73.5834 169.081 73.6573C168.591 73.7312 168.092 73.7015 167.615 73.5703C167.452 72.8957 167.289 72.2211 167.126 71.5464C166.884 71.4789 166.641 71.4113 166.398 71.3438C167.16 71.5559 165.968 74.768 164.9 77.2218C163.464 77.0534 161.365 77.0209 161.125 76.6094C159.979 74.6386 160.115 69.9443 158.122 68.8355C157.123 68.2795 156.098 67.7728 155.048 67.3155C154.497 67.053 153.914 66.8616 153.314 66.7461C152.09 66.5532 150.857 66.9327 149.676 67.3077C148.281 67.7507 146.853 68.2105 145.698 69.1096C144.711 69.9653 143.866 70.9709 143.192 72.0895C140.911 75.4652 138.63 78.8409 136.35 82.2165C135.67 83.118 135.135 84.12 134.765 85.1863C134.59 85.7166 134.532 86.2783 134.594 86.8331C134.657 87.3878 134.838 87.9226 135.126 88.4009C135.429 88.8698 135.882 89.223 136.41 89.4035C136.938 89.5841 137.512 89.5816 138.039 89.3964C138.7 89.1103 139.362 88.4617 140.017 88.7613C140.514 88.9881 140.638 89.6402 140.586 90.1833C140.459 90.715 140.45 91.2676 140.556 91.8035C140.855 92.6489 142.002 92.943 142.82 92.5772C143.616 92.1431 144.212 91.4171 144.484 90.5522C145.272 88.5299 145.192 86.2922 145.388 84.1304C145.584 81.9687 146.175 79.6565 147.88 78.3124C148.39 77.91 149.139 77.62 149.665 78.0026C149.861 78.1813 149.997 78.417 150.053 78.6767C150.11 78.9364 150.083 79.2071 149.978 79.4512C149.759 79.9341 149.472 80.3839 149.128 80.7873C148.546 81.6065 148.138 82.5368 147.931 83.5203C147.723 84.5039 147.721 85.5195 147.923 86.5041L148.271 86.7197C149.6 86.375 151.379 86.9921 153.143 87.584C151.862 87.9649 150.735 88.7405 149.921 89.8002C147.882 92.6616 146.406 95.3694 142.371 95.3354C141.414 95.3273 140.465 95.1381 139.508 95.136C138.542 95.0764 137.59 95.3933 136.853 96.0202C136.128 96.7307 135.903 97.8124 135.282 98.6161C134.466 99.6728 133.102 100.103 131.856 100.583C130.945 100.933 129.986 101.406 129.567 102.288C129.304 103.011 129.243 103.792 129.392 104.547C129.532 105.882 129.78 107.4 130.913 108.121C131.336 108.342 131.8 108.476 132.276 108.516C132.752 108.557 133.231 108.502 133.686 108.355C134.863 108.069 136.016 107.529 137.225 107.61C139.125 107.736 140.689 109.559 140.708 111.463C140.718 112.427 140.437 113.532 141.075 114.253C141.675 114.931 142.866 114.811 143.488 114.152C143.777 113.802 143.976 113.386 144.067 112.942C144.158 112.497 144.139 112.037 144.011 111.601C143.747 110.733 143.341 109.915 142.81 109.18C143.442 109.016 144.111 109.076 144.704 109.35C145.297 109.624 145.776 110.095 146.061 110.683C146.483 111.62 146.347 112.702 146.481 113.721C146.616 114.74 147.236 115.872 148.263 115.931C148.598 115.94 148.926 115.832 149.19 115.625C149.455 115.418 149.638 115.124 149.708 114.796C149.719 114.279 149.691 113.762 149.624 113.249C149.659 112.744 149.886 112.272 150.258 111.929C150.63 111.586 151.12 111.398 151.626 111.404C151.314 111.981 151.212 112.649 151.338 113.292C151.465 113.936 151.811 114.516 152.318 114.932C153.099 115.536 154.131 115.671 155.104 115.84C156.077 116.009 157.115 116.276 157.743 117.038C158.789 118.308 157.509 118.88 157.31 119.955C157.065 121.274 158.168 123.224 158.591 124.486C160.537 127.208 162.483 129.931 164.429 132.653C164.863 133.315 165.376 133.922 165.955 134.462C167.876 136.112 171.043 135.949 172.885 134.212C173.778 133.308 174.358 132.142 174.54 130.885C174.721 129.627 174.495 128.345 173.894 127.225C172.755 125.153 170.5 123.869 169.386 121.784C171.24 123.319 173.516 124.255 175.913 124.468C180.155 125.33 184.185 127.02 187.772 129.442C187.941 133.19 189.379 136.769 191.851 139.592C192.295 136.393 193.786 133.432 196.091 131.17C197.591 129.708 199.639 128.529 201.696 128.923C203.753 129.316 205.313 131.939 204.069 133.623C205.111 133.701 206.154 133.778 207.196 133.856C207.664 135.018 208.131 136.18 208.599 137.342C208.682 137.098 208.841 136.887 209.053 136.74C209.265 136.593 209.519 136.517 209.777 136.525C210.753 136.672 211.437 137.58 212.365 137.915C214.115 138.547 215.985 136.797 216.212 134.95C216.438 133.104 215.56 131.321 214.706 129.668C216.591 130.017 218.538 129.809 220.306 129.069C222.075 128.329 223.59 127.089 224.665 125.502C225.74 123.914 226.329 122.048 226.36 120.131C226.39 118.214 225.861 116.329 224.837 114.708C226.866 112.577 229.253 110.82 231.89 109.516C234.331 108.31 237 107.482 239.133 105.791C241.266 104.1 242.761 101.163 241.736 98.642C241.011 96.861 239.193 95.6522 238.649 93.8078C237.862 91.138 240.254 88.3765 242.956 87.7095C245.659 87.0425 248.481 87.8623 251.143 88.6758C250.734 85.9365 253.909 83.3686 256.502 84.3413C257.588 83.9015 258.674 83.4618 259.76 83.022C258.501 85.7977 255.773 87.5637 253.767 89.8583C251.761 92.1529 250.567 95.8897 252.662 98.1029C255.666 95.3806 258.669 92.6584 261.673 89.9361C264.814 87.0886 267.956 84.2411 271.098 81.3936C270.948 80.9529 270.798 80.5123 270.648 80.0716C273.62 78.9426 276.821 78.0088 279.664 76.6067Z" fill="#E6E6E6"/>
<path d="M123.659 113.245C123.538 113.42 123.474 113.628 123.475 113.841C123.476 114.053 123.542 114.261 123.665 114.434C123.827 114.571 124.031 114.648 124.242 114.65C124.454 114.653 124.66 114.582 124.825 114.45C125.148 114.174 125.4 113.826 125.56 113.433C125.716 113.735 125.961 113.981 126.262 114.139C126.563 114.296 126.905 114.358 127.242 114.314C127.915 114.212 128.552 113.947 129.098 113.54C129.531 113.286 129.913 112.955 130.225 112.562C130.38 112.364 130.486 112.133 130.535 111.887C130.584 111.641 130.575 111.387 130.509 111.145C130.347 110.774 130.095 110.449 129.776 110.199C128.981 109.465 128.187 108.731 127.392 107.997L127.123 107.916C126.982 107.767 126.814 107.648 126.626 107.566C126.439 107.483 126.237 107.44 126.032 107.438C125.827 107.435 125.624 107.475 125.435 107.553C125.246 107.631 125.075 107.747 124.931 107.893C124.438 108.445 124.436 109.271 124.511 110.008C124.586 110.745 124.704 111.53 124.376 112.194C124.188 112.575 123.869 112.876 123.659 113.245Z" fill="#E6E6E6"/>
<path d="M169.771 138.321C166.683 137.633 163.856 136.076 161.624 133.833C159.392 131.59 157.85 128.755 157.178 125.663C156.885 124.204 156.752 122.609 155.782 121.481C154.842 120.389 153.307 119.995 151.866 119.995C150.425 119.995 149.005 120.327 147.567 120.416C145.053 120.573 142.389 119.909 140.591 118.145C139.74 117.309 139.095 116.248 138.101 115.589C136.765 114.703 134.993 114.704 133.47 115.206C131.774 115.765 130.417 117.294 128.562 117.084C126.634 116.865 124.398 116.183 123.642 118.723C123.424 119.454 123.499 120.256 123.223 120.967C122.798 122.064 121.67 122.682 120.778 123.448C118.981 124.99 118.025 127.334 117.703 129.68C117.382 132.027 117.631 134.41 117.88 136.765C118.014 138.035 118.191 139.403 119.064 140.336C120.28 141.636 122.321 141.586 124.096 141.439C126.158 141.269 128.22 141.099 130.282 140.929C131.393 140.837 132.66 140.798 133.451 141.584C133.925 142.055 134.126 142.736 134.543 143.258C134.917 143.703 135.431 144.007 136.001 144.122C136.57 144.237 137.162 144.155 137.679 143.891C137.261 144.638 137.033 145.476 137.016 146.332C136.999 147.188 137.194 148.035 137.582 148.798C137.97 149.56 138.541 150.216 139.243 150.705C139.945 151.195 140.757 151.504 141.607 151.605L141.766 151.706C140.446 153.966 139.076 156.504 139.624 159.064C140.093 161.259 141.911 163.019 142.208 165.243C142.481 167.284 141.416 169.372 141.887 171.377C142.364 173.407 144.414 174.822 146.494 174.973C148.574 175.124 150.618 174.202 152.229 172.877C153.84 171.553 155.085 169.848 156.313 168.162C157.071 167.121 157.848 166.038 158.108 164.777C158.385 163.435 158.064 161.948 158.717 160.743C159.469 159.353 161.256 158.833 162.157 157.535C163.325 155.855 162.637 153.566 162.895 151.536C163.534 146.513 169.916 143.382 169.771 138.321Z" fill="#E6E6E6"/>
<path d="M168.848 155.472C168.674 156.256 167.939 156.772 167.24 157.167C166.54 157.562 165.77 157.96 165.414 158.68C165.048 159.418 165.215 160.297 165.406 161.097C165.804 162.762 166.272 164.409 166.811 166.036C167.855 164.063 168.767 162.022 169.54 159.928C169.868 159.148 170.07 158.321 170.139 157.478C170.171 157.057 170.114 156.633 169.972 156.234C169.831 155.835 169.607 155.471 169.315 155.164L168.848 155.472Z" fill="#E6E6E6"/>
<path d="M211.799 146.733C210.922 145.721 210.045 144.708 209.168 143.696C208.568 143.003 207.884 142.264 206.976 142.148L206.602 142.387C207.362 144.198 208.122 146.009 208.883 147.819C209.152 148.646 209.626 149.391 210.26 149.986C210.941 150.521 212.045 150.623 212.612 149.97C212.795 149.725 212.911 149.436 212.947 149.132C212.983 148.829 212.939 148.521 212.819 148.24C212.571 147.681 212.226 147.171 211.799 146.733Z" fill="#E6E6E6"/>
<path d="M220.297 148.672C220.629 148.556 220.932 148.373 221.189 148.134C221.446 147.895 221.65 147.605 221.788 147.282C222.059 146.636 222.239 145.955 222.321 145.258C222.471 144.352 222.621 143.445 222.771 142.539L222.575 142.488C222.384 142.397 222.167 142.378 221.963 142.434C221.76 142.491 221.584 142.619 221.467 142.795C221.247 143.155 221.079 143.546 220.971 143.954C220.916 144.158 220.815 144.347 220.676 144.506C220.537 144.666 220.364 144.792 220.17 144.875C219.466 145.088 218.799 144.342 218.065 144.371C217.768 144.409 217.492 144.546 217.284 144.76C217.075 144.975 216.945 145.253 216.915 145.551C216.872 146.152 217.042 146.749 217.396 147.237C218.022 148.21 219.185 148.992 220.297 148.672Z" fill="#E6E6E6"/>
<path d="M225.146 150.393L227.167 145.07C226.348 145.664 225.721 146.484 225.361 147.43C225.002 148.376 224.927 149.406 225.146 150.393Z" fill="#E6E6E6"/>
<path d="M235.46 146.102L235.051 146.119C234.869 146.48 234.772 146.879 234.768 147.284C234.764 147.688 234.853 148.089 235.029 148.453C235.388 149.18 235.909 149.815 236.554 150.307C237.552 151.131 238.692 151.767 239.917 152.185C241.715 152.709 243.573 152.995 245.445 153.036C246.515 153.106 247.584 153.176 248.654 153.246C249.164 153.28 249.823 153.215 249.965 152.724C250.082 152.319 249.737 151.938 249.414 151.666C246.584 149.284 243.152 147.726 239.495 147.164C238.108 146.953 236.636 146.866 235.46 146.102Z" fill="#E6E6E6"/>
<path d="M246.882 160.227C246.113 159.481 245.343 158.735 244.574 157.988C243.825 157.263 242.704 156.494 241.846 157.086C241.354 157.427 241.202 158.091 240.784 158.521C240.529 158.749 240.222 158.909 239.89 158.989C239.557 159.068 239.21 159.063 238.88 158.974C238.223 158.789 237.602 158.495 237.043 158.103L235.133 156.918C234.475 156.509 233.816 156.1 233.157 155.691L231.67 157.136C231.735 156.425 230.787 155.963 230.13 156.244C229.818 156.419 229.55 156.663 229.345 156.956C229.14 157.249 229.003 157.584 228.946 157.937C228.836 158.643 228.646 159.334 228.377 159.996C227.622 161.441 225.789 161.869 224.177 162.111C222.564 162.353 220.737 162.694 219.874 164.078C219.155 165.23 219.371 166.71 219.611 168.047L220.52 173.104C220.563 173.717 220.809 174.298 221.218 174.755C222.017 175.46 223.254 175.031 224.228 174.602C226.265 173.622 228.451 172.988 230.696 172.727C232.961 172.474 235.24 173.057 237.104 174.368C238.26 175.248 239.141 176.466 240.366 177.248C241.209 177.755 242.157 178.064 243.138 178.149C244.118 178.235 245.105 178.095 246.024 177.742C247.865 177.009 249.389 175.65 250.327 173.904C251.161 172.365 251.579 170.635 251.541 168.885C251.503 167.136 251.01 165.426 250.11 163.924C249.192 162.563 248.107 161.321 246.882 160.227Z" fill="#E6E6E6"/>
<path d="M244.613 180.833C244.428 181.058 244.32 181.335 244.305 181.625C244.289 181.915 244.367 182.202 244.527 182.445C244.862 182.926 245.373 183.255 245.949 183.361C246.52 183.463 247.101 183.49 247.679 183.44L247.697 183.009C247.543 182.251 247.193 181.547 246.684 180.967C246.126 180.437 245.141 180.274 244.613 180.833Z" fill="#E6E6E6"/>
<path d="M264.427 181.292L264.152 181.191C263.495 182.181 262.838 183.171 262.182 184.16C261.829 184.693 261.46 185.332 261.675 185.934C261.93 186.646 262.874 186.854 263.606 186.666C264.165 186.514 264.669 186.206 265.059 185.778C265.449 185.35 265.709 184.819 265.809 184.249C265.889 183.675 265.802 183.09 265.557 182.565C265.311 182.041 264.919 181.598 264.427 181.292Z" fill="#E6E6E6"/>
<path d="M269.432 178.152L267.619 176.711C267.595 177.379 267.571 178.048 267.547 178.717L267.479 178.718C267.897 179.084 268.291 179.477 268.66 179.893C269.084 180.253 269.796 180.418 270.159 179.996C270.267 179.844 270.329 179.665 270.336 179.478C270.343 179.292 270.295 179.108 270.198 178.949C269.999 178.635 269.738 178.364 269.432 178.152Z" fill="#E6E6E6"/>
<path d="M236.686 115.459C235.925 115.436 235.083 115.389 234.494 115.871C234.3 116.044 234.13 116.242 233.988 116.46L233.78 116.751C233.469 117.158 233.198 117.595 232.97 118.054C232.851 118.269 232.78 118.507 232.761 118.752C232.742 118.997 232.776 119.243 232.86 119.474C232.909 119.584 232.981 119.683 233.072 119.762C233.163 119.841 233.27 119.9 233.386 119.933C233.502 119.966 233.624 119.974 233.743 119.955C233.862 119.936 233.976 119.891 234.076 119.823C234.401 119.522 234.325 118.976 234.571 118.607C234.679 118.468 234.818 118.356 234.977 118.28C235.135 118.204 235.31 118.166 235.486 118.169C235.837 118.178 236.187 118.218 236.531 118.287C237.484 118.418 238.455 118.273 239.329 117.87C240.203 117.466 240.943 116.821 241.462 116.01C241.981 115.2 242.257 114.258 242.257 113.295C242.258 112.333 241.983 111.39 241.466 110.579L241.404 110.392C240.878 110.372 240.361 110.537 239.943 110.859C239.526 111.181 239.235 111.639 239.12 112.153C238.95 113.039 239.31 114.069 238.773 114.794C238.32 115.405 237.446 115.483 236.686 115.459Z" fill="#E6E6E6"/>
<path d="M243.494 106.065L243.378 106.055C242.697 106.179 242.044 106.422 241.449 106.773C241.253 106.864 241.097 107.022 241.009 107.219C240.983 107.324 240.984 107.433 241.011 107.537C241.037 107.641 241.09 107.737 241.163 107.816C241.31 107.972 241.483 108.102 241.674 108.201C241.959 108.391 242.273 108.531 242.604 108.617C242.77 108.658 242.944 108.657 243.109 108.614C243.275 108.571 243.427 108.488 243.553 108.371C243.67 108.21 243.751 108.024 243.79 107.828C243.828 107.632 243.823 107.429 243.775 107.235C243.721 106.837 243.627 106.444 243.494 106.065Z" fill="#E6E6E6"/>
<path d="M231.77 115.684C231.952 115.393 232.081 115.072 232.152 114.736C232.223 114.475 232.294 114.214 232.364 113.953L231.606 113.492C231.244 113.681 230.91 113.919 230.614 114.2C230.466 114.341 230.35 114.512 230.271 114.7C230.193 114.889 230.155 115.092 230.158 115.296C230.169 115.5 230.248 115.695 230.383 115.848C230.518 116.002 230.702 116.105 230.903 116.141C231.074 116.146 231.245 116.107 231.397 116.027C231.549 115.947 231.677 115.828 231.77 115.684Z" fill="#E6E6E6"/>
<path d="M149.176 45.1802C148.876 45.3671 148.96 45.8189 149.082 46.1506C149.222 46.5314 149.361 46.9122 149.501 47.293L149.696 46.5538C149.868 46.2671 149.944 45.9331 149.912 45.6004C149.845 45.2755 149.457 45.0047 149.176 45.1802Z" fill="#E6E6E6"/>
<path d="M338.472 113.779H211.661C208.605 113.776 205.674 112.56 203.513 110.399C201.352 108.237 200.136 105.307 200.133 102.251V11.5283C200.136 8.47185 201.352 5.54161 203.513 3.38039C205.674 1.21917 208.605 0.00347705 211.661 0H338.472C341.528 0.00347573 344.459 1.21917 346.62 3.38039C348.781 5.54161 349.997 8.47185 350 11.5283V102.251C349.997 105.307 348.781 108.237 346.62 110.399C344.459 112.56 341.528 113.776 338.472 113.779Z" fill="white"/>
<path d="M324.21 64.0006H226.84C226.087 64.0006 225.364 63.7013 224.832 63.1687C224.299 62.6361 224 61.9137 224 61.1604C224 60.4072 224.299 59.6848 224.832 59.1522C225.364 58.6195 226.087 58.3203 226.84 58.3203H324.21C324.963 58.3203 325.685 58.6195 326.218 59.1522C326.751 59.6848 327.05 60.4072 327.05 61.1604C327.05 61.9137 326.751 62.6361 326.218 63.1687C325.685 63.7013 324.963 64.0006 324.21 64.0006Z" fill="#E6E6E6"/>
<path d="M334.21 79.6802H216.84C216.087 79.6802 215.364 79.381 214.832 78.8484C214.299 78.3158 214 77.5934 214 76.8401C214 76.0869 214.299 75.3645 214.832 74.8318C215.364 74.2992 216.087 74 216.84 74H334.21C334.963 74 335.685 74.2992 336.218 74.8318C336.751 75.3645 337.05 76.0869 337.05 76.8401C337.05 77.5934 336.751 78.3158 336.218 78.8484C335.685 79.381 334.963 79.6802 334.21 79.6802Z" fill="#E6E6E6"/>
<path d="M334.21 95.3599H216.84C216.087 95.3599 215.364 95.0607 214.832 94.5281C214.299 93.9955 214 93.2731 214 92.5198C214 91.7666 214.299 91.0442 214.832 90.5115C215.364 89.9789 216.087 89.6797 216.84 89.6797H334.21C334.963 89.6797 335.685 89.9789 336.218 90.5115C336.751 91.0442 337.05 91.7666 337.05 92.5198C337.05 93.2731 336.751 93.9955 336.218 94.5281C335.685 95.0607 334.963 95.3599 334.21 95.3599Z" fill="#E6E6E6"/>
<path d="M338.472 113.779H211.661C208.605 113.776 205.674 112.56 203.513 110.399C201.352 108.237 200.136 105.307 200.133 102.251V11.5283C200.136 8.47185 201.352 5.54161 203.513 3.38039C205.674 1.21917 208.605 0.00347705 211.661 0H338.472C341.528 0.00347573 344.459 1.21917 346.62 3.38039C348.781 5.54161 349.997 8.47185 350 11.5283V102.251C349.997 105.307 348.781 108.237 346.62 110.399C344.459 112.56 341.528 113.776 338.472 113.779ZM211.661 1.00246C208.87 1.00559 206.195 2.11556 204.222 4.08885C202.248 6.06215 201.138 8.73761 201.135 11.5283V102.251C201.138 105.041 202.248 107.717 204.222 109.69C206.195 111.663 208.87 112.773 211.661 112.777H338.472C341.263 112.773 343.938 111.663 345.911 109.69C347.885 107.717 348.995 105.041 348.998 102.251V11.5283C348.995 8.73761 347.885 6.06215 345.911 4.08885C343.938 2.11556 341.263 1.00559 338.472 1.00246H211.661Z" fill="#3F3D56"/>
<path d="M40.0074 114.101C41.6683 114.101 43.0147 112.754 43.0147 111.093C43.0147 109.432 41.6683 108.086 40.0074 108.086C38.3464 108.086 37 109.432 37 111.093C37 112.754 38.3464 114.101 40.0074 114.101Z" fill="#F35826"/>
<path d="M70.0074 108.101C71.6683 108.101 73.0147 106.754 73.0147 105.093C73.0147 103.432 71.6683 102.086 70.0074 102.086C68.3464 102.086 67 103.432 67 105.093C67 106.754 68.3464 108.101 70.0074 108.101Z" fill="#F35826"/>
<path d="M140.007 106.101C141.668 106.101 143.015 104.754 143.015 103.093C143.015 101.432 141.668 100.086 140.007 100.086C138.346 100.086 137 101.432 137 103.093C137 104.754 138.346 106.101 140.007 106.101Z" fill="#F35826"/>
<path d="M126.007 136.101C127.668 136.101 129.015 134.754 129.015 133.093C129.015 131.432 127.668 130.086 126.007 130.086C124.346 130.086 123 131.432 123 133.093C123 134.754 124.346 136.101 126.007 136.101Z" fill="#F35826"/>
<path d="M72.292 299.47L76.8281 299.469L78.9859 281.973L72.291 281.973L72.292 299.47Z" fill="#FFB6B6"/>
<path d="M72.1331 304.199L86.082 304.199V304.022C86.0819 302.582 85.5098 301.202 84.4916 300.183C83.4735 299.165 82.0926 298.593 80.6527 298.593L78.1044 296.66L73.3505 298.593L72.1328 298.593L72.1331 304.199Z" fill="#2F2E41"/>
<path d="M106.376 299.47L110.912 299.469L113.07 281.973L106.375 281.973L106.376 299.47Z" fill="#FFB6B6"/>
<path d="M106.217 304.199L120.166 304.199V304.022C120.166 302.582 119.594 301.202 118.576 300.183C117.557 299.165 116.177 298.593 114.737 298.593L112.188 296.66L107.434 298.593L106.217 298.593L106.217 304.199Z" fill="#2F2E41"/>
<path d="M72.1172 157.137L80.1673 155.984C82.8899 160.537 83.8574 172.654 83.8574 172.654L91.7356 191.38C92.2574 191.734 92.6766 192.22 92.951 192.787C93.2254 193.355 93.3454 193.985 93.2989 194.614C93.2524 195.243 93.041 195.849 92.686 196.37C92.331 196.892 91.8449 197.31 91.2767 197.584C90.7085 197.858 90.0782 197.977 89.4492 197.93C88.8203 197.883 88.2149 197.67 87.694 197.315C87.1731 196.959 86.755 196.473 86.482 195.904C86.2089 195.336 86.0904 194.705 86.1384 194.076L73.2031 172.281L72.1172 157.137Z" fill="#FFB6B6"/>
<path d="M76.4798 134.79C75.2338 134.983 74.0457 135.448 72.9999 136.152C71.9541 136.857 71.0764 137.783 70.4293 138.865C69.7821 139.947 69.3814 141.159 69.2557 142.413C69.1299 143.668 69.2822 144.935 69.7017 146.124L71.41 150.966C71.41 150.966 69.2581 165.545 72.8045 169.66L83.6868 168.675C83.6868 168.675 81.6972 161.32 83.2247 157.761C84.1601 155.581 84.1082 148.054 83.1864 141.93C82.4826 137.254 81.1527 134.066 76.4798 134.79Z" fill="#3F3D56"/>
<path d="M114.009 178.719C114.009 178.719 122.397 186.899 120.605 188.789C118.814 190.678 114.717 193.325 118.52 193.756C122.323 194.187 123.9 195.121 120.605 195.907C117.31 196.693 117.82 198.711 117.82 198.711C117.82 198.711 122.78 222.326 119.021 237.864C119.021 237.864 116.929 280.304 115.616 283.609C114.303 286.914 113.802 284.909 114.303 286.914C114.804 288.919 115.807 285.41 114.804 288.919C114.257 290.752 113.824 292.616 113.507 294.503L103.702 292.999C103.702 292.999 102.123 288.023 103.702 286.717C105.281 285.41 106.697 286.215 104.986 283.307C103.276 280.398 102.775 284.408 103.276 280.398C103.777 276.388 101.685 254.701 104.986 243.24L98.8848 211.08L89.1977 244.38C89.1977 244.38 84.0595 285.05 82.39 286.483C80.7206 287.916 78.2144 285.41 80.7206 287.917C83.2267 290.423 83.1829 289.992 83.2267 290.423C83.6935 295.02 69.3435 289.992 69.3435 289.992C69.4233 288.823 69.4233 287.651 69.3435 286.483C69.1923 285.41 70.9984 285.067 69.3435 283.986C67.6886 282.904 70.151 283.977 70.151 283.977C70.151 283.977 73.8516 253.973 76.667 244.881L79.925 200.604C79.925 200.604 80.1318 201.487 79.925 199.341C79.7181 197.194 78.2144 198.698 79.7181 197.194C81.2218 195.69 82.2243 194.924 81.2218 193.804C80.2193 192.683 77.454 190.416 79.0873 189.043C80.7206 187.671 83.9348 178.719 83.9348 178.719L115.262 178.969" fill="#2F2E41"/>
<path d="M102.229 129.009L96.5806 122.648L87.6552 123.64L81.9409 131.637C78.8993 132.336 76.2413 134.175 74.5138 136.774C72.7863 139.374 72.1208 142.536 72.6541 145.611C74.8716 158.38 82.4075 170.764 79.9191 177.064C76.1419 186.628 75.9114 190.528 84.9532 189.188C93.9949 187.847 124.286 184.756 118.414 178.883C112.541 173.01 111.251 163.196 111.251 163.196L111.015 140.744C111.265 139.39 111.232 137.999 110.918 136.658C110.603 135.317 110.015 134.056 109.19 132.954C108.365 131.852 107.32 130.932 106.122 130.253C104.924 129.574 103.599 129.15 102.229 129.009Z" fill="#3F3D56"/>
<path d="M100.686 153.63L108.736 152.477C111.458 157.029 112.426 169.147 112.426 169.147L120.304 187.872C120.826 188.226 121.245 188.712 121.519 189.28C121.794 189.847 121.914 190.478 121.867 191.107C121.821 191.736 121.609 192.341 121.254 192.863C120.899 193.384 120.413 193.803 119.845 194.076C119.277 194.35 118.647 194.469 118.018 194.422C117.389 194.375 116.783 194.163 116.262 193.807C115.741 193.451 115.323 192.965 115.05 192.396C114.777 191.828 114.659 191.197 114.707 190.568L101.772 168.773L100.686 153.63Z" fill="#FFB6B6"/>
<path d="M105.05 131.282C103.804 131.475 102.616 131.94 101.57 132.645C100.524 133.349 99.6467 134.275 98.9996 135.357C98.3524 136.439 97.9517 137.651 97.826 138.905C97.7002 140.16 97.8525 141.427 98.272 142.616L99.9803 147.458C99.9803 147.458 97.8284 162.037 101.375 166.153L112.257 165.167C112.257 165.167 110.267 157.812 111.795 154.253C112.73 152.074 112.678 144.546 111.757 138.422C111.053 133.746 109.723 130.558 105.05 131.282Z" fill="#3F3D56"/>
<path d="M89.6631 122.1C95.6211 122.1 100.451 117.27 100.451 111.311C100.451 105.353 95.6211 100.523 89.6631 100.523C83.705 100.523 78.875 105.353 78.875 111.311C78.875 117.27 83.705 122.1 89.6631 122.1Z" fill="#FFB6B6"/>
<path d="M87.6802 121.874C90.6847 121.121 90.787 120.262 93.7916 119.51C94.7483 119.27 95.8567 118.892 96.1403 117.948C96.2076 117.602 96.1938 117.246 96.1001 116.907C96.0063 116.567 95.8351 116.254 95.5999 115.992C95.1266 115.474 94.6831 114.929 94.2718 114.36C93.9993 113.903 93.8421 113.387 93.814 112.855C93.7858 112.324 93.8875 111.794 94.1101 111.311C94.3328 110.827 94.6698 110.406 95.092 110.082C95.5142 109.758 96.0089 109.542 96.5334 109.452C97.4628 109.293 98.4212 109.539 99.3566 109.42C100.639 109.257 102.526 104.497 101.704 103.499C100.903 102.528 99.5894 101.948 99.148 100.769C98.8593 99.9981 99.0171 99.1359 98.8885 98.3227C98.6978 97.1169 96.2578 100.455 96.5826 99.2787C97.3793 96.3919 83.8996 95.9373 82.4963 99.6407C81.9718 101.025 80.5519 101.245 79.4598 102.244C78.744 102.899 77.032 104.994 76.7838 106.123C76.5782 107.265 76.6178 108.438 76.8998 109.563C78.0194 114.839 79.8697 119.515 84.7949 121.713" fill="#2F2E41"/>
<path d="M275.176 47.4376C283.557 47.4376 290.352 40.6431 290.352 32.2618C290.352 23.8804 283.557 17.0859 275.176 17.0859C266.794 17.0859 260 23.8804 260 32.2618C260 40.6431 266.794 47.4376 275.176 47.4376Z" fill="#34C759"/>
<path d="M274.642 38.3494C274.439 38.3494 274.238 38.3019 274.056 38.2108C273.873 38.1197 273.715 37.9874 273.593 37.8245L270.375 33.5341C270.271 33.3963 270.196 33.2394 270.153 33.0723C270.11 32.9053 270.1 32.7314 270.124 32.5606C270.149 32.3899 270.206 32.2255 270.294 32.0771C270.382 31.9286 270.498 31.7989 270.636 31.6954C270.774 31.5919 270.931 31.5167 271.098 31.4739C271.265 31.4312 271.439 31.4219 271.61 31.4464C271.781 31.471 271.945 31.529 272.093 31.6171C272.242 31.7052 272.371 31.8216 272.474 31.9598L274.579 34.7665L279.986 26.6564C280.18 26.3676 280.48 26.1673 280.82 26.0995C281.161 26.0316 281.515 26.1018 281.804 26.2946C282.093 26.4874 282.294 26.787 282.363 27.1277C282.431 27.4684 282.362 27.8224 282.17 28.1119L275.734 37.7651C275.618 37.9397 275.461 38.0838 275.278 38.1854C275.094 38.287 274.889 38.3431 274.679 38.3489L274.642 38.3494Z" fill="white"/>
</g>
<defs>
<clipPath id="clip0_8010_9570">
<rect width="350" height="305.037" fill="white"/>
</clipPath>
</defs>
</svg>
