<svg width="579" height="331" viewBox="0 0 579 331" fill="none" xmlns="http://www.w3.org/2000/svg">
<rect x="578.605" y="330.6" width="38.7985" height="330.198" transform="rotate(-180 578.605 330.6)" stroke="url(#paint0_linear_1_2987)" stroke-opacity="0.5" stroke-width="0.8"/>
<rect x="501.542" y="330.6" width="38.7985" height="330.198" transform="rotate(-180 501.542 330.6)" stroke="url(#paint1_linear_1_2987)" stroke-opacity="0.5" stroke-width="0.8"/>
<rect x="424.488" y="330.6" width="38.7985" height="330.198" transform="rotate(-180 424.488 330.6)" stroke="url(#paint2_linear_1_2987)" stroke-opacity="0.5" stroke-width="0.8"/>
<rect x="347.433" y="330.6" width="38.7985" height="330.198" transform="rotate(-180 347.433 330.6)" stroke="url(#paint3_linear_1_2987)" stroke-opacity="0.5" stroke-width="0.8"/>
<rect x="270.37" y="330.6" width="38.7985" height="330.198" transform="rotate(-180 270.37 330.6)" stroke="url(#paint4_linear_1_2987)" stroke-opacity="0.5" stroke-width="0.8"/>
<rect x="193.316" y="330.6" width="38.7985" height="330.198" transform="rotate(-180 193.316 330.6)" stroke="url(#paint5_linear_1_2987)" stroke-opacity="0.5" stroke-width="0.8"/>
<rect x="116.269" y="330.6" width="38.7985" height="330.198" transform="rotate(-180 116.269 330.6)" stroke="url(#paint6_linear_1_2987)" stroke-opacity="0.5" stroke-width="0.8"/>
<rect x="39.1985" y="330.598" width="38.7985" height="330.198" transform="rotate(-180 39.1985 330.598)" stroke="url(#paint7_linear_1_2987)" stroke-opacity="0.5" stroke-width="0.8"/>
<rect x="578.605" y="11.541" width="24.4341" height="578.194" transform="rotate(90 578.605 11.541)" stroke="url(#paint8_linear_1_2987)" stroke-opacity="0.5" stroke-width="0.8"/>
<rect x="578.605" y="60.6445" width="24.4341" height="578.194" transform="rotate(90 578.605 60.6445)" stroke="url(#paint9_linear_1_2987)" stroke-opacity="0.5" stroke-width="0.8"/>
<rect x="578.605" y="109.75" width="24.4341" height="578.194" transform="rotate(90 578.605 109.75)" stroke="url(#paint10_linear_1_2987)" stroke-opacity="0.5" stroke-width="0.8"/>
<rect x="578.605" y="158.854" width="24.4341" height="578.194" transform="rotate(90 578.605 158.854)" stroke="url(#paint11_linear_1_2987)" stroke-opacity="0.5" stroke-width="0.8"/>
<rect x="578.605" y="207.957" width="24.4341" height="578.194" transform="rotate(90 578.605 207.957)" stroke="url(#paint12_linear_1_2987)" stroke-opacity="0.5" stroke-width="0.8"/>
<rect x="578.605" y="257.061" width="24.4341" height="578.194" transform="rotate(90 578.605 257.061)" stroke="url(#paint13_linear_1_2987)" stroke-opacity="0.5" stroke-width="0.8"/>
<rect x="578.605" y="306.164" width="24.4341" height="578.194" transform="rotate(90 578.605 306.164)" stroke="url(#paint14_linear_1_2987)" stroke-opacity="0.5" stroke-width="0.8"/>
<defs>
<linearGradient id="paint0_linear_1_2987" x1="598.804" y1="331" x2="598.804" y2="661.999" gradientUnits="userSpaceOnUse">
<stop stop-color="#1F2933"/>
<stop offset="1" stop-color="#2F3847"/>
</linearGradient>
<linearGradient id="paint1_linear_1_2987" x1="521.742" y1="331" x2="521.742" y2="661.999" gradientUnits="userSpaceOnUse">
<stop stop-color="#1F2933"/>
<stop offset="1" stop-color="#2F3847"/>
</linearGradient>
<linearGradient id="paint2_linear_1_2987" x1="444.687" y1="331" x2="444.687" y2="661.999" gradientUnits="userSpaceOnUse">
<stop stop-color="#1F2933"/>
<stop offset="1" stop-color="#2F3847"/>
</linearGradient>
<linearGradient id="paint3_linear_1_2987" x1="367.632" y1="331" x2="367.632" y2="661.999" gradientUnits="userSpaceOnUse">
<stop stop-color="#1F2933"/>
<stop offset="1" stop-color="#2F3847"/>
</linearGradient>
<linearGradient id="paint4_linear_1_2987" x1="290.57" y1="331" x2="290.57" y2="661.999" gradientUnits="userSpaceOnUse">
<stop stop-color="#1F2933"/>
<stop offset="1" stop-color="#2F3847"/>
</linearGradient>
<linearGradient id="paint5_linear_1_2987" x1="213.515" y1="331" x2="213.515" y2="661.999" gradientUnits="userSpaceOnUse">
<stop stop-color="#1F2933"/>
<stop offset="1" stop-color="#2F3847"/>
</linearGradient>
<linearGradient id="paint6_linear_1_2987" x1="136.468" y1="331" x2="136.468" y2="661.999" gradientUnits="userSpaceOnUse">
<stop stop-color="#1F2933"/>
<stop offset="1" stop-color="#2F3847"/>
</linearGradient>
<linearGradient id="paint7_linear_1_2987" x1="59.3978" y1="330.998" x2="59.3978" y2="661.997" gradientUnits="userSpaceOnUse">
<stop stop-color="#1F2933"/>
<stop offset="1" stop-color="#2F3847"/>
</linearGradient>
<linearGradient id="paint8_linear_1_2987" x1="591.622" y1="11.141" x2="591.622" y2="590.135" gradientUnits="userSpaceOnUse">
<stop stop-color="#1F2933"/>
<stop offset="1" stop-color="#2F3847"/>
</linearGradient>
<linearGradient id="paint9_linear_1_2987" x1="591.622" y1="60.2445" x2="591.622" y2="639.239" gradientUnits="userSpaceOnUse">
<stop stop-color="#1F2933"/>
<stop offset="1" stop-color="#2F3847"/>
</linearGradient>
<linearGradient id="paint10_linear_1_2987" x1="591.622" y1="109.35" x2="591.622" y2="688.344" gradientUnits="userSpaceOnUse">
<stop stop-color="#1F2933"/>
<stop offset="1" stop-color="#2F3847"/>
</linearGradient>
<linearGradient id="paint11_linear_1_2987" x1="591.622" y1="158.454" x2="591.622" y2="737.448" gradientUnits="userSpaceOnUse">
<stop stop-color="#1F2933"/>
<stop offset="1" stop-color="#2F3847"/>
</linearGradient>
<linearGradient id="paint12_linear_1_2987" x1="591.622" y1="207.557" x2="591.622" y2="786.551" gradientUnits="userSpaceOnUse">
<stop stop-color="#1F2933"/>
<stop offset="1" stop-color="#2F3847"/>
</linearGradient>
<linearGradient id="paint13_linear_1_2987" x1="591.622" y1="256.661" x2="591.622" y2="835.655" gradientUnits="userSpaceOnUse">
<stop stop-color="#1F2933"/>
<stop offset="1" stop-color="#2F3847"/>
</linearGradient>
<linearGradient id="paint14_linear_1_2987" x1="591.622" y1="305.764" x2="591.622" y2="884.758" gradientUnits="userSpaceOnUse">
<stop stop-color="#1F2933"/>
<stop offset="1" stop-color="#2F3847"/>
</linearGradient>
</defs>
</svg>
