<svg width="353" height="419" viewBox="0 0 353 419" fill="none" xmlns="http://www.w3.org/2000/svg">
<rect x="352.602" y="418.601" width="23.3422" height="418.199" transform="rotate(-180 352.602 418.601)" stroke="url(#paint0_linear_1_2938)" stroke-opacity="0.5" stroke-width="0.8"/>
<rect x="305.617" y="418.601" width="23.3422" height="418.199" transform="rotate(-180 305.617 418.601)" stroke="url(#paint1_linear_1_2938)" stroke-opacity="0.5" stroke-width="0.8"/>
<rect x="258.641" y="418.601" width="23.3422" height="418.199" transform="rotate(-180 258.641 418.601)" stroke="url(#paint2_linear_1_2938)" stroke-opacity="0.5" stroke-width="0.8"/>
<rect x="211.664" y="418.601" width="23.3422" height="418.199" transform="rotate(-180 211.664 418.601)" stroke="url(#paint3_linear_1_2938)" stroke-opacity="0.5" stroke-width="0.8"/>
<rect x="164.68" y="418.601" width="23.3422" height="418.199" transform="rotate(-180 164.68 418.601)" stroke="url(#paint4_linear_1_2938)" stroke-opacity="0.5" stroke-width="0.8"/>
<rect x="117.703" y="418.601" width="23.3422" height="418.199" transform="rotate(-180 117.703 418.601)" stroke="url(#paint5_linear_1_2938)" stroke-opacity="0.5" stroke-width="0.8"/>
<rect x="70.7266" y="418.601" width="23.3422" height="418.199" transform="rotate(-180 70.7266 418.601)" stroke="url(#paint6_linear_1_2938)" stroke-opacity="0.5" stroke-width="0.8"/>
<rect x="23.7422" y="418.599" width="23.3422" height="418.199" transform="rotate(-180 23.7422 418.599)" stroke="url(#paint7_linear_1_2938)" stroke-opacity="0.5" stroke-width="0.8"/>
<rect x="352.602" y="14.5013" width="31.1429" height="352.198" transform="rotate(90 352.602 14.5013)" stroke="url(#paint8_linear_1_2938)" stroke-opacity="0.5" stroke-width="0.8"/>
<rect x="352.602" y="76.6606" width="31.1429" height="352.198" transform="rotate(90 352.602 76.6606)" stroke="url(#paint9_linear_1_2938)" stroke-opacity="0.5" stroke-width="0.8"/>
<rect x="352.602" y="138.82" width="31.1429" height="352.198" transform="rotate(90 352.602 138.82)" stroke="url(#paint10_linear_1_2938)" stroke-opacity="0.5" stroke-width="0.8"/>
<rect x="352.602" y="200.979" width="31.1429" height="352.198" transform="rotate(90 352.602 200.979)" stroke="url(#paint11_linear_1_2938)" stroke-opacity="0.5" stroke-width="0.8"/>
<rect x="352.602" y="263.137" width="31.1429" height="352.198" transform="rotate(90 352.602 263.137)" stroke="url(#paint12_linear_1_2938)" stroke-opacity="0.5" stroke-width="0.8"/>
<rect x="352.602" y="325.297" width="31.1429" height="352.198" transform="rotate(90 352.602 325.297)" stroke="url(#paint13_linear_1_2938)" stroke-opacity="0.5" stroke-width="0.8"/>
<rect x="352.602" y="387.456" width="31.1429" height="352.198" transform="rotate(90 352.602 387.456)" stroke="url(#paint14_linear_1_2938)" stroke-opacity="0.5" stroke-width="0.8"/>
<defs>
<linearGradient id="paint0_linear_1_2938" x1="365.073" y1="419.001" x2="365.073" y2="838" gradientUnits="userSpaceOnUse">
<stop stop-color="#141E30"/>
<stop offset="1" stop-color="#1F2933"/>
</linearGradient>
<linearGradient id="paint1_linear_1_2938" x1="318.088" y1="419.001" x2="318.088" y2="838" gradientUnits="userSpaceOnUse">
<stop stop-color="#141E30"/>
<stop offset="1" stop-color="#1F2933"/>
</linearGradient>
<linearGradient id="paint2_linear_1_2938" x1="271.112" y1="419.001" x2="271.112" y2="838" gradientUnits="userSpaceOnUse">
<stop stop-color="#141E30"/>
<stop offset="1" stop-color="#1F2933"/>
</linearGradient>
<linearGradient id="paint3_linear_1_2938" x1="224.135" y1="419.001" x2="224.135" y2="838" gradientUnits="userSpaceOnUse">
<stop stop-color="#141E30"/>
<stop offset="1" stop-color="#1F2933"/>
</linearGradient>
<linearGradient id="paint4_linear_1_2938" x1="177.151" y1="419.001" x2="177.151" y2="838" gradientUnits="userSpaceOnUse">
<stop stop-color="#141E30"/>
<stop offset="1" stop-color="#1F2933"/>
</linearGradient>
<linearGradient id="paint5_linear_1_2938" x1="130.174" y1="419.001" x2="130.174" y2="838" gradientUnits="userSpaceOnUse">
<stop stop-color="#141E30"/>
<stop offset="1" stop-color="#1F2933"/>
</linearGradient>
<linearGradient id="paint6_linear_1_2938" x1="83.1977" y1="419.001" x2="83.1977" y2="838" gradientUnits="userSpaceOnUse">
<stop stop-color="#141E30"/>
<stop offset="1" stop-color="#1F2933"/>
</linearGradient>
<linearGradient id="paint7_linear_1_2938" x1="36.2133" y1="418.999" x2="36.2133" y2="837.999" gradientUnits="userSpaceOnUse">
<stop stop-color="#141E30"/>
<stop offset="1" stop-color="#1F2933"/>
</linearGradient>
<linearGradient id="paint8_linear_1_2938" x1="368.973" y1="14.1013" x2="368.973" y2="367.1" gradientUnits="userSpaceOnUse">
<stop stop-color="#141E30"/>
<stop offset="1" stop-color="#1F2933"/>
</linearGradient>
<linearGradient id="paint9_linear_1_2938" x1="368.973" y1="76.2606" x2="368.973" y2="429.259" gradientUnits="userSpaceOnUse">
<stop stop-color="#141E30"/>
<stop offset="1" stop-color="#1F2933"/>
</linearGradient>
<linearGradient id="paint10_linear_1_2938" x1="368.973" y1="138.42" x2="368.973" y2="491.418" gradientUnits="userSpaceOnUse">
<stop stop-color="#141E30"/>
<stop offset="1" stop-color="#1F2933"/>
</linearGradient>
<linearGradient id="paint11_linear_1_2938" x1="368.973" y1="200.579" x2="368.973" y2="553.578" gradientUnits="userSpaceOnUse">
<stop stop-color="#141E30"/>
<stop offset="1" stop-color="#1F2933"/>
</linearGradient>
<linearGradient id="paint12_linear_1_2938" x1="368.973" y1="262.737" x2="368.973" y2="615.736" gradientUnits="userSpaceOnUse">
<stop stop-color="#141E30"/>
<stop offset="1" stop-color="#1F2933"/>
</linearGradient>
<linearGradient id="paint13_linear_1_2938" x1="368.973" y1="324.897" x2="368.973" y2="677.895" gradientUnits="userSpaceOnUse">
<stop stop-color="#141E30"/>
<stop offset="1" stop-color="#1F2933"/>
</linearGradient>
<linearGradient id="paint14_linear_1_2938" x1="368.973" y1="387.056" x2="368.973" y2="740.054" gradientUnits="userSpaceOnUse">
<stop stop-color="#141E30"/>
<stop offset="1" stop-color="#1F2933"/>
</linearGradient>
</defs>
</svg>
