<svg width="353" height="419" fill="none" xmlns="http://www.w3.org/2000/svg"><path transform="rotate(-180 352.602 418.601)" stroke="url(#a)" stroke-opacity=".5" stroke-width=".8" d="M352.602 418.601h23.342V836.8h-23.342z"/><path transform="rotate(-180 305.617 418.601)" stroke="url(#b)" stroke-opacity=".5" stroke-width=".8" d="M305.617 418.601h23.342V836.8h-23.342z"/><path transform="rotate(-180 258.641 418.601)" stroke="url(#c)" stroke-opacity=".5" stroke-width=".8" d="M258.641 418.601h23.342V836.8h-23.342z"/><path transform="rotate(-180 211.664 418.601)" stroke="url(#d)" stroke-opacity=".5" stroke-width=".8" d="M211.664 418.601h23.342V836.8h-23.342z"/><path transform="rotate(-180 164.68 418.601)" stroke="url(#e)" stroke-opacity=".5" stroke-width=".8" d="M164.68 418.601h23.342V836.8H164.68z"/><path transform="rotate(-180 117.703 418.601)" stroke="url(#f)" stroke-opacity=".5" stroke-width=".8" d="M117.703 418.601h23.342V836.8h-23.342z"/><path transform="rotate(-180 70.727 418.601)" stroke="url(#g)" stroke-opacity=".5" stroke-width=".8" d="M70.727 418.601h23.342V836.8H70.727z"/><path transform="rotate(-180 23.742 418.599)" stroke="url(#h)" stroke-opacity=".5" stroke-width=".8" d="M23.742 418.599h23.342v418.199H23.742z"/><path transform="rotate(90 352.602 14.501)" stroke="url(#i)" stroke-opacity=".5" stroke-width=".8" d="M352.602 14.501h31.143v352.198h-31.143z"/><path transform="rotate(90 352.602 76.66)" stroke="url(#j)" stroke-opacity=".5" stroke-width=".8" d="M352.602 76.661h31.143v352.198h-31.143z"/><path transform="rotate(90 352.602 138.82)" stroke="url(#k)" stroke-opacity=".5" stroke-width=".8" d="M352.602 138.82h31.143v352.198h-31.143z"/><path transform="rotate(90 352.602 200.979)" stroke="url(#l)" stroke-opacity=".5" stroke-width=".8" d="M352.602 200.979h31.143v352.198h-31.143z"/><path transform="rotate(90 352.602 263.137)" stroke="url(#m)" stroke-opacity=".5" stroke-width=".8" d="M352.602 263.137h31.143v352.198h-31.143z"/><path transform="rotate(90 352.602 325.297)" stroke="url(#n)" stroke-opacity=".5" stroke-width=".8" d="M352.602 325.297h31.143v352.198h-31.143z"/><path transform="rotate(90 352.602 387.456)" stroke="url(#o)" stroke-opacity=".5" stroke-width=".8" d="M352.602 387.456h31.143v352.198h-31.143z"/><defs><linearGradient id="h" x1="36.213" y1="418.999" x2="36.213" y2="837.999" gradientUnits="userSpaceOnUse"><stop stop-color="#141E30"/><stop offset="1" stop-color="#1F2933"/></linearGradient><linearGradient id="a" x1="365.073" y1="419.001" x2="365.073" y2="838" gradientUnits="userSpaceOnUse"><stop stop-color="#141E30"/><stop offset="1" stop-color="#1F2933"/></linearGradient><linearGradient id="c" x1="271.112" y1="419.001" x2="271.112" y2="838" gradientUnits="userSpaceOnUse"><stop stop-color="#141E30"/><stop offset="1" stop-color="#1F2933"/></linearGradient><linearGradient id="d" x1="224.135" y1="419.001" x2="224.135" y2="838" gradientUnits="userSpaceOnUse"><stop stop-color="#141E30"/><stop offset="1" stop-color="#1F2933"/></linearGradient><linearGradient id="e" x1="177.151" y1="419.001" x2="177.151" y2="838" gradientUnits="userSpaceOnUse"><stop stop-color="#141E30"/><stop offset="1" stop-color="#1F2933"/></linearGradient><linearGradient id="f" x1="130.174" y1="419.001" x2="130.174" y2="838" gradientUnits="userSpaceOnUse"><stop stop-color="#141E30"/><stop offset="1" stop-color="#1F2933"/></linearGradient><linearGradient id="g" x1="83.198" y1="419.001" x2="83.198" y2="838" gradientUnits="userSpaceOnUse"><stop stop-color="#141E30"/><stop offset="1" stop-color="#1F2933"/></linearGradient><linearGradient id="b" x1="318.088" y1="419.001" x2="318.088" y2="838" gradientUnits="userSpaceOnUse"><stop stop-color="#141E30"/><stop offset="1" stop-color="#1F2933"/></linearGradient><linearGradient id="i" x1="368.973" y1="14.101" x2="368.973" y2="367.1" gradientUnits="userSpaceOnUse"><stop stop-color="#141E30"/><stop offset="1" stop-color="#1F2933"/></linearGradient><linearGradient id="j" x1="368.973" y1="76.261" x2="368.973" y2="429.259" gradientUnits="userSpaceOnUse"><stop stop-color="#141E30"/><stop offset="1" stop-color="#1F2933"/></linearGradient><linearGradient id="k" x1="368.973" y1="138.42" x2="368.973" y2="491.418" gradientUnits="userSpaceOnUse"><stop stop-color="#141E30"/><stop offset="1" stop-color="#1F2933"/></linearGradient><linearGradient id="l" x1="368.973" y1="200.579" x2="368.973" y2="553.578" gradientUnits="userSpaceOnUse"><stop stop-color="#141E30"/><stop offset="1" stop-color="#1F2933"/></linearGradient><linearGradient id="m" x1="368.973" y1="262.737" x2="368.973" y2="615.736" gradientUnits="userSpaceOnUse"><stop stop-color="#141E30"/><stop offset="1" stop-color="#1F2933"/></linearGradient><linearGradient id="n" x1="368.973" y1="324.897" x2="368.973" y2="677.895" gradientUnits="userSpaceOnUse"><stop stop-color="#141E30"/><stop offset="1" stop-color="#1F2933"/></linearGradient><linearGradient id="o" x1="368.973" y1="387.056" x2="368.973" y2="740.054" gradientUnits="userSpaceOnUse"><stop stop-color="#141E30"/><stop offset="1" stop-color="#1F2933"/></linearGradient></defs></svg>