<svg width="551" height="331" viewBox="0 0 551 331" fill="none" xmlns="http://www.w3.org/2000/svg">
<rect x="0.4" y="-0.4" width="36.8836" height="330.198" transform="matrix(1 -5.23587e-08 -1.16766e-07 -1 -4.67065e-08 330.2)" stroke="url(#paint0_linear_1_2971)" stroke-opacity="0.5" stroke-width="0.8"/>
<rect x="0.4" y="-0.4" width="36.8836" height="330.198" transform="matrix(1 -5.23587e-08 -1.16766e-07 -1 73.3359 330.2)" stroke="url(#paint1_linear_1_2971)" stroke-opacity="0.5" stroke-width="0.8"/>
<rect x="0.4" y="-0.4" width="36.8836" height="330.198" transform="matrix(1 -5.23587e-08 -1.16766e-07 -1 146.664 330.2)" stroke="url(#paint2_linear_1_2971)" stroke-opacity="0.5" stroke-width="0.8"/>
<rect x="0.4" y="-0.4" width="36.8836" height="330.198" transform="matrix(1 -5.23587e-08 -1.16766e-07 -1 219.992 330.2)" stroke="url(#paint3_linear_1_2971)" stroke-opacity="0.5" stroke-width="0.8"/>
<rect x="0.4" y="-0.4" width="36.8836" height="330.198" transform="matrix(1 -5.23587e-08 -1.16766e-07 -1 293.328 330.2)" stroke="url(#paint4_linear_1_2971)" stroke-opacity="0.5" stroke-width="0.8"/>
<rect x="0.4" y="-0.4" width="36.8836" height="330.198" transform="matrix(1 -5.23587e-08 -1.16766e-07 -1 366.656 330.2)" stroke="url(#paint5_linear_1_2971)" stroke-opacity="0.5" stroke-width="0.8"/>
<rect x="0.4" y="-0.4" width="36.8836" height="330.198" transform="matrix(1 -5.23587e-08 -1.16766e-07 -1 439.977 330.2)" stroke="url(#paint6_linear_1_2971)" stroke-opacity="0.5" stroke-width="0.8"/>
<rect x="0.4" y="-0.4" width="36.8836" height="330.198" transform="matrix(1 -5.23587e-08 -1.16766e-07 -1 513.32 330.198)" stroke="url(#paint7_linear_1_2971)" stroke-opacity="0.5" stroke-width="0.8"/>
<rect x="0.4" y="0.4" width="24.4341" height="550.195" transform="matrix(5.07394e-08 1 1 -2.27519e-08 9.10074e-09 11.1402)" stroke="url(#paint8_linear_1_2971)" stroke-opacity="0.5" stroke-width="0.8"/>
<rect x="0.4" y="0.4" width="24.4341" height="550.195" transform="matrix(5.07394e-08 1 1 -2.27519e-08 9.10074e-09 60.2443)" stroke="url(#paint9_linear_1_2971)" stroke-opacity="0.5" stroke-width="0.8"/>
<rect x="0.4" y="0.4" width="24.4341" height="550.195" transform="matrix(5.07394e-08 1 1 -2.27519e-08 9.10074e-09 109.348)" stroke="url(#paint10_linear_1_2971)" stroke-opacity="0.5" stroke-width="0.8"/>
<rect x="0.4" y="0.4" width="24.4341" height="550.195" transform="matrix(5.07394e-08 1 1 -2.27519e-08 9.10074e-09 158.452)" stroke="url(#paint11_linear_1_2971)" stroke-opacity="0.5" stroke-width="0.8"/>
<rect x="0.4" y="0.4" width="24.4341" height="550.195" transform="matrix(5.07394e-08 1 1 -2.27519e-08 9.10074e-09 207.556)" stroke="url(#paint12_linear_1_2971)" stroke-opacity="0.5" stroke-width="0.8"/>
<rect x="0.4" y="0.4" width="24.4341" height="550.195" transform="matrix(5.07394e-08 1 1 -2.27519e-08 9.10074e-09 256.66)" stroke="url(#paint13_linear_1_2971)" stroke-opacity="0.5" stroke-width="0.8"/>
<rect x="0.4" y="0.4" width="24.4341" height="550.195" transform="matrix(5.07394e-08 1 1 -2.27519e-08 9.10074e-09 305.764)" stroke="url(#paint14_linear_1_2971)" stroke-opacity="0.5" stroke-width="0.8"/>
<defs>
<linearGradient id="paint0_linear_1_2971" x1="18.8418" y1="0" x2="18.8418" y2="330.998" gradientUnits="userSpaceOnUse">
<stop stop-color="#1F2933"/>
<stop offset="1" stop-color="#2F3847"/>
</linearGradient>
<linearGradient id="paint1_linear_1_2971" x1="18.8418" y1="0" x2="18.8418" y2="330.998" gradientUnits="userSpaceOnUse">
<stop stop-color="#1F2933"/>
<stop offset="1" stop-color="#2F3847"/>
</linearGradient>
<linearGradient id="paint2_linear_1_2971" x1="18.8418" y1="0" x2="18.8418" y2="330.998" gradientUnits="userSpaceOnUse">
<stop stop-color="#1F2933"/>
<stop offset="1" stop-color="#2F3847"/>
</linearGradient>
<linearGradient id="paint3_linear_1_2971" x1="18.8418" y1="0" x2="18.8418" y2="330.998" gradientUnits="userSpaceOnUse">
<stop stop-color="#1F2933"/>
<stop offset="1" stop-color="#2F3847"/>
</linearGradient>
<linearGradient id="paint4_linear_1_2971" x1="18.8418" y1="0" x2="18.8418" y2="330.998" gradientUnits="userSpaceOnUse">
<stop stop-color="#1F2933"/>
<stop offset="1" stop-color="#2F3847"/>
</linearGradient>
<linearGradient id="paint5_linear_1_2971" x1="18.8418" y1="0" x2="18.8418" y2="330.998" gradientUnits="userSpaceOnUse">
<stop stop-color="#1F2933"/>
<stop offset="1" stop-color="#2F3847"/>
</linearGradient>
<linearGradient id="paint6_linear_1_2971" x1="18.8418" y1="0" x2="18.8418" y2="330.998" gradientUnits="userSpaceOnUse">
<stop stop-color="#1F2933"/>
<stop offset="1" stop-color="#2F3847"/>
</linearGradient>
<linearGradient id="paint7_linear_1_2971" x1="18.8418" y1="0" x2="18.8418" y2="330.998" gradientUnits="userSpaceOnUse">
<stop stop-color="#1F2933"/>
<stop offset="1" stop-color="#2F3847"/>
</linearGradient>
<linearGradient id="paint8_linear_1_2971" x1="12.617" y1="0" x2="12.617" y2="550.995" gradientUnits="userSpaceOnUse">
<stop stop-color="#1F2933"/>
<stop offset="1" stop-color="#2F3847"/>
</linearGradient>
<linearGradient id="paint9_linear_1_2971" x1="12.617" y1="0" x2="12.617" y2="550.995" gradientUnits="userSpaceOnUse">
<stop stop-color="#1F2933"/>
<stop offset="1" stop-color="#2F3847"/>
</linearGradient>
<linearGradient id="paint10_linear_1_2971" x1="12.617" y1="0" x2="12.617" y2="550.995" gradientUnits="userSpaceOnUse">
<stop stop-color="#1F2933"/>
<stop offset="1" stop-color="#2F3847"/>
</linearGradient>
<linearGradient id="paint11_linear_1_2971" x1="12.617" y1="0" x2="12.617" y2="550.995" gradientUnits="userSpaceOnUse">
<stop stop-color="#1F2933"/>
<stop offset="1" stop-color="#2F3847"/>
</linearGradient>
<linearGradient id="paint12_linear_1_2971" x1="12.617" y1="0" x2="12.617" y2="550.995" gradientUnits="userSpaceOnUse">
<stop stop-color="#1F2933"/>
<stop offset="1" stop-color="#2F3847"/>
</linearGradient>
<linearGradient id="paint13_linear_1_2971" x1="12.617" y1="0" x2="12.617" y2="550.995" gradientUnits="userSpaceOnUse">
<stop stop-color="#1F2933"/>
<stop offset="1" stop-color="#2F3847"/>
</linearGradient>
<linearGradient id="paint14_linear_1_2971" x1="12.617" y1="0" x2="12.617" y2="550.995" gradientUnits="userSpaceOnUse">
<stop stop-color="#1F2933"/>
<stop offset="1" stop-color="#2F3847"/>
</linearGradient>
</defs>
</svg>
