<svg width="424" height="209" viewBox="0 0 424 209" fill="none" xmlns="http://www.w3.org/2000/svg">
<rect x="423.593" y="208.6" width="28.1977" height="208.199" transform="rotate(-180 423.593 208.6)" stroke="url(#paint0_linear_1_3023)" stroke-opacity="0.5" stroke-width="0.8"/>
<rect x="367.163" y="208.6" width="28.1977" height="208.199" transform="rotate(-180 367.163 208.6)" stroke="url(#paint1_linear_1_3023)" stroke-opacity="0.5" stroke-width="0.8"/>
<rect x="310.741" y="208.6" width="28.1977" height="208.199" transform="rotate(-180 310.741 208.6)" stroke="url(#paint2_linear_1_3023)" stroke-opacity="0.5" stroke-width="0.8"/>
<rect x="254.319" y="208.6" width="28.1977" height="208.199" transform="rotate(-180 254.319 208.6)" stroke="url(#paint3_linear_1_3023)" stroke-opacity="0.5" stroke-width="0.8"/>
<rect x="197.882" y="208.6" width="28.1977" height="208.199" transform="rotate(-180 197.882 208.6)" stroke="url(#paint4_linear_1_3023)" stroke-opacity="0.5" stroke-width="0.8"/>
<rect x="141.46" y="208.6" width="28.1977" height="208.199" transform="rotate(-180 141.46 208.6)" stroke="url(#paint5_linear_1_3023)" stroke-opacity="0.5" stroke-width="0.8"/>
<rect x="85.0382" y="208.6" width="28.1977" height="208.199" transform="rotate(-180 85.0382 208.6)" stroke="url(#paint6_linear_1_3023)" stroke-opacity="0.5" stroke-width="0.8"/>
<rect x="28.6008" y="208.599" width="28.1977" height="208.199" transform="rotate(-180 28.6008 208.599)" stroke="url(#paint7_linear_1_3023)" stroke-opacity="0.5" stroke-width="0.8"/>
<rect x="423.593" y="7.43467" width="15.1333" height="423.193" transform="rotate(90 423.593 7.43467)" stroke="url(#paint8_linear_1_3023)" stroke-opacity="0.5" stroke-width="0.8"/>
<rect x="423.593" y="38.4396" width="15.1333" height="423.193" transform="rotate(90 423.593 38.4396)" stroke="url(#paint9_linear_1_3023)" stroke-opacity="0.5" stroke-width="0.8"/>
<rect x="423.593" y="69.445" width="15.1333" height="423.193" transform="rotate(90 423.593 69.445)" stroke="url(#paint10_linear_1_3023)" stroke-opacity="0.5" stroke-width="0.8"/>
<rect x="423.593" y="100.45" width="15.1333" height="423.193" transform="rotate(90 423.593 100.45)" stroke="url(#paint11_linear_1_3023)" stroke-opacity="0.5" stroke-width="0.8"/>
<rect x="423.593" y="131.455" width="15.1333" height="423.193" transform="rotate(90 423.593 131.455)" stroke="url(#paint12_linear_1_3023)" stroke-opacity="0.5" stroke-width="0.8"/>
<rect x="423.593" y="162.46" width="15.1333" height="423.193" transform="rotate(90 423.593 162.46)" stroke="url(#paint13_linear_1_3023)" stroke-opacity="0.5" stroke-width="0.8"/>
<rect x="423.593" y="193.465" width="15.1333" height="423.193" transform="rotate(90 423.593 193.465)" stroke="url(#paint14_linear_1_3023)" stroke-opacity="0.5" stroke-width="0.8"/>
<defs>
<linearGradient id="paint0_linear_1_3023" x1="438.492" y1="209" x2="438.492" y2="417.999" gradientUnits="userSpaceOnUse">
<stop stop-color="#1F2933"/>
<stop offset="1" stop-color="#2F3847"/>
</linearGradient>
<linearGradient id="paint1_linear_1_3023" x1="382.062" y1="209" x2="382.062" y2="417.999" gradientUnits="userSpaceOnUse">
<stop stop-color="#1F2933"/>
<stop offset="1" stop-color="#2F3847"/>
</linearGradient>
<linearGradient id="paint2_linear_1_3023" x1="325.64" y1="209" x2="325.64" y2="417.999" gradientUnits="userSpaceOnUse">
<stop stop-color="#1F2933"/>
<stop offset="1" stop-color="#2F3847"/>
</linearGradient>
<linearGradient id="paint3_linear_1_3023" x1="269.218" y1="209" x2="269.218" y2="417.999" gradientUnits="userSpaceOnUse">
<stop stop-color="#1F2933"/>
<stop offset="1" stop-color="#2F3847"/>
</linearGradient>
<linearGradient id="paint4_linear_1_3023" x1="212.781" y1="209" x2="212.781" y2="417.999" gradientUnits="userSpaceOnUse">
<stop stop-color="#1F2933"/>
<stop offset="1" stop-color="#2F3847"/>
</linearGradient>
<linearGradient id="paint5_linear_1_3023" x1="156.359" y1="209" x2="156.359" y2="417.999" gradientUnits="userSpaceOnUse">
<stop stop-color="#1F2933"/>
<stop offset="1" stop-color="#2F3847"/>
</linearGradient>
<linearGradient id="paint6_linear_1_3023" x1="99.9371" y1="209" x2="99.9371" y2="417.999" gradientUnits="userSpaceOnUse">
<stop stop-color="#1F2933"/>
<stop offset="1" stop-color="#2F3847"/>
</linearGradient>
<linearGradient id="paint7_linear_1_3023" x1="43.4996" y1="208.999" x2="43.4996" y2="417.998" gradientUnits="userSpaceOnUse">
<stop stop-color="#1F2933"/>
<stop offset="1" stop-color="#2F3847"/>
</linearGradient>
<linearGradient id="paint8_linear_1_3023" x1="431.96" y1="7.03467" x2="431.96" y2="431.028" gradientUnits="userSpaceOnUse">
<stop stop-color="#1F2933"/>
<stop offset="1" stop-color="#2F3847"/>
</linearGradient>
<linearGradient id="paint9_linear_1_3023" x1="431.96" y1="38.0396" x2="431.96" y2="462.033" gradientUnits="userSpaceOnUse">
<stop stop-color="#1F2933"/>
<stop offset="1" stop-color="#2F3847"/>
</linearGradient>
<linearGradient id="paint10_linear_1_3023" x1="431.96" y1="69.045" x2="431.96" y2="493.038" gradientUnits="userSpaceOnUse">
<stop stop-color="#1F2933"/>
<stop offset="1" stop-color="#2F3847"/>
</linearGradient>
<linearGradient id="paint11_linear_1_3023" x1="431.96" y1="100.05" x2="431.96" y2="524.043" gradientUnits="userSpaceOnUse">
<stop stop-color="#1F2933"/>
<stop offset="1" stop-color="#2F3847"/>
</linearGradient>
<linearGradient id="paint12_linear_1_3023" x1="431.96" y1="131.055" x2="431.96" y2="555.048" gradientUnits="userSpaceOnUse">
<stop stop-color="#1F2933"/>
<stop offset="1" stop-color="#2F3847"/>
</linearGradient>
<linearGradient id="paint13_linear_1_3023" x1="431.96" y1="162.06" x2="431.96" y2="586.053" gradientUnits="userSpaceOnUse">
<stop stop-color="#1F2933"/>
<stop offset="1" stop-color="#2F3847"/>
</linearGradient>
<linearGradient id="paint14_linear_1_3023" x1="431.96" y1="193.065" x2="431.96" y2="617.058" gradientUnits="userSpaceOnUse">
<stop stop-color="#1F2933"/>
<stop offset="1" stop-color="#2F3847"/>
</linearGradient>
</defs>
</svg>
