<?xml version="1.0" standalone="no"?>
<!DOCTYPE svg PUBLIC "-//W3C//DTD SVG 20010904//EN"
 "http://www.w3.org/TR/2001/REC-SVG-20010904/DTD/svg10.dtd">
<svg version="1.0" xmlns="http://www.w3.org/2000/svg"
 width="859.000000pt" height="859.000000pt" viewBox="0 0 859.000000 859.000000"
 preserveAspectRatio="xMidYMid meet">
<metadata>
Created by potrace 1.14, written by Peter Selinger 2001-2017
</metadata>
<g transform="translate(0.000000,859.000000) scale(0.100000,-0.100000)"
fill="#000000" stroke="none">
<path d="M1567 6304 c-1 -1 -51 -4 -110 -8 -113 -6 -224 -20 -267 -33 -42 -13
-108 -66 -128 -103 -19 -33 -42 -110 -112 -375 -18 -66 -47 -174 -65 -240 -18
-66 -63 -230 -99 -365 -37 -135 -78 -285 -92 -335 -14 -49 -27 -97 -29 -105
-7 -35 -37 -147 -46 -175 -5 -16 -29 -104 -53 -195 -25 -91 -110 -406 -190
-700 -80 -294 -154 -569 -164 -610 -11 -41 -29 -109 -41 -150 -68 -242 -121
-447 -121 -471 0 -88 52 -113 305 -145 75 -10 500 -12 580 -3 132 14 167 19
173 23 4 2 29 7 57 11 65 8 134 47 164 91 16 23 58 162 133 437 59 221 131
485 159 587 61 223 53 196 82 305 l24 90 21 -70 c11 -38 48 -171 81 -295 33
-124 94 -351 136 -505 42 -154 83 -305 91 -335 8 -30 16 -59 18 -65 1 -5 8
-30 15 -55 14 -52 46 -116 73 -147 23 -25 96 -46 203 -59 28 -4 73 -10 100
-14 57 -9 592 -6 645 4 19 3 51 8 70 11 92 13 169 32 187 47 38 31 75 129 137
363 74 275 109 404 131 480 51 182 145 536 145 552 1 36 17 -11 68 -202 28
-104 77 -282 107 -395 31 -113 58 -212 60 -220 2 -8 11 -42 20 -75 16 -60 51
-191 85 -318 29 -110 72 -180 120 -199 36 -14 152 -35 245 -45 103 -10 547
-10 647 0 104 11 256 43 274 58 43 35 94 175 150 409 2 8 33 123 69 255 37
132 78 283 91 335 13 52 34 126 45 164 12 39 23 79 25 91 6 29 43 157 47 161
3 3 207 -735 243 -876 59 -236 119 -439 137 -465 45 -66 83 -89 172 -106 28
-5 61 -11 75 -14 104 -20 597 -29 725 -12 197 25 253 41 298 83 20 20 43 48
51 62 10 22 73 239 91 320 2 9 24 89 48 177 51 184 187 683 192 705 2 8 38
141 80 295 42 154 78 287 80 295 2 8 13 50 25 92 11 43 23 85 25 95 2 10 33
124 68 253 56 202 109 397 123 450 2 8 12 47 23 85 52 190 153 562 156 575 2
8 24 92 50 185 40 145 46 176 39 214 -14 69 -40 82 -214 107 -227 32 -691 21
-930 -23 -54 -10 -113 -56 -144 -113 -12 -21 -70 -214 -81 -267 -2 -10 -18
-70 -35 -133 -17 -63 -33 -122 -35 -130 -3 -14 -133 -494 -154 -570 -6 -19
-22 -75 -36 -125 -14 -49 -25 -98 -25 -107 0 -10 -4 -18 -8 -18 -7 0 -38 101
-67 220 -8 32 -115 427 -125 460 -6 19 -42 152 -80 295 -92 342 -98 361 -136
422 -24 36 -43 55 -67 62 -44 15 -221 38 -317 41 -221 8 -581 0 -655 -14 -11
-2 -46 -7 -78 -10 -97 -12 -111 -21 -160 -107 -21 -36 -118 -362 -143 -479 -3
-14 -14 -56 -25 -95 -17 -57 -103 -373 -112 -410 -35 -140 -93 -345 -98 -345
-3 0 -30 89 -59 198 -29 108 -75 278 -102 377 -27 99 -58 212 -68 250 -11 39
-29 104 -40 145 -28 100 -29 107 -34 129 -33 147 -92 293 -127 311 -35 19
-174 40 -309 47 -223 12 -618 6 -695 -10 -11 -3 -48 -8 -81 -12 -85 -9 -119
-33 -150 -102 -14 -32 -27 -65 -29 -73 -2 -8 -49 -184 -105 -390 -56 -206
-104 -382 -106 -390 -2 -8 -23 -87 -48 -175 -24 -88 -52 -193 -62 -232 -9 -40
-21 -73 -25 -73 -4 0 -12 19 -17 43 -6 23 -42 157 -80 298 -39 142 -82 299
-96 350 -14 52 -41 153 -61 224 -20 72 -38 139 -40 149 -3 11 -19 71 -36 134
-29 103 -36 119 -74 156 -23 23 -49 47 -58 53 -20 16 -158 40 -278 49 -85 6
-456 13 -462 8z"/>
</g>
</svg>
