<svg width="17" height="16" viewBox="0 0 17 16" fill="none" xmlns="http://www.w3.org/2000/svg">
<g clip-path="url(#clip0_118_552)">
<path d="M8.20056 16C12.6339 16 16.2006 12.4334 16.2006 8C16.2006 3.56664 12.6339 0 8.20056 0C3.7672 0 0.200562 3.56664 0.200562 8C0.200562 12.4334 3.7672 16 8.20056 16Z" fill="#2775CA"/>
<path d="M10.4006 9.26667C10.4006 8.10003 9.7006 7.70002 8.3006 7.53338C7.3006 7.40002 7.1006 7.13338 7.1006 6.66666C7.1006 6.19994 7.43396 5.90002 8.1006 5.90002C8.7006 5.90002 9.03396 6.10002 9.2006 6.60002C9.23396 6.70002 9.33396 6.76666 9.43396 6.76666H9.96724C10.1006 6.76666 10.2006 6.66666 10.2006 6.53338V6.50002C10.0672 5.76666 9.46724 5.20001 8.7006 5.13337V4.33337C8.7006 4.20001 8.6006 4.10001 8.43396 4.06665H7.93396C7.8006 4.06665 7.7006 4.16665 7.66724 4.33337V5.10001C6.66724 5.23337 6.03396 5.90002 6.03396 6.73338C6.03396 7.83338 6.7006 8.26667 8.1006 8.43339C9.03396 8.60003 9.33396 8.80003 9.33396 9.33339C9.33396 9.86675 8.86724 10.2334 8.23396 10.2334C7.36724 10.2334 7.06724 9.86667 6.96724 9.36667C6.93396 9.23339 6.83396 9.16667 6.73396 9.16667H6.16724C6.03396 9.16667 5.93396 9.26667 5.93396 9.40003V9.43339C6.06724 10.2667 6.6006 10.8667 7.7006 11.0334V11.8334C7.7006 11.9667 7.8006 12.0667 7.96724 12.1H8.46724C8.6006 12.1 8.7006 12 8.73396 11.8334V11.0334C9.73396 10.8667 10.4006 10.1667 10.4006 9.26667Z" fill="white"/>
<path d="M6.50062 12.7667C3.90061 11.8334 2.56724 8.93343 3.53397 6.36669C4.03397 4.96668 5.13397 3.90003 6.50062 3.40002C6.63398 3.33338 6.70062 3.23338 6.70062 3.06666V2.60002C6.70062 2.46665 6.63398 2.36665 6.50062 2.33337C6.46726 2.33337 6.40062 2.33337 6.36726 2.36665C3.20061 3.36666 1.46724 6.73341 2.46724 9.90007C3.06724 11.7667 4.50061 13.2001 6.36726 13.8001C6.50062 13.8667 6.63398 13.8001 6.66726 13.6667C6.70062 13.6335 6.70062 13.6001 6.70062 13.5335V13.0667C6.70062 12.9667 6.60062 12.8335 6.50062 12.7667ZM10.034 2.36665C9.90063 2.30001 9.76727 2.36665 9.73399 2.50002C9.70063 2.53338 9.70063 2.56666 9.70063 2.63338V3.10002C9.70063 3.23338 9.80063 3.36666 9.90063 3.43338C12.5006 4.36667 13.834 7.26669 12.8673 9.83343C12.3673 11.2334 11.2673 12.3001 9.90063 12.8001C9.76727 12.8667 9.70063 12.9667 9.70063 13.1335V13.6001C9.70063 13.7335 9.76727 13.8335 9.90063 13.8667C9.93399 13.8667 10.0006 13.8667 10.034 13.8335C13.2006 12.8335 14.934 9.46671 13.934 6.30005C13.334 4.40003 11.8673 2.96666 10.034 2.36665Z" fill="white"/>
</g>
<defs>
<clipPath id="clip0_118_552">
<rect width="16" height="16" fill="white" transform="translate(0.200562)"/>
</clipPath>
</defs>
</svg>
