<svg width="16" height="16" viewBox="0 0 16 16" fill="none" xmlns="http://www.w3.org/2000/svg">
<path d="M15.4504 10.9136C15.4504 11.2942 15.3501 11.6681 15.1594 11.9975C14.9688 12.327 14.6946 12.6003 14.3646 12.79L9.27891 15.7123C8.95084 15.9008 8.57907 16 8.20069 16C7.82231 16 7.45054 15.9008 7.12247 15.7123L2.03679 12.79C1.70675 12.6003 1.43256 12.327 1.2419 11.9975C1.05124 11.6681 0.950837 11.2942 0.950833 10.9136V5.08644C0.950827 4.70582 1.05121 4.33192 1.24185 4.00247C1.4325 3.67303 1.70666 3.39969 2.03668 3.21004L7.12236 0.287725C7.45044 0.0992066 7.8222 0 8.20058 0C8.57896 0 8.95073 0.0992066 9.2788 0.287725L14.3645 3.21004C14.6945 3.39968 14.9687 3.67301 15.1594 4.00245C15.35 4.3319 15.4504 4.7058 15.4504 5.08644V10.9136Z" fill="#1D86CC"/>
<path d="M7.57389 1.10135L2.55314 4.00127C2.36226 4.11148 2.20375 4.27 2.09358 4.4609C1.98341 4.6518 1.92546 4.86834 1.92554 5.08874L1.92868 10.895C1.92882 11.115 1.98682 11.3312 2.09685 11.5218C2.20689 11.7124 2.3651 11.8707 2.55562 11.9808L7.58223 14.8866C7.77305 14.9967 7.98948 15.0547 8.20981 15.0547C8.43014 15.0547 8.64659 14.9967 8.83741 14.8866L13.8582 11.9875C14.0491 11.8773 14.2075 11.7188 14.3177 11.5279C14.4279 11.337 14.4858 11.1205 14.4858 10.9001L14.4826 5.09383C14.4825 4.87378 14.4244 4.65763 14.3144 4.46707C14.2044 4.27651 14.0462 4.11823 13.8557 4.00809L8.82909 1.10222C8.63827 0.992049 8.42182 0.934052 8.20149 0.934052C7.98115 0.934052 7.7647 0.992049 7.57389 1.10222V1.10135Z" fill="white"/>
<path d="M5.9165 12.9241C5.92424 12.8862 5.94117 12.8509 5.96583 12.8212C7.46772 10.2727 8.9699 7.72435 10.4723 5.1761C10.4932 5.14071 10.5125 5.10436 10.5303 5.07265C10.5171 5.0496 10.5021 5.05436 10.4893 5.05436C9.84741 5.05664 9.20553 5.06075 8.56322 5.05999C8.53577 5.0595 8.50883 5.06743 8.48603 5.08272C8.46322 5.098 8.44564 5.1199 8.43565 5.14548C7.95146 5.9462 7.46665 6.74671 6.98123 7.547C5.95292 9.2436 4.9245 10.9402 3.89596 12.6367C3.88687 12.6517 3.87734 12.6664 3.86923 12.6819C3.85105 12.717 3.83039 12.7225 3.79349 12.7011C3.63389 12.6068 3.47255 12.5156 3.303 12.4181L7.88012 5.0772C7.87027 5.04733 7.85002 5.0548 7.83444 5.05426C7.58914 5.0469 7.34375 5.0363 7.09866 5.03414C6.75435 5.02393 6.41122 5.07923 6.08756 5.19709C5.79279 5.30624 5.5423 5.50962 5.37492 5.77567C4.53863 7.08006 3.69918 8.38243 2.85654 9.68277C2.84334 9.70333 2.82928 9.72346 2.81565 9.7438C2.76739 9.7438 2.77451 9.70398 2.77008 9.67617C2.76581 9.63429 2.76481 9.59215 2.76706 9.55011C2.76706 8.11184 2.77204 6.67356 2.76263 5.2354C2.75507 5.11147 2.78485 4.98813 2.84817 4.88134C2.91148 4.77454 3.00541 4.6892 3.11776 4.63637C4.22373 4.00585 5.32256 3.36235 6.42496 2.72545C6.91697 2.44119 7.41051 2.15964 7.89895 1.86943C7.99083 1.80779 8.09895 1.77487 8.20959 1.77487C8.32024 1.77487 8.42839 1.80779 8.52026 1.86943C9.41837 2.3965 10.3245 2.91135 11.2272 3.43095C11.9081 3.82302 12.5894 4.2144 13.2709 4.6051C13.3197 4.6329 13.3672 4.66266 13.4162 4.69003C13.4959 4.73239 13.5619 4.79667 13.6062 4.87529C13.6505 4.9539 13.6714 5.04357 13.6664 5.13368C13.6677 6.6982 13.6677 8.26271 13.6664 9.82722C13.6696 9.86572 13.6654 9.90446 13.6541 9.94138C13.6 9.99364 13.5804 9.935 13.5607 9.90719C13.4796 9.79303 13.4067 9.67282 13.3313 9.55466C12.7274 8.6093 12.1214 7.6652 11.5134 6.72236C11.3092 6.4037 11.1023 6.08633 10.9001 5.76636C10.853 5.6917 10.8444 5.69062 10.7972 5.7708C10.4922 6.28687 10.1874 6.80305 9.8828 7.31933C9.86609 7.34804 9.85888 7.38129 9.86222 7.41433C9.86556 7.44737 9.87928 7.47851 9.9014 7.50329C10.1526 7.90855 10.4033 8.31411 10.6535 8.71996L11.9365 10.7953C12.1097 11.0758 12.2831 11.356 12.4568 11.636C12.489 11.6735 12.5072 11.7211 12.5081 11.7706C12.4734 11.8396 12.401 11.859 12.3407 11.8904C12.2418 11.9618 12.1331 12.0186 12.0179 12.0589C11.9558 12.0434 11.9338 11.9873 11.9044 11.9415C11.5072 11.3219 11.115 10.6991 10.7204 10.078C10.3145 9.43963 9.91061 8.79883 9.50299 8.16107C9.45073 8.07926 9.44238 8.07872 9.39326 8.16107C9.03866 8.75761 8.68895 9.35696 8.33349 9.95285C8.31532 9.98078 8.30637 10.0137 8.30795 10.047C8.30952 10.0803 8.32153 10.1122 8.34226 10.1383C8.82107 10.8763 9.28885 11.6207 9.76257 12.3624C9.89469 12.5691 10.0278 12.775 10.1575 12.9832C10.1828 13.0236 10.2175 13.064 10.1945 13.1187C10.0702 13.2155 9.93597 13.2989 9.79417 13.3676C9.35168 13.6251 8.90898 13.8822 8.46605 14.1389C8.39511 14.1847 8.31243 14.2091 8.22798 14.2091C8.14353 14.2091 8.06088 14.1847 7.98993 14.1389C7.33752 13.7615 6.68394 13.3858 6.02915 13.0117C5.98404 12.9938 5.94497 12.9634 5.9165 12.9241Z" fill="#2D374B"/>
<path d="M13.6349 9.95698C13.6359 9.91835 13.6378 9.87983 13.6378 9.84131C13.6378 8.28033 13.6383 6.71942 13.6393 5.15859C13.6449 5.06393 13.6226 4.96971 13.5754 4.8875C13.5282 4.80528 13.4579 4.73865 13.3734 4.69579C11.7343 3.75612 10.0963 2.81434 8.4596 1.87042C8.38591 1.82247 8.29994 1.79684 8.21202 1.79661C8.1241 1.79638 8.03798 1.82156 7.96404 1.86912C7.05511 2.39738 6.145 2.92428 5.23376 3.4498C4.50265 3.87303 3.7716 4.29637 3.04056 4.71981C2.96248 4.76031 2.89775 4.82249 2.85416 4.89889C2.81056 4.97529 2.78997 5.06265 2.79482 5.15047C2.79857 6.64826 2.80068 8.14605 2.80119 9.64383C2.80119 9.67716 2.78767 9.71427 2.81678 9.7437C2.64365 10.032 2.45342 10.309 2.2711 10.5911C2.17977 10.7323 2.08808 10.8733 1.99604 11.014C1.98132 11.0366 1.96433 11.0573 1.93522 11.0975C1.93306 11.0503 1.93079 11.0242 1.93079 10.9982C1.93079 9.02305 1.93115 7.04786 1.93187 5.07267C1.92705 4.85345 1.9827 4.63714 2.09273 4.44746C2.20275 4.25779 2.36287 4.10208 2.55556 3.99743C3.19116 3.62 3.83521 3.25665 4.47503 2.88594C5.01487 2.57333 5.55287 2.25834 6.09238 1.94519C6.59554 1.65303 7.09361 1.35211 7.60531 1.07586C7.8013 0.966732 8.02299 0.912231 8.24723 0.918055C8.47147 0.92388 8.69004 0.989816 8.88009 1.10897C9.29127 1.34227 9.70073 1.57989 10.1107 1.81556C10.4964 2.03753 10.882 2.25964 11.2676 2.48189C11.6229 2.68648 11.9784 2.89084 12.3339 3.09499C12.6865 3.29747 13.039 3.49986 13.3916 3.70213C13.5466 3.79118 13.7014 3.88035 13.8554 3.97102C14.0254 4.0672 14.1716 4.20043 14.283 4.36081C14.3945 4.5212 14.4684 4.70463 14.4992 4.89748C14.5065 4.95318 14.5088 5.00942 14.506 5.06552C14.506 7.00912 14.5062 8.95276 14.5067 10.8964C14.5077 11.0811 14.4679 11.2637 14.39 11.4312C14.3122 11.5987 14.1982 11.7468 14.0564 11.8651C13.9754 11.9268 13.8884 11.9801 13.7966 12.0243C13.27 12.3315 12.7427 12.6375 12.2146 12.9422C11.6534 13.2668 11.092 13.5909 10.5303 13.9144C9.99068 14.227 9.45162 14.5408 8.91311 14.8558C8.77904 14.946 8.62814 15.0082 8.46946 15.0388C8.20586 15.0902 7.9327 15.0555 7.69038 14.9397C7.42181 14.7956 7.16018 14.6394 6.8954 14.4877C6.53983 14.2837 6.18444 14.0793 5.82924 13.8745C5.7289 13.8168 5.62846 13.7594 5.52798 13.7023C5.49108 13.6813 5.46588 13.66 5.49466 13.6119C5.62754 13.3893 5.75835 13.1654 5.89058 12.9424C5.89523 12.9343 5.90713 12.9305 5.91568 12.9245C6.03889 12.9821 6.15818 13.0477 6.27276 13.1209C6.85296 13.4528 7.43227 13.7862 8.01066 14.1213C8.07749 14.1635 8.1551 14.1856 8.23416 14.1847C8.31321 14.1839 8.39034 14.1602 8.45625 14.1165C9.00561 13.7942 9.55778 13.4765 10.1088 13.1572C10.136 13.1414 10.164 13.127 10.1917 13.1121C10.2436 13.0457 10.313 12.9951 10.3921 12.9659C10.8898 12.6806 11.3839 12.3898 11.8815 12.1053C11.9231 12.0816 11.9605 12.045 12.0146 12.0512L12.5022 11.7688C12.5319 11.7065 12.5955 11.6863 12.6487 11.6556C12.894 11.514 13.137 11.3684 13.3845 11.2313C13.4561 11.1936 13.5153 11.1361 13.555 11.0656C13.5947 10.995 13.6133 10.9146 13.6084 10.8338C13.6109 10.5856 13.6084 10.3372 13.6096 10.0889C13.601 10.0433 13.61 9.99614 13.6349 9.95698Z" fill="#96BEDC"/>
<path d="M13.6354 9.9569C13.6366 10.2651 13.6435 10.5737 13.6365 10.8814C13.6385 10.9535 13.6204 11.0247 13.5843 11.0872C13.5482 11.1496 13.4956 11.2009 13.4321 11.2352C13.1218 11.411 12.8171 11.5967 12.5039 11.7676C12.3794 11.5404 12.2356 11.324 12.0995 11.1032C11.3925 9.95741 10.6848 8.81223 9.97627 7.66769C9.93385 7.59909 9.89498 7.52789 9.84759 7.46308C9.83216 7.44448 9.82373 7.42107 9.82373 7.39691C9.82373 7.37274 9.83216 7.34934 9.84759 7.33074C10.0167 7.04789 10.183 6.76342 10.3504 6.47938L10.8151 5.6912C10.8233 5.67246 10.8378 5.65716 10.8561 5.64792C10.9369 5.77246 11.0184 5.89809 11.0997 6.02383C11.5886 6.78488 12.0773 7.54593 12.5658 8.30698C12.8972 8.82334 13.2285 9.33973 13.5597 9.85616C13.5779 9.89449 13.6036 9.92875 13.6354 9.9569Z" fill="#28A0F0"/>
<path d="M12.0163 12.0501C11.8145 12.1825 11.6005 12.2952 11.3925 12.418C11.0154 12.6397 10.6359 12.8573 10.2575 13.0765C10.2359 13.0888 10.2142 13.1002 10.1934 13.112C10.1886 13.077 10.1735 13.0442 10.1501 13.0178C9.81314 12.4882 9.47615 11.9588 9.13912 11.4294C8.86219 10.9947 8.58444 10.5604 8.30592 10.1266C8.28706 10.1041 8.27613 10.076 8.2748 10.0467C8.27347 10.0174 8.28183 9.98842 8.29857 9.9643C8.67087 9.33728 9.04163 8.70933 9.41083 8.08044C9.41959 8.06594 9.42662 8.04906 9.44837 8.0444C9.47866 8.05122 9.48602 8.08152 9.50041 8.10413C10.1713 9.16087 10.8422 10.2177 11.5131 11.2746C11.6558 11.4995 11.7978 11.725 11.9414 11.9496C11.9597 11.9876 11.985 12.0218 12.0161 12.0503L12.0163 12.0501Z" fill="#28A0F0"/>
</svg>
