<svg width="17" height="16" viewBox="0 0 17 16" fill="none" xmlns="http://www.w3.org/2000/svg">
<g clip-path="url(#clip0_118_556)">
<path d="M8.20056 0C12.6192 0 16.2006 3.58204 16.2006 8C16.2006 12.4187 12.6192 16 8.20056 16C3.7826 16 0.200562 12.4183 0.200562 8C0.200562 3.58204 3.7826 0 8.20056 0Z" fill="#F5AC37"/>
<path d="M8.49544 8.56485H11.5353C11.6001 8.56485 11.6307 8.56485 11.6354 8.47989C11.6602 8.17065 11.6602 7.8596 11.6354 7.55C11.6354 7.48988 11.6055 7.46504 11.5404 7.46504H5.49049C5.41561 7.46504 5.39545 7.48988 5.39545 7.56008V8.45001C5.39545 8.56485 5.39545 8.56485 5.51533 8.56485H8.49544ZM11.2959 6.42499C11.3045 6.40231 11.3045 6.37747 11.2959 6.35515C11.2451 6.24463 11.185 6.13915 11.1152 6.04015C11.0101 5.87094 10.8862 5.71506 10.7451 5.57502C10.6785 5.49042 10.6015 5.41446 10.5151 5.35002C10.0823 4.98173 9.56789 4.72109 9.01493 4.59005C8.73592 4.52741 8.4508 4.49753 8.16496 4.50005H5.48005C5.40517 4.50005 5.39509 4.52993 5.39509 4.59509V6.36991C5.39509 6.44479 5.39509 6.46495 5.49013 6.46495H11.2599C11.2599 6.46495 11.3099 6.45487 11.32 6.42499H11.2955H11.2959ZM11.2959 9.6049C11.2109 9.59554 11.1253 9.59554 11.0403 9.6049H5.49553C5.42065 9.6049 5.39545 9.6049 5.39545 9.70498V11.4402C5.39545 11.5201 5.39545 11.5403 5.49553 11.5403H8.05552C8.17792 11.5496 8.30032 11.541 8.4202 11.5154C8.79172 11.4888 9.15713 11.4082 9.50561 11.2753C9.63233 11.2314 9.75473 11.1742 9.87029 11.1054H9.90521C10.5053 10.7933 10.9928 10.3029 11.3002 9.70102C11.3002 9.70102 11.3351 9.62542 11.2959 9.60562V9.6049ZM4.39068 12.4399V12.41V11.2451V10.8502V9.6751C4.39068 9.60994 4.39068 9.60022 4.31076 9.60022H3.22571C3.16559 9.60022 3.14075 9.60022 3.14075 9.5203V8.57025H4.30068C4.36548 8.57025 4.39068 8.57025 4.39068 8.48529V7.54532C4.39068 7.4852 4.39068 7.47044 4.31076 7.47044H3.22571C3.16559 7.47044 3.14075 7.47044 3.14075 7.39052V6.51067C3.14075 6.45559 3.14075 6.44083 3.22067 6.44083H4.29564C4.37052 6.44083 4.39068 6.44083 4.39068 6.34579V3.6508C4.39068 3.57088 4.39068 3.55072 4.49076 3.55072H8.24056C8.51272 3.56152 8.78308 3.5914 9.05057 3.64072C9.60173 3.7426 10.1313 3.93952 10.6155 4.22069C10.9366 4.40969 11.2322 4.63793 11.4953 4.90073C11.6934 5.1063 11.8719 5.32878 12.0303 5.56566C12.1876 5.80578 12.3183 6.06247 12.4209 6.33067C12.4335 6.40051 12.5005 6.44767 12.5703 6.43579H13.4653C13.5801 6.43579 13.5801 6.43579 13.5852 6.54595V7.36604C13.5852 7.44596 13.5553 7.46612 13.475 7.46612H12.7849C12.715 7.46612 12.6949 7.46612 12.6999 7.55612C12.7273 7.86068 12.7273 8.16633 12.6999 8.47089C12.6999 8.55585 12.6999 8.56593 12.7953 8.56593H13.5848C13.6197 8.61093 13.5848 8.65593 13.5848 8.70129C13.5899 8.75925 13.5899 8.81793 13.5848 8.87589V9.48106C13.5848 9.56602 13.56 9.59122 13.4847 9.59122H12.5397C12.4738 9.57862 12.4098 9.62074 12.3946 9.68626C12.1696 10.2713 11.8096 10.7958 11.3445 11.2163C11.1746 11.3693 10.996 11.5133 10.8095 11.6461C10.6094 11.7613 10.4146 11.8812 10.2094 11.9762C9.83177 12.1462 9.43577 12.2714 9.02933 12.351C8.6434 12.4201 8.25208 12.4514 7.85931 12.446H4.38924V12.441L4.39068 12.4399Z" fill="#FEFEFD"/>
</g>
<defs>
<clipPath id="clip0_118_556">
<rect width="16" height="16" fill="white" transform="translate(0.200562)"/>
</clipPath>
</defs>
</svg>
