<svg width="17" height="16" viewBox="0 0 17 16" fill="none" xmlns="http://www.w3.org/2000/svg">
<path d="M13.033 0C11.1689 0 9.61549 1.5534 9.53782 3.41747V7.2233C9.22714 7.2233 8.83879 7.30097 8.45044 7.30097C8.06209 7.30097 7.67374 7.30097 7.36306 7.37864V3.41747C7.36306 1.5534 5.80966 0 3.86792 0C2.00384 0 0.528109 1.5534 0.450439 3.41747V12.5825C0.528109 14.4466 2.00384 16 3.94559 16C5.80966 15.9223 7.36306 14.4466 7.36306 12.5825V8.7767C7.67374 8.7767 8.06209 8.69903 8.45044 8.69903C8.83879 8.69903 9.22714 8.69903 9.53782 8.62136V12.5049C9.61549 14.3689 11.0912 15.9223 13.033 15.9223C14.897 15.8447 16.4504 14.3689 16.4504 12.5049V3.41747C16.4504 1.5534 14.897 0 13.033 0ZM3.94559 1.39806C5.11063 1.39806 5.965 2.3301 5.965 3.41747V7.45631C4.95529 7.61165 3.94558 7.92233 3.01355 8.31068C2.6252 8.54369 2.23685 8.69903 1.8485 9.00971V3.41747C1.92617 2.3301 2.78054 1.39806 3.94559 1.39806ZM5.965 12.5825C5.965 13.7476 5.03296 14.6019 3.94559 14.6019C2.85821 14.6019 1.92617 13.6699 1.92617 12.5825V11.6505C1.92617 10.8738 2.54753 10.0971 3.63491 9.63107C4.4116 9.32039 5.1883 9.08738 6.04267 8.93204L5.965 12.5825ZM13.033 14.6019C11.8679 14.6019 11.0135 13.6699 11.0135 12.5825V8.54369C12.0233 8.38835 13.033 8.07767 13.965 7.68932C14.3534 7.45631 14.7417 7.30097 15.1301 6.99029V12.5825C15.0524 13.7476 14.1203 14.6019 13.033 14.6019ZM13.3436 6.36893C12.5669 6.67961 11.7902 6.91262 10.9359 7.06796V3.41747C10.9359 2.25243 11.8679 1.39806 12.9553 1.39806C14.0427 1.39806 14.9747 2.3301 14.9747 3.41747V4.34951C15.0524 5.12621 14.431 5.90291 13.3436 6.36893Z" fill="url(#paint0_linear_115_498)"/>
<defs>
<linearGradient id="paint0_linear_115_498" x1="12.4548" y1="3.98408" x2="1.41238" y2="15.0266" gradientUnits="userSpaceOnUse">
<stop stop-color="#00E8A2"/>
<stop offset="1" stop-color="#00ADE8"/>
</linearGradient>
</defs>
</svg>
