<svg width="17" height="16" viewBox="0 0 17 16" fill="none" xmlns="http://www.w3.org/2000/svg">
<path d="M16.9491 8.02889C16.8531 3.46143 13.0468 -0.152762 8.46566 0.00497322C3.99421 0.15585 0.455456 3.90035 0.551469 8.37865C0.620049 11.6842 2.64317 14.496 5.48927 15.7305C5.89389 15.2161 6.22993 14.2972 6.39453 13.7828C6.55912 13.3645 6.73743 12.953 6.9226 12.5552C7.75242 12.8432 8.87029 12.5689 9.48751 11.9037L9.51494 11.8763C8.77427 11.5539 7.75242 11.7185 7.08033 12.2397C7.30665 11.7665 7.55354 11.307 7.80729 10.8613C8.62339 11.1905 9.75497 10.9641 10.3928 10.3332L10.4202 10.3058C9.70697 9.956 8.69883 10.0657 8.00617 10.5321C8.25992 10.1137 8.52052 9.70226 8.79485 9.31821C9.64524 9.57881 10.7631 9.25648 11.346 8.56382L11.3666 8.53639C10.674 8.26892 9.76869 8.42666 9.12403 8.87929C9.14461 8.85186 9.17204 8.81757 9.19261 8.79014C9.35721 8.57754 9.52866 8.36494 9.70011 8.15919C10.7014 7.87802 11.5929 6.85617 11.737 5.80003L11.7438 5.75888H11.737C10.7014 5.96462 9.74126 6.98647 9.54923 8.06318C9.38464 8.26207 9.22005 8.46095 9.06231 8.66669C9.32292 7.96717 9.27491 7.10991 8.89772 6.52012L8.87714 6.54755C8.30792 7.26765 8.21877 8.44038 8.65768 9.22219C8.39708 9.59253 8.14333 9.96972 7.9033 10.3675C8.05418 9.57195 7.80043 8.64612 7.23807 8.1249L7.22435 8.15919C6.85402 8.98902 7.0529 10.1343 7.66327 10.7858C7.42324 11.2042 7.19692 11.6362 6.97746 12.082C7.10777 11.2522 6.81287 10.292 6.22308 9.7777L6.20936 9.81199C5.87332 10.683 6.13392 11.8625 6.78544 12.4935C6.64142 12.8021 6.50426 13.1107 6.37395 13.433C6.33966 13.3987 6.29852 13.3782 6.25051 13.3576C6.07906 13.3096 5.84588 13.2204 5.58528 13.0627C5.41383 12.9598 5.22866 12.8775 5.04349 12.8158C4.30282 12.5758 4.41255 12.2192 4.0285 11.4991C4.00107 11.4511 3.69931 11.1356 3.63073 11.0739C3.61702 11.0602 3.41813 10.9436 3.32212 10.7378C3.23297 10.5458 3.1781 10.3675 3.16439 10.196C3.13695 9.96286 3.04094 9.81199 2.81463 9.72969C1.7242 9.3525 2.21112 7.93974 2.25227 7.75457C2.28656 7.59684 2.14254 7.24708 2.09453 7.05505C2.08767 7.03448 2.08081 7.00704 2.07396 6.96589C1.99852 6.5887 2.16997 6.26637 2.30027 6.13607C2.43057 6.00577 2.88321 5.79317 2.97922 5.66972C3.07523 5.54628 3.14381 5.40912 3.23983 5.29253C3.37013 5.1348 3.75418 4.82618 4.28225 4.545C4.59772 4.37355 4.65258 3.93464 4.77603 3.79748C4.98177 3.5643 5.29724 3.5643 5.53041 3.35856C5.647 3.25569 5.81845 3.20082 5.92818 3.0911C6.46997 2.53559 7.19006 2.31614 7.9033 2.17898C8.38336 2.08982 8.91829 2.22698 9.42579 2.31614C9.50123 2.32985 9.56981 2.34357 9.63839 2.36414C10.77 2.40529 12.1279 2.63846 12.6216 3.11853C12.9303 3.42028 13.0811 3.74261 13.1497 3.96893C13.232 4.22267 13.3417 4.46271 13.4789 4.68216L13.7807 5.17594C13.9727 5.48456 14.0344 5.86175 13.9521 6.21837C13.9041 6.42411 13.8835 6.63671 13.9384 6.75329C14.0344 6.93846 14.3224 7.24022 14.4939 7.41167C14.5762 7.49396 14.6722 7.5694 14.7682 7.63113C15.0014 7.77514 15.4403 8.06318 15.4403 8.08376C15.4403 8.11805 15.4746 8.25521 15.2826 8.42666C15.0905 8.59811 14.7202 8.86557 14.7202 8.86557C14.7202 8.86557 14.7408 8.98902 14.7888 9.08503C14.8436 9.18104 14.9671 9.33192 14.9259 9.46222C14.8848 9.59253 14.6173 9.70226 14.6928 9.84628C14.7682 9.99715 14.9602 10.0383 14.9054 10.1755C14.8505 10.3058 14.583 10.5389 14.6105 10.635C14.6379 10.731 14.8574 11.6499 14.3499 11.8077C13.9727 11.9311 12.9303 11.9928 12.4433 12.0203C12.2307 12.034 12.0456 12.1506 11.9427 12.3357C11.8673 12.4729 11.7918 12.6649 11.7575 12.9187C11.6615 13.5633 11.0237 15.0515 11.0237 15.0515C11.0237 15.0515 11.0031 15.0927 10.9757 15.1544C10.9208 15.2916 10.8385 15.4973 10.8523 15.5865C10.8591 15.6413 10.9346 15.7511 11.0443 15.8814C11.1334 15.9842 11.2775 16.0254 11.4078 15.9842C14.6928 14.8321 17.0245 11.6842 16.9491 8.02889Z" fill="#00DACC"/>
</svg>
