<svg width="17" height="16" viewBox="0 0 17 16" fill="none" xmlns="http://www.w3.org/2000/svg">
<path d="M13.0245 5.25663C12.8719 5.16868 12.6989 5.12238 12.5227 5.12238C12.3466 5.12238 12.1735 5.16868 12.0209 5.25663L9.71831 6.62829L8.15377 7.52287L5.8512 8.89458C5.69858 8.98253 5.52553 9.02882 5.34938 9.02882C5.17323 9.02882 5.00017 8.98253 4.84755 8.89458L3.01732 7.8211C2.86714 7.73141 2.74226 7.60497 2.65446 7.45367C2.56666 7.30237 2.51883 7.13121 2.51549 6.95631V4.83916C2.51257 4.663 2.55775 4.48939 2.64618 4.33701C2.73461 4.18463 2.86293 4.05926 3.01732 3.9744L4.81803 2.93073C4.97066 2.84277 5.14372 2.79648 5.31987 2.79648C5.49603 2.79648 5.66909 2.84277 5.82172 2.93073L7.62242 3.9744C7.7726 4.06409 7.89747 4.19053 7.98527 4.34182C8.07306 4.49312 8.12088 4.66427 8.12423 4.83916V6.21085L9.68878 5.28645V3.91474C9.6917 3.73859 9.64652 3.56498 9.5581 3.4126C9.46967 3.26022 9.34136 3.13485 9.18697 3.04999L5.8512 1.08194C5.69858 0.993989 5.52553 0.947693 5.34938 0.947693C5.17323 0.947693 5.00017 0.993989 4.84755 1.08194L1.45277 3.05001C1.29838 3.13488 1.17007 3.26024 1.08164 3.41262C0.993212 3.56499 0.948023 3.7386 0.950939 3.91474V7.88071C0.948021 8.05687 0.993209 8.23048 1.08164 8.38285C1.17007 8.53523 1.29839 8.66059 1.45278 8.74545L4.84756 10.7135C5.00017 10.8015 5.17323 10.8478 5.34939 10.8478C5.52554 10.8478 5.6986 10.8015 5.85121 10.7135L8.15378 9.37165L9.71832 8.44727L12.0209 7.10541C12.1735 7.01746 12.3466 6.97116 12.5227 6.97116C12.6989 6.97116 12.8719 7.01746 13.0245 7.10541L14.8253 8.1491C14.9754 8.23878 15.1003 8.36522 15.1881 8.51651C15.2759 8.6678 15.3237 8.83895 15.3271 9.01383V11.131C15.33 11.3072 15.2848 11.4808 15.1964 11.6331C15.108 11.7855 14.9796 11.9109 14.8253 11.9958L13.0245 13.0693C12.8719 13.1572 12.6989 13.2035 12.5227 13.2035C12.3466 13.2035 12.1735 13.1572 12.0209 13.0693L10.2202 12.0256C10.07 11.9359 9.9451 11.8095 9.85729 11.6582C9.76949 11.5069 9.72166 11.3357 9.71832 11.1608V9.78914L8.15378 10.7135V12.0852C8.15085 12.2614 8.19604 12.435 8.28446 12.5874C8.37288 12.7397 8.5012 12.8651 8.65559 12.95L12.0504 14.9181C12.203 15.006 12.3761 15.0523 12.5522 15.0523C12.7284 15.0523 12.9014 15.006 13.054 14.9181L16.4488 12.95C16.599 12.8603 16.7239 12.7339 16.8117 12.5826C16.8995 12.4313 16.9473 12.2601 16.9507 12.0852V8.11926C16.9536 7.9431 16.9084 7.76949 16.82 7.61712C16.7315 7.46474 16.6032 7.33938 16.4488 7.25452L13.0245 5.25663Z" fill="#7B3FE4"/>
</svg>
