<svg width="38" height="38" fill="none" xmlns="http://www.w3.org/2000/svg"><path d="M5.178 11.02 19 19.016l13.822-7.996M19 34.96V19m14.25 6.333V12.667a3.167 3.167 0 0 0-1.583-2.74L20.583 3.595a3.166 3.166 0 0 0-3.166 0L6.333 9.928a3.167 3.167 0 0 0-1.583 2.739v12.666a3.166 3.166 0 0 0 1.583 2.74l11.084 6.333a3.166 3.166 0 0 0 3.166 0l11.084-6.333a3.167 3.167 0 0 0 1.583-2.74z" stroke="url(#a)" stroke-width="2.5" stroke-linecap="round" stroke-linejoin="round"/><defs><linearGradient id="a" x1="4.75" y1="21.688" x2="23.62" y2="21.596" gradientUnits="userSpaceOnUse"><stop stop-color="#F78C69"/><stop offset=".485" stop-color="#F35826"/><stop offset="1" stop-color="#E8420D"/></linearGradient></defs></svg>