<svg width="38" height="38" fill="none" xmlns="http://www.w3.org/2000/svg"><path d="M26.915 33.25v-3.167a6.333 6.333 0 0 0-6.333-6.333H7.915a6.333 6.333 0 0 0-6.333 6.333v3.167m34.833 0v-3.167a6.334 6.334 0 0 0-4.75-6.127m-6.333-19a6.333 6.333 0 0 1 0 12.27m-4.75-6.143a6.333 6.333 0 1 1-12.667 0 6.333 6.333 0 0 1 12.667 0z" stroke="url(#a)" stroke-width="2.5" stroke-linecap="round" stroke-linejoin="round"/><defs><linearGradient id="a" x1="1.582" y1="21.352" x2="24.645" y2="21.198" gradientUnits="userSpaceOnUse"><stop stop-color="#F78C69"/><stop offset=".485" stop-color="#F35826"/><stop offset="1" stop-color="#E8420D"/></linearGradient></defs></svg>