<svg width="38" height="38" viewBox="0 0 38 38" fill="none" xmlns="http://www.w3.org/2000/svg">
<path d="M26.9154 33.25V30.0833C26.9154 28.4036 26.2481 26.7927 25.0604 25.605C23.8726 24.4173 22.2617 23.75 20.582 23.75H7.91537C6.23566 23.75 4.62475 24.4173 3.43702 25.605C2.24929 26.7927 1.58203 28.4036 1.58203 30.0833V33.25M36.4154 33.25V30.0833C36.4143 28.6801 35.9473 27.3169 35.0875 26.2078C34.2278 25.0988 33.0241 24.3066 31.6654 23.9558M25.332 4.95583C26.6944 5.30464 27.9018 6.09694 28.7641 7.20782C29.6264 8.31871 30.0945 9.68498 30.0945 11.0913C30.0945 12.4975 29.6264 13.8638 28.7641 14.9747C27.9018 16.0856 26.6944 16.8779 25.332 17.2267M20.582 11.0833C20.582 14.5811 17.7465 17.4167 14.2487 17.4167C10.7509 17.4167 7.91537 14.5811 7.91537 11.0833C7.91537 7.58553 10.7509 4.75 14.2487 4.75C17.7465 4.75 20.582 7.58553 20.582 11.0833Z" stroke="url(#paint0_linear_9432_69519)" stroke-width="2.5" stroke-linecap="round" stroke-linejoin="round"/>
<defs>
<linearGradient id="paint0_linear_9432_69519" x1="1.58203" y1="21.3519" x2="24.6451" y2="21.1982" gradientUnits="userSpaceOnUse">
<stop stop-color="#F78C69"/>
<stop offset="0.484578" stop-color="#F35826"/>
<stop offset="1" stop-color="#E8420D"/>
</linearGradient>
</defs>
</svg>
