<svg width="38" height="38" viewBox="0 0 38 38" fill="none" xmlns="http://www.w3.org/2000/svg">
<path d="M23.7487 11.084H28.4987C29.5383 11.084 30.5678 11.2888 31.5283 11.6866C32.4888 12.0845 33.3615 12.6676 34.0966 13.4027C34.8318 14.1379 35.4149 15.0106 35.8127 15.9711C36.2106 16.9316 36.4154 17.961 36.4154 19.0007C36.4154 20.0403 36.2106 21.0697 35.8127 22.0302C35.4149 22.9907 34.8318 23.8634 34.0966 24.5986C33.3615 25.3337 32.4888 25.9168 31.5283 26.3147C30.5678 26.7125 29.5383 26.9173 28.4987 26.9173H23.7487M14.2487 26.9173H9.4987C8.45907 26.9173 7.42962 26.7125 6.46912 26.3147C5.50863 25.9168 4.6359 25.3337 3.90077 24.5986C2.41611 23.1139 1.58203 21.1003 1.58203 19.0007C1.58203 16.901 2.41611 14.8874 3.90077 13.4027C5.38543 11.9181 7.39907 11.084 9.4987 11.084H14.2487M12.6654 19.0007H25.332" stroke="url(#paint0_linear_9432_69515)" stroke-width="2.5" stroke-linecap="round" stroke-linejoin="round"/>
<defs>
<linearGradient id="paint0_linear_9432_69515" x1="1.58203" y1="20.3073" x2="24.6428" y2="20.0306" gradientUnits="userSpaceOnUse">
<stop stop-color="#F78C69"/>
<stop offset="0.484578" stop-color="#F35826"/>
<stop offset="1" stop-color="#E8420D"/>
</linearGradient>
</defs>
</svg>
